<?xml version="1.0" encoding="utf-8" standalone="no"?>
<!DOCTYPE svg PUBLIC "-//W3C//DTD SVG 1.1//EN"
  "http://www.w3.org/Graphics/SVG/1.1/DTD/svg11.dtd">
<svg xmlns:xlink="http://www.w3.org/1999/xlink" width="720pt" height="720pt" viewBox="0 0 720 720" xmlns="http://www.w3.org/2000/svg" version="1.1">
 <metadata>
  <rdf:RDF xmlns:dc="http://purl.org/dc/elements/1.1/" xmlns:cc="http://creativecommons.org/ns#" xmlns:rdf="http://www.w3.org/1999/02/22-rdf-syntax-ns#">
   <cc:Work>
    <dc:type rdf:resource="http://purl.org/dc/dcmitype/StillImage"/>
    <dc:date>2025-04-29T23:22:00.779847</dc:date>
    <dc:format>image/svg+xml</dc:format>
    <dc:creator>
     <cc:Agent>
      <dc:title>Matplotlib v3.10.1, https://matplotlib.org/</dc:title>
     </cc:Agent>
    </dc:creator>
   </cc:Work>
  </rdf:RDF>
 </metadata>
 <defs>
  <style type="text/css">*{stroke-linejoin: round; stroke-linecap: butt}</style>
 </defs>
 <g id="figure_1">
  <g id="patch_1">
   <path d="M 0 720 
L 720 720 
L 720 0 
L 0 0 
z
" style="fill: #ffffff"/>
  </g>
  <g id="axes_1">
   <g id="patch_2">
    <path d="M 104.96 304.72 
L 700.56 304.72 
L 700.56 42 
L 104.96 42 
z
" style="fill: #ffffff"/>
   </g>
   <g id="matplotlib.axis_1">
    <g id="xtick_1">
     <g id="line2d_1">
      <defs>
       <path id="ma9b362279d" d="M 0 0 
L 0 3.5 
" style="stroke: #000000; stroke-width: 0.8"/>
      </defs>
      <g>
       <use xlink:href="#ma9b362279d" x="104.96" y="304.72" style="stroke: #000000; stroke-width: 0.8"/>
      </g>
     </g>
     <g id="text_1">
      <!-- 0 -->
      <g transform="translate(99.23375 325.397188) scale(0.18 -0.18)">
       <defs>
        <path id="DejaVuSans-30" d="M 2034 4250 
Q 1547 4250 1301 3770 
Q 1056 3291 1056 2328 
Q 1056 1369 1301 889 
Q 1547 409 2034 409 
Q 2525 409 2770 889 
Q 3016 1369 3016 2328 
Q 3016 3291 2770 3770 
Q 2525 4250 2034 4250 
z
M 2034 4750 
Q 2819 4750 3233 4129 
Q 3647 3509 3647 2328 
Q 3647 1150 3233 529 
Q 2819 -91 2034 -91 
Q 1250 -91 836 529 
Q 422 1150 422 2328 
Q 422 3509 836 4129 
Q 1250 4750 2034 4750 
z
" transform="scale(0.015625)"/>
       </defs>
       <use xlink:href="#DejaVuSans-30"/>
      </g>
     </g>
    </g>
    <g id="xtick_2">
     <g id="line2d_2">
      <g>
       <use xlink:href="#ma9b362279d" x="135.50359" y="304.72" style="stroke: #000000; stroke-width: 0.8"/>
      </g>
     </g>
     <g id="text_2">
      <!-- 2 -->
      <g transform="translate(129.77734 325.397188) scale(0.18 -0.18)">
       <defs>
        <path id="DejaVuSans-32" d="M 1228 531 
L 3431 531 
L 3431 0 
L 469 0 
L 469 531 
Q 828 903 1448 1529 
Q 2069 2156 2228 2338 
Q 2531 2678 2651 2914 
Q 2772 3150 2772 3378 
Q 2772 3750 2511 3984 
Q 2250 4219 1831 4219 
Q 1534 4219 1204 4116 
Q 875 4013 500 3803 
L 500 4441 
Q 881 4594 1212 4672 
Q 1544 4750 1819 4750 
Q 2544 4750 2975 4387 
Q 3406 4025 3406 3419 
Q 3406 3131 3298 2873 
Q 3191 2616 2906 2266 
Q 2828 2175 2409 1742 
Q 1991 1309 1228 531 
z
" transform="scale(0.015625)"/>
       </defs>
       <use xlink:href="#DejaVuSans-32"/>
      </g>
     </g>
    </g>
    <g id="xtick_3">
     <g id="line2d_3">
      <g>
       <use xlink:href="#ma9b362279d" x="166.047179" y="304.72" style="stroke: #000000; stroke-width: 0.8"/>
      </g>
     </g>
     <g id="text_3">
      <!-- 4 -->
      <g transform="translate(160.320929 325.397188) scale(0.18 -0.18)">
       <defs>
        <path id="DejaVuSans-34" d="M 2419 4116 
L 825 1625 
L 2419 1625 
L 2419 4116 
z
M 2253 4666 
L 3047 4666 
L 3047 1625 
L 3713 1625 
L 3713 1100 
L 3047 1100 
L 3047 0 
L 2419 0 
L 2419 1100 
L 313 1100 
L 313 1709 
L 2253 4666 
z
" transform="scale(0.015625)"/>
       </defs>
       <use xlink:href="#DejaVuSans-34"/>
      </g>
     </g>
    </g>
    <g id="xtick_4">
     <g id="line2d_4">
      <g>
       <use xlink:href="#ma9b362279d" x="196.590769" y="304.72" style="stroke: #000000; stroke-width: 0.8"/>
      </g>
     </g>
     <g id="text_4">
      <!-- 6 -->
      <g transform="translate(190.864519 325.397188) scale(0.18 -0.18)">
       <defs>
        <path id="DejaVuSans-36" d="M 2113 2584 
Q 1688 2584 1439 2293 
Q 1191 2003 1191 1497 
Q 1191 994 1439 701 
Q 1688 409 2113 409 
Q 2538 409 2786 701 
Q 3034 994 3034 1497 
Q 3034 2003 2786 2293 
Q 2538 2584 2113 2584 
z
M 3366 4563 
L 3366 3988 
Q 3128 4100 2886 4159 
Q 2644 4219 2406 4219 
Q 1781 4219 1451 3797 
Q 1122 3375 1075 2522 
Q 1259 2794 1537 2939 
Q 1816 3084 2150 3084 
Q 2853 3084 3261 2657 
Q 3669 2231 3669 1497 
Q 3669 778 3244 343 
Q 2819 -91 2113 -91 
Q 1303 -91 875 529 
Q 447 1150 447 2328 
Q 447 3434 972 4092 
Q 1497 4750 2381 4750 
Q 2619 4750 2861 4703 
Q 3103 4656 3366 4563 
z
" transform="scale(0.015625)"/>
       </defs>
       <use xlink:href="#DejaVuSans-36"/>
      </g>
     </g>
    </g>
    <g id="xtick_5">
     <g id="line2d_5">
      <g>
       <use xlink:href="#ma9b362279d" x="227.134359" y="304.72" style="stroke: #000000; stroke-width: 0.8"/>
      </g>
     </g>
     <g id="text_5">
      <!-- 8 -->
      <g transform="translate(221.408109 325.397188) scale(0.18 -0.18)">
       <defs>
        <path id="DejaVuSans-38" d="M 2034 2216 
Q 1584 2216 1326 1975 
Q 1069 1734 1069 1313 
Q 1069 891 1326 650 
Q 1584 409 2034 409 
Q 2484 409 2743 651 
Q 3003 894 3003 1313 
Q 3003 1734 2745 1975 
Q 2488 2216 2034 2216 
z
M 1403 2484 
Q 997 2584 770 2862 
Q 544 3141 544 3541 
Q 544 4100 942 4425 
Q 1341 4750 2034 4750 
Q 2731 4750 3128 4425 
Q 3525 4100 3525 3541 
Q 3525 3141 3298 2862 
Q 3072 2584 2669 2484 
Q 3125 2378 3379 2068 
Q 3634 1759 3634 1313 
Q 3634 634 3220 271 
Q 2806 -91 2034 -91 
Q 1263 -91 848 271 
Q 434 634 434 1313 
Q 434 1759 690 2068 
Q 947 2378 1403 2484 
z
M 1172 3481 
Q 1172 3119 1398 2916 
Q 1625 2713 2034 2713 
Q 2441 2713 2670 2916 
Q 2900 3119 2900 3481 
Q 2900 3844 2670 4047 
Q 2441 4250 2034 4250 
Q 1625 4250 1398 4047 
Q 1172 3844 1172 3481 
z
" transform="scale(0.015625)"/>
       </defs>
       <use xlink:href="#DejaVuSans-38"/>
      </g>
     </g>
    </g>
    <g id="xtick_6">
     <g id="line2d_6">
      <g>
       <use xlink:href="#ma9b362279d" x="257.677949" y="304.72" style="stroke: #000000; stroke-width: 0.8"/>
      </g>
     </g>
     <g id="text_6">
      <!-- 10 -->
      <g transform="translate(246.225449 325.397188) scale(0.18 -0.18)">
       <defs>
        <path id="DejaVuSans-31" d="M 794 531 
L 1825 531 
L 1825 4091 
L 703 3866 
L 703 4441 
L 1819 4666 
L 2450 4666 
L 2450 531 
L 3481 531 
L 3481 0 
L 794 0 
L 794 531 
z
" transform="scale(0.015625)"/>
       </defs>
       <use xlink:href="#DejaVuSans-31"/>
       <use xlink:href="#DejaVuSans-30" transform="translate(63.623047 0)"/>
      </g>
     </g>
    </g>
    <g id="xtick_7">
     <g id="line2d_7">
      <g>
       <use xlink:href="#ma9b362279d" x="288.221538" y="304.72" style="stroke: #000000; stroke-width: 0.8"/>
      </g>
     </g>
     <g id="text_7">
      <!-- 12 -->
      <g transform="translate(276.769038 325.397188) scale(0.18 -0.18)">
       <use xlink:href="#DejaVuSans-31"/>
       <use xlink:href="#DejaVuSans-32" transform="translate(63.623047 0)"/>
      </g>
     </g>
    </g>
    <g id="xtick_8">
     <g id="line2d_8">
      <g>
       <use xlink:href="#ma9b362279d" x="318.765128" y="304.72" style="stroke: #000000; stroke-width: 0.8"/>
      </g>
     </g>
     <g id="text_8">
      <!-- 14 -->
      <g transform="translate(307.312628 325.397188) scale(0.18 -0.18)">
       <use xlink:href="#DejaVuSans-31"/>
       <use xlink:href="#DejaVuSans-34" transform="translate(63.623047 0)"/>
      </g>
     </g>
    </g>
    <g id="xtick_9">
     <g id="line2d_9">
      <g>
       <use xlink:href="#ma9b362279d" x="349.308718" y="304.72" style="stroke: #000000; stroke-width: 0.8"/>
      </g>
     </g>
     <g id="text_9">
      <!-- 16 -->
      <g transform="translate(337.856218 325.397188) scale(0.18 -0.18)">
       <use xlink:href="#DejaVuSans-31"/>
       <use xlink:href="#DejaVuSans-36" transform="translate(63.623047 0)"/>
      </g>
     </g>
    </g>
    <g id="xtick_10">
     <g id="line2d_10">
      <g>
       <use xlink:href="#ma9b362279d" x="379.852308" y="304.72" style="stroke: #000000; stroke-width: 0.8"/>
      </g>
     </g>
     <g id="text_10">
      <!-- 18 -->
      <g transform="translate(368.399808 325.397188) scale(0.18 -0.18)">
       <use xlink:href="#DejaVuSans-31"/>
       <use xlink:href="#DejaVuSans-38" transform="translate(63.623047 0)"/>
      </g>
     </g>
    </g>
    <g id="xtick_11">
     <g id="line2d_11">
      <g>
       <use xlink:href="#ma9b362279d" x="410.395897" y="304.72" style="stroke: #000000; stroke-width: 0.8"/>
      </g>
     </g>
     <g id="text_11">
      <!-- 20 -->
      <g transform="translate(398.943397 325.397188) scale(0.18 -0.18)">
       <use xlink:href="#DejaVuSans-32"/>
       <use xlink:href="#DejaVuSans-30" transform="translate(63.623047 0)"/>
      </g>
     </g>
    </g>
    <g id="xtick_12">
     <g id="line2d_12">
      <g>
       <use xlink:href="#ma9b362279d" x="440.939487" y="304.72" style="stroke: #000000; stroke-width: 0.8"/>
      </g>
     </g>
     <g id="text_12">
      <!-- 22 -->
      <g transform="translate(429.486987 325.397188) scale(0.18 -0.18)">
       <use xlink:href="#DejaVuSans-32"/>
       <use xlink:href="#DejaVuSans-32" transform="translate(63.623047 0)"/>
      </g>
     </g>
    </g>
    <g id="xtick_13">
     <g id="line2d_13">
      <g>
       <use xlink:href="#ma9b362279d" x="471.483077" y="304.72" style="stroke: #000000; stroke-width: 0.8"/>
      </g>
     </g>
     <g id="text_13">
      <!-- 24 -->
      <g transform="translate(460.030577 325.397188) scale(0.18 -0.18)">
       <use xlink:href="#DejaVuSans-32"/>
       <use xlink:href="#DejaVuSans-34" transform="translate(63.623047 0)"/>
      </g>
     </g>
    </g>
    <g id="xtick_14">
     <g id="line2d_14">
      <g>
       <use xlink:href="#ma9b362279d" x="502.026667" y="304.72" style="stroke: #000000; stroke-width: 0.8"/>
      </g>
     </g>
     <g id="text_14">
      <!-- 26 -->
      <g transform="translate(490.574167 325.397188) scale(0.18 -0.18)">
       <use xlink:href="#DejaVuSans-32"/>
       <use xlink:href="#DejaVuSans-36" transform="translate(63.623047 0)"/>
      </g>
     </g>
    </g>
    <g id="xtick_15">
     <g id="line2d_15">
      <g>
       <use xlink:href="#ma9b362279d" x="532.570256" y="304.72" style="stroke: #000000; stroke-width: 0.8"/>
      </g>
     </g>
     <g id="text_15">
      <!-- 28 -->
      <g transform="translate(521.117756 325.397188) scale(0.18 -0.18)">
       <use xlink:href="#DejaVuSans-32"/>
       <use xlink:href="#DejaVuSans-38" transform="translate(63.623047 0)"/>
      </g>
     </g>
    </g>
    <g id="xtick_16">
     <g id="line2d_16">
      <g>
       <use xlink:href="#ma9b362279d" x="563.113846" y="304.72" style="stroke: #000000; stroke-width: 0.8"/>
      </g>
     </g>
     <g id="text_16">
      <!-- 30 -->
      <g transform="translate(551.661346 325.397188) scale(0.18 -0.18)">
       <defs>
        <path id="DejaVuSans-33" d="M 2597 2516 
Q 3050 2419 3304 2112 
Q 3559 1806 3559 1356 
Q 3559 666 3084 287 
Q 2609 -91 1734 -91 
Q 1441 -91 1130 -33 
Q 819 25 488 141 
L 488 750 
Q 750 597 1062 519 
Q 1375 441 1716 441 
Q 2309 441 2620 675 
Q 2931 909 2931 1356 
Q 2931 1769 2642 2001 
Q 2353 2234 1838 2234 
L 1294 2234 
L 1294 2753 
L 1863 2753 
Q 2328 2753 2575 2939 
Q 2822 3125 2822 3475 
Q 2822 3834 2567 4026 
Q 2313 4219 1838 4219 
Q 1578 4219 1281 4162 
Q 984 4106 628 3988 
L 628 4550 
Q 988 4650 1302 4700 
Q 1616 4750 1894 4750 
Q 2613 4750 3031 4423 
Q 3450 4097 3450 3541 
Q 3450 3153 3228 2886 
Q 3006 2619 2597 2516 
z
" transform="scale(0.015625)"/>
       </defs>
       <use xlink:href="#DejaVuSans-33"/>
       <use xlink:href="#DejaVuSans-30" transform="translate(63.623047 0)"/>
      </g>
     </g>
    </g>
    <g id="xtick_17">
     <g id="line2d_17">
      <g>
       <use xlink:href="#ma9b362279d" x="593.657436" y="304.72" style="stroke: #000000; stroke-width: 0.8"/>
      </g>
     </g>
     <g id="text_17">
      <!-- 32 -->
      <g transform="translate(582.204936 325.397188) scale(0.18 -0.18)">
       <use xlink:href="#DejaVuSans-33"/>
       <use xlink:href="#DejaVuSans-32" transform="translate(63.623047 0)"/>
      </g>
     </g>
    </g>
    <g id="xtick_18">
     <g id="line2d_18">
      <g>
       <use xlink:href="#ma9b362279d" x="624.201026" y="304.72" style="stroke: #000000; stroke-width: 0.8"/>
      </g>
     </g>
     <g id="text_18">
      <!-- 34 -->
      <g transform="translate(612.748526 325.397188) scale(0.18 -0.18)">
       <use xlink:href="#DejaVuSans-33"/>
       <use xlink:href="#DejaVuSans-34" transform="translate(63.623047 0)"/>
      </g>
     </g>
    </g>
    <g id="xtick_19">
     <g id="line2d_19">
      <g>
       <use xlink:href="#ma9b362279d" x="654.744615" y="304.72" style="stroke: #000000; stroke-width: 0.8"/>
      </g>
     </g>
     <g id="text_19">
      <!-- 36 -->
      <g transform="translate(643.292115 325.397188) scale(0.18 -0.18)">
       <use xlink:href="#DejaVuSans-33"/>
       <use xlink:href="#DejaVuSans-36" transform="translate(63.623047 0)"/>
      </g>
     </g>
    </g>
    <g id="xtick_20">
     <g id="line2d_20">
      <g>
       <use xlink:href="#ma9b362279d" x="685.288205" y="304.72" style="stroke: #000000; stroke-width: 0.8"/>
      </g>
     </g>
     <g id="text_20">
      <!-- 38 -->
      <g transform="translate(673.835705 325.397188) scale(0.18 -0.18)">
       <use xlink:href="#DejaVuSans-33"/>
       <use xlink:href="#DejaVuSans-38" transform="translate(63.623047 0)"/>
      </g>
     </g>
    </g>
    <g id="text_21">
     <!-- Iteration -->
     <g transform="translate(364.584531 346.817813) scale(0.18 -0.18)">
      <defs>
       <path id="DejaVuSans-49" d="M 628 4666 
L 1259 4666 
L 1259 0 
L 628 0 
L 628 4666 
z
" transform="scale(0.015625)"/>
       <path id="DejaVuSans-74" d="M 1172 4494 
L 1172 3500 
L 2356 3500 
L 2356 3053 
L 1172 3053 
L 1172 1153 
Q 1172 725 1289 603 
Q 1406 481 1766 481 
L 2356 481 
L 2356 0 
L 1766 0 
Q 1100 0 847 248 
Q 594 497 594 1153 
L 594 3053 
L 172 3053 
L 172 3500 
L 594 3500 
L 594 4494 
L 1172 4494 
z
" transform="scale(0.015625)"/>
       <path id="DejaVuSans-65" d="M 3597 1894 
L 3597 1613 
L 953 1613 
Q 991 1019 1311 708 
Q 1631 397 2203 397 
Q 2534 397 2845 478 
Q 3156 559 3463 722 
L 3463 178 
Q 3153 47 2828 -22 
Q 2503 -91 2169 -91 
Q 1331 -91 842 396 
Q 353 884 353 1716 
Q 353 2575 817 3079 
Q 1281 3584 2069 3584 
Q 2775 3584 3186 3129 
Q 3597 2675 3597 1894 
z
M 3022 2063 
Q 3016 2534 2758 2815 
Q 2500 3097 2075 3097 
Q 1594 3097 1305 2825 
Q 1016 2553 972 2059 
L 3022 2063 
z
" transform="scale(0.015625)"/>
       <path id="DejaVuSans-72" d="M 2631 2963 
Q 2534 3019 2420 3045 
Q 2306 3072 2169 3072 
Q 1681 3072 1420 2755 
Q 1159 2438 1159 1844 
L 1159 0 
L 581 0 
L 581 3500 
L 1159 3500 
L 1159 2956 
Q 1341 3275 1631 3429 
Q 1922 3584 2338 3584 
Q 2397 3584 2469 3576 
Q 2541 3569 2628 3553 
L 2631 2963 
z
" transform="scale(0.015625)"/>
       <path id="DejaVuSans-61" d="M 2194 1759 
Q 1497 1759 1228 1600 
Q 959 1441 959 1056 
Q 959 750 1161 570 
Q 1363 391 1709 391 
Q 2188 391 2477 730 
Q 2766 1069 2766 1631 
L 2766 1759 
L 2194 1759 
z
M 3341 1997 
L 3341 0 
L 2766 0 
L 2766 531 
Q 2569 213 2275 61 
Q 1981 -91 1556 -91 
Q 1019 -91 701 211 
Q 384 513 384 1019 
Q 384 1609 779 1909 
Q 1175 2209 1959 2209 
L 2766 2209 
L 2766 2266 
Q 2766 2663 2505 2880 
Q 2244 3097 1772 3097 
Q 1472 3097 1187 3025 
Q 903 2953 641 2809 
L 641 3341 
Q 956 3463 1253 3523 
Q 1550 3584 1831 3584 
Q 2591 3584 2966 3190 
Q 3341 2797 3341 1997 
z
" transform="scale(0.015625)"/>
       <path id="DejaVuSans-69" d="M 603 3500 
L 1178 3500 
L 1178 0 
L 603 0 
L 603 3500 
z
M 603 4863 
L 1178 4863 
L 1178 4134 
L 603 4134 
L 603 4863 
z
" transform="scale(0.015625)"/>
       <path id="DejaVuSans-6f" d="M 1959 3097 
Q 1497 3097 1228 2736 
Q 959 2375 959 1747 
Q 959 1119 1226 758 
Q 1494 397 1959 397 
Q 2419 397 2687 759 
Q 2956 1122 2956 1747 
Q 2956 2369 2687 2733 
Q 2419 3097 1959 3097 
z
M 1959 3584 
Q 2709 3584 3137 3096 
Q 3566 2609 3566 1747 
Q 3566 888 3137 398 
Q 2709 -91 1959 -91 
Q 1206 -91 779 398 
Q 353 888 353 1747 
Q 353 2609 779 3096 
Q 1206 3584 1959 3584 
z
" transform="scale(0.015625)"/>
       <path id="DejaVuSans-6e" d="M 3513 2113 
L 3513 0 
L 2938 0 
L 2938 2094 
Q 2938 2591 2744 2837 
Q 2550 3084 2163 3084 
Q 1697 3084 1428 2787 
Q 1159 2491 1159 1978 
L 1159 0 
L 581 0 
L 581 3500 
L 1159 3500 
L 1159 2956 
Q 1366 3272 1645 3428 
Q 1925 3584 2291 3584 
Q 2894 3584 3203 3211 
Q 3513 2838 3513 2113 
z
" transform="scale(0.015625)"/>
      </defs>
      <use xlink:href="#DejaVuSans-49"/>
      <use xlink:href="#DejaVuSans-74" transform="translate(29.492188 0)"/>
      <use xlink:href="#DejaVuSans-65" transform="translate(68.701172 0)"/>
      <use xlink:href="#DejaVuSans-72" transform="translate(130.224609 0)"/>
      <use xlink:href="#DejaVuSans-61" transform="translate(171.337891 0)"/>
      <use xlink:href="#DejaVuSans-74" transform="translate(232.617188 0)"/>
      <use xlink:href="#DejaVuSans-69" transform="translate(271.826172 0)"/>
      <use xlink:href="#DejaVuSans-6f" transform="translate(299.609375 0)"/>
      <use xlink:href="#DejaVuSans-6e" transform="translate(360.791016 0)"/>
     </g>
    </g>
   </g>
   <g id="matplotlib.axis_2">
    <g id="ytick_1">
     <g id="line2d_21">
      <defs>
       <path id="me7f02af464" d="M 0 0 
L -3.5 0 
" style="stroke: #000000; stroke-width: 0.8"/>
      </defs>
      <g>
       <use xlink:href="#me7f02af464" x="104.96" y="278.342048" style="stroke: #000000; stroke-width: 0.8"/>
      </g>
     </g>
     <g id="text_22">
      <!-- 30000 -->
      <g transform="translate(40.6975 285.180641) scale(0.18 -0.18)">
       <use xlink:href="#DejaVuSans-33"/>
       <use xlink:href="#DejaVuSans-30" transform="translate(63.623047 0)"/>
       <use xlink:href="#DejaVuSans-30" transform="translate(127.246094 0)"/>
       <use xlink:href="#DejaVuSans-30" transform="translate(190.869141 0)"/>
       <use xlink:href="#DejaVuSans-30" transform="translate(254.492188 0)"/>
      </g>
     </g>
    </g>
    <g id="ytick_2">
     <g id="line2d_22">
      <g>
       <use xlink:href="#me7f02af464" x="104.96" y="224.884784" style="stroke: #000000; stroke-width: 0.8"/>
      </g>
     </g>
     <g id="text_23">
      <!-- 32000 -->
      <g transform="translate(40.6975 231.723378) scale(0.18 -0.18)">
       <use xlink:href="#DejaVuSans-33"/>
       <use xlink:href="#DejaVuSans-32" transform="translate(63.623047 0)"/>
       <use xlink:href="#DejaVuSans-30" transform="translate(127.246094 0)"/>
       <use xlink:href="#DejaVuSans-30" transform="translate(190.869141 0)"/>
       <use xlink:href="#DejaVuSans-30" transform="translate(254.492188 0)"/>
      </g>
     </g>
    </g>
    <g id="ytick_3">
     <g id="line2d_23">
      <g>
       <use xlink:href="#me7f02af464" x="104.96" y="171.42752" style="stroke: #000000; stroke-width: 0.8"/>
      </g>
     </g>
     <g id="text_24">
      <!-- 34000 -->
      <g transform="translate(40.6975 178.266114) scale(0.18 -0.18)">
       <use xlink:href="#DejaVuSans-33"/>
       <use xlink:href="#DejaVuSans-34" transform="translate(63.623047 0)"/>
       <use xlink:href="#DejaVuSans-30" transform="translate(127.246094 0)"/>
       <use xlink:href="#DejaVuSans-30" transform="translate(190.869141 0)"/>
       <use xlink:href="#DejaVuSans-30" transform="translate(254.492188 0)"/>
      </g>
     </g>
    </g>
    <g id="ytick_4">
     <g id="line2d_24">
      <g>
       <use xlink:href="#me7f02af464" x="104.96" y="117.970256" style="stroke: #000000; stroke-width: 0.8"/>
      </g>
     </g>
     <g id="text_25">
      <!-- 36000 -->
      <g transform="translate(40.6975 124.80885) scale(0.18 -0.18)">
       <use xlink:href="#DejaVuSans-33"/>
       <use xlink:href="#DejaVuSans-36" transform="translate(63.623047 0)"/>
       <use xlink:href="#DejaVuSans-30" transform="translate(127.246094 0)"/>
       <use xlink:href="#DejaVuSans-30" transform="translate(190.869141 0)"/>
       <use xlink:href="#DejaVuSans-30" transform="translate(254.492188 0)"/>
      </g>
     </g>
    </g>
    <g id="ytick_5">
     <g id="line2d_25">
      <g>
       <use xlink:href="#me7f02af464" x="104.96" y="64.512992" style="stroke: #000000; stroke-width: 0.8"/>
      </g>
     </g>
     <g id="text_26">
      <!-- 38000 -->
      <g transform="translate(40.6975 71.351586) scale(0.18 -0.18)">
       <use xlink:href="#DejaVuSans-33"/>
       <use xlink:href="#DejaVuSans-38" transform="translate(63.623047 0)"/>
       <use xlink:href="#DejaVuSans-30" transform="translate(127.246094 0)"/>
       <use xlink:href="#DejaVuSans-30" transform="translate(190.869141 0)"/>
       <use xlink:href="#DejaVuSans-30" transform="translate(254.492188 0)"/>
      </g>
     </g>
    </g>
    <g id="text_27">
     <!-- Seconds -->
     <g transform="translate(32.954063 211.172656) rotate(-90) scale(0.18 -0.18)">
      <defs>
       <path id="DejaVuSans-53" d="M 3425 4513 
L 3425 3897 
Q 3066 4069 2747 4153 
Q 2428 4238 2131 4238 
Q 1616 4238 1336 4038 
Q 1056 3838 1056 3469 
Q 1056 3159 1242 3001 
Q 1428 2844 1947 2747 
L 2328 2669 
Q 3034 2534 3370 2195 
Q 3706 1856 3706 1288 
Q 3706 609 3251 259 
Q 2797 -91 1919 -91 
Q 1588 -91 1214 -16 
Q 841 59 441 206 
L 441 856 
Q 825 641 1194 531 
Q 1563 422 1919 422 
Q 2459 422 2753 634 
Q 3047 847 3047 1241 
Q 3047 1584 2836 1778 
Q 2625 1972 2144 2069 
L 1759 2144 
Q 1053 2284 737 2584 
Q 422 2884 422 3419 
Q 422 4038 858 4394 
Q 1294 4750 2059 4750 
Q 2388 4750 2728 4690 
Q 3069 4631 3425 4513 
z
" transform="scale(0.015625)"/>
       <path id="DejaVuSans-63" d="M 3122 3366 
L 3122 2828 
Q 2878 2963 2633 3030 
Q 2388 3097 2138 3097 
Q 1578 3097 1268 2742 
Q 959 2388 959 1747 
Q 959 1106 1268 751 
Q 1578 397 2138 397 
Q 2388 397 2633 464 
Q 2878 531 3122 666 
L 3122 134 
Q 2881 22 2623 -34 
Q 2366 -91 2075 -91 
Q 1284 -91 818 406 
Q 353 903 353 1747 
Q 353 2603 823 3093 
Q 1294 3584 2113 3584 
Q 2378 3584 2631 3529 
Q 2884 3475 3122 3366 
z
" transform="scale(0.015625)"/>
       <path id="DejaVuSans-64" d="M 2906 2969 
L 2906 4863 
L 3481 4863 
L 3481 0 
L 2906 0 
L 2906 525 
Q 2725 213 2448 61 
Q 2172 -91 1784 -91 
Q 1150 -91 751 415 
Q 353 922 353 1747 
Q 353 2572 751 3078 
Q 1150 3584 1784 3584 
Q 2172 3584 2448 3432 
Q 2725 3281 2906 2969 
z
M 947 1747 
Q 947 1113 1208 752 
Q 1469 391 1925 391 
Q 2381 391 2643 752 
Q 2906 1113 2906 1747 
Q 2906 2381 2643 2742 
Q 2381 3103 1925 3103 
Q 1469 3103 1208 2742 
Q 947 2381 947 1747 
z
" transform="scale(0.015625)"/>
       <path id="DejaVuSans-73" d="M 2834 3397 
L 2834 2853 
Q 2591 2978 2328 3040 
Q 2066 3103 1784 3103 
Q 1356 3103 1142 2972 
Q 928 2841 928 2578 
Q 928 2378 1081 2264 
Q 1234 2150 1697 2047 
L 1894 2003 
Q 2506 1872 2764 1633 
Q 3022 1394 3022 966 
Q 3022 478 2636 193 
Q 2250 -91 1575 -91 
Q 1294 -91 989 -36 
Q 684 19 347 128 
L 347 722 
Q 666 556 975 473 
Q 1284 391 1588 391 
Q 1994 391 2212 530 
Q 2431 669 2431 922 
Q 2431 1156 2273 1281 
Q 2116 1406 1581 1522 
L 1381 1569 
Q 847 1681 609 1914 
Q 372 2147 372 2553 
Q 372 3047 722 3315 
Q 1072 3584 1716 3584 
Q 2034 3584 2315 3537 
Q 2597 3491 2834 3397 
z
" transform="scale(0.015625)"/>
      </defs>
      <use xlink:href="#DejaVuSans-53"/>
      <use xlink:href="#DejaVuSans-65" transform="translate(63.476562 0)"/>
      <use xlink:href="#DejaVuSans-63" transform="translate(125 0)"/>
      <use xlink:href="#DejaVuSans-6f" transform="translate(179.980469 0)"/>
      <use xlink:href="#DejaVuSans-6e" transform="translate(241.162109 0)"/>
      <use xlink:href="#DejaVuSans-64" transform="translate(304.541016 0)"/>
      <use xlink:href="#DejaVuSans-73" transform="translate(368.017578 0)"/>
     </g>
    </g>
   </g>
   <g id="line2d_26">
    <path d="M 104.96 211.491066 
L 120.231795 246.056533 
L 135.50359 154.706088 
L 150.775385 98.209778 
L 166.047179 81.472309 
L 181.318974 85.641976 
L 196.590769 81.223733 
L 211.862564 97.472068 
L 227.134359 97.15667 
L 242.406154 71.248607 
L 257.677949 93.938543 
L 272.949744 79.408859 
L 288.221538 68.48754 
L 303.493333 71.890095 
L 318.765128 79.17632 
L 334.036923 67.519963 
L 349.308718 71.066853 
L 364.580513 53.941818 
L 379.852308 63.721825 
L 395.124103 73.900088 
L 410.395897 78.278238 
L 425.667692 74.073824 
L 440.939487 86.034887 
L 456.211282 72.662552 
L 471.483077 84.102406 
L 486.754872 91.083925 
L 502.026667 70.962611 
L 517.298462 89.915884 
L 532.570256 79.868591 
L 547.842051 77.364118 
L 563.113846 76.508802 
L 578.385641 73.648839 
L 593.657436 69.22525 
L 608.929231 76.36714 
L 624.201026 81.250461 
L 639.472821 81.581896 
L 654.744615 84.663708 
L 670.01641 69.949596 
L 685.288205 65.028855 
L 700.56 99.193392 
" clip-path="url(#p8a79e59174)" style="fill: none; stroke: #1f77b4; stroke-width: 1.5; stroke-linecap: square"/>
   </g>
   <g id="line2d_27">
    <path d="M 104.96 210.053066 
L 120.231795 292.778182 
L 135.50359 285.096373 
L 150.775385 171.745591 
L 166.047179 134.421729 
L 181.318974 71.483819 
L 196.590769 97.397228 
L 211.862564 111.178511 
L 227.134359 75.613393 
L 242.406154 78.566907 
L 257.677949 80.924372 
L 272.949744 58.472321 
L 288.221538 68.808283 
L 303.493333 100.436273 
L 318.765128 66.955989 
L 334.036923 102.390136 
L 349.308718 94.352837 
L 364.580513 68.610491 
L 379.852308 78.77539 
L 395.124103 79.28858 
L 410.395897 77.807814 
L 425.667692 80.146569 
L 440.939487 105.757944 
L 456.211282 70.810258 
L 471.483077 71.053488 
L 486.754872 85.094039 
L 502.026667 81.913332 
L 517.298462 83.543778 
L 532.570256 90.020126 
L 547.842051 85.372016 
L 563.113846 75.824549 
L 578.385641 76.177367 
L 593.657436 70.636522 
L 608.929231 93.468119 
L 624.201026 84.024893 
L 639.472821 72.026411 
L 654.744615 85.682069 
L 670.01641 76.319029 
L 685.288205 82.629659 
L 700.56 81.77167 
" clip-path="url(#p8a79e59174)" style="fill: none; stroke: #ff7f0e; stroke-width: 1.5; stroke-linecap: square"/>
   </g>
   <g id="line2d_28">
    <path d="M 104.96 185.072487 
L 120.231795 239.246078 
L 135.50359 226.135684 
L 150.775385 199.960335 
L 166.047179 175.752213 
L 181.318974 182.185794 
L 196.590769 163.820551 
L 211.862564 150.664719 
L 227.134359 151.659024 
L 242.406154 152.142812 
L 257.677949 163.149663 
L 272.949744 228.519878 
L 288.221538 174.784636 
L 303.493333 186.857959 
L 318.765128 167.25518 
L 334.036923 132.336896 
L 349.308718 144.469022 
L 364.580513 148.491681 
L 379.852308 147.208707 
L 395.124103 119.811859 
L 410.395897 108.468227 
L 425.667692 122.415228 
L 440.939487 138.393604 
L 456.211282 119.809186 
L 471.483077 133.777569 
L 486.754872 108.257071 
L 502.026667 149.531425 
L 517.298462 115.289374 
L 532.570256 130.709122 
L 547.842051 129.656014 
L 563.113846 125.569206 
L 578.385641 134.993722 
L 593.657436 115.591408 
L 608.929231 118.429988 
L 624.201026 132.497267 
L 639.472821 123.869265 
L 654.744615 139.109931 
L 670.01641 140.390232 
L 685.288205 119.763747 
L 700.56 135.244971 
" clip-path="url(#p8a79e59174)" style="fill: none; stroke: #2ca02c; stroke-width: 1.5; stroke-linecap: square"/>
   </g>
   <g id="line2d_29">
    <path d="M 104.96 211.034007 
L 120.231795 233.785418 
L 135.50359 180.38963 
L 150.775385 148.093424 
L 166.047179 109.566774 
L 181.318974 101.735285 
L 196.590769 123.315982 
L 211.862564 140.588024 
L 227.134359 137.797555 
L 242.406154 127.381407 
L 257.677949 121.308662 
L 272.949744 126.927021 
L 288.221538 94.045458 
L 303.493333 121.399539 
L 318.765128 125.125511 
L 334.036923 137.089246 
L 349.308718 155.868783 
L 364.580513 129.495642 
L 379.852308 126.876236 
L 395.124103 111.881474 
L 410.395897 123.679492 
L 425.667692 104.362709 
L 440.939487 107.479268 
L 456.211282 124.208719 
L 471.483077 108.674038 
L 486.754872 123.438934 
L 502.026667 126.338991 
L 517.298462 128.894248 
L 532.570256 117.521215 
L 547.842051 122.599655 
L 563.113846 114.009073 
L 578.385641 112.057883 
L 593.657436 121.11087 
L 608.929231 118.141319 
L 624.201026 118.299018 
L 639.472821 108.556432 
L 654.744615 123.540503 
L 670.01641 112.827667 
L 685.288205 108.380023 
L 700.56 122.319004 
" clip-path="url(#p8a79e59174)" style="fill: none; stroke: #d62728; stroke-width: 1.5; stroke-linecap: square"/>
   </g>
   <g id="line2d_30">
    <path d="M 104.96 233.542188 
L 120.231795 151.672388 
L 135.50359 131.655316 
L 150.775385 149.873551 
L 166.047179 154.224972 
L 181.318974 125.665429 
L 196.590769 173.421476 
L 211.862564 80.635703 
L 227.134359 67.653606 
L 242.406154 75.730999 
L 257.677949 128.536084 
L 272.949744 117.122958 
L 288.221538 131.278442 
L 303.493333 139.371872 
L 318.765128 132.491922 
L 334.036923 126.488671 
L 349.308718 137.97931 
L 364.580513 131.350609 
L 379.852308 100.054054 
L 395.124103 113.43708 
L 410.395897 99.618377 
L 425.667692 115.671594 
L 440.939487 140.048106 
L 456.211282 129.214991 
L 471.483077 115.706341 
L 486.754872 110.790945 
L 502.026667 133.496918 
L 517.298462 110.892514 
L 532.570256 130.228007 
L 547.842051 127.453575 
L 563.113846 106.484963 
L 578.385641 125.905987 
L 593.657436 119.718309 
L 608.929231 129.554445 
L 624.201026 132.192561 
L 639.472821 124.553518 
L 654.744615 117.844631 
L 670.01641 127.520396 
L 685.288205 129.244393 
L 700.56 127.763627 
" clip-path="url(#p8a79e59174)" style="fill: none; stroke: #9467bd; stroke-width: 1.5; stroke-linecap: square"/>
   </g>
   <g id="patch_3">
    <path d="M 104.96 304.72 
L 104.96 42 
" style="fill: none; stroke: #000000; stroke-width: 0.8; stroke-linejoin: miter; stroke-linecap: square"/>
   </g>
   <g id="patch_4">
    <path d="M 700.56 304.72 
L 700.56 42 
" style="fill: none; stroke: #000000; stroke-width: 0.8; stroke-linejoin: miter; stroke-linecap: square"/>
   </g>
   <g id="patch_5">
    <path d="M 104.96 304.72 
L 700.56 304.72 
" style="fill: none; stroke: #000000; stroke-width: 0.8; stroke-linejoin: miter; stroke-linecap: square"/>
   </g>
   <g id="patch_6">
    <path d="M 104.96 42 
L 700.56 42 
" style="fill: none; stroke: #000000; stroke-width: 0.8; stroke-linejoin: miter; stroke-linecap: square"/>
   </g>
   <g id="text_28">
    <!-- Total Trip Time Over Iterations (All Runs) -->
    <g transform="translate(185.654688 36) scale(0.216 -0.216)">
     <defs>
      <path id="DejaVuSans-54" d="M -19 4666 
L 3928 4666 
L 3928 4134 
L 2272 4134 
L 2272 0 
L 1638 0 
L 1638 4134 
L -19 4134 
L -19 4666 
z
" transform="scale(0.015625)"/>
      <path id="DejaVuSans-6c" d="M 603 4863 
L 1178 4863 
L 1178 0 
L 603 0 
L 603 4863 
z
" transform="scale(0.015625)"/>
      <path id="DejaVuSans-20" transform="scale(0.015625)"/>
      <path id="DejaVuSans-70" d="M 1159 525 
L 1159 -1331 
L 581 -1331 
L 581 3500 
L 1159 3500 
L 1159 2969 
Q 1341 3281 1617 3432 
Q 1894 3584 2278 3584 
Q 2916 3584 3314 3078 
Q 3713 2572 3713 1747 
Q 3713 922 3314 415 
Q 2916 -91 2278 -91 
Q 1894 -91 1617 61 
Q 1341 213 1159 525 
z
M 3116 1747 
Q 3116 2381 2855 2742 
Q 2594 3103 2138 3103 
Q 1681 3103 1420 2742 
Q 1159 2381 1159 1747 
Q 1159 1113 1420 752 
Q 1681 391 2138 391 
Q 2594 391 2855 752 
Q 3116 1113 3116 1747 
z
" transform="scale(0.015625)"/>
      <path id="DejaVuSans-6d" d="M 3328 2828 
Q 3544 3216 3844 3400 
Q 4144 3584 4550 3584 
Q 5097 3584 5394 3201 
Q 5691 2819 5691 2113 
L 5691 0 
L 5113 0 
L 5113 2094 
Q 5113 2597 4934 2840 
Q 4756 3084 4391 3084 
Q 3944 3084 3684 2787 
Q 3425 2491 3425 1978 
L 3425 0 
L 2847 0 
L 2847 2094 
Q 2847 2600 2669 2842 
Q 2491 3084 2119 3084 
Q 1678 3084 1418 2786 
Q 1159 2488 1159 1978 
L 1159 0 
L 581 0 
L 581 3500 
L 1159 3500 
L 1159 2956 
Q 1356 3278 1631 3431 
Q 1906 3584 2284 3584 
Q 2666 3584 2933 3390 
Q 3200 3197 3328 2828 
z
" transform="scale(0.015625)"/>
      <path id="DejaVuSans-4f" d="M 2522 4238 
Q 1834 4238 1429 3725 
Q 1025 3213 1025 2328 
Q 1025 1447 1429 934 
Q 1834 422 2522 422 
Q 3209 422 3611 934 
Q 4013 1447 4013 2328 
Q 4013 3213 3611 3725 
Q 3209 4238 2522 4238 
z
M 2522 4750 
Q 3503 4750 4090 4092 
Q 4678 3434 4678 2328 
Q 4678 1225 4090 567 
Q 3503 -91 2522 -91 
Q 1538 -91 948 565 
Q 359 1222 359 2328 
Q 359 3434 948 4092 
Q 1538 4750 2522 4750 
z
" transform="scale(0.015625)"/>
      <path id="DejaVuSans-76" d="M 191 3500 
L 800 3500 
L 1894 563 
L 2988 3500 
L 3597 3500 
L 2284 0 
L 1503 0 
L 191 3500 
z
" transform="scale(0.015625)"/>
      <path id="DejaVuSans-28" d="M 1984 4856 
Q 1566 4138 1362 3434 
Q 1159 2731 1159 2009 
Q 1159 1288 1364 580 
Q 1569 -128 1984 -844 
L 1484 -844 
Q 1016 -109 783 600 
Q 550 1309 550 2009 
Q 550 2706 781 3412 
Q 1013 4119 1484 4856 
L 1984 4856 
z
" transform="scale(0.015625)"/>
      <path id="DejaVuSans-41" d="M 2188 4044 
L 1331 1722 
L 3047 1722 
L 2188 4044 
z
M 1831 4666 
L 2547 4666 
L 4325 0 
L 3669 0 
L 3244 1197 
L 1141 1197 
L 716 0 
L 50 0 
L 1831 4666 
z
" transform="scale(0.015625)"/>
      <path id="DejaVuSans-52" d="M 2841 2188 
Q 3044 2119 3236 1894 
Q 3428 1669 3622 1275 
L 4263 0 
L 3584 0 
L 2988 1197 
Q 2756 1666 2539 1819 
Q 2322 1972 1947 1972 
L 1259 1972 
L 1259 0 
L 628 0 
L 628 4666 
L 2053 4666 
Q 2853 4666 3247 4331 
Q 3641 3997 3641 3322 
Q 3641 2881 3436 2590 
Q 3231 2300 2841 2188 
z
M 1259 4147 
L 1259 2491 
L 2053 2491 
Q 2509 2491 2742 2702 
Q 2975 2913 2975 3322 
Q 2975 3731 2742 3939 
Q 2509 4147 2053 4147 
L 1259 4147 
z
" transform="scale(0.015625)"/>
      <path id="DejaVuSans-75" d="M 544 1381 
L 544 3500 
L 1119 3500 
L 1119 1403 
Q 1119 906 1312 657 
Q 1506 409 1894 409 
Q 2359 409 2629 706 
Q 2900 1003 2900 1516 
L 2900 3500 
L 3475 3500 
L 3475 0 
L 2900 0 
L 2900 538 
Q 2691 219 2414 64 
Q 2138 -91 1772 -91 
Q 1169 -91 856 284 
Q 544 659 544 1381 
z
M 1991 3584 
L 1991 3584 
z
" transform="scale(0.015625)"/>
      <path id="DejaVuSans-29" d="M 513 4856 
L 1013 4856 
Q 1481 4119 1714 3412 
Q 1947 2706 1947 2009 
Q 1947 1309 1714 600 
Q 1481 -109 1013 -844 
L 513 -844 
Q 928 -128 1133 580 
Q 1338 1288 1338 2009 
Q 1338 2731 1133 3434 
Q 928 4138 513 4856 
z
" transform="scale(0.015625)"/>
     </defs>
     <use xlink:href="#DejaVuSans-54"/>
     <use xlink:href="#DejaVuSans-6f" transform="translate(44.083984 0)"/>
     <use xlink:href="#DejaVuSans-74" transform="translate(105.265625 0)"/>
     <use xlink:href="#DejaVuSans-61" transform="translate(144.474609 0)"/>
     <use xlink:href="#DejaVuSans-6c" transform="translate(205.753906 0)"/>
     <use xlink:href="#DejaVuSans-20" transform="translate(233.537109 0)"/>
     <use xlink:href="#DejaVuSans-54" transform="translate(265.324219 0)"/>
     <use xlink:href="#DejaVuSans-72" transform="translate(311.658203 0)"/>
     <use xlink:href="#DejaVuSans-69" transform="translate(352.771484 0)"/>
     <use xlink:href="#DejaVuSans-70" transform="translate(380.554688 0)"/>
     <use xlink:href="#DejaVuSans-20" transform="translate(444.03125 0)"/>
     <use xlink:href="#DejaVuSans-54" transform="translate(475.818359 0)"/>
     <use xlink:href="#DejaVuSans-69" transform="translate(533.777344 0)"/>
     <use xlink:href="#DejaVuSans-6d" transform="translate(561.560547 0)"/>
     <use xlink:href="#DejaVuSans-65" transform="translate(658.972656 0)"/>
     <use xlink:href="#DejaVuSans-20" transform="translate(720.496094 0)"/>
     <use xlink:href="#DejaVuSans-4f" transform="translate(752.283203 0)"/>
     <use xlink:href="#DejaVuSans-76" transform="translate(830.994141 0)"/>
     <use xlink:href="#DejaVuSans-65" transform="translate(890.173828 0)"/>
     <use xlink:href="#DejaVuSans-72" transform="translate(951.697266 0)"/>
     <use xlink:href="#DejaVuSans-20" transform="translate(992.810547 0)"/>
     <use xlink:href="#DejaVuSans-49" transform="translate(1024.597656 0)"/>
     <use xlink:href="#DejaVuSans-74" transform="translate(1054.089844 0)"/>
     <use xlink:href="#DejaVuSans-65" transform="translate(1093.298828 0)"/>
     <use xlink:href="#DejaVuSans-72" transform="translate(1154.822266 0)"/>
     <use xlink:href="#DejaVuSans-61" transform="translate(1195.935547 0)"/>
     <use xlink:href="#DejaVuSans-74" transform="translate(1257.214844 0)"/>
     <use xlink:href="#DejaVuSans-69" transform="translate(1296.423828 0)"/>
     <use xlink:href="#DejaVuSans-6f" transform="translate(1324.207031 0)"/>
     <use xlink:href="#DejaVuSans-6e" transform="translate(1385.388672 0)"/>
     <use xlink:href="#DejaVuSans-73" transform="translate(1448.767578 0)"/>
     <use xlink:href="#DejaVuSans-20" transform="translate(1500.867188 0)"/>
     <use xlink:href="#DejaVuSans-28" transform="translate(1532.654297 0)"/>
     <use xlink:href="#DejaVuSans-41" transform="translate(1571.667969 0)"/>
     <use xlink:href="#DejaVuSans-6c" transform="translate(1640.076172 0)"/>
     <use xlink:href="#DejaVuSans-6c" transform="translate(1667.859375 0)"/>
     <use xlink:href="#DejaVuSans-20" transform="translate(1695.642578 0)"/>
     <use xlink:href="#DejaVuSans-52" transform="translate(1727.429688 0)"/>
     <use xlink:href="#DejaVuSans-75" transform="translate(1792.412109 0)"/>
     <use xlink:href="#DejaVuSans-6e" transform="translate(1855.791016 0)"/>
     <use xlink:href="#DejaVuSans-73" transform="translate(1919.169922 0)"/>
     <use xlink:href="#DejaVuSans-29" transform="translate(1971.269531 0)"/>
    </g>
   </g>
   <g id="legend_1">
    <g id="patch_7">
     <path d="M 429.224063 295.72 
L 687.96 295.72 
Q 691.56 295.72 691.56 292.12 
L 691.56 161.816875 
Q 691.56 158.216875 687.96 158.216875 
L 429.224063 158.216875 
Q 425.624063 158.216875 425.624063 161.816875 
L 425.624063 292.12 
Q 425.624063 295.72 429.224063 295.72 
z
" style="fill: #ffffff; opacity: 0.8; stroke: #cccccc; stroke-linejoin: miter"/>
    </g>
    <g id="line2d_31">
     <path d="M 432.824063 172.794063 
L 450.824063 172.794063 
L 468.824063 172.794063 
" style="fill: none; stroke: #1f77b4; stroke-width: 1.5; stroke-linecap: square"/>
    </g>
    <g id="text_29">
     <!-- Total Trip Time (Run 1) -->
     <g transform="translate(483.224063 179.094063) scale(0.18 -0.18)">
      <use xlink:href="#DejaVuSans-54"/>
      <use xlink:href="#DejaVuSans-6f" transform="translate(44.083984 0)"/>
      <use xlink:href="#DejaVuSans-74" transform="translate(105.265625 0)"/>
      <use xlink:href="#DejaVuSans-61" transform="translate(144.474609 0)"/>
      <use xlink:href="#DejaVuSans-6c" transform="translate(205.753906 0)"/>
      <use xlink:href="#DejaVuSans-20" transform="translate(233.537109 0)"/>
      <use xlink:href="#DejaVuSans-54" transform="translate(265.324219 0)"/>
      <use xlink:href="#DejaVuSans-72" transform="translate(311.658203 0)"/>
      <use xlink:href="#DejaVuSans-69" transform="translate(352.771484 0)"/>
      <use xlink:href="#DejaVuSans-70" transform="translate(380.554688 0)"/>
      <use xlink:href="#DejaVuSans-20" transform="translate(444.03125 0)"/>
      <use xlink:href="#DejaVuSans-54" transform="translate(475.818359 0)"/>
      <use xlink:href="#DejaVuSans-69" transform="translate(533.777344 0)"/>
      <use xlink:href="#DejaVuSans-6d" transform="translate(561.560547 0)"/>
      <use xlink:href="#DejaVuSans-65" transform="translate(658.972656 0)"/>
      <use xlink:href="#DejaVuSans-20" transform="translate(720.496094 0)"/>
      <use xlink:href="#DejaVuSans-28" transform="translate(752.283203 0)"/>
      <use xlink:href="#DejaVuSans-52" transform="translate(791.296875 0)"/>
      <use xlink:href="#DejaVuSans-75" transform="translate(856.279297 0)"/>
      <use xlink:href="#DejaVuSans-6e" transform="translate(919.658203 0)"/>
      <use xlink:href="#DejaVuSans-20" transform="translate(983.037109 0)"/>
      <use xlink:href="#DejaVuSans-31" transform="translate(1014.824219 0)"/>
      <use xlink:href="#DejaVuSans-29" transform="translate(1078.447266 0)"/>
     </g>
    </g>
    <g id="line2d_32">
     <path d="M 432.824063 199.214688 
L 450.824063 199.214688 
L 468.824063 199.214688 
" style="fill: none; stroke: #ff7f0e; stroke-width: 1.5; stroke-linecap: square"/>
    </g>
    <g id="text_30">
     <!-- Total Trip Time (Run 2) -->
     <g transform="translate(483.224063 205.514688) scale(0.18 -0.18)">
      <use xlink:href="#DejaVuSans-54"/>
      <use xlink:href="#DejaVuSans-6f" transform="translate(44.083984 0)"/>
      <use xlink:href="#DejaVuSans-74" transform="translate(105.265625 0)"/>
      <use xlink:href="#DejaVuSans-61" transform="translate(144.474609 0)"/>
      <use xlink:href="#DejaVuSans-6c" transform="translate(205.753906 0)"/>
      <use xlink:href="#DejaVuSans-20" transform="translate(233.537109 0)"/>
      <use xlink:href="#DejaVuSans-54" transform="translate(265.324219 0)"/>
      <use xlink:href="#DejaVuSans-72" transform="translate(311.658203 0)"/>
      <use xlink:href="#DejaVuSans-69" transform="translate(352.771484 0)"/>
      <use xlink:href="#DejaVuSans-70" transform="translate(380.554688 0)"/>
      <use xlink:href="#DejaVuSans-20" transform="translate(444.03125 0)"/>
      <use xlink:href="#DejaVuSans-54" transform="translate(475.818359 0)"/>
      <use xlink:href="#DejaVuSans-69" transform="translate(533.777344 0)"/>
      <use xlink:href="#DejaVuSans-6d" transform="translate(561.560547 0)"/>
      <use xlink:href="#DejaVuSans-65" transform="translate(658.972656 0)"/>
      <use xlink:href="#DejaVuSans-20" transform="translate(720.496094 0)"/>
      <use xlink:href="#DejaVuSans-28" transform="translate(752.283203 0)"/>
      <use xlink:href="#DejaVuSans-52" transform="translate(791.296875 0)"/>
      <use xlink:href="#DejaVuSans-75" transform="translate(856.279297 0)"/>
      <use xlink:href="#DejaVuSans-6e" transform="translate(919.658203 0)"/>
      <use xlink:href="#DejaVuSans-20" transform="translate(983.037109 0)"/>
      <use xlink:href="#DejaVuSans-32" transform="translate(1014.824219 0)"/>
      <use xlink:href="#DejaVuSans-29" transform="translate(1078.447266 0)"/>
     </g>
    </g>
    <g id="line2d_33">
     <path d="M 432.824063 225.635313 
L 450.824063 225.635313 
L 468.824063 225.635313 
" style="fill: none; stroke: #2ca02c; stroke-width: 1.5; stroke-linecap: square"/>
    </g>
    <g id="text_31">
     <!-- Total Trip Time (Run 3) -->
     <g transform="translate(483.224063 231.935313) scale(0.18 -0.18)">
      <use xlink:href="#DejaVuSans-54"/>
      <use xlink:href="#DejaVuSans-6f" transform="translate(44.083984 0)"/>
      <use xlink:href="#DejaVuSans-74" transform="translate(105.265625 0)"/>
      <use xlink:href="#DejaVuSans-61" transform="translate(144.474609 0)"/>
      <use xlink:href="#DejaVuSans-6c" transform="translate(205.753906 0)"/>
      <use xlink:href="#DejaVuSans-20" transform="translate(233.537109 0)"/>
      <use xlink:href="#DejaVuSans-54" transform="translate(265.324219 0)"/>
      <use xlink:href="#DejaVuSans-72" transform="translate(311.658203 0)"/>
      <use xlink:href="#DejaVuSans-69" transform="translate(352.771484 0)"/>
      <use xlink:href="#DejaVuSans-70" transform="translate(380.554688 0)"/>
      <use xlink:href="#DejaVuSans-20" transform="translate(444.03125 0)"/>
      <use xlink:href="#DejaVuSans-54" transform="translate(475.818359 0)"/>
      <use xlink:href="#DejaVuSans-69" transform="translate(533.777344 0)"/>
      <use xlink:href="#DejaVuSans-6d" transform="translate(561.560547 0)"/>
      <use xlink:href="#DejaVuSans-65" transform="translate(658.972656 0)"/>
      <use xlink:href="#DejaVuSans-20" transform="translate(720.496094 0)"/>
      <use xlink:href="#DejaVuSans-28" transform="translate(752.283203 0)"/>
      <use xlink:href="#DejaVuSans-52" transform="translate(791.296875 0)"/>
      <use xlink:href="#DejaVuSans-75" transform="translate(856.279297 0)"/>
      <use xlink:href="#DejaVuSans-6e" transform="translate(919.658203 0)"/>
      <use xlink:href="#DejaVuSans-20" transform="translate(983.037109 0)"/>
      <use xlink:href="#DejaVuSans-33" transform="translate(1014.824219 0)"/>
      <use xlink:href="#DejaVuSans-29" transform="translate(1078.447266 0)"/>
     </g>
    </g>
    <g id="line2d_34">
     <path d="M 432.824063 252.055938 
L 450.824063 252.055938 
L 468.824063 252.055938 
" style="fill: none; stroke: #d62728; stroke-width: 1.5; stroke-linecap: square"/>
    </g>
    <g id="text_32">
     <!-- Total Trip Time (Run 4) -->
     <g transform="translate(483.224063 258.355938) scale(0.18 -0.18)">
      <use xlink:href="#DejaVuSans-54"/>
      <use xlink:href="#DejaVuSans-6f" transform="translate(44.083984 0)"/>
      <use xlink:href="#DejaVuSans-74" transform="translate(105.265625 0)"/>
      <use xlink:href="#DejaVuSans-61" transform="translate(144.474609 0)"/>
      <use xlink:href="#DejaVuSans-6c" transform="translate(205.753906 0)"/>
      <use xlink:href="#DejaVuSans-20" transform="translate(233.537109 0)"/>
      <use xlink:href="#DejaVuSans-54" transform="translate(265.324219 0)"/>
      <use xlink:href="#DejaVuSans-72" transform="translate(311.658203 0)"/>
      <use xlink:href="#DejaVuSans-69" transform="translate(352.771484 0)"/>
      <use xlink:href="#DejaVuSans-70" transform="translate(380.554688 0)"/>
      <use xlink:href="#DejaVuSans-20" transform="translate(444.03125 0)"/>
      <use xlink:href="#DejaVuSans-54" transform="translate(475.818359 0)"/>
      <use xlink:href="#DejaVuSans-69" transform="translate(533.777344 0)"/>
      <use xlink:href="#DejaVuSans-6d" transform="translate(561.560547 0)"/>
      <use xlink:href="#DejaVuSans-65" transform="translate(658.972656 0)"/>
      <use xlink:href="#DejaVuSans-20" transform="translate(720.496094 0)"/>
      <use xlink:href="#DejaVuSans-28" transform="translate(752.283203 0)"/>
      <use xlink:href="#DejaVuSans-52" transform="translate(791.296875 0)"/>
      <use xlink:href="#DejaVuSans-75" transform="translate(856.279297 0)"/>
      <use xlink:href="#DejaVuSans-6e" transform="translate(919.658203 0)"/>
      <use xlink:href="#DejaVuSans-20" transform="translate(983.037109 0)"/>
      <use xlink:href="#DejaVuSans-34" transform="translate(1014.824219 0)"/>
      <use xlink:href="#DejaVuSans-29" transform="translate(1078.447266 0)"/>
     </g>
    </g>
    <g id="line2d_35">
     <path d="M 432.824063 278.476563 
L 450.824063 278.476563 
L 468.824063 278.476563 
" style="fill: none; stroke: #9467bd; stroke-width: 1.5; stroke-linecap: square"/>
    </g>
    <g id="text_33">
     <!-- Total Trip Time (Run 5) -->
     <g transform="translate(483.224063 284.776563) scale(0.18 -0.18)">
      <defs>
       <path id="DejaVuSans-35" d="M 691 4666 
L 3169 4666 
L 3169 4134 
L 1269 4134 
L 1269 2991 
Q 1406 3038 1543 3061 
Q 1681 3084 1819 3084 
Q 2600 3084 3056 2656 
Q 3513 2228 3513 1497 
Q 3513 744 3044 326 
Q 2575 -91 1722 -91 
Q 1428 -91 1123 -41 
Q 819 9 494 109 
L 494 744 
Q 775 591 1075 516 
Q 1375 441 1709 441 
Q 2250 441 2565 725 
Q 2881 1009 2881 1497 
Q 2881 1984 2565 2268 
Q 2250 2553 1709 2553 
Q 1456 2553 1204 2497 
Q 953 2441 691 2322 
L 691 4666 
z
" transform="scale(0.015625)"/>
      </defs>
      <use xlink:href="#DejaVuSans-54"/>
      <use xlink:href="#DejaVuSans-6f" transform="translate(44.083984 0)"/>
      <use xlink:href="#DejaVuSans-74" transform="translate(105.265625 0)"/>
      <use xlink:href="#DejaVuSans-61" transform="translate(144.474609 0)"/>
      <use xlink:href="#DejaVuSans-6c" transform="translate(205.753906 0)"/>
      <use xlink:href="#DejaVuSans-20" transform="translate(233.537109 0)"/>
      <use xlink:href="#DejaVuSans-54" transform="translate(265.324219 0)"/>
      <use xlink:href="#DejaVuSans-72" transform="translate(311.658203 0)"/>
      <use xlink:href="#DejaVuSans-69" transform="translate(352.771484 0)"/>
      <use xlink:href="#DejaVuSans-70" transform="translate(380.554688 0)"/>
      <use xlink:href="#DejaVuSans-20" transform="translate(444.03125 0)"/>
      <use xlink:href="#DejaVuSans-54" transform="translate(475.818359 0)"/>
      <use xlink:href="#DejaVuSans-69" transform="translate(533.777344 0)"/>
      <use xlink:href="#DejaVuSans-6d" transform="translate(561.560547 0)"/>
      <use xlink:href="#DejaVuSans-65" transform="translate(658.972656 0)"/>
      <use xlink:href="#DejaVuSans-20" transform="translate(720.496094 0)"/>
      <use xlink:href="#DejaVuSans-28" transform="translate(752.283203 0)"/>
      <use xlink:href="#DejaVuSans-52" transform="translate(791.296875 0)"/>
      <use xlink:href="#DejaVuSans-75" transform="translate(856.279297 0)"/>
      <use xlink:href="#DejaVuSans-6e" transform="translate(919.658203 0)"/>
      <use xlink:href="#DejaVuSans-20" transform="translate(983.037109 0)"/>
      <use xlink:href="#DejaVuSans-35" transform="translate(1014.824219 0)"/>
      <use xlink:href="#DejaVuSans-29" transform="translate(1078.447266 0)"/>
     </g>
    </g>
   </g>
  </g>
  <g id="axes_2">
   <g id="patch_8">
    <path d="M 104.96 655 
L 700.56 655 
L 700.56 392.28 
L 104.96 392.28 
z
" style="fill: #ffffff"/>
   </g>
   <g id="matplotlib.axis_3">
    <g id="xtick_21">
     <g id="line2d_36">
      <g>
       <use xlink:href="#ma9b362279d" x="104.96" y="655" style="stroke: #000000; stroke-width: 0.8"/>
      </g>
     </g>
     <g id="text_34">
      <!-- 0 -->
      <g transform="translate(99.23375 675.677187) scale(0.18 -0.18)">
       <use xlink:href="#DejaVuSans-30"/>
      </g>
     </g>
    </g>
    <g id="xtick_22">
     <g id="line2d_37">
      <g>
       <use xlink:href="#ma9b362279d" x="135.50359" y="655" style="stroke: #000000; stroke-width: 0.8"/>
      </g>
     </g>
     <g id="text_35">
      <!-- 2 -->
      <g transform="translate(129.77734 675.677187) scale(0.18 -0.18)">
       <use xlink:href="#DejaVuSans-32"/>
      </g>
     </g>
    </g>
    <g id="xtick_23">
     <g id="line2d_38">
      <g>
       <use xlink:href="#ma9b362279d" x="166.047179" y="655" style="stroke: #000000; stroke-width: 0.8"/>
      </g>
     </g>
     <g id="text_36">
      <!-- 4 -->
      <g transform="translate(160.320929 675.677187) scale(0.18 -0.18)">
       <use xlink:href="#DejaVuSans-34"/>
      </g>
     </g>
    </g>
    <g id="xtick_24">
     <g id="line2d_39">
      <g>
       <use xlink:href="#ma9b362279d" x="196.590769" y="655" style="stroke: #000000; stroke-width: 0.8"/>
      </g>
     </g>
     <g id="text_37">
      <!-- 6 -->
      <g transform="translate(190.864519 675.677187) scale(0.18 -0.18)">
       <use xlink:href="#DejaVuSans-36"/>
      </g>
     </g>
    </g>
    <g id="xtick_25">
     <g id="line2d_40">
      <g>
       <use xlink:href="#ma9b362279d" x="227.134359" y="655" style="stroke: #000000; stroke-width: 0.8"/>
      </g>
     </g>
     <g id="text_38">
      <!-- 8 -->
      <g transform="translate(221.408109 675.677187) scale(0.18 -0.18)">
       <use xlink:href="#DejaVuSans-38"/>
      </g>
     </g>
    </g>
    <g id="xtick_26">
     <g id="line2d_41">
      <g>
       <use xlink:href="#ma9b362279d" x="257.677949" y="655" style="stroke: #000000; stroke-width: 0.8"/>
      </g>
     </g>
     <g id="text_39">
      <!-- 10 -->
      <g transform="translate(246.225449 675.677187) scale(0.18 -0.18)">
       <use xlink:href="#DejaVuSans-31"/>
       <use xlink:href="#DejaVuSans-30" transform="translate(63.623047 0)"/>
      </g>
     </g>
    </g>
    <g id="xtick_27">
     <g id="line2d_42">
      <g>
       <use xlink:href="#ma9b362279d" x="288.221538" y="655" style="stroke: #000000; stroke-width: 0.8"/>
      </g>
     </g>
     <g id="text_40">
      <!-- 12 -->
      <g transform="translate(276.769038 675.677187) scale(0.18 -0.18)">
       <use xlink:href="#DejaVuSans-31"/>
       <use xlink:href="#DejaVuSans-32" transform="translate(63.623047 0)"/>
      </g>
     </g>
    </g>
    <g id="xtick_28">
     <g id="line2d_43">
      <g>
       <use xlink:href="#ma9b362279d" x="318.765128" y="655" style="stroke: #000000; stroke-width: 0.8"/>
      </g>
     </g>
     <g id="text_41">
      <!-- 14 -->
      <g transform="translate(307.312628 675.677187) scale(0.18 -0.18)">
       <use xlink:href="#DejaVuSans-31"/>
       <use xlink:href="#DejaVuSans-34" transform="translate(63.623047 0)"/>
      </g>
     </g>
    </g>
    <g id="xtick_29">
     <g id="line2d_44">
      <g>
       <use xlink:href="#ma9b362279d" x="349.308718" y="655" style="stroke: #000000; stroke-width: 0.8"/>
      </g>
     </g>
     <g id="text_42">
      <!-- 16 -->
      <g transform="translate(337.856218 675.677187) scale(0.18 -0.18)">
       <use xlink:href="#DejaVuSans-31"/>
       <use xlink:href="#DejaVuSans-36" transform="translate(63.623047 0)"/>
      </g>
     </g>
    </g>
    <g id="xtick_30">
     <g id="line2d_45">
      <g>
       <use xlink:href="#ma9b362279d" x="379.852308" y="655" style="stroke: #000000; stroke-width: 0.8"/>
      </g>
     </g>
     <g id="text_43">
      <!-- 18 -->
      <g transform="translate(368.399808 675.677187) scale(0.18 -0.18)">
       <use xlink:href="#DejaVuSans-31"/>
       <use xlink:href="#DejaVuSans-38" transform="translate(63.623047 0)"/>
      </g>
     </g>
    </g>
    <g id="xtick_31">
     <g id="line2d_46">
      <g>
       <use xlink:href="#ma9b362279d" x="410.395897" y="655" style="stroke: #000000; stroke-width: 0.8"/>
      </g>
     </g>
     <g id="text_44">
      <!-- 20 -->
      <g transform="translate(398.943397 675.677187) scale(0.18 -0.18)">
       <use xlink:href="#DejaVuSans-32"/>
       <use xlink:href="#DejaVuSans-30" transform="translate(63.623047 0)"/>
      </g>
     </g>
    </g>
    <g id="xtick_32">
     <g id="line2d_47">
      <g>
       <use xlink:href="#ma9b362279d" x="440.939487" y="655" style="stroke: #000000; stroke-width: 0.8"/>
      </g>
     </g>
     <g id="text_45">
      <!-- 22 -->
      <g transform="translate(429.486987 675.677187) scale(0.18 -0.18)">
       <use xlink:href="#DejaVuSans-32"/>
       <use xlink:href="#DejaVuSans-32" transform="translate(63.623047 0)"/>
      </g>
     </g>
    </g>
    <g id="xtick_33">
     <g id="line2d_48">
      <g>
       <use xlink:href="#ma9b362279d" x="471.483077" y="655" style="stroke: #000000; stroke-width: 0.8"/>
      </g>
     </g>
     <g id="text_46">
      <!-- 24 -->
      <g transform="translate(460.030577 675.677187) scale(0.18 -0.18)">
       <use xlink:href="#DejaVuSans-32"/>
       <use xlink:href="#DejaVuSans-34" transform="translate(63.623047 0)"/>
      </g>
     </g>
    </g>
    <g id="xtick_34">
     <g id="line2d_49">
      <g>
       <use xlink:href="#ma9b362279d" x="502.026667" y="655" style="stroke: #000000; stroke-width: 0.8"/>
      </g>
     </g>
     <g id="text_47">
      <!-- 26 -->
      <g transform="translate(490.574167 675.677187) scale(0.18 -0.18)">
       <use xlink:href="#DejaVuSans-32"/>
       <use xlink:href="#DejaVuSans-36" transform="translate(63.623047 0)"/>
      </g>
     </g>
    </g>
    <g id="xtick_35">
     <g id="line2d_50">
      <g>
       <use xlink:href="#ma9b362279d" x="532.570256" y="655" style="stroke: #000000; stroke-width: 0.8"/>
      </g>
     </g>
     <g id="text_48">
      <!-- 28 -->
      <g transform="translate(521.117756 675.677187) scale(0.18 -0.18)">
       <use xlink:href="#DejaVuSans-32"/>
       <use xlink:href="#DejaVuSans-38" transform="translate(63.623047 0)"/>
      </g>
     </g>
    </g>
    <g id="xtick_36">
     <g id="line2d_51">
      <g>
       <use xlink:href="#ma9b362279d" x="563.113846" y="655" style="stroke: #000000; stroke-width: 0.8"/>
      </g>
     </g>
     <g id="text_49">
      <!-- 30 -->
      <g transform="translate(551.661346 675.677187) scale(0.18 -0.18)">
       <use xlink:href="#DejaVuSans-33"/>
       <use xlink:href="#DejaVuSans-30" transform="translate(63.623047 0)"/>
      </g>
     </g>
    </g>
    <g id="xtick_37">
     <g id="line2d_52">
      <g>
       <use xlink:href="#ma9b362279d" x="593.657436" y="655" style="stroke: #000000; stroke-width: 0.8"/>
      </g>
     </g>
     <g id="text_50">
      <!-- 32 -->
      <g transform="translate(582.204936 675.677187) scale(0.18 -0.18)">
       <use xlink:href="#DejaVuSans-33"/>
       <use xlink:href="#DejaVuSans-32" transform="translate(63.623047 0)"/>
      </g>
     </g>
    </g>
    <g id="xtick_38">
     <g id="line2d_53">
      <g>
       <use xlink:href="#ma9b362279d" x="624.201026" y="655" style="stroke: #000000; stroke-width: 0.8"/>
      </g>
     </g>
     <g id="text_51">
      <!-- 34 -->
      <g transform="translate(612.748526 675.677187) scale(0.18 -0.18)">
       <use xlink:href="#DejaVuSans-33"/>
       <use xlink:href="#DejaVuSans-34" transform="translate(63.623047 0)"/>
      </g>
     </g>
    </g>
    <g id="xtick_39">
     <g id="line2d_54">
      <g>
       <use xlink:href="#ma9b362279d" x="654.744615" y="655" style="stroke: #000000; stroke-width: 0.8"/>
      </g>
     </g>
     <g id="text_52">
      <!-- 36 -->
      <g transform="translate(643.292115 675.677187) scale(0.18 -0.18)">
       <use xlink:href="#DejaVuSans-33"/>
       <use xlink:href="#DejaVuSans-36" transform="translate(63.623047 0)"/>
      </g>
     </g>
    </g>
    <g id="xtick_40">
     <g id="line2d_55">
      <g>
       <use xlink:href="#ma9b362279d" x="685.288205" y="655" style="stroke: #000000; stroke-width: 0.8"/>
      </g>
     </g>
     <g id="text_53">
      <!-- 38 -->
      <g transform="translate(673.835705 675.677187) scale(0.18 -0.18)">
       <use xlink:href="#DejaVuSans-33"/>
       <use xlink:href="#DejaVuSans-38" transform="translate(63.623047 0)"/>
      </g>
     </g>
    </g>
    <g id="text_54">
     <!-- Iteration -->
     <g transform="translate(364.584531 697.097813) scale(0.18 -0.18)">
      <use xlink:href="#DejaVuSans-49"/>
      <use xlink:href="#DejaVuSans-74" transform="translate(29.492188 0)"/>
      <use xlink:href="#DejaVuSans-65" transform="translate(68.701172 0)"/>
      <use xlink:href="#DejaVuSans-72" transform="translate(130.224609 0)"/>
      <use xlink:href="#DejaVuSans-61" transform="translate(171.337891 0)"/>
      <use xlink:href="#DejaVuSans-74" transform="translate(232.617188 0)"/>
      <use xlink:href="#DejaVuSans-69" transform="translate(271.826172 0)"/>
      <use xlink:href="#DejaVuSans-6f" transform="translate(299.609375 0)"/>
      <use xlink:href="#DejaVuSans-6e" transform="translate(360.791016 0)"/>
     </g>
    </g>
   </g>
   <g id="matplotlib.axis_4">
    <g id="ytick_6">
     <g id="line2d_56">
      <g>
       <use xlink:href="#me7f02af464" x="104.96" y="609.145953" style="stroke: #000000; stroke-width: 0.8"/>
      </g>
     </g>
     <g id="text_55">
      <!-- 14000 -->
      <g transform="translate(40.6975 615.984547) scale(0.18 -0.18)">
       <use xlink:href="#DejaVuSans-31"/>
       <use xlink:href="#DejaVuSans-34" transform="translate(63.623047 0)"/>
       <use xlink:href="#DejaVuSans-30" transform="translate(127.246094 0)"/>
       <use xlink:href="#DejaVuSans-30" transform="translate(190.869141 0)"/>
       <use xlink:href="#DejaVuSans-30" transform="translate(254.492188 0)"/>
      </g>
     </g>
    </g>
    <g id="ytick_7">
     <g id="line2d_57">
      <g>
       <use xlink:href="#me7f02af464" x="104.96" y="560.947789" style="stroke: #000000; stroke-width: 0.8"/>
      </g>
     </g>
     <g id="text_56">
      <!-- 15000 -->
      <g transform="translate(40.6975 567.786383) scale(0.18 -0.18)">
       <use xlink:href="#DejaVuSans-31"/>
       <use xlink:href="#DejaVuSans-35" transform="translate(63.623047 0)"/>
       <use xlink:href="#DejaVuSans-30" transform="translate(127.246094 0)"/>
       <use xlink:href="#DejaVuSans-30" transform="translate(190.869141 0)"/>
       <use xlink:href="#DejaVuSans-30" transform="translate(254.492188 0)"/>
      </g>
     </g>
    </g>
    <g id="ytick_8">
     <g id="line2d_58">
      <g>
       <use xlink:href="#me7f02af464" x="104.96" y="512.749625" style="stroke: #000000; stroke-width: 0.8"/>
      </g>
     </g>
     <g id="text_57">
      <!-- 16000 -->
      <g transform="translate(40.6975 519.588219) scale(0.18 -0.18)">
       <use xlink:href="#DejaVuSans-31"/>
       <use xlink:href="#DejaVuSans-36" transform="translate(63.623047 0)"/>
       <use xlink:href="#DejaVuSans-30" transform="translate(127.246094 0)"/>
       <use xlink:href="#DejaVuSans-30" transform="translate(190.869141 0)"/>
       <use xlink:href="#DejaVuSans-30" transform="translate(254.492188 0)"/>
      </g>
     </g>
    </g>
    <g id="ytick_9">
     <g id="line2d_59">
      <g>
       <use xlink:href="#me7f02af464" x="104.96" y="464.55146" style="stroke: #000000; stroke-width: 0.8"/>
      </g>
     </g>
     <g id="text_58">
      <!-- 17000 -->
      <g transform="translate(40.6975 471.390054) scale(0.18 -0.18)">
       <defs>
        <path id="DejaVuSans-37" d="M 525 4666 
L 3525 4666 
L 3525 4397 
L 1831 0 
L 1172 0 
L 2766 4134 
L 525 4134 
L 525 4666 
z
" transform="scale(0.015625)"/>
       </defs>
       <use xlink:href="#DejaVuSans-31"/>
       <use xlink:href="#DejaVuSans-37" transform="translate(63.623047 0)"/>
       <use xlink:href="#DejaVuSans-30" transform="translate(127.246094 0)"/>
       <use xlink:href="#DejaVuSans-30" transform="translate(190.869141 0)"/>
       <use xlink:href="#DejaVuSans-30" transform="translate(254.492188 0)"/>
      </g>
     </g>
    </g>
    <g id="ytick_10">
     <g id="line2d_60">
      <g>
       <use xlink:href="#me7f02af464" x="104.96" y="416.353296" style="stroke: #000000; stroke-width: 0.8"/>
      </g>
     </g>
     <g id="text_59">
      <!-- 18000 -->
      <g transform="translate(40.6975 423.19189) scale(0.18 -0.18)">
       <use xlink:href="#DejaVuSans-31"/>
       <use xlink:href="#DejaVuSans-38" transform="translate(63.623047 0)"/>
       <use xlink:href="#DejaVuSans-30" transform="translate(127.246094 0)"/>
       <use xlink:href="#DejaVuSans-30" transform="translate(190.869141 0)"/>
       <use xlink:href="#DejaVuSans-30" transform="translate(254.492188 0)"/>
      </g>
     </g>
    </g>
    <g id="text_60">
     <!-- Seconds -->
     <g transform="translate(32.954063 561.452656) rotate(-90) scale(0.18 -0.18)">
      <use xlink:href="#DejaVuSans-53"/>
      <use xlink:href="#DejaVuSans-65" transform="translate(63.476562 0)"/>
      <use xlink:href="#DejaVuSans-63" transform="translate(125 0)"/>
      <use xlink:href="#DejaVuSans-6f" transform="translate(179.980469 0)"/>
      <use xlink:href="#DejaVuSans-6e" transform="translate(241.162109 0)"/>
      <use xlink:href="#DejaVuSans-64" transform="translate(304.541016 0)"/>
      <use xlink:href="#DejaVuSans-73" transform="translate(368.017578 0)"/>
     </g>
    </g>
   </g>
   <g id="line2d_61">
    <path d="M 104.96 475.516543 
L 120.231795 547.563159 
L 135.50359 476.263614 
L 150.775385 421.149013 
L 166.047179 404.221818 
L 181.318974 420.956221 
L 196.590769 409.388661 
L 211.862564 413.818073 
L 227.134359 424.291534 
L 242.406154 419.645231 
L 257.677949 428.778783 
L 272.949744 464.281551 
L 288.221538 476.91429 
L 303.493333 497.345491 
L 318.765128 487.262435 
L 334.036923 476.061182 
L 349.308718 493.128152 
L 364.580513 470.749744 
L 379.852308 479.719423 
L 395.124103 480.630368 
L 410.395897 494.005359 
L 425.667692 503.529316 
L 440.939487 510.855437 
L 456.211282 501.871299 
L 471.483077 501.538732 
L 486.754872 522.466375 
L 502.026667 486.341851 
L 517.298462 521.680745 
L 532.570256 507.597241 
L 547.842051 508.522646 
L 563.113846 505.375306 
L 578.385641 502.300263 
L 593.657436 498.16968 
L 608.929231 501.153146 
L 624.201026 505.375306 
L 639.472821 515.270389 
L 654.744615 519.555206 
L 670.01641 489.127704 
L 685.288205 473.723571 
L 700.56 522.239843 
" clip-path="url(#p52e32a839c)" style="fill: none; stroke: #1f77b4; stroke-width: 1.5; stroke-linecap: square"/>
   </g>
   <g id="line2d_62">
    <path d="M 104.96 492.236486 
L 120.231795 585.316781 
L 135.50359 604.277939 
L 150.775385 508.970889 
L 166.047179 475.212894 
L 181.318974 425.6941 
L 196.590769 438.403956 
L 211.862564 445.889131 
L 227.134359 443.696115 
L 242.406154 437.136345 
L 257.677949 454.815431 
L 272.949744 426.672523 
L 288.221538 441.146432 
L 303.493333 509.327555 
L 318.765128 439.965577 
L 334.036923 484.891086 
L 349.308718 471.106411 
L 364.580513 445.209537 
L 379.852308 474.340508 
L 395.124103 473.979021 
L 410.395897 461.746327 
L 425.667692 469.506232 
L 440.939487 486.370769 
L 456.211282 456.565025 
L 471.483077 454.916647 
L 486.754872 475.641858 
L 502.026667 459.355698 
L 517.298462 468.821818 
L 532.570256 487.219057 
L 547.842051 479.680864 
L 563.113846 457.572366 
L 578.385641 475.998524 
L 593.657436 462.98502 
L 608.929231 501.659227 
L 624.201026 498.280536 
L 639.472821 481.579872 
L 654.744615 501.244723 
L 670.01641 483.970501 
L 685.288205 488.636083 
L 700.56 477.478208 
" clip-path="url(#p52e32a839c)" style="fill: none; stroke: #ff7f0e; stroke-width: 1.5; stroke-linecap: square"/>
   </g>
   <g id="line2d_63">
    <path d="M 104.96 488.399912 
L 120.231795 616.713065 
L 135.50359 594.286459 
L 150.775385 584.343178 
L 166.047179 587.18687 
L 181.318974 573.990212 
L 196.590769 550.527346 
L 211.862564 557.887206 
L 227.134359 561.921392 
L 242.406154 532.506052 
L 257.677949 551.544327 
L 272.949744 643.058182 
L 288.221538 601.487265 
L 303.493333 595.867359 
L 318.765128 592.43083 
L 334.036923 540.492488 
L 349.308718 536.323347 
L 364.580513 570.62598 
L 379.852308 592.252497 
L 395.124103 550.69604 
L 410.395897 568.572739 
L 425.667692 565.709768 
L 440.939487 564.774723 
L 456.211282 548.204194 
L 471.483077 582.053765 
L 486.754872 569.493324 
L 502.026667 597.226547 
L 517.298462 580.121019 
L 532.570256 600.137716 
L 547.842051 599.877446 
L 563.113846 588.440022 
L 578.385641 613.411491 
L 593.657436 590.32457 
L 608.929231 591.317452 
L 624.201026 620.356846 
L 639.472821 607.208387 
L 654.744615 602.860913 
L 670.01641 622.88243 
L 685.288205 596.093891 
L 700.56 618.766307 
" clip-path="url(#p52e32a839c)" style="fill: none; stroke: #2ca02c; stroke-width: 1.5; stroke-linecap: square"/>
   </g>
   <g id="line2d_64">
    <path d="M 104.96 492.959459 
L 120.231795 544.218206 
L 135.50359 486.896129 
L 150.775385 482.249826 
L 166.047179 510.291518 
L 181.318974 507.698457 
L 196.590769 528.587542 
L 211.862564 530.746819 
L 227.134359 503.471478 
L 242.406154 551.443111 
L 257.677949 518.967188 
L 272.949744 545.027935 
L 288.221538 496.728555 
L 303.493333 517.622459 
L 318.765128 502.203866 
L 334.036923 515.299308 
L 349.308718 533.065151 
L 364.580513 522.514573 
L 379.852308 539.615282 
L 395.124103 516.856108 
L 410.395897 565.290444 
L 425.667692 541.302217 
L 440.939487 541.875775 
L 456.211282 558.195674 
L 471.483077 548.102978 
L 486.754872 554.850721 
L 502.026667 562.090086 
L 517.298462 558.272791 
L 532.570256 557.665494 
L 547.842051 576.655571 
L 563.113846 566.509857 
L 578.385641 543.562711 
L 593.657436 558.83189 
L 608.929231 556.556936 
L 624.201026 562.200941 
L 639.472821 552.619146 
L 654.744615 565.724227 
L 670.01641 554.990496 
L 685.288205 551.033427 
L 700.56 566.813506 
" clip-path="url(#p52e32a839c)" style="fill: none; stroke: #d62728; stroke-width: 1.5; stroke-linecap: square"/>
   </g>
   <g id="line2d_65">
    <path d="M 104.96 522.890519 
L 120.231795 479.738702 
L 135.50359 460.199166 
L 150.775385 474.436904 
L 166.047179 489.093966 
L 181.318974 478.649424 
L 196.590769 539.38393 
L 211.862564 430.68743 
L 227.134359 419.471717 
L 242.406154 425.038605 
L 257.677949 579.060659 
L 272.949744 564.278282 
L 288.221538 549.582662 
L 303.493333 588.984661 
L 318.765128 590.141417 
L 334.036923 574.530032 
L 349.308718 588.035157 
L 364.580513 577.103814 
L 379.852308 533.951997 
L 395.124103 563.608328 
L 410.395897 533.894159 
L 425.667692 568.698054 
L 440.939487 606.437217 
L 456.211282 579.282371 
L 471.483077 567.150893 
L 486.754872 557.371485 
L 502.026667 583.557548 
L 517.298462 564.639768 
L 532.570256 582.877954 
L 547.842051 588.377364 
L 563.113846 556.441261 
L 578.385641 573.199762 
L 593.657436 575.426518 
L 608.929231 590.883669 
L 624.201026 590.531822 
L 639.472821 581.759756 
L 654.744615 571.724899 
L 670.01641 590.570381 
L 685.288205 581.253676 
L 700.56 589.230472 
" clip-path="url(#p52e32a839c)" style="fill: none; stroke: #9467bd; stroke-width: 1.5; stroke-linecap: square"/>
   </g>
   <g id="patch_9">
    <path d="M 104.96 655 
L 104.96 392.28 
" style="fill: none; stroke: #000000; stroke-width: 0.8; stroke-linejoin: miter; stroke-linecap: square"/>
   </g>
   <g id="patch_10">
    <path d="M 700.56 655 
L 700.56 392.28 
" style="fill: none; stroke: #000000; stroke-width: 0.8; stroke-linejoin: miter; stroke-linecap: square"/>
   </g>
   <g id="patch_11">
    <path d="M 104.96 655 
L 700.56 655 
" style="fill: none; stroke: #000000; stroke-width: 0.8; stroke-linejoin: miter; stroke-linecap: square"/>
   </g>
   <g id="patch_12">
    <path d="M 104.96 392.28 
L 700.56 392.28 
" style="fill: none; stroke: #000000; stroke-width: 0.8; stroke-linejoin: miter; stroke-linecap: square"/>
   </g>
   <g id="text_61">
    <!-- Total Wait Time Over Iterations (All Runs) -->
    <g transform="translate(181.111938 386.28) scale(0.216 -0.216)">
     <defs>
      <path id="DejaVuSans-57" d="M 213 4666 
L 850 4666 
L 1831 722 
L 2809 4666 
L 3519 4666 
L 4500 722 
L 5478 4666 
L 6119 4666 
L 4947 0 
L 4153 0 
L 3169 4050 
L 2175 0 
L 1381 0 
L 213 4666 
z
" transform="scale(0.015625)"/>
     </defs>
     <use xlink:href="#DejaVuSans-54"/>
     <use xlink:href="#DejaVuSans-6f" transform="translate(44.083984 0)"/>
     <use xlink:href="#DejaVuSans-74" transform="translate(105.265625 0)"/>
     <use xlink:href="#DejaVuSans-61" transform="translate(144.474609 0)"/>
     <use xlink:href="#DejaVuSans-6c" transform="translate(205.753906 0)"/>
     <use xlink:href="#DejaVuSans-20" transform="translate(233.537109 0)"/>
     <use xlink:href="#DejaVuSans-57" transform="translate(265.324219 0)"/>
     <use xlink:href="#DejaVuSans-61" transform="translate(357.826172 0)"/>
     <use xlink:href="#DejaVuSans-69" transform="translate(419.105469 0)"/>
     <use xlink:href="#DejaVuSans-74" transform="translate(446.888672 0)"/>
     <use xlink:href="#DejaVuSans-20" transform="translate(486.097656 0)"/>
     <use xlink:href="#DejaVuSans-54" transform="translate(517.884766 0)"/>
     <use xlink:href="#DejaVuSans-69" transform="translate(575.84375 0)"/>
     <use xlink:href="#DejaVuSans-6d" transform="translate(603.626953 0)"/>
     <use xlink:href="#DejaVuSans-65" transform="translate(701.039062 0)"/>
     <use xlink:href="#DejaVuSans-20" transform="translate(762.5625 0)"/>
     <use xlink:href="#DejaVuSans-4f" transform="translate(794.349609 0)"/>
     <use xlink:href="#DejaVuSans-76" transform="translate(873.060547 0)"/>
     <use xlink:href="#DejaVuSans-65" transform="translate(932.240234 0)"/>
     <use xlink:href="#DejaVuSans-72" transform="translate(993.763672 0)"/>
     <use xlink:href="#DejaVuSans-20" transform="translate(1034.876953 0)"/>
     <use xlink:href="#DejaVuSans-49" transform="translate(1066.664062 0)"/>
     <use xlink:href="#DejaVuSans-74" transform="translate(1096.15625 0)"/>
     <use xlink:href="#DejaVuSans-65" transform="translate(1135.365234 0)"/>
     <use xlink:href="#DejaVuSans-72" transform="translate(1196.888672 0)"/>
     <use xlink:href="#DejaVuSans-61" transform="translate(1238.001953 0)"/>
     <use xlink:href="#DejaVuSans-74" transform="translate(1299.28125 0)"/>
     <use xlink:href="#DejaVuSans-69" transform="translate(1338.490234 0)"/>
     <use xlink:href="#DejaVuSans-6f" transform="translate(1366.273438 0)"/>
     <use xlink:href="#DejaVuSans-6e" transform="translate(1427.455078 0)"/>
     <use xlink:href="#DejaVuSans-73" transform="translate(1490.833984 0)"/>
     <use xlink:href="#DejaVuSans-20" transform="translate(1542.933594 0)"/>
     <use xlink:href="#DejaVuSans-28" transform="translate(1574.720703 0)"/>
     <use xlink:href="#DejaVuSans-41" transform="translate(1613.734375 0)"/>
     <use xlink:href="#DejaVuSans-6c" transform="translate(1682.142578 0)"/>
     <use xlink:href="#DejaVuSans-6c" transform="translate(1709.925781 0)"/>
     <use xlink:href="#DejaVuSans-20" transform="translate(1737.708984 0)"/>
     <use xlink:href="#DejaVuSans-52" transform="translate(1769.496094 0)"/>
     <use xlink:href="#DejaVuSans-75" transform="translate(1834.478516 0)"/>
     <use xlink:href="#DejaVuSans-6e" transform="translate(1897.857422 0)"/>
     <use xlink:href="#DejaVuSans-73" transform="translate(1961.236328 0)"/>
     <use xlink:href="#DejaVuSans-29" transform="translate(2013.335938 0)"/>
    </g>
   </g>
   <g id="legend_2">
    <g id="patch_13">
     <path d="M 421.652812 538.783125 
L 687.96 538.783125 
Q 691.56 538.783125 691.56 535.183125 
L 691.56 404.88 
Q 691.56 401.28 687.96 401.28 
L 421.652812 401.28 
Q 418.052812 401.28 418.052812 404.88 
L 418.052812 535.183125 
Q 418.052812 538.783125 421.652812 538.783125 
z
" style="fill: #ffffff; opacity: 0.8; stroke: #cccccc; stroke-linejoin: miter"/>
    </g>
    <g id="line2d_66">
     <path d="M 425.252812 415.857188 
L 443.252812 415.857188 
L 461.252812 415.857188 
" style="fill: none; stroke: #1f77b4; stroke-width: 1.5; stroke-linecap: square"/>
    </g>
    <g id="text_62">
     <!-- Total Wait Time (Run 1) -->
     <g transform="translate(475.652812 422.157188) scale(0.18 -0.18)">
      <use xlink:href="#DejaVuSans-54"/>
      <use xlink:href="#DejaVuSans-6f" transform="translate(44.083984 0)"/>
      <use xlink:href="#DejaVuSans-74" transform="translate(105.265625 0)"/>
      <use xlink:href="#DejaVuSans-61" transform="translate(144.474609 0)"/>
      <use xlink:href="#DejaVuSans-6c" transform="translate(205.753906 0)"/>
      <use xlink:href="#DejaVuSans-20" transform="translate(233.537109 0)"/>
      <use xlink:href="#DejaVuSans-57" transform="translate(265.324219 0)"/>
      <use xlink:href="#DejaVuSans-61" transform="translate(357.826172 0)"/>
      <use xlink:href="#DejaVuSans-69" transform="translate(419.105469 0)"/>
      <use xlink:href="#DejaVuSans-74" transform="translate(446.888672 0)"/>
      <use xlink:href="#DejaVuSans-20" transform="translate(486.097656 0)"/>
      <use xlink:href="#DejaVuSans-54" transform="translate(517.884766 0)"/>
      <use xlink:href="#DejaVuSans-69" transform="translate(575.84375 0)"/>
      <use xlink:href="#DejaVuSans-6d" transform="translate(603.626953 0)"/>
      <use xlink:href="#DejaVuSans-65" transform="translate(701.039062 0)"/>
      <use xlink:href="#DejaVuSans-20" transform="translate(762.5625 0)"/>
      <use xlink:href="#DejaVuSans-28" transform="translate(794.349609 0)"/>
      <use xlink:href="#DejaVuSans-52" transform="translate(833.363281 0)"/>
      <use xlink:href="#DejaVuSans-75" transform="translate(898.345703 0)"/>
      <use xlink:href="#DejaVuSans-6e" transform="translate(961.724609 0)"/>
      <use xlink:href="#DejaVuSans-20" transform="translate(1025.103516 0)"/>
      <use xlink:href="#DejaVuSans-31" transform="translate(1056.890625 0)"/>
      <use xlink:href="#DejaVuSans-29" transform="translate(1120.513672 0)"/>
     </g>
    </g>
    <g id="line2d_67">
     <path d="M 425.252812 442.277813 
L 443.252812 442.277813 
L 461.252812 442.277813 
" style="fill: none; stroke: #ff7f0e; stroke-width: 1.5; stroke-linecap: square"/>
    </g>
    <g id="text_63">
     <!-- Total Wait Time (Run 2) -->
     <g transform="translate(475.652812 448.577813) scale(0.18 -0.18)">
      <use xlink:href="#DejaVuSans-54"/>
      <use xlink:href="#DejaVuSans-6f" transform="translate(44.083984 0)"/>
      <use xlink:href="#DejaVuSans-74" transform="translate(105.265625 0)"/>
      <use xlink:href="#DejaVuSans-61" transform="translate(144.474609 0)"/>
      <use xlink:href="#DejaVuSans-6c" transform="translate(205.753906 0)"/>
      <use xlink:href="#DejaVuSans-20" transform="translate(233.537109 0)"/>
      <use xlink:href="#DejaVuSans-57" transform="translate(265.324219 0)"/>
      <use xlink:href="#DejaVuSans-61" transform="translate(357.826172 0)"/>
      <use xlink:href="#DejaVuSans-69" transform="translate(419.105469 0)"/>
      <use xlink:href="#DejaVuSans-74" transform="translate(446.888672 0)"/>
      <use xlink:href="#DejaVuSans-20" transform="translate(486.097656 0)"/>
      <use xlink:href="#DejaVuSans-54" transform="translate(517.884766 0)"/>
      <use xlink:href="#DejaVuSans-69" transform="translate(575.84375 0)"/>
      <use xlink:href="#DejaVuSans-6d" transform="translate(603.626953 0)"/>
      <use xlink:href="#DejaVuSans-65" transform="translate(701.039062 0)"/>
      <use xlink:href="#DejaVuSans-20" transform="translate(762.5625 0)"/>
      <use xlink:href="#DejaVuSans-28" transform="translate(794.349609 0)"/>
      <use xlink:href="#DejaVuSans-52" transform="translate(833.363281 0)"/>
      <use xlink:href="#DejaVuSans-75" transform="translate(898.345703 0)"/>
      <use xlink:href="#DejaVuSans-6e" transform="translate(961.724609 0)"/>
      <use xlink:href="#DejaVuSans-20" transform="translate(1025.103516 0)"/>
      <use xlink:href="#DejaVuSans-32" transform="translate(1056.890625 0)"/>
      <use xlink:href="#DejaVuSans-29" transform="translate(1120.513672 0)"/>
     </g>
    </g>
    <g id="line2d_68">
     <path d="M 425.252812 468.698438 
L 443.252812 468.698438 
L 461.252812 468.698438 
" style="fill: none; stroke: #2ca02c; stroke-width: 1.5; stroke-linecap: square"/>
    </g>
    <g id="text_64">
     <!-- Total Wait Time (Run 3) -->
     <g transform="translate(475.652812 474.998438) scale(0.18 -0.18)">
      <use xlink:href="#DejaVuSans-54"/>
      <use xlink:href="#DejaVuSans-6f" transform="translate(44.083984 0)"/>
      <use xlink:href="#DejaVuSans-74" transform="translate(105.265625 0)"/>
      <use xlink:href="#DejaVuSans-61" transform="translate(144.474609 0)"/>
      <use xlink:href="#DejaVuSans-6c" transform="translate(205.753906 0)"/>
      <use xlink:href="#DejaVuSans-20" transform="translate(233.537109 0)"/>
      <use xlink:href="#DejaVuSans-57" transform="translate(265.324219 0)"/>
      <use xlink:href="#DejaVuSans-61" transform="translate(357.826172 0)"/>
      <use xlink:href="#DejaVuSans-69" transform="translate(419.105469 0)"/>
      <use xlink:href="#DejaVuSans-74" transform="translate(446.888672 0)"/>
      <use xlink:href="#DejaVuSans-20" transform="translate(486.097656 0)"/>
      <use xlink:href="#DejaVuSans-54" transform="translate(517.884766 0)"/>
      <use xlink:href="#DejaVuSans-69" transform="translate(575.84375 0)"/>
      <use xlink:href="#DejaVuSans-6d" transform="translate(603.626953 0)"/>
      <use xlink:href="#DejaVuSans-65" transform="translate(701.039062 0)"/>
      <use xlink:href="#DejaVuSans-20" transform="translate(762.5625 0)"/>
      <use xlink:href="#DejaVuSans-28" transform="translate(794.349609 0)"/>
      <use xlink:href="#DejaVuSans-52" transform="translate(833.363281 0)"/>
      <use xlink:href="#DejaVuSans-75" transform="translate(898.345703 0)"/>
      <use xlink:href="#DejaVuSans-6e" transform="translate(961.724609 0)"/>
      <use xlink:href="#DejaVuSans-20" transform="translate(1025.103516 0)"/>
      <use xlink:href="#DejaVuSans-33" transform="translate(1056.890625 0)"/>
      <use xlink:href="#DejaVuSans-29" transform="translate(1120.513672 0)"/>
     </g>
    </g>
    <g id="line2d_69">
     <path d="M 425.252812 495.119062 
L 443.252812 495.119062 
L 461.252812 495.119062 
" style="fill: none; stroke: #d62728; stroke-width: 1.5; stroke-linecap: square"/>
    </g>
    <g id="text_65">
     <!-- Total Wait Time (Run 4) -->
     <g transform="translate(475.652812 501.419062) scale(0.18 -0.18)">
      <use xlink:href="#DejaVuSans-54"/>
      <use xlink:href="#DejaVuSans-6f" transform="translate(44.083984 0)"/>
      <use xlink:href="#DejaVuSans-74" transform="translate(105.265625 0)"/>
      <use xlink:href="#DejaVuSans-61" transform="translate(144.474609 0)"/>
      <use xlink:href="#DejaVuSans-6c" transform="translate(205.753906 0)"/>
      <use xlink:href="#DejaVuSans-20" transform="translate(233.537109 0)"/>
      <use xlink:href="#DejaVuSans-57" transform="translate(265.324219 0)"/>
      <use xlink:href="#DejaVuSans-61" transform="translate(357.826172 0)"/>
      <use xlink:href="#DejaVuSans-69" transform="translate(419.105469 0)"/>
      <use xlink:href="#DejaVuSans-74" transform="translate(446.888672 0)"/>
      <use xlink:href="#DejaVuSans-20" transform="translate(486.097656 0)"/>
      <use xlink:href="#DejaVuSans-54" transform="translate(517.884766 0)"/>
      <use xlink:href="#DejaVuSans-69" transform="translate(575.84375 0)"/>
      <use xlink:href="#DejaVuSans-6d" transform="translate(603.626953 0)"/>
      <use xlink:href="#DejaVuSans-65" transform="translate(701.039062 0)"/>
      <use xlink:href="#DejaVuSans-20" transform="translate(762.5625 0)"/>
      <use xlink:href="#DejaVuSans-28" transform="translate(794.349609 0)"/>
      <use xlink:href="#DejaVuSans-52" transform="translate(833.363281 0)"/>
      <use xlink:href="#DejaVuSans-75" transform="translate(898.345703 0)"/>
      <use xlink:href="#DejaVuSans-6e" transform="translate(961.724609 0)"/>
      <use xlink:href="#DejaVuSans-20" transform="translate(1025.103516 0)"/>
      <use xlink:href="#DejaVuSans-34" transform="translate(1056.890625 0)"/>
      <use xlink:href="#DejaVuSans-29" transform="translate(1120.513672 0)"/>
     </g>
    </g>
    <g id="line2d_70">
     <path d="M 425.252812 521.539688 
L 443.252812 521.539688 
L 461.252812 521.539688 
" style="fill: none; stroke: #9467bd; stroke-width: 1.5; stroke-linecap: square"/>
    </g>
    <g id="text_66">
     <!-- Total Wait Time (Run 5) -->
     <g transform="translate(475.652812 527.839688) scale(0.18 -0.18)">
      <use xlink:href="#DejaVuSans-54"/>
      <use xlink:href="#DejaVuSans-6f" transform="translate(44.083984 0)"/>
      <use xlink:href="#DejaVuSans-74" transform="translate(105.265625 0)"/>
      <use xlink:href="#DejaVuSans-61" transform="translate(144.474609 0)"/>
      <use xlink:href="#DejaVuSans-6c" transform="translate(205.753906 0)"/>
      <use xlink:href="#DejaVuSans-20" transform="translate(233.537109 0)"/>
      <use xlink:href="#DejaVuSans-57" transform="translate(265.324219 0)"/>
      <use xlink:href="#DejaVuSans-61" transform="translate(357.826172 0)"/>
      <use xlink:href="#DejaVuSans-69" transform="translate(419.105469 0)"/>
      <use xlink:href="#DejaVuSans-74" transform="translate(446.888672 0)"/>
      <use xlink:href="#DejaVuSans-20" transform="translate(486.097656 0)"/>
      <use xlink:href="#DejaVuSans-54" transform="translate(517.884766 0)"/>
      <use xlink:href="#DejaVuSans-69" transform="translate(575.84375 0)"/>
      <use xlink:href="#DejaVuSans-6d" transform="translate(603.626953 0)"/>
      <use xlink:href="#DejaVuSans-65" transform="translate(701.039062 0)"/>
      <use xlink:href="#DejaVuSans-20" transform="translate(762.5625 0)"/>
      <use xlink:href="#DejaVuSans-28" transform="translate(794.349609 0)"/>
      <use xlink:href="#DejaVuSans-52" transform="translate(833.363281 0)"/>
      <use xlink:href="#DejaVuSans-75" transform="translate(898.345703 0)"/>
      <use xlink:href="#DejaVuSans-6e" transform="translate(961.724609 0)"/>
      <use xlink:href="#DejaVuSans-20" transform="translate(1025.103516 0)"/>
      <use xlink:href="#DejaVuSans-35" transform="translate(1056.890625 0)"/>
      <use xlink:href="#DejaVuSans-29" transform="translate(1120.513672 0)"/>
     </g>
    </g>
   </g>
  </g>
 </g>
 <defs>
  <clipPath id="p8a79e59174">
   <rect x="104.96" y="42" width="595.6" height="262.72"/>
  </clipPath>
  <clipPath id="p52e32a839c">
   <rect x="104.96" y="392.28" width="595.6" height="262.72"/>
  </clipPath>
 </defs>
</svg>
