<?xml version="1.0" encoding="utf-8" standalone="no"?>
<!DOCTYPE svg PUBLIC "-//W3C//DTD SVG 1.1//EN"
  "http://www.w3.org/Graphics/SVG/1.1/DTD/svg11.dtd">
<svg xmlns:xlink="http://www.w3.org/1999/xlink" width="720pt" height="720pt" viewBox="0 0 720 720" xmlns="http://www.w3.org/2000/svg" version="1.1">
 <metadata>
  <rdf:RDF xmlns:dc="http://purl.org/dc/elements/1.1/" xmlns:cc="http://creativecommons.org/ns#" xmlns:rdf="http://www.w3.org/1999/02/22-rdf-syntax-ns#">
   <cc:Work>
    <dc:type rdf:resource="http://purl.org/dc/dcmitype/StillImage"/>
    <dc:date>2025-04-18T16:53:08.950899</dc:date>
    <dc:format>image/svg+xml</dc:format>
    <dc:creator>
     <cc:Agent>
      <dc:title>Matplotlib v3.10.1, https://matplotlib.org/</dc:title>
     </cc:Agent>
    </dc:creator>
   </cc:Work>
  </rdf:RDF>
 </metadata>
 <defs>
  <style type="text/css">*{stroke-linejoin: round; stroke-linecap: butt}</style>
 </defs>
 <g id="figure_1">
  <g id="patch_1">
   <path d="M 0 720 
L 720 720 
L 720 0 
L 0 0 
z
" style="fill: #ffffff"/>
  </g>
  <g id="axes_1">
   <g id="patch_2">
    <path d="M 105.05 304.72 
L 700.56 304.72 
L 700.56 42 
L 105.05 42 
z
" style="fill: #ffffff"/>
   </g>
   <g id="matplotlib.axis_1">
    <g id="xtick_1">
     <g id="line2d_1">
      <defs>
       <path id="m3583af3961" d="M 0 0 
L 0 3.5 
" style="stroke: #000000; stroke-width: 0.8"/>
      </defs>
      <g>
       <use xlink:href="#m3583af3961" x="105.05" y="304.72" style="stroke: #000000; stroke-width: 0.8"/>
      </g>
     </g>
     <g id="text_1">
      <!-- 0 -->
      <g transform="translate(99.32375 325.397188) scale(0.18 -0.18)">
       <defs>
        <path id="DejaVuSans-30" d="M 2034 4250 
Q 1547 4250 1301 3770 
Q 1056 3291 1056 2328 
Q 1056 1369 1301 889 
Q 1547 409 2034 409 
Q 2525 409 2770 889 
Q 3016 1369 3016 2328 
Q 3016 3291 2770 3770 
Q 2525 4250 2034 4250 
z
M 2034 4750 
Q 2819 4750 3233 4129 
Q 3647 3509 3647 2328 
Q 3647 1150 3233 529 
Q 2819 -91 2034 -91 
Q 1250 -91 836 529 
Q 422 1150 422 2328 
Q 422 3509 836 4129 
Q 1250 4750 2034 4750 
z
" transform="scale(0.015625)"/>
       </defs>
       <use xlink:href="#DejaVuSans-30"/>
      </g>
     </g>
    </g>
    <g id="xtick_2">
     <g id="line2d_2">
      <g>
       <use xlink:href="#m3583af3961" x="135.588974" y="304.72" style="stroke: #000000; stroke-width: 0.8"/>
      </g>
     </g>
     <g id="text_2">
      <!-- 2 -->
      <g transform="translate(129.862724 325.397188) scale(0.18 -0.18)">
       <defs>
        <path id="DejaVuSans-32" d="M 1228 531 
L 3431 531 
L 3431 0 
L 469 0 
L 469 531 
Q 828 903 1448 1529 
Q 2069 2156 2228 2338 
Q 2531 2678 2651 2914 
Q 2772 3150 2772 3378 
Q 2772 3750 2511 3984 
Q 2250 4219 1831 4219 
Q 1534 4219 1204 4116 
Q 875 4013 500 3803 
L 500 4441 
Q 881 4594 1212 4672 
Q 1544 4750 1819 4750 
Q 2544 4750 2975 4387 
Q 3406 4025 3406 3419 
Q 3406 3131 3298 2873 
Q 3191 2616 2906 2266 
Q 2828 2175 2409 1742 
Q 1991 1309 1228 531 
z
" transform="scale(0.015625)"/>
       </defs>
       <use xlink:href="#DejaVuSans-32"/>
      </g>
     </g>
    </g>
    <g id="xtick_3">
     <g id="line2d_3">
      <g>
       <use xlink:href="#m3583af3961" x="166.127949" y="304.72" style="stroke: #000000; stroke-width: 0.8"/>
      </g>
     </g>
     <g id="text_3">
      <!-- 4 -->
      <g transform="translate(160.401699 325.397188) scale(0.18 -0.18)">
       <defs>
        <path id="DejaVuSans-34" d="M 2419 4116 
L 825 1625 
L 2419 1625 
L 2419 4116 
z
M 2253 4666 
L 3047 4666 
L 3047 1625 
L 3713 1625 
L 3713 1100 
L 3047 1100 
L 3047 0 
L 2419 0 
L 2419 1100 
L 313 1100 
L 313 1709 
L 2253 4666 
z
" transform="scale(0.015625)"/>
       </defs>
       <use xlink:href="#DejaVuSans-34"/>
      </g>
     </g>
    </g>
    <g id="xtick_4">
     <g id="line2d_4">
      <g>
       <use xlink:href="#m3583af3961" x="196.666923" y="304.72" style="stroke: #000000; stroke-width: 0.8"/>
      </g>
     </g>
     <g id="text_4">
      <!-- 6 -->
      <g transform="translate(190.940673 325.397188) scale(0.18 -0.18)">
       <defs>
        <path id="DejaVuSans-36" d="M 2113 2584 
Q 1688 2584 1439 2293 
Q 1191 2003 1191 1497 
Q 1191 994 1439 701 
Q 1688 409 2113 409 
Q 2538 409 2786 701 
Q 3034 994 3034 1497 
Q 3034 2003 2786 2293 
Q 2538 2584 2113 2584 
z
M 3366 4563 
L 3366 3988 
Q 3128 4100 2886 4159 
Q 2644 4219 2406 4219 
Q 1781 4219 1451 3797 
Q 1122 3375 1075 2522 
Q 1259 2794 1537 2939 
Q 1816 3084 2150 3084 
Q 2853 3084 3261 2657 
Q 3669 2231 3669 1497 
Q 3669 778 3244 343 
Q 2819 -91 2113 -91 
Q 1303 -91 875 529 
Q 447 1150 447 2328 
Q 447 3434 972 4092 
Q 1497 4750 2381 4750 
Q 2619 4750 2861 4703 
Q 3103 4656 3366 4563 
z
" transform="scale(0.015625)"/>
       </defs>
       <use xlink:href="#DejaVuSans-36"/>
      </g>
     </g>
    </g>
    <g id="xtick_5">
     <g id="line2d_5">
      <g>
       <use xlink:href="#m3583af3961" x="227.205897" y="304.72" style="stroke: #000000; stroke-width: 0.8"/>
      </g>
     </g>
     <g id="text_5">
      <!-- 8 -->
      <g transform="translate(221.479647 325.397188) scale(0.18 -0.18)">
       <defs>
        <path id="DejaVuSans-38" d="M 2034 2216 
Q 1584 2216 1326 1975 
Q 1069 1734 1069 1313 
Q 1069 891 1326 650 
Q 1584 409 2034 409 
Q 2484 409 2743 651 
Q 3003 894 3003 1313 
Q 3003 1734 2745 1975 
Q 2488 2216 2034 2216 
z
M 1403 2484 
Q 997 2584 770 2862 
Q 544 3141 544 3541 
Q 544 4100 942 4425 
Q 1341 4750 2034 4750 
Q 2731 4750 3128 4425 
Q 3525 4100 3525 3541 
Q 3525 3141 3298 2862 
Q 3072 2584 2669 2484 
Q 3125 2378 3379 2068 
Q 3634 1759 3634 1313 
Q 3634 634 3220 271 
Q 2806 -91 2034 -91 
Q 1263 -91 848 271 
Q 434 634 434 1313 
Q 434 1759 690 2068 
Q 947 2378 1403 2484 
z
M 1172 3481 
Q 1172 3119 1398 2916 
Q 1625 2713 2034 2713 
Q 2441 2713 2670 2916 
Q 2900 3119 2900 3481 
Q 2900 3844 2670 4047 
Q 2441 4250 2034 4250 
Q 1625 4250 1398 4047 
Q 1172 3844 1172 3481 
z
" transform="scale(0.015625)"/>
       </defs>
       <use xlink:href="#DejaVuSans-38"/>
      </g>
     </g>
    </g>
    <g id="xtick_6">
     <g id="line2d_6">
      <g>
       <use xlink:href="#m3583af3961" x="257.744872" y="304.72" style="stroke: #000000; stroke-width: 0.8"/>
      </g>
     </g>
     <g id="text_6">
      <!-- 10 -->
      <g transform="translate(246.292372 325.397188) scale(0.18 -0.18)">
       <defs>
        <path id="DejaVuSans-31" d="M 794 531 
L 1825 531 
L 1825 4091 
L 703 3866 
L 703 4441 
L 1819 4666 
L 2450 4666 
L 2450 531 
L 3481 531 
L 3481 0 
L 794 0 
L 794 531 
z
" transform="scale(0.015625)"/>
       </defs>
       <use xlink:href="#DejaVuSans-31"/>
       <use xlink:href="#DejaVuSans-30" transform="translate(63.623047 0)"/>
      </g>
     </g>
    </g>
    <g id="xtick_7">
     <g id="line2d_7">
      <g>
       <use xlink:href="#m3583af3961" x="288.283846" y="304.72" style="stroke: #000000; stroke-width: 0.8"/>
      </g>
     </g>
     <g id="text_7">
      <!-- 12 -->
      <g transform="translate(276.831346 325.397188) scale(0.18 -0.18)">
       <use xlink:href="#DejaVuSans-31"/>
       <use xlink:href="#DejaVuSans-32" transform="translate(63.623047 0)"/>
      </g>
     </g>
    </g>
    <g id="xtick_8">
     <g id="line2d_8">
      <g>
       <use xlink:href="#m3583af3961" x="318.822821" y="304.72" style="stroke: #000000; stroke-width: 0.8"/>
      </g>
     </g>
     <g id="text_8">
      <!-- 14 -->
      <g transform="translate(307.370321 325.397188) scale(0.18 -0.18)">
       <use xlink:href="#DejaVuSans-31"/>
       <use xlink:href="#DejaVuSans-34" transform="translate(63.623047 0)"/>
      </g>
     </g>
    </g>
    <g id="xtick_9">
     <g id="line2d_9">
      <g>
       <use xlink:href="#m3583af3961" x="349.361795" y="304.72" style="stroke: #000000; stroke-width: 0.8"/>
      </g>
     </g>
     <g id="text_9">
      <!-- 16 -->
      <g transform="translate(337.909295 325.397188) scale(0.18 -0.18)">
       <use xlink:href="#DejaVuSans-31"/>
       <use xlink:href="#DejaVuSans-36" transform="translate(63.623047 0)"/>
      </g>
     </g>
    </g>
    <g id="xtick_10">
     <g id="line2d_10">
      <g>
       <use xlink:href="#m3583af3961" x="379.900769" y="304.72" style="stroke: #000000; stroke-width: 0.8"/>
      </g>
     </g>
     <g id="text_10">
      <!-- 18 -->
      <g transform="translate(368.448269 325.397188) scale(0.18 -0.18)">
       <use xlink:href="#DejaVuSans-31"/>
       <use xlink:href="#DejaVuSans-38" transform="translate(63.623047 0)"/>
      </g>
     </g>
    </g>
    <g id="xtick_11">
     <g id="line2d_11">
      <g>
       <use xlink:href="#m3583af3961" x="410.439744" y="304.72" style="stroke: #000000; stroke-width: 0.8"/>
      </g>
     </g>
     <g id="text_11">
      <!-- 20 -->
      <g transform="translate(398.987244 325.397188) scale(0.18 -0.18)">
       <use xlink:href="#DejaVuSans-32"/>
       <use xlink:href="#DejaVuSans-30" transform="translate(63.623047 0)"/>
      </g>
     </g>
    </g>
    <g id="xtick_12">
     <g id="line2d_12">
      <g>
       <use xlink:href="#m3583af3961" x="440.978718" y="304.72" style="stroke: #000000; stroke-width: 0.8"/>
      </g>
     </g>
     <g id="text_12">
      <!-- 22 -->
      <g transform="translate(429.526218 325.397188) scale(0.18 -0.18)">
       <use xlink:href="#DejaVuSans-32"/>
       <use xlink:href="#DejaVuSans-32" transform="translate(63.623047 0)"/>
      </g>
     </g>
    </g>
    <g id="xtick_13">
     <g id="line2d_13">
      <g>
       <use xlink:href="#m3583af3961" x="471.517692" y="304.72" style="stroke: #000000; stroke-width: 0.8"/>
      </g>
     </g>
     <g id="text_13">
      <!-- 24 -->
      <g transform="translate(460.065192 325.397188) scale(0.18 -0.18)">
       <use xlink:href="#DejaVuSans-32"/>
       <use xlink:href="#DejaVuSans-34" transform="translate(63.623047 0)"/>
      </g>
     </g>
    </g>
    <g id="xtick_14">
     <g id="line2d_14">
      <g>
       <use xlink:href="#m3583af3961" x="502.056667" y="304.72" style="stroke: #000000; stroke-width: 0.8"/>
      </g>
     </g>
     <g id="text_14">
      <!-- 26 -->
      <g transform="translate(490.604167 325.397188) scale(0.18 -0.18)">
       <use xlink:href="#DejaVuSans-32"/>
       <use xlink:href="#DejaVuSans-36" transform="translate(63.623047 0)"/>
      </g>
     </g>
    </g>
    <g id="xtick_15">
     <g id="line2d_15">
      <g>
       <use xlink:href="#m3583af3961" x="532.595641" y="304.72" style="stroke: #000000; stroke-width: 0.8"/>
      </g>
     </g>
     <g id="text_15">
      <!-- 28 -->
      <g transform="translate(521.143141 325.397188) scale(0.18 -0.18)">
       <use xlink:href="#DejaVuSans-32"/>
       <use xlink:href="#DejaVuSans-38" transform="translate(63.623047 0)"/>
      </g>
     </g>
    </g>
    <g id="xtick_16">
     <g id="line2d_16">
      <g>
       <use xlink:href="#m3583af3961" x="563.134615" y="304.72" style="stroke: #000000; stroke-width: 0.8"/>
      </g>
     </g>
     <g id="text_16">
      <!-- 30 -->
      <g transform="translate(551.682115 325.397188) scale(0.18 -0.18)">
       <defs>
        <path id="DejaVuSans-33" d="M 2597 2516 
Q 3050 2419 3304 2112 
Q 3559 1806 3559 1356 
Q 3559 666 3084 287 
Q 2609 -91 1734 -91 
Q 1441 -91 1130 -33 
Q 819 25 488 141 
L 488 750 
Q 750 597 1062 519 
Q 1375 441 1716 441 
Q 2309 441 2620 675 
Q 2931 909 2931 1356 
Q 2931 1769 2642 2001 
Q 2353 2234 1838 2234 
L 1294 2234 
L 1294 2753 
L 1863 2753 
Q 2328 2753 2575 2939 
Q 2822 3125 2822 3475 
Q 2822 3834 2567 4026 
Q 2313 4219 1838 4219 
Q 1578 4219 1281 4162 
Q 984 4106 628 3988 
L 628 4550 
Q 988 4650 1302 4700 
Q 1616 4750 1894 4750 
Q 2613 4750 3031 4423 
Q 3450 4097 3450 3541 
Q 3450 3153 3228 2886 
Q 3006 2619 2597 2516 
z
" transform="scale(0.015625)"/>
       </defs>
       <use xlink:href="#DejaVuSans-33"/>
       <use xlink:href="#DejaVuSans-30" transform="translate(63.623047 0)"/>
      </g>
     </g>
    </g>
    <g id="xtick_17">
     <g id="line2d_17">
      <g>
       <use xlink:href="#m3583af3961" x="593.67359" y="304.72" style="stroke: #000000; stroke-width: 0.8"/>
      </g>
     </g>
     <g id="text_17">
      <!-- 32 -->
      <g transform="translate(582.22109 325.397188) scale(0.18 -0.18)">
       <use xlink:href="#DejaVuSans-33"/>
       <use xlink:href="#DejaVuSans-32" transform="translate(63.623047 0)"/>
      </g>
     </g>
    </g>
    <g id="xtick_18">
     <g id="line2d_18">
      <g>
       <use xlink:href="#m3583af3961" x="624.212564" y="304.72" style="stroke: #000000; stroke-width: 0.8"/>
      </g>
     </g>
     <g id="text_18">
      <!-- 34 -->
      <g transform="translate(612.760064 325.397188) scale(0.18 -0.18)">
       <use xlink:href="#DejaVuSans-33"/>
       <use xlink:href="#DejaVuSans-34" transform="translate(63.623047 0)"/>
      </g>
     </g>
    </g>
    <g id="xtick_19">
     <g id="line2d_19">
      <g>
       <use xlink:href="#m3583af3961" x="654.751538" y="304.72" style="stroke: #000000; stroke-width: 0.8"/>
      </g>
     </g>
     <g id="text_19">
      <!-- 36 -->
      <g transform="translate(643.299038 325.397188) scale(0.18 -0.18)">
       <use xlink:href="#DejaVuSans-33"/>
       <use xlink:href="#DejaVuSans-36" transform="translate(63.623047 0)"/>
      </g>
     </g>
    </g>
    <g id="xtick_20">
     <g id="line2d_20">
      <g>
       <use xlink:href="#m3583af3961" x="685.290513" y="304.72" style="stroke: #000000; stroke-width: 0.8"/>
      </g>
     </g>
     <g id="text_20">
      <!-- 38 -->
      <g transform="translate(673.838013 325.397188) scale(0.18 -0.18)">
       <use xlink:href="#DejaVuSans-33"/>
       <use xlink:href="#DejaVuSans-38" transform="translate(63.623047 0)"/>
      </g>
     </g>
    </g>
    <g id="text_21">
     <!-- Iteration -->
     <g transform="translate(364.629531 346.817813) scale(0.18 -0.18)">
      <defs>
       <path id="DejaVuSans-49" d="M 628 4666 
L 1259 4666 
L 1259 0 
L 628 0 
L 628 4666 
z
" transform="scale(0.015625)"/>
       <path id="DejaVuSans-74" d="M 1172 4494 
L 1172 3500 
L 2356 3500 
L 2356 3053 
L 1172 3053 
L 1172 1153 
Q 1172 725 1289 603 
Q 1406 481 1766 481 
L 2356 481 
L 2356 0 
L 1766 0 
Q 1100 0 847 248 
Q 594 497 594 1153 
L 594 3053 
L 172 3053 
L 172 3500 
L 594 3500 
L 594 4494 
L 1172 4494 
z
" transform="scale(0.015625)"/>
       <path id="DejaVuSans-65" d="M 3597 1894 
L 3597 1613 
L 953 1613 
Q 991 1019 1311 708 
Q 1631 397 2203 397 
Q 2534 397 2845 478 
Q 3156 559 3463 722 
L 3463 178 
Q 3153 47 2828 -22 
Q 2503 -91 2169 -91 
Q 1331 -91 842 396 
Q 353 884 353 1716 
Q 353 2575 817 3079 
Q 1281 3584 2069 3584 
Q 2775 3584 3186 3129 
Q 3597 2675 3597 1894 
z
M 3022 2063 
Q 3016 2534 2758 2815 
Q 2500 3097 2075 3097 
Q 1594 3097 1305 2825 
Q 1016 2553 972 2059 
L 3022 2063 
z
" transform="scale(0.015625)"/>
       <path id="DejaVuSans-72" d="M 2631 2963 
Q 2534 3019 2420 3045 
Q 2306 3072 2169 3072 
Q 1681 3072 1420 2755 
Q 1159 2438 1159 1844 
L 1159 0 
L 581 0 
L 581 3500 
L 1159 3500 
L 1159 2956 
Q 1341 3275 1631 3429 
Q 1922 3584 2338 3584 
Q 2397 3584 2469 3576 
Q 2541 3569 2628 3553 
L 2631 2963 
z
" transform="scale(0.015625)"/>
       <path id="DejaVuSans-61" d="M 2194 1759 
Q 1497 1759 1228 1600 
Q 959 1441 959 1056 
Q 959 750 1161 570 
Q 1363 391 1709 391 
Q 2188 391 2477 730 
Q 2766 1069 2766 1631 
L 2766 1759 
L 2194 1759 
z
M 3341 1997 
L 3341 0 
L 2766 0 
L 2766 531 
Q 2569 213 2275 61 
Q 1981 -91 1556 -91 
Q 1019 -91 701 211 
Q 384 513 384 1019 
Q 384 1609 779 1909 
Q 1175 2209 1959 2209 
L 2766 2209 
L 2766 2266 
Q 2766 2663 2505 2880 
Q 2244 3097 1772 3097 
Q 1472 3097 1187 3025 
Q 903 2953 641 2809 
L 641 3341 
Q 956 3463 1253 3523 
Q 1550 3584 1831 3584 
Q 2591 3584 2966 3190 
Q 3341 2797 3341 1997 
z
" transform="scale(0.015625)"/>
       <path id="DejaVuSans-69" d="M 603 3500 
L 1178 3500 
L 1178 0 
L 603 0 
L 603 3500 
z
M 603 4863 
L 1178 4863 
L 1178 4134 
L 603 4134 
L 603 4863 
z
" transform="scale(0.015625)"/>
       <path id="DejaVuSans-6f" d="M 1959 3097 
Q 1497 3097 1228 2736 
Q 959 2375 959 1747 
Q 959 1119 1226 758 
Q 1494 397 1959 397 
Q 2419 397 2687 759 
Q 2956 1122 2956 1747 
Q 2956 2369 2687 2733 
Q 2419 3097 1959 3097 
z
M 1959 3584 
Q 2709 3584 3137 3096 
Q 3566 2609 3566 1747 
Q 3566 888 3137 398 
Q 2709 -91 1959 -91 
Q 1206 -91 779 398 
Q 353 888 353 1747 
Q 353 2609 779 3096 
Q 1206 3584 1959 3584 
z
" transform="scale(0.015625)"/>
       <path id="DejaVuSans-6e" d="M 3513 2113 
L 3513 0 
L 2938 0 
L 2938 2094 
Q 2938 2591 2744 2837 
Q 2550 3084 2163 3084 
Q 1697 3084 1428 2787 
Q 1159 2491 1159 1978 
L 1159 0 
L 581 0 
L 581 3500 
L 1159 3500 
L 1159 2956 
Q 1366 3272 1645 3428 
Q 1925 3584 2291 3584 
Q 2894 3584 3203 3211 
Q 3513 2838 3513 2113 
z
" transform="scale(0.015625)"/>
      </defs>
      <use xlink:href="#DejaVuSans-49"/>
      <use xlink:href="#DejaVuSans-74" transform="translate(29.492188 0)"/>
      <use xlink:href="#DejaVuSans-65" transform="translate(68.701172 0)"/>
      <use xlink:href="#DejaVuSans-72" transform="translate(130.224609 0)"/>
      <use xlink:href="#DejaVuSans-61" transform="translate(171.337891 0)"/>
      <use xlink:href="#DejaVuSans-74" transform="translate(232.617188 0)"/>
      <use xlink:href="#DejaVuSans-69" transform="translate(271.826172 0)"/>
      <use xlink:href="#DejaVuSans-6f" transform="translate(299.609375 0)"/>
      <use xlink:href="#DejaVuSans-6e" transform="translate(360.791016 0)"/>
     </g>
    </g>
   </g>
   <g id="matplotlib.axis_2">
    <g id="ytick_1">
     <g id="line2d_21">
      <defs>
       <path id="m53114f9148" d="M 0 0 
L -3.5 0 
" style="stroke: #000000; stroke-width: 0.8"/>
      </defs>
      <g>
       <use xlink:href="#m53114f9148" x="105.05" y="291.306278" style="stroke: #000000; stroke-width: 0.8"/>
      </g>
     </g>
     <g id="text_22">
      <!-- 28000 -->
      <g transform="translate(40.7875 298.144872) scale(0.18 -0.18)">
       <use xlink:href="#DejaVuSans-32"/>
       <use xlink:href="#DejaVuSans-38" transform="translate(63.623047 0)"/>
       <use xlink:href="#DejaVuSans-30" transform="translate(127.246094 0)"/>
       <use xlink:href="#DejaVuSans-30" transform="translate(190.869141 0)"/>
       <use xlink:href="#DejaVuSans-30" transform="translate(254.492188 0)"/>
      </g>
     </g>
    </g>
    <g id="ytick_2">
     <g id="line2d_22">
      <g>
       <use xlink:href="#m53114f9148" x="105.05" y="244.2806" style="stroke: #000000; stroke-width: 0.8"/>
      </g>
     </g>
     <g id="text_23">
      <!-- 30000 -->
      <g transform="translate(40.7875 251.119194) scale(0.18 -0.18)">
       <use xlink:href="#DejaVuSans-33"/>
       <use xlink:href="#DejaVuSans-30" transform="translate(63.623047 0)"/>
       <use xlink:href="#DejaVuSans-30" transform="translate(127.246094 0)"/>
       <use xlink:href="#DejaVuSans-30" transform="translate(190.869141 0)"/>
       <use xlink:href="#DejaVuSans-30" transform="translate(254.492188 0)"/>
      </g>
     </g>
    </g>
    <g id="ytick_3">
     <g id="line2d_23">
      <g>
       <use xlink:href="#m53114f9148" x="105.05" y="197.254923" style="stroke: #000000; stroke-width: 0.8"/>
      </g>
     </g>
     <g id="text_24">
      <!-- 32000 -->
      <g transform="translate(40.7875 204.093516) scale(0.18 -0.18)">
       <use xlink:href="#DejaVuSans-33"/>
       <use xlink:href="#DejaVuSans-32" transform="translate(63.623047 0)"/>
       <use xlink:href="#DejaVuSans-30" transform="translate(127.246094 0)"/>
       <use xlink:href="#DejaVuSans-30" transform="translate(190.869141 0)"/>
       <use xlink:href="#DejaVuSans-30" transform="translate(254.492188 0)"/>
      </g>
     </g>
    </g>
    <g id="ytick_4">
     <g id="line2d_24">
      <g>
       <use xlink:href="#m53114f9148" x="105.05" y="150.229245" style="stroke: #000000; stroke-width: 0.8"/>
      </g>
     </g>
     <g id="text_25">
      <!-- 34000 -->
      <g transform="translate(40.7875 157.067838) scale(0.18 -0.18)">
       <use xlink:href="#DejaVuSans-33"/>
       <use xlink:href="#DejaVuSans-34" transform="translate(63.623047 0)"/>
       <use xlink:href="#DejaVuSans-30" transform="translate(127.246094 0)"/>
       <use xlink:href="#DejaVuSans-30" transform="translate(190.869141 0)"/>
       <use xlink:href="#DejaVuSans-30" transform="translate(254.492188 0)"/>
      </g>
     </g>
    </g>
    <g id="ytick_5">
     <g id="line2d_25">
      <g>
       <use xlink:href="#m53114f9148" x="105.05" y="103.203567" style="stroke: #000000; stroke-width: 0.8"/>
      </g>
     </g>
     <g id="text_26">
      <!-- 36000 -->
      <g transform="translate(40.7875 110.042161) scale(0.18 -0.18)">
       <use xlink:href="#DejaVuSans-33"/>
       <use xlink:href="#DejaVuSans-36" transform="translate(63.623047 0)"/>
       <use xlink:href="#DejaVuSans-30" transform="translate(127.246094 0)"/>
       <use xlink:href="#DejaVuSans-30" transform="translate(190.869141 0)"/>
       <use xlink:href="#DejaVuSans-30" transform="translate(254.492188 0)"/>
      </g>
     </g>
    </g>
    <g id="ytick_6">
     <g id="line2d_26">
      <g>
       <use xlink:href="#m53114f9148" x="105.05" y="56.177889" style="stroke: #000000; stroke-width: 0.8"/>
      </g>
     </g>
     <g id="text_27">
      <!-- 38000 -->
      <g transform="translate(40.7875 63.016483) scale(0.18 -0.18)">
       <use xlink:href="#DejaVuSans-33"/>
       <use xlink:href="#DejaVuSans-38" transform="translate(63.623047 0)"/>
       <use xlink:href="#DejaVuSans-30" transform="translate(127.246094 0)"/>
       <use xlink:href="#DejaVuSans-30" transform="translate(190.869141 0)"/>
       <use xlink:href="#DejaVuSans-30" transform="translate(254.492188 0)"/>
      </g>
     </g>
    </g>
    <g id="text_28">
     <!-- Seconds -->
     <g transform="translate(33.044063 211.172656) rotate(-90) scale(0.18 -0.18)">
      <defs>
       <path id="DejaVuSans-53" d="M 3425 4513 
L 3425 3897 
Q 3066 4069 2747 4153 
Q 2428 4238 2131 4238 
Q 1616 4238 1336 4038 
Q 1056 3838 1056 3469 
Q 1056 3159 1242 3001 
Q 1428 2844 1947 2747 
L 2328 2669 
Q 3034 2534 3370 2195 
Q 3706 1856 3706 1288 
Q 3706 609 3251 259 
Q 2797 -91 1919 -91 
Q 1588 -91 1214 -16 
Q 841 59 441 206 
L 441 856 
Q 825 641 1194 531 
Q 1563 422 1919 422 
Q 2459 422 2753 634 
Q 3047 847 3047 1241 
Q 3047 1584 2836 1778 
Q 2625 1972 2144 2069 
L 1759 2144 
Q 1053 2284 737 2584 
Q 422 2884 422 3419 
Q 422 4038 858 4394 
Q 1294 4750 2059 4750 
Q 2388 4750 2728 4690 
Q 3069 4631 3425 4513 
z
" transform="scale(0.015625)"/>
       <path id="DejaVuSans-63" d="M 3122 3366 
L 3122 2828 
Q 2878 2963 2633 3030 
Q 2388 3097 2138 3097 
Q 1578 3097 1268 2742 
Q 959 2388 959 1747 
Q 959 1106 1268 751 
Q 1578 397 2138 397 
Q 2388 397 2633 464 
Q 2878 531 3122 666 
L 3122 134 
Q 2881 22 2623 -34 
Q 2366 -91 2075 -91 
Q 1284 -91 818 406 
Q 353 903 353 1747 
Q 353 2603 823 3093 
Q 1294 3584 2113 3584 
Q 2378 3584 2631 3529 
Q 2884 3475 3122 3366 
z
" transform="scale(0.015625)"/>
       <path id="DejaVuSans-64" d="M 2906 2969 
L 2906 4863 
L 3481 4863 
L 3481 0 
L 2906 0 
L 2906 525 
Q 2725 213 2448 61 
Q 2172 -91 1784 -91 
Q 1150 -91 751 415 
Q 353 922 353 1747 
Q 353 2572 751 3078 
Q 1150 3584 1784 3584 
Q 2172 3584 2448 3432 
Q 2725 3281 2906 2969 
z
M 947 1747 
Q 947 1113 1208 752 
Q 1469 391 1925 391 
Q 2381 391 2643 752 
Q 2906 1113 2906 1747 
Q 2906 2381 2643 2742 
Q 2381 3103 1925 3103 
Q 1469 3103 1208 2742 
Q 947 2381 947 1747 
z
" transform="scale(0.015625)"/>
       <path id="DejaVuSans-73" d="M 2834 3397 
L 2834 2853 
Q 2591 2978 2328 3040 
Q 2066 3103 1784 3103 
Q 1356 3103 1142 2972 
Q 928 2841 928 2578 
Q 928 2378 1081 2264 
Q 1234 2150 1697 2047 
L 1894 2003 
Q 2506 1872 2764 1633 
Q 3022 1394 3022 966 
Q 3022 478 2636 193 
Q 2250 -91 1575 -91 
Q 1294 -91 989 -36 
Q 684 19 347 128 
L 347 722 
Q 666 556 975 473 
Q 1284 391 1588 391 
Q 1994 391 2212 530 
Q 2431 669 2431 922 
Q 2431 1156 2273 1281 
Q 2116 1406 1581 1522 
L 1381 1569 
Q 847 1681 609 1914 
Q 372 2147 372 2553 
Q 372 3047 722 3315 
Q 1072 3584 1716 3584 
Q 2034 3584 2315 3537 
Q 2597 3491 2834 3397 
z
" transform="scale(0.015625)"/>
      </defs>
      <use xlink:href="#DejaVuSans-53"/>
      <use xlink:href="#DejaVuSans-65" transform="translate(63.476562 0)"/>
      <use xlink:href="#DejaVuSans-63" transform="translate(125 0)"/>
      <use xlink:href="#DejaVuSans-6f" transform="translate(179.980469 0)"/>
      <use xlink:href="#DejaVuSans-6e" transform="translate(241.162109 0)"/>
      <use xlink:href="#DejaVuSans-64" transform="translate(304.541016 0)"/>
      <use xlink:href="#DejaVuSans-73" transform="translate(368.017578 0)"/>
     </g>
    </g>
   </g>
   <g id="line2d_27">
    <path d="M 105.05 207.8357 
L 120.319487 176.949235 
L 135.588974 116.185005 
L 150.858462 94.93175 
L 166.127949 84.397998 
L 181.397436 88.799602 
L 196.666923 87.292429 
L 211.93641 109.789513 
L 227.205897 107.689817 
L 242.475385 101.17676 
L 257.744872 96.998529 
L 273.014359 89.958785 
L 288.283846 105.176294 
L 303.553333 101.310783 
L 318.822821 120.238619 
L 334.092308 125.051697 
L 349.361795 110.33266 
L 364.631282 114.294573 
L 379.900769 101.437753 
L 395.170256 119.500316 
L 410.439744 107.868514 
L 425.709231 115.924013 
L 440.978718 110.826429 
L 456.248205 125.500792 
L 471.517692 128.235335 
L 486.787179 125.893456 
L 502.056667 122.446474 
L 517.326154 116.128574 
L 532.595641 125.90051 
L 547.865128 121.769305 
L 563.134615 119.883575 
L 578.404103 117.400619 
L 593.67359 122.324208 
L 608.943077 122.63928 
L 624.212564 124.668438 
L 639.482051 124.082968 
L 654.751538 112.45822 
L 670.021026 130.363247 
L 685.290513 130.393814 
L 700.56 130.161037 
" clip-path="url(#pdd2be09964)" style="fill: none; stroke: #1f77b4; stroke-width: 1.5; stroke-linecap: square"/>
   </g>
   <g id="line2d_28">
    <path d="M 105.05 191.421387 
L 120.319487 281.209865 
L 135.588974 292.778182 
L 150.858462 259.340574 
L 166.127949 253.27191 
L 181.397436 191.842267 
L 196.666923 201.024031 
L 211.93641 207.278446 
L 227.205897 221.292098 
L 242.475385 198.921983 
L 257.744872 114.111173 
L 273.014359 93.053074 
L 288.283846 80.064582 
L 303.553333 79.977585 
L 318.822821 100.668883 
L 334.092308 71.677553 
L 349.361795 86.9656 
L 364.631282 80.551298 
L 379.900769 82.326517 
L 395.170256 79.013558 
L 410.439744 82.775613 
L 425.709231 95.992179 
L 440.978718 96.657593 
L 456.248205 97.271278 
L 471.517692 100.650073 
L 486.787179 91.896243 
L 502.056667 98.101281 
L 517.326154 102.759174 
L 532.595641 90.913406 
L 547.865128 93.332877 
L 563.134615 84.369783 
L 578.404103 88.239996 
L 593.67359 102.38532 
L 608.943077 93.94186 
L 624.212564 104.78363 
L 639.482051 92.639248 
L 654.751538 89.984649 
L 670.021026 101.614099 
L 685.290513 105.477258 
L 700.56 103.339941 
" clip-path="url(#pdd2be09964)" style="fill: none; stroke: #ff7f0e; stroke-width: 1.5; stroke-linecap: square"/>
   </g>
   <g id="line2d_29">
    <path d="M 105.05 165.651316 
L 120.319487 214.588587 
L 135.588974 136.067462 
L 150.858462 94.788322 
L 166.127949 73.513905 
L 181.397436 61.632868 
L 196.666923 57.27829 
L 211.93641 60.186828 
L 227.205897 53.941818 
L 242.475385 85.347917 
L 257.744872 83.981821 
L 273.014359 107.847353 
L 288.283846 90.525444 
L 303.553333 106.702277 
L 318.822821 110.33266 
L 334.092308 100.325595 
L 349.361795 87.017329 
L 364.631282 77.099613 
L 379.900769 102.265405 
L 395.170256 108.952456 
L 410.439744 87.765037 
L 425.709231 95.623028 
L 440.978718 93.433982 
L 456.248205 110.713568 
L 471.517692 101.785743 
L 486.787179 92.855567 
L 502.056667 98.247061 
L 517.326154 98.216494 
L 532.595641 109.25342 
L 547.865128 102.853226 
L 563.134615 115.11282 
L 578.404103 111.985612 
L 593.67359 111.983261 
L 608.943077 120.49726 
L 624.212564 110.725324 
L 639.482051 112.375925 
L 654.751538 109.925888 
L 670.021026 109.236961 
L 685.290513 109.194638 
L 700.56 113.010772 
" clip-path="url(#pdd2be09964)" style="fill: none; stroke: #2ca02c; stroke-width: 1.5; stroke-linecap: square"/>
   </g>
   <g id="line2d_30">
    <path d="M 105.05 160.175176 
L 120.319487 102.171353 
L 135.588974 127.680432 
L 150.858462 173.036698 
L 166.127949 219.606227 
L 181.397436 226.730617 
L 196.666923 147.863853 
L 211.93641 147.82153 
L 227.205897 138.058999 
L 242.475385 182.937955 
L 257.744872 117.976684 
L 273.014359 162.192577 
L 288.283846 129.168795 
L 303.553333 79.608433 
L 318.822821 67.395865 
L 334.092308 70.113949 
L 349.361795 81.200252 
L 364.631282 136.069813 
L 379.900769 109.178179 
L 395.170256 110.250365 
L 410.439744 87.908465 
L 425.709231 88.867789 
L 440.978718 98.743181 
L 456.248205 105.707684 
L 471.517692 98.040148 
L 486.787179 100.128088 
L 502.056667 96.636431 
L 517.326154 119.979978 
L 532.595641 106.763411 
L 547.865128 118.884279 
L 563.134615 117.807391 
L 578.404103 139.737816 
L 593.67359 129.925908 
L 608.943077 138.968946 
L 624.212564 143.751458 
L 639.482051 140.47847 
L 654.751538 134.249919 
L 670.021026 129.98469 
L 685.290513 127.78624 
L 700.56 139.824814 
" clip-path="url(#pdd2be09964)" style="fill: none; stroke: #d62728; stroke-width: 1.5; stroke-linecap: square"/>
   </g>
   <g id="line2d_31">
    <path d="M 105.05 160.008234 
L 120.319487 223.803269 
L 135.588974 139.48858 
L 150.858462 151.715256 
L 166.127949 118.115409 
L 181.397436 107.12786 
L 196.666923 141.637653 
L 211.93641 119.349833 
L 227.205897 112.474679 
L 242.475385 113.354059 
L 257.744872 122.277182 
L 273.014359 118.94071 
L 288.283846 105.738251 
L 303.553333 108.879566 
L 318.822821 127.614596 
L 334.092308 124.81892 
L 349.361795 134.83774 
L 364.631282 118.442238 
L 379.900769 118.7385 
L 395.170256 129.187605 
L 410.439744 133.615073 
L 425.709231 131.106253 
L 440.978718 133.466942 
L 456.248205 142.491169 
L 471.517692 131.33903 
L 486.787179 131.148576 
L 502.056667 137.226645 
L 517.326154 128.679728 
L 532.595641 142.770972 
L 547.865128 143.328227 
L 563.134615 158.573951 
L 578.404103 150.454968 
L 593.67359 147.403002 
L 608.943077 147.130253 
L 624.212564 140.233937 
L 639.482051 142.187854 
L 654.751538 142.462954 
L 670.021026 139.267559 
L 685.290513 136.765793 
L 700.56 146.57535 
" clip-path="url(#pdd2be09964)" style="fill: none; stroke: #9467bd; stroke-width: 1.5; stroke-linecap: square"/>
   </g>
   <g id="patch_3">
    <path d="M 105.05 304.72 
L 105.05 42 
" style="fill: none; stroke: #000000; stroke-width: 0.8; stroke-linejoin: miter; stroke-linecap: square"/>
   </g>
   <g id="patch_4">
    <path d="M 700.56 304.72 
L 700.56 42 
" style="fill: none; stroke: #000000; stroke-width: 0.8; stroke-linejoin: miter; stroke-linecap: square"/>
   </g>
   <g id="patch_5">
    <path d="M 105.05 304.72 
L 700.56 304.72 
" style="fill: none; stroke: #000000; stroke-width: 0.8; stroke-linejoin: miter; stroke-linecap: square"/>
   </g>
   <g id="patch_6">
    <path d="M 105.05 42 
L 700.56 42 
" style="fill: none; stroke: #000000; stroke-width: 0.8; stroke-linejoin: miter; stroke-linecap: square"/>
   </g>
   <g id="text_29">
    <!-- Total Trip Time Over Iterations (All Runs) -->
    <g transform="translate(185.699688 36) scale(0.216 -0.216)">
     <defs>
      <path id="DejaVuSans-54" d="M -19 4666 
L 3928 4666 
L 3928 4134 
L 2272 4134 
L 2272 0 
L 1638 0 
L 1638 4134 
L -19 4134 
L -19 4666 
z
" transform="scale(0.015625)"/>
      <path id="DejaVuSans-6c" d="M 603 4863 
L 1178 4863 
L 1178 0 
L 603 0 
L 603 4863 
z
" transform="scale(0.015625)"/>
      <path id="DejaVuSans-20" transform="scale(0.015625)"/>
      <path id="DejaVuSans-70" d="M 1159 525 
L 1159 -1331 
L 581 -1331 
L 581 3500 
L 1159 3500 
L 1159 2969 
Q 1341 3281 1617 3432 
Q 1894 3584 2278 3584 
Q 2916 3584 3314 3078 
Q 3713 2572 3713 1747 
Q 3713 922 3314 415 
Q 2916 -91 2278 -91 
Q 1894 -91 1617 61 
Q 1341 213 1159 525 
z
M 3116 1747 
Q 3116 2381 2855 2742 
Q 2594 3103 2138 3103 
Q 1681 3103 1420 2742 
Q 1159 2381 1159 1747 
Q 1159 1113 1420 752 
Q 1681 391 2138 391 
Q 2594 391 2855 752 
Q 3116 1113 3116 1747 
z
" transform="scale(0.015625)"/>
      <path id="DejaVuSans-6d" d="M 3328 2828 
Q 3544 3216 3844 3400 
Q 4144 3584 4550 3584 
Q 5097 3584 5394 3201 
Q 5691 2819 5691 2113 
L 5691 0 
L 5113 0 
L 5113 2094 
Q 5113 2597 4934 2840 
Q 4756 3084 4391 3084 
Q 3944 3084 3684 2787 
Q 3425 2491 3425 1978 
L 3425 0 
L 2847 0 
L 2847 2094 
Q 2847 2600 2669 2842 
Q 2491 3084 2119 3084 
Q 1678 3084 1418 2786 
Q 1159 2488 1159 1978 
L 1159 0 
L 581 0 
L 581 3500 
L 1159 3500 
L 1159 2956 
Q 1356 3278 1631 3431 
Q 1906 3584 2284 3584 
Q 2666 3584 2933 3390 
Q 3200 3197 3328 2828 
z
" transform="scale(0.015625)"/>
      <path id="DejaVuSans-4f" d="M 2522 4238 
Q 1834 4238 1429 3725 
Q 1025 3213 1025 2328 
Q 1025 1447 1429 934 
Q 1834 422 2522 422 
Q 3209 422 3611 934 
Q 4013 1447 4013 2328 
Q 4013 3213 3611 3725 
Q 3209 4238 2522 4238 
z
M 2522 4750 
Q 3503 4750 4090 4092 
Q 4678 3434 4678 2328 
Q 4678 1225 4090 567 
Q 3503 -91 2522 -91 
Q 1538 -91 948 565 
Q 359 1222 359 2328 
Q 359 3434 948 4092 
Q 1538 4750 2522 4750 
z
" transform="scale(0.015625)"/>
      <path id="DejaVuSans-76" d="M 191 3500 
L 800 3500 
L 1894 563 
L 2988 3500 
L 3597 3500 
L 2284 0 
L 1503 0 
L 191 3500 
z
" transform="scale(0.015625)"/>
      <path id="DejaVuSans-28" d="M 1984 4856 
Q 1566 4138 1362 3434 
Q 1159 2731 1159 2009 
Q 1159 1288 1364 580 
Q 1569 -128 1984 -844 
L 1484 -844 
Q 1016 -109 783 600 
Q 550 1309 550 2009 
Q 550 2706 781 3412 
Q 1013 4119 1484 4856 
L 1984 4856 
z
" transform="scale(0.015625)"/>
      <path id="DejaVuSans-41" d="M 2188 4044 
L 1331 1722 
L 3047 1722 
L 2188 4044 
z
M 1831 4666 
L 2547 4666 
L 4325 0 
L 3669 0 
L 3244 1197 
L 1141 1197 
L 716 0 
L 50 0 
L 1831 4666 
z
" transform="scale(0.015625)"/>
      <path id="DejaVuSans-52" d="M 2841 2188 
Q 3044 2119 3236 1894 
Q 3428 1669 3622 1275 
L 4263 0 
L 3584 0 
L 2988 1197 
Q 2756 1666 2539 1819 
Q 2322 1972 1947 1972 
L 1259 1972 
L 1259 0 
L 628 0 
L 628 4666 
L 2053 4666 
Q 2853 4666 3247 4331 
Q 3641 3997 3641 3322 
Q 3641 2881 3436 2590 
Q 3231 2300 2841 2188 
z
M 1259 4147 
L 1259 2491 
L 2053 2491 
Q 2509 2491 2742 2702 
Q 2975 2913 2975 3322 
Q 2975 3731 2742 3939 
Q 2509 4147 2053 4147 
L 1259 4147 
z
" transform="scale(0.015625)"/>
      <path id="DejaVuSans-75" d="M 544 1381 
L 544 3500 
L 1119 3500 
L 1119 1403 
Q 1119 906 1312 657 
Q 1506 409 1894 409 
Q 2359 409 2629 706 
Q 2900 1003 2900 1516 
L 2900 3500 
L 3475 3500 
L 3475 0 
L 2900 0 
L 2900 538 
Q 2691 219 2414 64 
Q 2138 -91 1772 -91 
Q 1169 -91 856 284 
Q 544 659 544 1381 
z
M 1991 3584 
L 1991 3584 
z
" transform="scale(0.015625)"/>
      <path id="DejaVuSans-29" d="M 513 4856 
L 1013 4856 
Q 1481 4119 1714 3412 
Q 1947 2706 1947 2009 
Q 1947 1309 1714 600 
Q 1481 -109 1013 -844 
L 513 -844 
Q 928 -128 1133 580 
Q 1338 1288 1338 2009 
Q 1338 2731 1133 3434 
Q 928 4138 513 4856 
z
" transform="scale(0.015625)"/>
     </defs>
     <use xlink:href="#DejaVuSans-54"/>
     <use xlink:href="#DejaVuSans-6f" transform="translate(44.083984 0)"/>
     <use xlink:href="#DejaVuSans-74" transform="translate(105.265625 0)"/>
     <use xlink:href="#DejaVuSans-61" transform="translate(144.474609 0)"/>
     <use xlink:href="#DejaVuSans-6c" transform="translate(205.753906 0)"/>
     <use xlink:href="#DejaVuSans-20" transform="translate(233.537109 0)"/>
     <use xlink:href="#DejaVuSans-54" transform="translate(265.324219 0)"/>
     <use xlink:href="#DejaVuSans-72" transform="translate(311.658203 0)"/>
     <use xlink:href="#DejaVuSans-69" transform="translate(352.771484 0)"/>
     <use xlink:href="#DejaVuSans-70" transform="translate(380.554688 0)"/>
     <use xlink:href="#DejaVuSans-20" transform="translate(444.03125 0)"/>
     <use xlink:href="#DejaVuSans-54" transform="translate(475.818359 0)"/>
     <use xlink:href="#DejaVuSans-69" transform="translate(533.777344 0)"/>
     <use xlink:href="#DejaVuSans-6d" transform="translate(561.560547 0)"/>
     <use xlink:href="#DejaVuSans-65" transform="translate(658.972656 0)"/>
     <use xlink:href="#DejaVuSans-20" transform="translate(720.496094 0)"/>
     <use xlink:href="#DejaVuSans-4f" transform="translate(752.283203 0)"/>
     <use xlink:href="#DejaVuSans-76" transform="translate(830.994141 0)"/>
     <use xlink:href="#DejaVuSans-65" transform="translate(890.173828 0)"/>
     <use xlink:href="#DejaVuSans-72" transform="translate(951.697266 0)"/>
     <use xlink:href="#DejaVuSans-20" transform="translate(992.810547 0)"/>
     <use xlink:href="#DejaVuSans-49" transform="translate(1024.597656 0)"/>
     <use xlink:href="#DejaVuSans-74" transform="translate(1054.089844 0)"/>
     <use xlink:href="#DejaVuSans-65" transform="translate(1093.298828 0)"/>
     <use xlink:href="#DejaVuSans-72" transform="translate(1154.822266 0)"/>
     <use xlink:href="#DejaVuSans-61" transform="translate(1195.935547 0)"/>
     <use xlink:href="#DejaVuSans-74" transform="translate(1257.214844 0)"/>
     <use xlink:href="#DejaVuSans-69" transform="translate(1296.423828 0)"/>
     <use xlink:href="#DejaVuSans-6f" transform="translate(1324.207031 0)"/>
     <use xlink:href="#DejaVuSans-6e" transform="translate(1385.388672 0)"/>
     <use xlink:href="#DejaVuSans-73" transform="translate(1448.767578 0)"/>
     <use xlink:href="#DejaVuSans-20" transform="translate(1500.867188 0)"/>
     <use xlink:href="#DejaVuSans-28" transform="translate(1532.654297 0)"/>
     <use xlink:href="#DejaVuSans-41" transform="translate(1571.667969 0)"/>
     <use xlink:href="#DejaVuSans-6c" transform="translate(1640.076172 0)"/>
     <use xlink:href="#DejaVuSans-6c" transform="translate(1667.859375 0)"/>
     <use xlink:href="#DejaVuSans-20" transform="translate(1695.642578 0)"/>
     <use xlink:href="#DejaVuSans-52" transform="translate(1727.429688 0)"/>
     <use xlink:href="#DejaVuSans-75" transform="translate(1792.412109 0)"/>
     <use xlink:href="#DejaVuSans-6e" transform="translate(1855.791016 0)"/>
     <use xlink:href="#DejaVuSans-73" transform="translate(1919.169922 0)"/>
     <use xlink:href="#DejaVuSans-29" transform="translate(1971.269531 0)"/>
    </g>
   </g>
   <g id="legend_1">
    <g id="patch_7">
     <path d="M 429.224063 295.72 
L 687.96 295.72 
Q 691.56 295.72 691.56 292.12 
L 691.56 161.816875 
Q 691.56 158.216875 687.96 158.216875 
L 429.224063 158.216875 
Q 425.624063 158.216875 425.624063 161.816875 
L 425.624063 292.12 
Q 425.624063 295.72 429.224063 295.72 
z
" style="fill: #ffffff; opacity: 0.8; stroke: #cccccc; stroke-linejoin: miter"/>
    </g>
    <g id="line2d_32">
     <path d="M 432.824063 172.794063 
L 450.824063 172.794063 
L 468.824063 172.794063 
" style="fill: none; stroke: #1f77b4; stroke-width: 1.5; stroke-linecap: square"/>
    </g>
    <g id="text_30">
     <!-- Total Trip Time (Run 1) -->
     <g transform="translate(483.224063 179.094063) scale(0.18 -0.18)">
      <use xlink:href="#DejaVuSans-54"/>
      <use xlink:href="#DejaVuSans-6f" transform="translate(44.083984 0)"/>
      <use xlink:href="#DejaVuSans-74" transform="translate(105.265625 0)"/>
      <use xlink:href="#DejaVuSans-61" transform="translate(144.474609 0)"/>
      <use xlink:href="#DejaVuSans-6c" transform="translate(205.753906 0)"/>
      <use xlink:href="#DejaVuSans-20" transform="translate(233.537109 0)"/>
      <use xlink:href="#DejaVuSans-54" transform="translate(265.324219 0)"/>
      <use xlink:href="#DejaVuSans-72" transform="translate(311.658203 0)"/>
      <use xlink:href="#DejaVuSans-69" transform="translate(352.771484 0)"/>
      <use xlink:href="#DejaVuSans-70" transform="translate(380.554688 0)"/>
      <use xlink:href="#DejaVuSans-20" transform="translate(444.03125 0)"/>
      <use xlink:href="#DejaVuSans-54" transform="translate(475.818359 0)"/>
      <use xlink:href="#DejaVuSans-69" transform="translate(533.777344 0)"/>
      <use xlink:href="#DejaVuSans-6d" transform="translate(561.560547 0)"/>
      <use xlink:href="#DejaVuSans-65" transform="translate(658.972656 0)"/>
      <use xlink:href="#DejaVuSans-20" transform="translate(720.496094 0)"/>
      <use xlink:href="#DejaVuSans-28" transform="translate(752.283203 0)"/>
      <use xlink:href="#DejaVuSans-52" transform="translate(791.296875 0)"/>
      <use xlink:href="#DejaVuSans-75" transform="translate(856.279297 0)"/>
      <use xlink:href="#DejaVuSans-6e" transform="translate(919.658203 0)"/>
      <use xlink:href="#DejaVuSans-20" transform="translate(983.037109 0)"/>
      <use xlink:href="#DejaVuSans-31" transform="translate(1014.824219 0)"/>
      <use xlink:href="#DejaVuSans-29" transform="translate(1078.447266 0)"/>
     </g>
    </g>
    <g id="line2d_33">
     <path d="M 432.824063 199.214688 
L 450.824063 199.214688 
L 468.824063 199.214688 
" style="fill: none; stroke: #ff7f0e; stroke-width: 1.5; stroke-linecap: square"/>
    </g>
    <g id="text_31">
     <!-- Total Trip Time (Run 2) -->
     <g transform="translate(483.224063 205.514688) scale(0.18 -0.18)">
      <use xlink:href="#DejaVuSans-54"/>
      <use xlink:href="#DejaVuSans-6f" transform="translate(44.083984 0)"/>
      <use xlink:href="#DejaVuSans-74" transform="translate(105.265625 0)"/>
      <use xlink:href="#DejaVuSans-61" transform="translate(144.474609 0)"/>
      <use xlink:href="#DejaVuSans-6c" transform="translate(205.753906 0)"/>
      <use xlink:href="#DejaVuSans-20" transform="translate(233.537109 0)"/>
      <use xlink:href="#DejaVuSans-54" transform="translate(265.324219 0)"/>
      <use xlink:href="#DejaVuSans-72" transform="translate(311.658203 0)"/>
      <use xlink:href="#DejaVuSans-69" transform="translate(352.771484 0)"/>
      <use xlink:href="#DejaVuSans-70" transform="translate(380.554688 0)"/>
      <use xlink:href="#DejaVuSans-20" transform="translate(444.03125 0)"/>
      <use xlink:href="#DejaVuSans-54" transform="translate(475.818359 0)"/>
      <use xlink:href="#DejaVuSans-69" transform="translate(533.777344 0)"/>
      <use xlink:href="#DejaVuSans-6d" transform="translate(561.560547 0)"/>
      <use xlink:href="#DejaVuSans-65" transform="translate(658.972656 0)"/>
      <use xlink:href="#DejaVuSans-20" transform="translate(720.496094 0)"/>
      <use xlink:href="#DejaVuSans-28" transform="translate(752.283203 0)"/>
      <use xlink:href="#DejaVuSans-52" transform="translate(791.296875 0)"/>
      <use xlink:href="#DejaVuSans-75" transform="translate(856.279297 0)"/>
      <use xlink:href="#DejaVuSans-6e" transform="translate(919.658203 0)"/>
      <use xlink:href="#DejaVuSans-20" transform="translate(983.037109 0)"/>
      <use xlink:href="#DejaVuSans-32" transform="translate(1014.824219 0)"/>
      <use xlink:href="#DejaVuSans-29" transform="translate(1078.447266 0)"/>
     </g>
    </g>
    <g id="line2d_34">
     <path d="M 432.824063 225.635313 
L 450.824063 225.635313 
L 468.824063 225.635313 
" style="fill: none; stroke: #2ca02c; stroke-width: 1.5; stroke-linecap: square"/>
    </g>
    <g id="text_32">
     <!-- Total Trip Time (Run 3) -->
     <g transform="translate(483.224063 231.935313) scale(0.18 -0.18)">
      <use xlink:href="#DejaVuSans-54"/>
      <use xlink:href="#DejaVuSans-6f" transform="translate(44.083984 0)"/>
      <use xlink:href="#DejaVuSans-74" transform="translate(105.265625 0)"/>
      <use xlink:href="#DejaVuSans-61" transform="translate(144.474609 0)"/>
      <use xlink:href="#DejaVuSans-6c" transform="translate(205.753906 0)"/>
      <use xlink:href="#DejaVuSans-20" transform="translate(233.537109 0)"/>
      <use xlink:href="#DejaVuSans-54" transform="translate(265.324219 0)"/>
      <use xlink:href="#DejaVuSans-72" transform="translate(311.658203 0)"/>
      <use xlink:href="#DejaVuSans-69" transform="translate(352.771484 0)"/>
      <use xlink:href="#DejaVuSans-70" transform="translate(380.554688 0)"/>
      <use xlink:href="#DejaVuSans-20" transform="translate(444.03125 0)"/>
      <use xlink:href="#DejaVuSans-54" transform="translate(475.818359 0)"/>
      <use xlink:href="#DejaVuSans-69" transform="translate(533.777344 0)"/>
      <use xlink:href="#DejaVuSans-6d" transform="translate(561.560547 0)"/>
      <use xlink:href="#DejaVuSans-65" transform="translate(658.972656 0)"/>
      <use xlink:href="#DejaVuSans-20" transform="translate(720.496094 0)"/>
      <use xlink:href="#DejaVuSans-28" transform="translate(752.283203 0)"/>
      <use xlink:href="#DejaVuSans-52" transform="translate(791.296875 0)"/>
      <use xlink:href="#DejaVuSans-75" transform="translate(856.279297 0)"/>
      <use xlink:href="#DejaVuSans-6e" transform="translate(919.658203 0)"/>
      <use xlink:href="#DejaVuSans-20" transform="translate(983.037109 0)"/>
      <use xlink:href="#DejaVuSans-33" transform="translate(1014.824219 0)"/>
      <use xlink:href="#DejaVuSans-29" transform="translate(1078.447266 0)"/>
     </g>
    </g>
    <g id="line2d_35">
     <path d="M 432.824063 252.055938 
L 450.824063 252.055938 
L 468.824063 252.055938 
" style="fill: none; stroke: #d62728; stroke-width: 1.5; stroke-linecap: square"/>
    </g>
    <g id="text_33">
     <!-- Total Trip Time (Run 4) -->
     <g transform="translate(483.224063 258.355938) scale(0.18 -0.18)">
      <use xlink:href="#DejaVuSans-54"/>
      <use xlink:href="#DejaVuSans-6f" transform="translate(44.083984 0)"/>
      <use xlink:href="#DejaVuSans-74" transform="translate(105.265625 0)"/>
      <use xlink:href="#DejaVuSans-61" transform="translate(144.474609 0)"/>
      <use xlink:href="#DejaVuSans-6c" transform="translate(205.753906 0)"/>
      <use xlink:href="#DejaVuSans-20" transform="translate(233.537109 0)"/>
      <use xlink:href="#DejaVuSans-54" transform="translate(265.324219 0)"/>
      <use xlink:href="#DejaVuSans-72" transform="translate(311.658203 0)"/>
      <use xlink:href="#DejaVuSans-69" transform="translate(352.771484 0)"/>
      <use xlink:href="#DejaVuSans-70" transform="translate(380.554688 0)"/>
      <use xlink:href="#DejaVuSans-20" transform="translate(444.03125 0)"/>
      <use xlink:href="#DejaVuSans-54" transform="translate(475.818359 0)"/>
      <use xlink:href="#DejaVuSans-69" transform="translate(533.777344 0)"/>
      <use xlink:href="#DejaVuSans-6d" transform="translate(561.560547 0)"/>
      <use xlink:href="#DejaVuSans-65" transform="translate(658.972656 0)"/>
      <use xlink:href="#DejaVuSans-20" transform="translate(720.496094 0)"/>
      <use xlink:href="#DejaVuSans-28" transform="translate(752.283203 0)"/>
      <use xlink:href="#DejaVuSans-52" transform="translate(791.296875 0)"/>
      <use xlink:href="#DejaVuSans-75" transform="translate(856.279297 0)"/>
      <use xlink:href="#DejaVuSans-6e" transform="translate(919.658203 0)"/>
      <use xlink:href="#DejaVuSans-20" transform="translate(983.037109 0)"/>
      <use xlink:href="#DejaVuSans-34" transform="translate(1014.824219 0)"/>
      <use xlink:href="#DejaVuSans-29" transform="translate(1078.447266 0)"/>
     </g>
    </g>
    <g id="line2d_36">
     <path d="M 432.824063 278.476563 
L 450.824063 278.476563 
L 468.824063 278.476563 
" style="fill: none; stroke: #9467bd; stroke-width: 1.5; stroke-linecap: square"/>
    </g>
    <g id="text_34">
     <!-- Total Trip Time (Run 5) -->
     <g transform="translate(483.224063 284.776563) scale(0.18 -0.18)">
      <defs>
       <path id="DejaVuSans-35" d="M 691 4666 
L 3169 4666 
L 3169 4134 
L 1269 4134 
L 1269 2991 
Q 1406 3038 1543 3061 
Q 1681 3084 1819 3084 
Q 2600 3084 3056 2656 
Q 3513 2228 3513 1497 
Q 3513 744 3044 326 
Q 2575 -91 1722 -91 
Q 1428 -91 1123 -41 
Q 819 9 494 109 
L 494 744 
Q 775 591 1075 516 
Q 1375 441 1709 441 
Q 2250 441 2565 725 
Q 2881 1009 2881 1497 
Q 2881 1984 2565 2268 
Q 2250 2553 1709 2553 
Q 1456 2553 1204 2497 
Q 953 2441 691 2322 
L 691 4666 
z
" transform="scale(0.015625)"/>
      </defs>
      <use xlink:href="#DejaVuSans-54"/>
      <use xlink:href="#DejaVuSans-6f" transform="translate(44.083984 0)"/>
      <use xlink:href="#DejaVuSans-74" transform="translate(105.265625 0)"/>
      <use xlink:href="#DejaVuSans-61" transform="translate(144.474609 0)"/>
      <use xlink:href="#DejaVuSans-6c" transform="translate(205.753906 0)"/>
      <use xlink:href="#DejaVuSans-20" transform="translate(233.537109 0)"/>
      <use xlink:href="#DejaVuSans-54" transform="translate(265.324219 0)"/>
      <use xlink:href="#DejaVuSans-72" transform="translate(311.658203 0)"/>
      <use xlink:href="#DejaVuSans-69" transform="translate(352.771484 0)"/>
      <use xlink:href="#DejaVuSans-70" transform="translate(380.554688 0)"/>
      <use xlink:href="#DejaVuSans-20" transform="translate(444.03125 0)"/>
      <use xlink:href="#DejaVuSans-54" transform="translate(475.818359 0)"/>
      <use xlink:href="#DejaVuSans-69" transform="translate(533.777344 0)"/>
      <use xlink:href="#DejaVuSans-6d" transform="translate(561.560547 0)"/>
      <use xlink:href="#DejaVuSans-65" transform="translate(658.972656 0)"/>
      <use xlink:href="#DejaVuSans-20" transform="translate(720.496094 0)"/>
      <use xlink:href="#DejaVuSans-28" transform="translate(752.283203 0)"/>
      <use xlink:href="#DejaVuSans-52" transform="translate(791.296875 0)"/>
      <use xlink:href="#DejaVuSans-75" transform="translate(856.279297 0)"/>
      <use xlink:href="#DejaVuSans-6e" transform="translate(919.658203 0)"/>
      <use xlink:href="#DejaVuSans-20" transform="translate(983.037109 0)"/>
      <use xlink:href="#DejaVuSans-35" transform="translate(1014.824219 0)"/>
      <use xlink:href="#DejaVuSans-29" transform="translate(1078.447266 0)"/>
     </g>
    </g>
   </g>
  </g>
  <g id="axes_2">
   <g id="patch_8">
    <path d="M 105.05 655 
L 700.56 655 
L 700.56 392.28 
L 105.05 392.28 
z
" style="fill: #ffffff"/>
   </g>
   <g id="matplotlib.axis_3">
    <g id="xtick_21">
     <g id="line2d_37">
      <g>
       <use xlink:href="#m3583af3961" x="105.05" y="655" style="stroke: #000000; stroke-width: 0.8"/>
      </g>
     </g>
     <g id="text_35">
      <!-- 0 -->
      <g transform="translate(99.32375 675.677187) scale(0.18 -0.18)">
       <use xlink:href="#DejaVuSans-30"/>
      </g>
     </g>
    </g>
    <g id="xtick_22">
     <g id="line2d_38">
      <g>
       <use xlink:href="#m3583af3961" x="135.588974" y="655" style="stroke: #000000; stroke-width: 0.8"/>
      </g>
     </g>
     <g id="text_36">
      <!-- 2 -->
      <g transform="translate(129.862724 675.677187) scale(0.18 -0.18)">
       <use xlink:href="#DejaVuSans-32"/>
      </g>
     </g>
    </g>
    <g id="xtick_23">
     <g id="line2d_39">
      <g>
       <use xlink:href="#m3583af3961" x="166.127949" y="655" style="stroke: #000000; stroke-width: 0.8"/>
      </g>
     </g>
     <g id="text_37">
      <!-- 4 -->
      <g transform="translate(160.401699 675.677187) scale(0.18 -0.18)">
       <use xlink:href="#DejaVuSans-34"/>
      </g>
     </g>
    </g>
    <g id="xtick_24">
     <g id="line2d_40">
      <g>
       <use xlink:href="#m3583af3961" x="196.666923" y="655" style="stroke: #000000; stroke-width: 0.8"/>
      </g>
     </g>
     <g id="text_38">
      <!-- 6 -->
      <g transform="translate(190.940673 675.677187) scale(0.18 -0.18)">
       <use xlink:href="#DejaVuSans-36"/>
      </g>
     </g>
    </g>
    <g id="xtick_25">
     <g id="line2d_41">
      <g>
       <use xlink:href="#m3583af3961" x="227.205897" y="655" style="stroke: #000000; stroke-width: 0.8"/>
      </g>
     </g>
     <g id="text_39">
      <!-- 8 -->
      <g transform="translate(221.479647 675.677187) scale(0.18 -0.18)">
       <use xlink:href="#DejaVuSans-38"/>
      </g>
     </g>
    </g>
    <g id="xtick_26">
     <g id="line2d_42">
      <g>
       <use xlink:href="#m3583af3961" x="257.744872" y="655" style="stroke: #000000; stroke-width: 0.8"/>
      </g>
     </g>
     <g id="text_40">
      <!-- 10 -->
      <g transform="translate(246.292372 675.677187) scale(0.18 -0.18)">
       <use xlink:href="#DejaVuSans-31"/>
       <use xlink:href="#DejaVuSans-30" transform="translate(63.623047 0)"/>
      </g>
     </g>
    </g>
    <g id="xtick_27">
     <g id="line2d_43">
      <g>
       <use xlink:href="#m3583af3961" x="288.283846" y="655" style="stroke: #000000; stroke-width: 0.8"/>
      </g>
     </g>
     <g id="text_41">
      <!-- 12 -->
      <g transform="translate(276.831346 675.677187) scale(0.18 -0.18)">
       <use xlink:href="#DejaVuSans-31"/>
       <use xlink:href="#DejaVuSans-32" transform="translate(63.623047 0)"/>
      </g>
     </g>
    </g>
    <g id="xtick_28">
     <g id="line2d_44">
      <g>
       <use xlink:href="#m3583af3961" x="318.822821" y="655" style="stroke: #000000; stroke-width: 0.8"/>
      </g>
     </g>
     <g id="text_42">
      <!-- 14 -->
      <g transform="translate(307.370321 675.677187) scale(0.18 -0.18)">
       <use xlink:href="#DejaVuSans-31"/>
       <use xlink:href="#DejaVuSans-34" transform="translate(63.623047 0)"/>
      </g>
     </g>
    </g>
    <g id="xtick_29">
     <g id="line2d_45">
      <g>
       <use xlink:href="#m3583af3961" x="349.361795" y="655" style="stroke: #000000; stroke-width: 0.8"/>
      </g>
     </g>
     <g id="text_43">
      <!-- 16 -->
      <g transform="translate(337.909295 675.677187) scale(0.18 -0.18)">
       <use xlink:href="#DejaVuSans-31"/>
       <use xlink:href="#DejaVuSans-36" transform="translate(63.623047 0)"/>
      </g>
     </g>
    </g>
    <g id="xtick_30">
     <g id="line2d_46">
      <g>
       <use xlink:href="#m3583af3961" x="379.900769" y="655" style="stroke: #000000; stroke-width: 0.8"/>
      </g>
     </g>
     <g id="text_44">
      <!-- 18 -->
      <g transform="translate(368.448269 675.677187) scale(0.18 -0.18)">
       <use xlink:href="#DejaVuSans-31"/>
       <use xlink:href="#DejaVuSans-38" transform="translate(63.623047 0)"/>
      </g>
     </g>
    </g>
    <g id="xtick_31">
     <g id="line2d_47">
      <g>
       <use xlink:href="#m3583af3961" x="410.439744" y="655" style="stroke: #000000; stroke-width: 0.8"/>
      </g>
     </g>
     <g id="text_45">
      <!-- 20 -->
      <g transform="translate(398.987244 675.677187) scale(0.18 -0.18)">
       <use xlink:href="#DejaVuSans-32"/>
       <use xlink:href="#DejaVuSans-30" transform="translate(63.623047 0)"/>
      </g>
     </g>
    </g>
    <g id="xtick_32">
     <g id="line2d_48">
      <g>
       <use xlink:href="#m3583af3961" x="440.978718" y="655" style="stroke: #000000; stroke-width: 0.8"/>
      </g>
     </g>
     <g id="text_46">
      <!-- 22 -->
      <g transform="translate(429.526218 675.677187) scale(0.18 -0.18)">
       <use xlink:href="#DejaVuSans-32"/>
       <use xlink:href="#DejaVuSans-32" transform="translate(63.623047 0)"/>
      </g>
     </g>
    </g>
    <g id="xtick_33">
     <g id="line2d_49">
      <g>
       <use xlink:href="#m3583af3961" x="471.517692" y="655" style="stroke: #000000; stroke-width: 0.8"/>
      </g>
     </g>
     <g id="text_47">
      <!-- 24 -->
      <g transform="translate(460.065192 675.677187) scale(0.18 -0.18)">
       <use xlink:href="#DejaVuSans-32"/>
       <use xlink:href="#DejaVuSans-34" transform="translate(63.623047 0)"/>
      </g>
     </g>
    </g>
    <g id="xtick_34">
     <g id="line2d_50">
      <g>
       <use xlink:href="#m3583af3961" x="502.056667" y="655" style="stroke: #000000; stroke-width: 0.8"/>
      </g>
     </g>
     <g id="text_48">
      <!-- 26 -->
      <g transform="translate(490.604167 675.677187) scale(0.18 -0.18)">
       <use xlink:href="#DejaVuSans-32"/>
       <use xlink:href="#DejaVuSans-36" transform="translate(63.623047 0)"/>
      </g>
     </g>
    </g>
    <g id="xtick_35">
     <g id="line2d_51">
      <g>
       <use xlink:href="#m3583af3961" x="532.595641" y="655" style="stroke: #000000; stroke-width: 0.8"/>
      </g>
     </g>
     <g id="text_49">
      <!-- 28 -->
      <g transform="translate(521.143141 675.677187) scale(0.18 -0.18)">
       <use xlink:href="#DejaVuSans-32"/>
       <use xlink:href="#DejaVuSans-38" transform="translate(63.623047 0)"/>
      </g>
     </g>
    </g>
    <g id="xtick_36">
     <g id="line2d_52">
      <g>
       <use xlink:href="#m3583af3961" x="563.134615" y="655" style="stroke: #000000; stroke-width: 0.8"/>
      </g>
     </g>
     <g id="text_50">
      <!-- 30 -->
      <g transform="translate(551.682115 675.677187) scale(0.18 -0.18)">
       <use xlink:href="#DejaVuSans-33"/>
       <use xlink:href="#DejaVuSans-30" transform="translate(63.623047 0)"/>
      </g>
     </g>
    </g>
    <g id="xtick_37">
     <g id="line2d_53">
      <g>
       <use xlink:href="#m3583af3961" x="593.67359" y="655" style="stroke: #000000; stroke-width: 0.8"/>
      </g>
     </g>
     <g id="text_51">
      <!-- 32 -->
      <g transform="translate(582.22109 675.677187) scale(0.18 -0.18)">
       <use xlink:href="#DejaVuSans-33"/>
       <use xlink:href="#DejaVuSans-32" transform="translate(63.623047 0)"/>
      </g>
     </g>
    </g>
    <g id="xtick_38">
     <g id="line2d_54">
      <g>
       <use xlink:href="#m3583af3961" x="624.212564" y="655" style="stroke: #000000; stroke-width: 0.8"/>
      </g>
     </g>
     <g id="text_52">
      <!-- 34 -->
      <g transform="translate(612.760064 675.677187) scale(0.18 -0.18)">
       <use xlink:href="#DejaVuSans-33"/>
       <use xlink:href="#DejaVuSans-34" transform="translate(63.623047 0)"/>
      </g>
     </g>
    </g>
    <g id="xtick_39">
     <g id="line2d_55">
      <g>
       <use xlink:href="#m3583af3961" x="654.751538" y="655" style="stroke: #000000; stroke-width: 0.8"/>
      </g>
     </g>
     <g id="text_53">
      <!-- 36 -->
      <g transform="translate(643.299038 675.677187) scale(0.18 -0.18)">
       <use xlink:href="#DejaVuSans-33"/>
       <use xlink:href="#DejaVuSans-36" transform="translate(63.623047 0)"/>
      </g>
     </g>
    </g>
    <g id="xtick_40">
     <g id="line2d_56">
      <g>
       <use xlink:href="#m3583af3961" x="685.290513" y="655" style="stroke: #000000; stroke-width: 0.8"/>
      </g>
     </g>
     <g id="text_54">
      <!-- 38 -->
      <g transform="translate(673.838013 675.677187) scale(0.18 -0.18)">
       <use xlink:href="#DejaVuSans-33"/>
       <use xlink:href="#DejaVuSans-38" transform="translate(63.623047 0)"/>
      </g>
     </g>
    </g>
    <g id="text_55">
     <!-- Iteration -->
     <g transform="translate(364.629531 697.097813) scale(0.18 -0.18)">
      <use xlink:href="#DejaVuSans-49"/>
      <use xlink:href="#DejaVuSans-74" transform="translate(29.492188 0)"/>
      <use xlink:href="#DejaVuSans-65" transform="translate(68.701172 0)"/>
      <use xlink:href="#DejaVuSans-72" transform="translate(130.224609 0)"/>
      <use xlink:href="#DejaVuSans-61" transform="translate(171.337891 0)"/>
      <use xlink:href="#DejaVuSans-74" transform="translate(232.617188 0)"/>
      <use xlink:href="#DejaVuSans-69" transform="translate(271.826172 0)"/>
      <use xlink:href="#DejaVuSans-6f" transform="translate(299.609375 0)"/>
      <use xlink:href="#DejaVuSans-6e" transform="translate(360.791016 0)"/>
     </g>
    </g>
   </g>
   <g id="matplotlib.axis_4">
    <g id="ytick_7">
     <g id="line2d_57">
      <g>
       <use xlink:href="#m53114f9148" x="105.05" y="630.785611" style="stroke: #000000; stroke-width: 0.8"/>
      </g>
     </g>
     <g id="text_56">
      <!-- 15000 -->
      <g transform="translate(40.7875 637.624205) scale(0.18 -0.18)">
       <use xlink:href="#DejaVuSans-31"/>
       <use xlink:href="#DejaVuSans-35" transform="translate(63.623047 0)"/>
       <use xlink:href="#DejaVuSans-30" transform="translate(127.246094 0)"/>
       <use xlink:href="#DejaVuSans-30" transform="translate(190.869141 0)"/>
       <use xlink:href="#DejaVuSans-30" transform="translate(254.492188 0)"/>
      </g>
     </g>
    </g>
    <g id="ytick_8">
     <g id="line2d_58">
      <g>
       <use xlink:href="#m53114f9148" x="105.05" y="579.250504" style="stroke: #000000; stroke-width: 0.8"/>
      </g>
     </g>
     <g id="text_57">
      <!-- 20000 -->
      <g transform="translate(40.7875 586.089098) scale(0.18 -0.18)">
       <use xlink:href="#DejaVuSans-32"/>
       <use xlink:href="#DejaVuSans-30" transform="translate(63.623047 0)"/>
       <use xlink:href="#DejaVuSans-30" transform="translate(127.246094 0)"/>
       <use xlink:href="#DejaVuSans-30" transform="translate(190.869141 0)"/>
       <use xlink:href="#DejaVuSans-30" transform="translate(254.492188 0)"/>
      </g>
     </g>
    </g>
    <g id="ytick_9">
     <g id="line2d_59">
      <g>
       <use xlink:href="#m53114f9148" x="105.05" y="527.715396" style="stroke: #000000; stroke-width: 0.8"/>
      </g>
     </g>
     <g id="text_58">
      <!-- 25000 -->
      <g transform="translate(40.7875 534.55399) scale(0.18 -0.18)">
       <use xlink:href="#DejaVuSans-32"/>
       <use xlink:href="#DejaVuSans-35" transform="translate(63.623047 0)"/>
       <use xlink:href="#DejaVuSans-30" transform="translate(127.246094 0)"/>
       <use xlink:href="#DejaVuSans-30" transform="translate(190.869141 0)"/>
       <use xlink:href="#DejaVuSans-30" transform="translate(254.492188 0)"/>
      </g>
     </g>
    </g>
    <g id="ytick_10">
     <g id="line2d_60">
      <g>
       <use xlink:href="#m53114f9148" x="105.05" y="476.180289" style="stroke: #000000; stroke-width: 0.8"/>
      </g>
     </g>
     <g id="text_59">
      <!-- 30000 -->
      <g transform="translate(40.7875 483.018883) scale(0.18 -0.18)">
       <use xlink:href="#DejaVuSans-33"/>
       <use xlink:href="#DejaVuSans-30" transform="translate(63.623047 0)"/>
       <use xlink:href="#DejaVuSans-30" transform="translate(127.246094 0)"/>
       <use xlink:href="#DejaVuSans-30" transform="translate(190.869141 0)"/>
       <use xlink:href="#DejaVuSans-30" transform="translate(254.492188 0)"/>
      </g>
     </g>
    </g>
    <g id="ytick_11">
     <g id="line2d_61">
      <g>
       <use xlink:href="#m53114f9148" x="105.05" y="424.645181" style="stroke: #000000; stroke-width: 0.8"/>
      </g>
     </g>
     <g id="text_60">
      <!-- 35000 -->
      <g transform="translate(40.7875 431.483775) scale(0.18 -0.18)">
       <use xlink:href="#DejaVuSans-33"/>
       <use xlink:href="#DejaVuSans-35" transform="translate(63.623047 0)"/>
       <use xlink:href="#DejaVuSans-30" transform="translate(127.246094 0)"/>
       <use xlink:href="#DejaVuSans-30" transform="translate(190.869141 0)"/>
       <use xlink:href="#DejaVuSans-30" transform="translate(254.492188 0)"/>
      </g>
     </g>
    </g>
    <g id="text_61">
     <!-- Seconds -->
     <g transform="translate(33.044063 561.452656) rotate(-90) scale(0.18 -0.18)">
      <use xlink:href="#DejaVuSans-53"/>
      <use xlink:href="#DejaVuSans-65" transform="translate(63.476562 0)"/>
      <use xlink:href="#DejaVuSans-63" transform="translate(125 0)"/>
      <use xlink:href="#DejaVuSans-6f" transform="translate(179.980469 0)"/>
      <use xlink:href="#DejaVuSans-6e" transform="translate(241.162109 0)"/>
      <use xlink:href="#DejaVuSans-64" transform="translate(304.541016 0)"/>
      <use xlink:href="#DejaVuSans-73" transform="translate(368.017578 0)"/>
     </g>
    </g>
   </g>
   <g id="line2d_62">
    <path d="M 105.05 465.316688 
L 120.319487 466.47932 
L 135.588974 535.465246 
L 150.858462 535.139544 
L 166.127949 541.631937 
L 181.397436 555.69896 
L 196.666923 556.098872 
L 211.93641 567.321157 
L 227.205897 592.283732 
L 242.475385 592.116759 
L 257.744872 593.345356 
L 273.014359 585.720221 
L 288.283846 586.090243 
L 303.553333 582.458049 
L 318.822821 574.185633 
L 334.092308 588.873139 
L 349.361795 599.756323 
L 364.631282 593.594786 
L 379.900769 581.144934 
L 395.170256 594.941913 
L 410.439744 601.727026 
L 425.709231 600.997288 
L 440.978718 598.391673 
L 456.248205 608.617269 
L 471.517692 608.200866 
L 486.787179 609.752073 
L 502.056667 609.056349 
L 517.326154 610.138586 
L 532.595641 613.680078 
L 547.865128 605.269549 
L 563.134615 604.292443 
L 578.404103 599.421345 
L 593.67359 612.973017 
L 608.943077 615.533281 
L 624.212564 613.87385 
L 639.482051 609.633542 
L 654.751538 608.141085 
L 670.021026 616.289816 
L 685.290513 608.903805 
L 700.56 612.627732 
" clip-path="url(#pf817428e83)" style="fill: none; stroke: #1f77b4; stroke-width: 1.5; stroke-linecap: square"/>
   </g>
   <g id="line2d_63">
    <path d="M 105.05 490.815229 
L 120.319487 429.975973 
L 135.588974 404.221818 
L 150.858462 436.655953 
L 166.127949 449.83348 
L 181.397436 489.004285 
L 196.666923 481.39358 
L 211.93641 483.516827 
L 227.205897 478.492154 
L 242.475385 488.296193 
L 257.744872 542.182332 
L 273.014359 548.126391 
L 288.283846 554.272468 
L 303.553333 556.057644 
L 318.822821 574.522673 
L 334.092308 575.299822 
L 349.361795 576.709823 
L 364.631282 565.044336 
L 379.900769 582.117917 
L 395.170256 580.040022 
L 410.439744 579.34739 
L 425.709231 583.996887 
L 440.978718 586.456143 
L 456.248205 588.315529 
L 471.517692 583.535133 
L 486.787179 588.906122 
L 502.056667 591.64882 
L 517.326154 592.344544 
L 532.595641 586.670529 
L 547.865128 591.297351 
L 563.134615 589.125661 
L 578.404103 581.81386 
L 593.67359 579.563837 
L 608.943077 592.563053 
L 624.212564 597.193998 
L 639.482051 595.606716 
L 654.751538 593.335049 
L 670.021026 600.475753 
L 685.290513 597.986607 
L 700.56 605.914768 
" clip-path="url(#pf817428e83)" style="fill: none; stroke: #ff7f0e; stroke-width: 1.5; stroke-linecap: square"/>
   </g>
   <g id="line2d_64">
    <path d="M 105.05 497.871416 
L 120.319487 437.214594 
L 135.588974 498.124968 
L 150.858462 540.852726 
L 166.127949 572.144843 
L 181.397436 575.588419 
L 196.666923 569.897912 
L 211.93641 577.237543 
L 227.205897 573.684712 
L 242.475385 585.119322 
L 257.744872 595.360378 
L 273.014359 598.88641 
L 288.283846 596.666278 
L 303.553333 569.418636 
L 318.822821 568.082846 
L 334.092308 581.597413 
L 349.361795 596.236475 
L 364.631282 590.615026 
L 379.900769 583.215615 
L 395.170256 594.779062 
L 410.439744 608.782182 
L 425.709231 610.500362 
L 440.978718 609.067686 
L 456.248205 613.980013 
L 471.517692 614.968456 
L 486.787179 614.418061 
L 502.056667 618.701659 
L 517.326154 617.254553 
L 532.595641 620.814599 
L 547.865128 615.40032 
L 563.134615 623.65006 
L 578.404103 621.478371 
L 593.67359 619.320081 
L 608.943077 624.402473 
L 624.212564 622.139051 
L 639.482051 613.269859 
L 654.751538 619.028392 
L 670.021026 617.812163 
L 685.290513 616.770123 
L 700.56 613.235846 
" clip-path="url(#pf817428e83)" style="fill: none; stroke: #2ca02c; stroke-width: 1.5; stroke-linecap: square"/>
   </g>
   <g id="line2d_65">
    <path d="M 105.05 489.401105 
L 120.319487 458.389339 
L 135.588974 465.458925 
L 150.858462 493.478563 
L 166.127949 511.964206 
L 181.397436 495.73477 
L 196.666923 520.096446 
L 211.93641 509.213262 
L 227.205897 522.67114 
L 242.475385 528.949147 
L 257.744872 551.462774 
L 273.014359 544.657048 
L 288.283846 537.993558 
L 303.553333 553.166524 
L 318.822821 549.150909 
L 334.092308 564.768108 
L 349.361795 565.06495 
L 364.631282 595.444896 
L 379.900769 603.953342 
L 395.170256 609.789178 
L 410.439744 610.484902 
L 425.709231 602.357815 
L 440.978718 607.726743 
L 456.248205 603.903869 
L 471.517692 602.013561 
L 486.787179 612.356657 
L 502.056667 612.450451 
L 517.326154 614.753039 
L 532.595641 615.632228 
L 547.865128 618.124466 
L 563.134615 621.988568 
L 578.404103 623.123372 
L 593.67359 630.639252 
L 608.943077 635.587653 
L 624.212564 633.039757 
L 639.482051 625.353811 
L 654.751538 624.491113 
L 670.021026 630.98969 
L 685.290513 633.145919 
L 700.56 620.278634 
" clip-path="url(#pf817428e83)" style="fill: none; stroke: #d62728; stroke-width: 1.5; stroke-linecap: square"/>
   </g>
   <g id="line2d_66">
    <path d="M 105.05 494.191809 
L 120.319487 463.330525 
L 135.588974 524.112062 
L 150.858462 527.44226 
L 166.127949 559.889795 
L 181.397436 589.514236 
L 196.666923 589.25656 
L 211.93641 601.608495 
L 227.205897 605.128343 
L 242.475385 597.778406 
L 257.744872 600.478845 
L 273.014359 597.302221 
L 288.283846 605.924045 
L 303.553333 605.25718 
L 318.822821 581.492281 
L 334.092308 600.960183 
L 349.361795 607.162949 
L 364.631282 615.895057 
L 379.900769 619.551989 
L 395.170256 606.152861 
L 410.439744 611.948499 
L 425.709231 617.986352 
L 440.978718 627.125588 
L 456.248205 617.562733 
L 471.517692 626.842145 
L 486.787179 623.281069 
L 502.056667 630.954646 
L 517.326154 623.57585 
L 532.595641 615.152952 
L 547.865128 630.811379 
L 563.134615 627.502825 
L 578.404103 641.735791 
L 593.67359 636.915197 
L 608.943077 621.456726 
L 624.212564 635.771118 
L 639.482051 632.272915 
L 654.751538 636.34728 
L 670.021026 635.313486 
L 685.290513 635.149604 
L 700.56 643.058182 
" clip-path="url(#pf817428e83)" style="fill: none; stroke: #9467bd; stroke-width: 1.5; stroke-linecap: square"/>
   </g>
   <g id="patch_9">
    <path d="M 105.05 655 
L 105.05 392.28 
" style="fill: none; stroke: #000000; stroke-width: 0.8; stroke-linejoin: miter; stroke-linecap: square"/>
   </g>
   <g id="patch_10">
    <path d="M 700.56 655 
L 700.56 392.28 
" style="fill: none; stroke: #000000; stroke-width: 0.8; stroke-linejoin: miter; stroke-linecap: square"/>
   </g>
   <g id="patch_11">
    <path d="M 105.05 655 
L 700.56 655 
" style="fill: none; stroke: #000000; stroke-width: 0.8; stroke-linejoin: miter; stroke-linecap: square"/>
   </g>
   <g id="patch_12">
    <path d="M 105.05 392.28 
L 700.56 392.28 
" style="fill: none; stroke: #000000; stroke-width: 0.8; stroke-linejoin: miter; stroke-linecap: square"/>
   </g>
   <g id="text_62">
    <!-- Total Wait Time Over Iterations (All Runs) -->
    <g transform="translate(181.156938 386.28) scale(0.216 -0.216)">
     <defs>
      <path id="DejaVuSans-57" d="M 213 4666 
L 850 4666 
L 1831 722 
L 2809 4666 
L 3519 4666 
L 4500 722 
L 5478 4666 
L 6119 4666 
L 4947 0 
L 4153 0 
L 3169 4050 
L 2175 0 
L 1381 0 
L 213 4666 
z
" transform="scale(0.015625)"/>
     </defs>
     <use xlink:href="#DejaVuSans-54"/>
     <use xlink:href="#DejaVuSans-6f" transform="translate(44.083984 0)"/>
     <use xlink:href="#DejaVuSans-74" transform="translate(105.265625 0)"/>
     <use xlink:href="#DejaVuSans-61" transform="translate(144.474609 0)"/>
     <use xlink:href="#DejaVuSans-6c" transform="translate(205.753906 0)"/>
     <use xlink:href="#DejaVuSans-20" transform="translate(233.537109 0)"/>
     <use xlink:href="#DejaVuSans-57" transform="translate(265.324219 0)"/>
     <use xlink:href="#DejaVuSans-61" transform="translate(357.826172 0)"/>
     <use xlink:href="#DejaVuSans-69" transform="translate(419.105469 0)"/>
     <use xlink:href="#DejaVuSans-74" transform="translate(446.888672 0)"/>
     <use xlink:href="#DejaVuSans-20" transform="translate(486.097656 0)"/>
     <use xlink:href="#DejaVuSans-54" transform="translate(517.884766 0)"/>
     <use xlink:href="#DejaVuSans-69" transform="translate(575.84375 0)"/>
     <use xlink:href="#DejaVuSans-6d" transform="translate(603.626953 0)"/>
     <use xlink:href="#DejaVuSans-65" transform="translate(701.039062 0)"/>
     <use xlink:href="#DejaVuSans-20" transform="translate(762.5625 0)"/>
     <use xlink:href="#DejaVuSans-4f" transform="translate(794.349609 0)"/>
     <use xlink:href="#DejaVuSans-76" transform="translate(873.060547 0)"/>
     <use xlink:href="#DejaVuSans-65" transform="translate(932.240234 0)"/>
     <use xlink:href="#DejaVuSans-72" transform="translate(993.763672 0)"/>
     <use xlink:href="#DejaVuSans-20" transform="translate(1034.876953 0)"/>
     <use xlink:href="#DejaVuSans-49" transform="translate(1066.664062 0)"/>
     <use xlink:href="#DejaVuSans-74" transform="translate(1096.15625 0)"/>
     <use xlink:href="#DejaVuSans-65" transform="translate(1135.365234 0)"/>
     <use xlink:href="#DejaVuSans-72" transform="translate(1196.888672 0)"/>
     <use xlink:href="#DejaVuSans-61" transform="translate(1238.001953 0)"/>
     <use xlink:href="#DejaVuSans-74" transform="translate(1299.28125 0)"/>
     <use xlink:href="#DejaVuSans-69" transform="translate(1338.490234 0)"/>
     <use xlink:href="#DejaVuSans-6f" transform="translate(1366.273438 0)"/>
     <use xlink:href="#DejaVuSans-6e" transform="translate(1427.455078 0)"/>
     <use xlink:href="#DejaVuSans-73" transform="translate(1490.833984 0)"/>
     <use xlink:href="#DejaVuSans-20" transform="translate(1542.933594 0)"/>
     <use xlink:href="#DejaVuSans-28" transform="translate(1574.720703 0)"/>
     <use xlink:href="#DejaVuSans-41" transform="translate(1613.734375 0)"/>
     <use xlink:href="#DejaVuSans-6c" transform="translate(1682.142578 0)"/>
     <use xlink:href="#DejaVuSans-6c" transform="translate(1709.925781 0)"/>
     <use xlink:href="#DejaVuSans-20" transform="translate(1737.708984 0)"/>
     <use xlink:href="#DejaVuSans-52" transform="translate(1769.496094 0)"/>
     <use xlink:href="#DejaVuSans-75" transform="translate(1834.478516 0)"/>
     <use xlink:href="#DejaVuSans-6e" transform="translate(1897.857422 0)"/>
     <use xlink:href="#DejaVuSans-73" transform="translate(1961.236328 0)"/>
     <use xlink:href="#DejaVuSans-29" transform="translate(2013.335938 0)"/>
    </g>
   </g>
   <g id="legend_2">
    <g id="patch_13">
     <path d="M 421.652813 538.783125 
L 687.96 538.783125 
Q 691.56 538.783125 691.56 535.183125 
L 691.56 404.88 
Q 691.56 401.28 687.96 401.28 
L 421.652813 401.28 
Q 418.052813 401.28 418.052813 404.88 
L 418.052813 535.183125 
Q 418.052813 538.783125 421.652813 538.783125 
z
" style="fill: #ffffff; opacity: 0.8; stroke: #cccccc; stroke-linejoin: miter"/>
    </g>
    <g id="line2d_67">
     <path d="M 425.252813 415.857188 
L 443.252813 415.857188 
L 461.252813 415.857188 
" style="fill: none; stroke: #1f77b4; stroke-width: 1.5; stroke-linecap: square"/>
    </g>
    <g id="text_63">
     <!-- Total Wait Time (Run 1) -->
     <g transform="translate(475.652812 422.157188) scale(0.18 -0.18)">
      <use xlink:href="#DejaVuSans-54"/>
      <use xlink:href="#DejaVuSans-6f" transform="translate(44.083984 0)"/>
      <use xlink:href="#DejaVuSans-74" transform="translate(105.265625 0)"/>
      <use xlink:href="#DejaVuSans-61" transform="translate(144.474609 0)"/>
      <use xlink:href="#DejaVuSans-6c" transform="translate(205.753906 0)"/>
      <use xlink:href="#DejaVuSans-20" transform="translate(233.537109 0)"/>
      <use xlink:href="#DejaVuSans-57" transform="translate(265.324219 0)"/>
      <use xlink:href="#DejaVuSans-61" transform="translate(357.826172 0)"/>
      <use xlink:href="#DejaVuSans-69" transform="translate(419.105469 0)"/>
      <use xlink:href="#DejaVuSans-74" transform="translate(446.888672 0)"/>
      <use xlink:href="#DejaVuSans-20" transform="translate(486.097656 0)"/>
      <use xlink:href="#DejaVuSans-54" transform="translate(517.884766 0)"/>
      <use xlink:href="#DejaVuSans-69" transform="translate(575.84375 0)"/>
      <use xlink:href="#DejaVuSans-6d" transform="translate(603.626953 0)"/>
      <use xlink:href="#DejaVuSans-65" transform="translate(701.039062 0)"/>
      <use xlink:href="#DejaVuSans-20" transform="translate(762.5625 0)"/>
      <use xlink:href="#DejaVuSans-28" transform="translate(794.349609 0)"/>
      <use xlink:href="#DejaVuSans-52" transform="translate(833.363281 0)"/>
      <use xlink:href="#DejaVuSans-75" transform="translate(898.345703 0)"/>
      <use xlink:href="#DejaVuSans-6e" transform="translate(961.724609 0)"/>
      <use xlink:href="#DejaVuSans-20" transform="translate(1025.103516 0)"/>
      <use xlink:href="#DejaVuSans-31" transform="translate(1056.890625 0)"/>
      <use xlink:href="#DejaVuSans-29" transform="translate(1120.513672 0)"/>
     </g>
    </g>
    <g id="line2d_68">
     <path d="M 425.252813 442.277813 
L 443.252813 442.277813 
L 461.252813 442.277813 
" style="fill: none; stroke: #ff7f0e; stroke-width: 1.5; stroke-linecap: square"/>
    </g>
    <g id="text_64">
     <!-- Total Wait Time (Run 2) -->
     <g transform="translate(475.652812 448.577813) scale(0.18 -0.18)">
      <use xlink:href="#DejaVuSans-54"/>
      <use xlink:href="#DejaVuSans-6f" transform="translate(44.083984 0)"/>
      <use xlink:href="#DejaVuSans-74" transform="translate(105.265625 0)"/>
      <use xlink:href="#DejaVuSans-61" transform="translate(144.474609 0)"/>
      <use xlink:href="#DejaVuSans-6c" transform="translate(205.753906 0)"/>
      <use xlink:href="#DejaVuSans-20" transform="translate(233.537109 0)"/>
      <use xlink:href="#DejaVuSans-57" transform="translate(265.324219 0)"/>
      <use xlink:href="#DejaVuSans-61" transform="translate(357.826172 0)"/>
      <use xlink:href="#DejaVuSans-69" transform="translate(419.105469 0)"/>
      <use xlink:href="#DejaVuSans-74" transform="translate(446.888672 0)"/>
      <use xlink:href="#DejaVuSans-20" transform="translate(486.097656 0)"/>
      <use xlink:href="#DejaVuSans-54" transform="translate(517.884766 0)"/>
      <use xlink:href="#DejaVuSans-69" transform="translate(575.84375 0)"/>
      <use xlink:href="#DejaVuSans-6d" transform="translate(603.626953 0)"/>
      <use xlink:href="#DejaVuSans-65" transform="translate(701.039062 0)"/>
      <use xlink:href="#DejaVuSans-20" transform="translate(762.5625 0)"/>
      <use xlink:href="#DejaVuSans-28" transform="translate(794.349609 0)"/>
      <use xlink:href="#DejaVuSans-52" transform="translate(833.363281 0)"/>
      <use xlink:href="#DejaVuSans-75" transform="translate(898.345703 0)"/>
      <use xlink:href="#DejaVuSans-6e" transform="translate(961.724609 0)"/>
      <use xlink:href="#DejaVuSans-20" transform="translate(1025.103516 0)"/>
      <use xlink:href="#DejaVuSans-32" transform="translate(1056.890625 0)"/>
      <use xlink:href="#DejaVuSans-29" transform="translate(1120.513672 0)"/>
     </g>
    </g>
    <g id="line2d_69">
     <path d="M 425.252813 468.698438 
L 443.252813 468.698438 
L 461.252813 468.698438 
" style="fill: none; stroke: #2ca02c; stroke-width: 1.5; stroke-linecap: square"/>
    </g>
    <g id="text_65">
     <!-- Total Wait Time (Run 3) -->
     <g transform="translate(475.652812 474.998438) scale(0.18 -0.18)">
      <use xlink:href="#DejaVuSans-54"/>
      <use xlink:href="#DejaVuSans-6f" transform="translate(44.083984 0)"/>
      <use xlink:href="#DejaVuSans-74" transform="translate(105.265625 0)"/>
      <use xlink:href="#DejaVuSans-61" transform="translate(144.474609 0)"/>
      <use xlink:href="#DejaVuSans-6c" transform="translate(205.753906 0)"/>
      <use xlink:href="#DejaVuSans-20" transform="translate(233.537109 0)"/>
      <use xlink:href="#DejaVuSans-57" transform="translate(265.324219 0)"/>
      <use xlink:href="#DejaVuSans-61" transform="translate(357.826172 0)"/>
      <use xlink:href="#DejaVuSans-69" transform="translate(419.105469 0)"/>
      <use xlink:href="#DejaVuSans-74" transform="translate(446.888672 0)"/>
      <use xlink:href="#DejaVuSans-20" transform="translate(486.097656 0)"/>
      <use xlink:href="#DejaVuSans-54" transform="translate(517.884766 0)"/>
      <use xlink:href="#DejaVuSans-69" transform="translate(575.84375 0)"/>
      <use xlink:href="#DejaVuSans-6d" transform="translate(603.626953 0)"/>
      <use xlink:href="#DejaVuSans-65" transform="translate(701.039062 0)"/>
      <use xlink:href="#DejaVuSans-20" transform="translate(762.5625 0)"/>
      <use xlink:href="#DejaVuSans-28" transform="translate(794.349609 0)"/>
      <use xlink:href="#DejaVuSans-52" transform="translate(833.363281 0)"/>
      <use xlink:href="#DejaVuSans-75" transform="translate(898.345703 0)"/>
      <use xlink:href="#DejaVuSans-6e" transform="translate(961.724609 0)"/>
      <use xlink:href="#DejaVuSans-20" transform="translate(1025.103516 0)"/>
      <use xlink:href="#DejaVuSans-33" transform="translate(1056.890625 0)"/>
      <use xlink:href="#DejaVuSans-29" transform="translate(1120.513672 0)"/>
     </g>
    </g>
    <g id="line2d_70">
     <path d="M 425.252813 495.119062 
L 443.252813 495.119062 
L 461.252813 495.119062 
" style="fill: none; stroke: #d62728; stroke-width: 1.5; stroke-linecap: square"/>
    </g>
    <g id="text_66">
     <!-- Total Wait Time (Run 4) -->
     <g transform="translate(475.652812 501.419062) scale(0.18 -0.18)">
      <use xlink:href="#DejaVuSans-54"/>
      <use xlink:href="#DejaVuSans-6f" transform="translate(44.083984 0)"/>
      <use xlink:href="#DejaVuSans-74" transform="translate(105.265625 0)"/>
      <use xlink:href="#DejaVuSans-61" transform="translate(144.474609 0)"/>
      <use xlink:href="#DejaVuSans-6c" transform="translate(205.753906 0)"/>
      <use xlink:href="#DejaVuSans-20" transform="translate(233.537109 0)"/>
      <use xlink:href="#DejaVuSans-57" transform="translate(265.324219 0)"/>
      <use xlink:href="#DejaVuSans-61" transform="translate(357.826172 0)"/>
      <use xlink:href="#DejaVuSans-69" transform="translate(419.105469 0)"/>
      <use xlink:href="#DejaVuSans-74" transform="translate(446.888672 0)"/>
      <use xlink:href="#DejaVuSans-20" transform="translate(486.097656 0)"/>
      <use xlink:href="#DejaVuSans-54" transform="translate(517.884766 0)"/>
      <use xlink:href="#DejaVuSans-69" transform="translate(575.84375 0)"/>
      <use xlink:href="#DejaVuSans-6d" transform="translate(603.626953 0)"/>
      <use xlink:href="#DejaVuSans-65" transform="translate(701.039062 0)"/>
      <use xlink:href="#DejaVuSans-20" transform="translate(762.5625 0)"/>
      <use xlink:href="#DejaVuSans-28" transform="translate(794.349609 0)"/>
      <use xlink:href="#DejaVuSans-52" transform="translate(833.363281 0)"/>
      <use xlink:href="#DejaVuSans-75" transform="translate(898.345703 0)"/>
      <use xlink:href="#DejaVuSans-6e" transform="translate(961.724609 0)"/>
      <use xlink:href="#DejaVuSans-20" transform="translate(1025.103516 0)"/>
      <use xlink:href="#DejaVuSans-34" transform="translate(1056.890625 0)"/>
      <use xlink:href="#DejaVuSans-29" transform="translate(1120.513672 0)"/>
     </g>
    </g>
    <g id="line2d_71">
     <path d="M 425.252813 521.539688 
L 443.252813 521.539688 
L 461.252813 521.539688 
" style="fill: none; stroke: #9467bd; stroke-width: 1.5; stroke-linecap: square"/>
    </g>
    <g id="text_67">
     <!-- Total Wait Time (Run 5) -->
     <g transform="translate(475.652812 527.839688) scale(0.18 -0.18)">
      <use xlink:href="#DejaVuSans-54"/>
      <use xlink:href="#DejaVuSans-6f" transform="translate(44.083984 0)"/>
      <use xlink:href="#DejaVuSans-74" transform="translate(105.265625 0)"/>
      <use xlink:href="#DejaVuSans-61" transform="translate(144.474609 0)"/>
      <use xlink:href="#DejaVuSans-6c" transform="translate(205.753906 0)"/>
      <use xlink:href="#DejaVuSans-20" transform="translate(233.537109 0)"/>
      <use xlink:href="#DejaVuSans-57" transform="translate(265.324219 0)"/>
      <use xlink:href="#DejaVuSans-61" transform="translate(357.826172 0)"/>
      <use xlink:href="#DejaVuSans-69" transform="translate(419.105469 0)"/>
      <use xlink:href="#DejaVuSans-74" transform="translate(446.888672 0)"/>
      <use xlink:href="#DejaVuSans-20" transform="translate(486.097656 0)"/>
      <use xlink:href="#DejaVuSans-54" transform="translate(517.884766 0)"/>
      <use xlink:href="#DejaVuSans-69" transform="translate(575.84375 0)"/>
      <use xlink:href="#DejaVuSans-6d" transform="translate(603.626953 0)"/>
      <use xlink:href="#DejaVuSans-65" transform="translate(701.039062 0)"/>
      <use xlink:href="#DejaVuSans-20" transform="translate(762.5625 0)"/>
      <use xlink:href="#DejaVuSans-28" transform="translate(794.349609 0)"/>
      <use xlink:href="#DejaVuSans-52" transform="translate(833.363281 0)"/>
      <use xlink:href="#DejaVuSans-75" transform="translate(898.345703 0)"/>
      <use xlink:href="#DejaVuSans-6e" transform="translate(961.724609 0)"/>
      <use xlink:href="#DejaVuSans-20" transform="translate(1025.103516 0)"/>
      <use xlink:href="#DejaVuSans-35" transform="translate(1056.890625 0)"/>
      <use xlink:href="#DejaVuSans-29" transform="translate(1120.513672 0)"/>
     </g>
    </g>
   </g>
  </g>
 </g>
 <defs>
  <clipPath id="pdd2be09964">
   <rect x="105.05" y="42" width="595.51" height="262.72"/>
  </clipPath>
  <clipPath id="pf817428e83">
   <rect x="105.05" y="392.28" width="595.51" height="262.72"/>
  </clipPath>
 </defs>
</svg>
