<?xml version="1.0" encoding="utf-8" standalone="no"?>
<!DOCTYPE svg PUBLIC "-//W3C//DTD SVG 1.1//EN"
  "http://www.w3.org/Graphics/SVG/1.1/DTD/svg11.dtd">
<svg xmlns:xlink="http://www.w3.org/1999/xlink" width="720pt" height="720pt" viewBox="0 0 720 720" xmlns="http://www.w3.org/2000/svg" version="1.1">
 <metadata>
  <rdf:RDF xmlns:dc="http://purl.org/dc/elements/1.1/" xmlns:cc="http://creativecommons.org/ns#" xmlns:rdf="http://www.w3.org/1999/02/22-rdf-syntax-ns#">
   <cc:Work>
    <dc:type rdf:resource="http://purl.org/dc/dcmitype/StillImage"/>
    <dc:date>2025-04-18T16:53:09.763540</dc:date>
    <dc:format>image/svg+xml</dc:format>
    <dc:creator>
     <cc:Agent>
      <dc:title>Matplotlib v3.10.1, https://matplotlib.org/</dc:title>
     </cc:Agent>
    </dc:creator>
   </cc:Work>
  </rdf:RDF>
 </metadata>
 <defs>
  <style type="text/css">*{stroke-linejoin: round; stroke-linecap: butt}</style>
 </defs>
 <g id="figure_1">
  <g id="patch_1">
   <path d="M 0 720 
L 720 720 
L 720 0 
L 0 0 
z
" style="fill: #ffffff"/>
  </g>
  <g id="axes_1">
   <g id="patch_2">
    <path d="M 104.96 304.72 
L 700.56 304.72 
L 700.56 42 
L 104.96 42 
z
" style="fill: #ffffff"/>
   </g>
   <g id="matplotlib.axis_1">
    <g id="xtick_1">
     <g id="line2d_1">
      <defs>
       <path id="m2e62ae40c9" d="M 0 0 
L 0 3.5 
" style="stroke: #000000; stroke-width: 0.8"/>
      </defs>
      <g>
       <use xlink:href="#m2e62ae40c9" x="104.96" y="304.72" style="stroke: #000000; stroke-width: 0.8"/>
      </g>
     </g>
     <g id="text_1">
      <!-- 0 -->
      <g transform="translate(99.23375 325.397188) scale(0.18 -0.18)">
       <defs>
        <path id="DejaVuSans-30" d="M 2034 4250 
Q 1547 4250 1301 3770 
Q 1056 3291 1056 2328 
Q 1056 1369 1301 889 
Q 1547 409 2034 409 
Q 2525 409 2770 889 
Q 3016 1369 3016 2328 
Q 3016 3291 2770 3770 
Q 2525 4250 2034 4250 
z
M 2034 4750 
Q 2819 4750 3233 4129 
Q 3647 3509 3647 2328 
Q 3647 1150 3233 529 
Q 2819 -91 2034 -91 
Q 1250 -91 836 529 
Q 422 1150 422 2328 
Q 422 3509 836 4129 
Q 1250 4750 2034 4750 
z
" transform="scale(0.015625)"/>
       </defs>
       <use xlink:href="#DejaVuSans-30"/>
      </g>
     </g>
    </g>
    <g id="xtick_2">
     <g id="line2d_2">
      <g>
       <use xlink:href="#m2e62ae40c9" x="135.50359" y="304.72" style="stroke: #000000; stroke-width: 0.8"/>
      </g>
     </g>
     <g id="text_2">
      <!-- 2 -->
      <g transform="translate(129.77734 325.397188) scale(0.18 -0.18)">
       <defs>
        <path id="DejaVuSans-32" d="M 1228 531 
L 3431 531 
L 3431 0 
L 469 0 
L 469 531 
Q 828 903 1448 1529 
Q 2069 2156 2228 2338 
Q 2531 2678 2651 2914 
Q 2772 3150 2772 3378 
Q 2772 3750 2511 3984 
Q 2250 4219 1831 4219 
Q 1534 4219 1204 4116 
Q 875 4013 500 3803 
L 500 4441 
Q 881 4594 1212 4672 
Q 1544 4750 1819 4750 
Q 2544 4750 2975 4387 
Q 3406 4025 3406 3419 
Q 3406 3131 3298 2873 
Q 3191 2616 2906 2266 
Q 2828 2175 2409 1742 
Q 1991 1309 1228 531 
z
" transform="scale(0.015625)"/>
       </defs>
       <use xlink:href="#DejaVuSans-32"/>
      </g>
     </g>
    </g>
    <g id="xtick_3">
     <g id="line2d_3">
      <g>
       <use xlink:href="#m2e62ae40c9" x="166.047179" y="304.72" style="stroke: #000000; stroke-width: 0.8"/>
      </g>
     </g>
     <g id="text_3">
      <!-- 4 -->
      <g transform="translate(160.320929 325.397188) scale(0.18 -0.18)">
       <defs>
        <path id="DejaVuSans-34" d="M 2419 4116 
L 825 1625 
L 2419 1625 
L 2419 4116 
z
M 2253 4666 
L 3047 4666 
L 3047 1625 
L 3713 1625 
L 3713 1100 
L 3047 1100 
L 3047 0 
L 2419 0 
L 2419 1100 
L 313 1100 
L 313 1709 
L 2253 4666 
z
" transform="scale(0.015625)"/>
       </defs>
       <use xlink:href="#DejaVuSans-34"/>
      </g>
     </g>
    </g>
    <g id="xtick_4">
     <g id="line2d_4">
      <g>
       <use xlink:href="#m2e62ae40c9" x="196.590769" y="304.72" style="stroke: #000000; stroke-width: 0.8"/>
      </g>
     </g>
     <g id="text_4">
      <!-- 6 -->
      <g transform="translate(190.864519 325.397188) scale(0.18 -0.18)">
       <defs>
        <path id="DejaVuSans-36" d="M 2113 2584 
Q 1688 2584 1439 2293 
Q 1191 2003 1191 1497 
Q 1191 994 1439 701 
Q 1688 409 2113 409 
Q 2538 409 2786 701 
Q 3034 994 3034 1497 
Q 3034 2003 2786 2293 
Q 2538 2584 2113 2584 
z
M 3366 4563 
L 3366 3988 
Q 3128 4100 2886 4159 
Q 2644 4219 2406 4219 
Q 1781 4219 1451 3797 
Q 1122 3375 1075 2522 
Q 1259 2794 1537 2939 
Q 1816 3084 2150 3084 
Q 2853 3084 3261 2657 
Q 3669 2231 3669 1497 
Q 3669 778 3244 343 
Q 2819 -91 2113 -91 
Q 1303 -91 875 529 
Q 447 1150 447 2328 
Q 447 3434 972 4092 
Q 1497 4750 2381 4750 
Q 2619 4750 2861 4703 
Q 3103 4656 3366 4563 
z
" transform="scale(0.015625)"/>
       </defs>
       <use xlink:href="#DejaVuSans-36"/>
      </g>
     </g>
    </g>
    <g id="xtick_5">
     <g id="line2d_5">
      <g>
       <use xlink:href="#m2e62ae40c9" x="227.134359" y="304.72" style="stroke: #000000; stroke-width: 0.8"/>
      </g>
     </g>
     <g id="text_5">
      <!-- 8 -->
      <g transform="translate(221.408109 325.397188) scale(0.18 -0.18)">
       <defs>
        <path id="DejaVuSans-38" d="M 2034 2216 
Q 1584 2216 1326 1975 
Q 1069 1734 1069 1313 
Q 1069 891 1326 650 
Q 1584 409 2034 409 
Q 2484 409 2743 651 
Q 3003 894 3003 1313 
Q 3003 1734 2745 1975 
Q 2488 2216 2034 2216 
z
M 1403 2484 
Q 997 2584 770 2862 
Q 544 3141 544 3541 
Q 544 4100 942 4425 
Q 1341 4750 2034 4750 
Q 2731 4750 3128 4425 
Q 3525 4100 3525 3541 
Q 3525 3141 3298 2862 
Q 3072 2584 2669 2484 
Q 3125 2378 3379 2068 
Q 3634 1759 3634 1313 
Q 3634 634 3220 271 
Q 2806 -91 2034 -91 
Q 1263 -91 848 271 
Q 434 634 434 1313 
Q 434 1759 690 2068 
Q 947 2378 1403 2484 
z
M 1172 3481 
Q 1172 3119 1398 2916 
Q 1625 2713 2034 2713 
Q 2441 2713 2670 2916 
Q 2900 3119 2900 3481 
Q 2900 3844 2670 4047 
Q 2441 4250 2034 4250 
Q 1625 4250 1398 4047 
Q 1172 3844 1172 3481 
z
" transform="scale(0.015625)"/>
       </defs>
       <use xlink:href="#DejaVuSans-38"/>
      </g>
     </g>
    </g>
    <g id="xtick_6">
     <g id="line2d_6">
      <g>
       <use xlink:href="#m2e62ae40c9" x="257.677949" y="304.72" style="stroke: #000000; stroke-width: 0.8"/>
      </g>
     </g>
     <g id="text_6">
      <!-- 10 -->
      <g transform="translate(246.225449 325.397188) scale(0.18 -0.18)">
       <defs>
        <path id="DejaVuSans-31" d="M 794 531 
L 1825 531 
L 1825 4091 
L 703 3866 
L 703 4441 
L 1819 4666 
L 2450 4666 
L 2450 531 
L 3481 531 
L 3481 0 
L 794 0 
L 794 531 
z
" transform="scale(0.015625)"/>
       </defs>
       <use xlink:href="#DejaVuSans-31"/>
       <use xlink:href="#DejaVuSans-30" transform="translate(63.623047 0)"/>
      </g>
     </g>
    </g>
    <g id="xtick_7">
     <g id="line2d_7">
      <g>
       <use xlink:href="#m2e62ae40c9" x="288.221538" y="304.72" style="stroke: #000000; stroke-width: 0.8"/>
      </g>
     </g>
     <g id="text_7">
      <!-- 12 -->
      <g transform="translate(276.769038 325.397188) scale(0.18 -0.18)">
       <use xlink:href="#DejaVuSans-31"/>
       <use xlink:href="#DejaVuSans-32" transform="translate(63.623047 0)"/>
      </g>
     </g>
    </g>
    <g id="xtick_8">
     <g id="line2d_8">
      <g>
       <use xlink:href="#m2e62ae40c9" x="318.765128" y="304.72" style="stroke: #000000; stroke-width: 0.8"/>
      </g>
     </g>
     <g id="text_8">
      <!-- 14 -->
      <g transform="translate(307.312628 325.397188) scale(0.18 -0.18)">
       <use xlink:href="#DejaVuSans-31"/>
       <use xlink:href="#DejaVuSans-34" transform="translate(63.623047 0)"/>
      </g>
     </g>
    </g>
    <g id="xtick_9">
     <g id="line2d_9">
      <g>
       <use xlink:href="#m2e62ae40c9" x="349.308718" y="304.72" style="stroke: #000000; stroke-width: 0.8"/>
      </g>
     </g>
     <g id="text_9">
      <!-- 16 -->
      <g transform="translate(337.856218 325.397188) scale(0.18 -0.18)">
       <use xlink:href="#DejaVuSans-31"/>
       <use xlink:href="#DejaVuSans-36" transform="translate(63.623047 0)"/>
      </g>
     </g>
    </g>
    <g id="xtick_10">
     <g id="line2d_10">
      <g>
       <use xlink:href="#m2e62ae40c9" x="379.852308" y="304.72" style="stroke: #000000; stroke-width: 0.8"/>
      </g>
     </g>
     <g id="text_10">
      <!-- 18 -->
      <g transform="translate(368.399808 325.397188) scale(0.18 -0.18)">
       <use xlink:href="#DejaVuSans-31"/>
       <use xlink:href="#DejaVuSans-38" transform="translate(63.623047 0)"/>
      </g>
     </g>
    </g>
    <g id="xtick_11">
     <g id="line2d_11">
      <g>
       <use xlink:href="#m2e62ae40c9" x="410.395897" y="304.72" style="stroke: #000000; stroke-width: 0.8"/>
      </g>
     </g>
     <g id="text_11">
      <!-- 20 -->
      <g transform="translate(398.943397 325.397188) scale(0.18 -0.18)">
       <use xlink:href="#DejaVuSans-32"/>
       <use xlink:href="#DejaVuSans-30" transform="translate(63.623047 0)"/>
      </g>
     </g>
    </g>
    <g id="xtick_12">
     <g id="line2d_12">
      <g>
       <use xlink:href="#m2e62ae40c9" x="440.939487" y="304.72" style="stroke: #000000; stroke-width: 0.8"/>
      </g>
     </g>
     <g id="text_12">
      <!-- 22 -->
      <g transform="translate(429.486987 325.397188) scale(0.18 -0.18)">
       <use xlink:href="#DejaVuSans-32"/>
       <use xlink:href="#DejaVuSans-32" transform="translate(63.623047 0)"/>
      </g>
     </g>
    </g>
    <g id="xtick_13">
     <g id="line2d_13">
      <g>
       <use xlink:href="#m2e62ae40c9" x="471.483077" y="304.72" style="stroke: #000000; stroke-width: 0.8"/>
      </g>
     </g>
     <g id="text_13">
      <!-- 24 -->
      <g transform="translate(460.030577 325.397188) scale(0.18 -0.18)">
       <use xlink:href="#DejaVuSans-32"/>
       <use xlink:href="#DejaVuSans-34" transform="translate(63.623047 0)"/>
      </g>
     </g>
    </g>
    <g id="xtick_14">
     <g id="line2d_14">
      <g>
       <use xlink:href="#m2e62ae40c9" x="502.026667" y="304.72" style="stroke: #000000; stroke-width: 0.8"/>
      </g>
     </g>
     <g id="text_14">
      <!-- 26 -->
      <g transform="translate(490.574167 325.397188) scale(0.18 -0.18)">
       <use xlink:href="#DejaVuSans-32"/>
       <use xlink:href="#DejaVuSans-36" transform="translate(63.623047 0)"/>
      </g>
     </g>
    </g>
    <g id="xtick_15">
     <g id="line2d_15">
      <g>
       <use xlink:href="#m2e62ae40c9" x="532.570256" y="304.72" style="stroke: #000000; stroke-width: 0.8"/>
      </g>
     </g>
     <g id="text_15">
      <!-- 28 -->
      <g transform="translate(521.117756 325.397188) scale(0.18 -0.18)">
       <use xlink:href="#DejaVuSans-32"/>
       <use xlink:href="#DejaVuSans-38" transform="translate(63.623047 0)"/>
      </g>
     </g>
    </g>
    <g id="xtick_16">
     <g id="line2d_16">
      <g>
       <use xlink:href="#m2e62ae40c9" x="563.113846" y="304.72" style="stroke: #000000; stroke-width: 0.8"/>
      </g>
     </g>
     <g id="text_16">
      <!-- 30 -->
      <g transform="translate(551.661346 325.397188) scale(0.18 -0.18)">
       <defs>
        <path id="DejaVuSans-33" d="M 2597 2516 
Q 3050 2419 3304 2112 
Q 3559 1806 3559 1356 
Q 3559 666 3084 287 
Q 2609 -91 1734 -91 
Q 1441 -91 1130 -33 
Q 819 25 488 141 
L 488 750 
Q 750 597 1062 519 
Q 1375 441 1716 441 
Q 2309 441 2620 675 
Q 2931 909 2931 1356 
Q 2931 1769 2642 2001 
Q 2353 2234 1838 2234 
L 1294 2234 
L 1294 2753 
L 1863 2753 
Q 2328 2753 2575 2939 
Q 2822 3125 2822 3475 
Q 2822 3834 2567 4026 
Q 2313 4219 1838 4219 
Q 1578 4219 1281 4162 
Q 984 4106 628 3988 
L 628 4550 
Q 988 4650 1302 4700 
Q 1616 4750 1894 4750 
Q 2613 4750 3031 4423 
Q 3450 4097 3450 3541 
Q 3450 3153 3228 2886 
Q 3006 2619 2597 2516 
z
" transform="scale(0.015625)"/>
       </defs>
       <use xlink:href="#DejaVuSans-33"/>
       <use xlink:href="#DejaVuSans-30" transform="translate(63.623047 0)"/>
      </g>
     </g>
    </g>
    <g id="xtick_17">
     <g id="line2d_17">
      <g>
       <use xlink:href="#m2e62ae40c9" x="593.657436" y="304.72" style="stroke: #000000; stroke-width: 0.8"/>
      </g>
     </g>
     <g id="text_17">
      <!-- 32 -->
      <g transform="translate(582.204936 325.397188) scale(0.18 -0.18)">
       <use xlink:href="#DejaVuSans-33"/>
       <use xlink:href="#DejaVuSans-32" transform="translate(63.623047 0)"/>
      </g>
     </g>
    </g>
    <g id="xtick_18">
     <g id="line2d_18">
      <g>
       <use xlink:href="#m2e62ae40c9" x="624.201026" y="304.72" style="stroke: #000000; stroke-width: 0.8"/>
      </g>
     </g>
     <g id="text_18">
      <!-- 34 -->
      <g transform="translate(612.748526 325.397188) scale(0.18 -0.18)">
       <use xlink:href="#DejaVuSans-33"/>
       <use xlink:href="#DejaVuSans-34" transform="translate(63.623047 0)"/>
      </g>
     </g>
    </g>
    <g id="xtick_19">
     <g id="line2d_19">
      <g>
       <use xlink:href="#m2e62ae40c9" x="654.744615" y="304.72" style="stroke: #000000; stroke-width: 0.8"/>
      </g>
     </g>
     <g id="text_19">
      <!-- 36 -->
      <g transform="translate(643.292115 325.397188) scale(0.18 -0.18)">
       <use xlink:href="#DejaVuSans-33"/>
       <use xlink:href="#DejaVuSans-36" transform="translate(63.623047 0)"/>
      </g>
     </g>
    </g>
    <g id="xtick_20">
     <g id="line2d_20">
      <g>
       <use xlink:href="#m2e62ae40c9" x="685.288205" y="304.72" style="stroke: #000000; stroke-width: 0.8"/>
      </g>
     </g>
     <g id="text_20">
      <!-- 38 -->
      <g transform="translate(673.835705 325.397188) scale(0.18 -0.18)">
       <use xlink:href="#DejaVuSans-33"/>
       <use xlink:href="#DejaVuSans-38" transform="translate(63.623047 0)"/>
      </g>
     </g>
    </g>
    <g id="text_21">
     <!-- Iteration -->
     <g transform="translate(364.584531 346.817813) scale(0.18 -0.18)">
      <defs>
       <path id="DejaVuSans-49" d="M 628 4666 
L 1259 4666 
L 1259 0 
L 628 0 
L 628 4666 
z
" transform="scale(0.015625)"/>
       <path id="DejaVuSans-74" d="M 1172 4494 
L 1172 3500 
L 2356 3500 
L 2356 3053 
L 1172 3053 
L 1172 1153 
Q 1172 725 1289 603 
Q 1406 481 1766 481 
L 2356 481 
L 2356 0 
L 1766 0 
Q 1100 0 847 248 
Q 594 497 594 1153 
L 594 3053 
L 172 3053 
L 172 3500 
L 594 3500 
L 594 4494 
L 1172 4494 
z
" transform="scale(0.015625)"/>
       <path id="DejaVuSans-65" d="M 3597 1894 
L 3597 1613 
L 953 1613 
Q 991 1019 1311 708 
Q 1631 397 2203 397 
Q 2534 397 2845 478 
Q 3156 559 3463 722 
L 3463 178 
Q 3153 47 2828 -22 
Q 2503 -91 2169 -91 
Q 1331 -91 842 396 
Q 353 884 353 1716 
Q 353 2575 817 3079 
Q 1281 3584 2069 3584 
Q 2775 3584 3186 3129 
Q 3597 2675 3597 1894 
z
M 3022 2063 
Q 3016 2534 2758 2815 
Q 2500 3097 2075 3097 
Q 1594 3097 1305 2825 
Q 1016 2553 972 2059 
L 3022 2063 
z
" transform="scale(0.015625)"/>
       <path id="DejaVuSans-72" d="M 2631 2963 
Q 2534 3019 2420 3045 
Q 2306 3072 2169 3072 
Q 1681 3072 1420 2755 
Q 1159 2438 1159 1844 
L 1159 0 
L 581 0 
L 581 3500 
L 1159 3500 
L 1159 2956 
Q 1341 3275 1631 3429 
Q 1922 3584 2338 3584 
Q 2397 3584 2469 3576 
Q 2541 3569 2628 3553 
L 2631 2963 
z
" transform="scale(0.015625)"/>
       <path id="DejaVuSans-61" d="M 2194 1759 
Q 1497 1759 1228 1600 
Q 959 1441 959 1056 
Q 959 750 1161 570 
Q 1363 391 1709 391 
Q 2188 391 2477 730 
Q 2766 1069 2766 1631 
L 2766 1759 
L 2194 1759 
z
M 3341 1997 
L 3341 0 
L 2766 0 
L 2766 531 
Q 2569 213 2275 61 
Q 1981 -91 1556 -91 
Q 1019 -91 701 211 
Q 384 513 384 1019 
Q 384 1609 779 1909 
Q 1175 2209 1959 2209 
L 2766 2209 
L 2766 2266 
Q 2766 2663 2505 2880 
Q 2244 3097 1772 3097 
Q 1472 3097 1187 3025 
Q 903 2953 641 2809 
L 641 3341 
Q 956 3463 1253 3523 
Q 1550 3584 1831 3584 
Q 2591 3584 2966 3190 
Q 3341 2797 3341 1997 
z
" transform="scale(0.015625)"/>
       <path id="DejaVuSans-69" d="M 603 3500 
L 1178 3500 
L 1178 0 
L 603 0 
L 603 3500 
z
M 603 4863 
L 1178 4863 
L 1178 4134 
L 603 4134 
L 603 4863 
z
" transform="scale(0.015625)"/>
       <path id="DejaVuSans-6f" d="M 1959 3097 
Q 1497 3097 1228 2736 
Q 959 2375 959 1747 
Q 959 1119 1226 758 
Q 1494 397 1959 397 
Q 2419 397 2687 759 
Q 2956 1122 2956 1747 
Q 2956 2369 2687 2733 
Q 2419 3097 1959 3097 
z
M 1959 3584 
Q 2709 3584 3137 3096 
Q 3566 2609 3566 1747 
Q 3566 888 3137 398 
Q 2709 -91 1959 -91 
Q 1206 -91 779 398 
Q 353 888 353 1747 
Q 353 2609 779 3096 
Q 1206 3584 1959 3584 
z
" transform="scale(0.015625)"/>
       <path id="DejaVuSans-6e" d="M 3513 2113 
L 3513 0 
L 2938 0 
L 2938 2094 
Q 2938 2591 2744 2837 
Q 2550 3084 2163 3084 
Q 1697 3084 1428 2787 
Q 1159 2491 1159 1978 
L 1159 0 
L 581 0 
L 581 3500 
L 1159 3500 
L 1159 2956 
Q 1366 3272 1645 3428 
Q 1925 3584 2291 3584 
Q 2894 3584 3203 3211 
Q 3513 2838 3513 2113 
z
" transform="scale(0.015625)"/>
      </defs>
      <use xlink:href="#DejaVuSans-49"/>
      <use xlink:href="#DejaVuSans-74" transform="translate(29.492188 0)"/>
      <use xlink:href="#DejaVuSans-65" transform="translate(68.701172 0)"/>
      <use xlink:href="#DejaVuSans-72" transform="translate(130.224609 0)"/>
      <use xlink:href="#DejaVuSans-61" transform="translate(171.337891 0)"/>
      <use xlink:href="#DejaVuSans-74" transform="translate(232.617188 0)"/>
      <use xlink:href="#DejaVuSans-69" transform="translate(271.826172 0)"/>
      <use xlink:href="#DejaVuSans-6f" transform="translate(299.609375 0)"/>
      <use xlink:href="#DejaVuSans-6e" transform="translate(360.791016 0)"/>
     </g>
    </g>
   </g>
   <g id="matplotlib.axis_2">
    <g id="ytick_1">
     <g id="line2d_21">
      <defs>
       <path id="m62cd1ece90" d="M 0 0 
L -3.5 0 
" style="stroke: #000000; stroke-width: 0.8"/>
      </defs>
      <g>
       <use xlink:href="#m62cd1ece90" x="104.96" y="263.475873" style="stroke: #000000; stroke-width: 0.8"/>
      </g>
     </g>
     <g id="text_22">
      <!-- 32000 -->
      <g transform="translate(40.6975 270.314467) scale(0.18 -0.18)">
       <use xlink:href="#DejaVuSans-33"/>
       <use xlink:href="#DejaVuSans-32" transform="translate(63.623047 0)"/>
       <use xlink:href="#DejaVuSans-30" transform="translate(127.246094 0)"/>
       <use xlink:href="#DejaVuSans-30" transform="translate(190.869141 0)"/>
       <use xlink:href="#DejaVuSans-30" transform="translate(254.492188 0)"/>
      </g>
     </g>
    </g>
    <g id="ytick_2">
     <g id="line2d_22">
      <g>
       <use xlink:href="#m62cd1ece90" x="104.96" y="199.954719" style="stroke: #000000; stroke-width: 0.8"/>
      </g>
     </g>
     <g id="text_23">
      <!-- 34000 -->
      <g transform="translate(40.6975 206.793313) scale(0.18 -0.18)">
       <use xlink:href="#DejaVuSans-33"/>
       <use xlink:href="#DejaVuSans-34" transform="translate(63.623047 0)"/>
       <use xlink:href="#DejaVuSans-30" transform="translate(127.246094 0)"/>
       <use xlink:href="#DejaVuSans-30" transform="translate(190.869141 0)"/>
       <use xlink:href="#DejaVuSans-30" transform="translate(254.492188 0)"/>
      </g>
     </g>
    </g>
    <g id="ytick_3">
     <g id="line2d_23">
      <g>
       <use xlink:href="#m62cd1ece90" x="104.96" y="136.433565" style="stroke: #000000; stroke-width: 0.8"/>
      </g>
     </g>
     <g id="text_24">
      <!-- 36000 -->
      <g transform="translate(40.6975 143.272159) scale(0.18 -0.18)">
       <use xlink:href="#DejaVuSans-33"/>
       <use xlink:href="#DejaVuSans-36" transform="translate(63.623047 0)"/>
       <use xlink:href="#DejaVuSans-30" transform="translate(127.246094 0)"/>
       <use xlink:href="#DejaVuSans-30" transform="translate(190.869141 0)"/>
       <use xlink:href="#DejaVuSans-30" transform="translate(254.492188 0)"/>
      </g>
     </g>
    </g>
    <g id="ytick_4">
     <g id="line2d_24">
      <g>
       <use xlink:href="#m62cd1ece90" x="104.96" y="72.912411" style="stroke: #000000; stroke-width: 0.8"/>
      </g>
     </g>
     <g id="text_25">
      <!-- 38000 -->
      <g transform="translate(40.6975 79.751005) scale(0.18 -0.18)">
       <use xlink:href="#DejaVuSans-33"/>
       <use xlink:href="#DejaVuSans-38" transform="translate(63.623047 0)"/>
       <use xlink:href="#DejaVuSans-30" transform="translate(127.246094 0)"/>
       <use xlink:href="#DejaVuSans-30" transform="translate(190.869141 0)"/>
       <use xlink:href="#DejaVuSans-30" transform="translate(254.492188 0)"/>
      </g>
     </g>
    </g>
    <g id="text_26">
     <!-- Seconds -->
     <g transform="translate(32.954063 211.172656) rotate(-90) scale(0.18 -0.18)">
      <defs>
       <path id="DejaVuSans-53" d="M 3425 4513 
L 3425 3897 
Q 3066 4069 2747 4153 
Q 2428 4238 2131 4238 
Q 1616 4238 1336 4038 
Q 1056 3838 1056 3469 
Q 1056 3159 1242 3001 
Q 1428 2844 1947 2747 
L 2328 2669 
Q 3034 2534 3370 2195 
Q 3706 1856 3706 1288 
Q 3706 609 3251 259 
Q 2797 -91 1919 -91 
Q 1588 -91 1214 -16 
Q 841 59 441 206 
L 441 856 
Q 825 641 1194 531 
Q 1563 422 1919 422 
Q 2459 422 2753 634 
Q 3047 847 3047 1241 
Q 3047 1584 2836 1778 
Q 2625 1972 2144 2069 
L 1759 2144 
Q 1053 2284 737 2584 
Q 422 2884 422 3419 
Q 422 4038 858 4394 
Q 1294 4750 2059 4750 
Q 2388 4750 2728 4690 
Q 3069 4631 3425 4513 
z
" transform="scale(0.015625)"/>
       <path id="DejaVuSans-63" d="M 3122 3366 
L 3122 2828 
Q 2878 2963 2633 3030 
Q 2388 3097 2138 3097 
Q 1578 3097 1268 2742 
Q 959 2388 959 1747 
Q 959 1106 1268 751 
Q 1578 397 2138 397 
Q 2388 397 2633 464 
Q 2878 531 3122 666 
L 3122 134 
Q 2881 22 2623 -34 
Q 2366 -91 2075 -91 
Q 1284 -91 818 406 
Q 353 903 353 1747 
Q 353 2603 823 3093 
Q 1294 3584 2113 3584 
Q 2378 3584 2631 3529 
Q 2884 3475 3122 3366 
z
" transform="scale(0.015625)"/>
       <path id="DejaVuSans-64" d="M 2906 2969 
L 2906 4863 
L 3481 4863 
L 3481 0 
L 2906 0 
L 2906 525 
Q 2725 213 2448 61 
Q 2172 -91 1784 -91 
Q 1150 -91 751 415 
Q 353 922 353 1747 
Q 353 2572 751 3078 
Q 1150 3584 1784 3584 
Q 2172 3584 2448 3432 
Q 2725 3281 2906 2969 
z
M 947 1747 
Q 947 1113 1208 752 
Q 1469 391 1925 391 
Q 2381 391 2643 752 
Q 2906 1113 2906 1747 
Q 2906 2381 2643 2742 
Q 2381 3103 1925 3103 
Q 1469 3103 1208 2742 
Q 947 2381 947 1747 
z
" transform="scale(0.015625)"/>
       <path id="DejaVuSans-73" d="M 2834 3397 
L 2834 2853 
Q 2591 2978 2328 3040 
Q 2066 3103 1784 3103 
Q 1356 3103 1142 2972 
Q 928 2841 928 2578 
Q 928 2378 1081 2264 
Q 1234 2150 1697 2047 
L 1894 2003 
Q 2506 1872 2764 1633 
Q 3022 1394 3022 966 
Q 3022 478 2636 193 
Q 2250 -91 1575 -91 
Q 1294 -91 989 -36 
Q 684 19 347 128 
L 347 722 
Q 666 556 975 473 
Q 1284 391 1588 391 
Q 1994 391 2212 530 
Q 2431 669 2431 922 
Q 2431 1156 2273 1281 
Q 2116 1406 1581 1522 
L 1381 1569 
Q 847 1681 609 1914 
Q 372 2147 372 2553 
Q 372 3047 722 3315 
Q 1072 3584 1716 3584 
Q 2034 3584 2315 3537 
Q 2597 3491 2834 3397 
z
" transform="scale(0.015625)"/>
      </defs>
      <use xlink:href="#DejaVuSans-53"/>
      <use xlink:href="#DejaVuSans-65" transform="translate(63.476562 0)"/>
      <use xlink:href="#DejaVuSans-63" transform="translate(125 0)"/>
      <use xlink:href="#DejaVuSans-6f" transform="translate(179.980469 0)"/>
      <use xlink:href="#DejaVuSans-6e" transform="translate(241.162109 0)"/>
      <use xlink:href="#DejaVuSans-64" transform="translate(304.541016 0)"/>
      <use xlink:href="#DejaVuSans-73" transform="translate(368.017578 0)"/>
     </g>
    </g>
   </g>
   <g id="line2d_25">
    <path d="M 104.96 212.179365 
L 120.231795 161.575238 
L 135.50359 161.25128 
L 150.775385 153.266671 
L 166.047179 152.844255 
L 181.318974 137.329213 
L 196.590769 165.958198 
L 211.862564 157.300264 
L 227.134359 159.018511 
L 242.406154 166.018543 
L 257.677949 146.14595 
L 272.949744 160.803456 
L 288.221538 139.279313 
L 303.493333 138.513883 
L 318.765128 155.340637 
L 334.036923 154.76577 
L 349.308718 149.611028 
L 364.580513 141.502553 
L 379.852308 143.983054 
L 395.124103 129.630449 
L 410.395897 139.882764 
L 425.667692 150.81793 
L 440.939487 144.373709 
L 456.211282 148.747141 
L 471.483077 142.064715 
L 486.754872 136.046086 
L 502.026667 151.586536 
L 517.298462 149.655493 
L 532.570256 142.909547 
L 547.842051 146.238055 
L 563.113846 138.66951 
L 578.385641 150.411395 
L 593.657436 156.95725 
L 608.929231 141.188123 
L 624.201026 147.721274 
L 639.472821 152.891896 
L 654.744615 144.392766 
L 670.01641 145.148667 
L 685.288205 148.851951 
L 700.56 149.741247 
" clip-path="url(#p83fc858e5b)" style="fill: none; stroke: #1f77b4; stroke-width: 1.5; stroke-linecap: square"/>
   </g>
   <g id="line2d_26">
    <path d="M 104.96 230.740247 
L 120.231795 256.285279 
L 135.50359 202.895749 
L 150.775385 146.187238 
L 166.047179 111.993801 
L 181.318974 133.880015 
L 196.590769 134.629564 
L 211.862564 129.87183 
L 227.134359 126.676716 
L 242.406154 131.237535 
L 257.677949 120.296016 
L 272.949744 128.569646 
L 288.221538 133.286092 
L 303.493333 125.27925 
L 318.765128 134.07693 
L 334.036923 134.099163 
L 349.308718 142.061539 
L 364.580513 149.13462 
L 379.852308 140.032038 
L 395.124103 139.638207 
L 410.395897 139.412707 
L 425.667692 128.995238 
L 440.939487 129.312844 
L 456.211282 147.571999 
L 471.483077 139.993926 
L 486.754872 143.119167 
L 502.026667 135.455339 
L 517.298462 146.844682 
L 532.570256 157.652807 
L 547.842051 153.628741 
L 563.113846 152.183635 
L 578.385641 146.352393 
L 593.657436 150.687712 
L 608.929231 161.086125 
L 624.201026 153.574749 
L 639.472821 151.789804 
L 654.744615 155.099256 
L 670.01641 156.376031 
L 685.288205 155.670947 
L 700.56 149.607852 
" clip-path="url(#p83fc858e5b)" style="fill: none; stroke: #ff7f0e; stroke-width: 1.5; stroke-linecap: square"/>
   </g>
   <g id="line2d_27">
    <path d="M 104.96 214.920303 
L 120.231795 261.433668 
L 135.50359 268.398763 
L 150.775385 207.958385 
L 166.047179 185.91972 
L 181.318974 240.255715 
L 196.590769 212.230182 
L 211.862564 185.106649 
L 227.134359 154.425932 
L 242.406154 179.812161 
L 257.677949 213.049605 
L 272.949744 173.469574 
L 288.221538 145.593315 
L 303.493333 184.433325 
L 318.765128 188.686066 
L 334.036923 162.3629 
L 349.308718 172.011764 
L 364.580513 165.354747 
L 379.852308 163.78895 
L 395.124103 193.256414 
L 410.395897 169.343875 
L 425.667692 171.646517 
L 440.939487 175.311687 
L 456.211282 183.645663 
L 471.483077 175.530835 
L 486.754872 197.458338 
L 502.026667 159.062976 
L 517.298462 167.730438 
L 532.570256 171.513122 
L 547.842051 195.682922 
L 563.113846 164.198662 
L 578.385641 155.642362 
L 593.657436 187.317186 
L 608.929231 173.564856 
L 624.201026 168.200494 
L 639.472821 173.050334 
L 654.744615 160.438209 
L 670.01641 190.918835 
L 685.288205 168.378353 
L 700.56 159.901455 
" clip-path="url(#p83fc858e5b)" style="fill: none; stroke: #2ca02c; stroke-width: 1.5; stroke-linecap: square"/>
   </g>
   <g id="line2d_28">
    <path d="M 104.96 261.309802 
L 120.231795 215.765134 
L 135.50359 210.58816 
L 150.775385 166.95548 
L 166.047179 66.401493 
L 181.318974 92.670666 
L 196.590769 143.128695 
L 211.862564 166.479071 
L 227.134359 136.243002 
L 242.406154 118.717515 
L 257.677949 90.336263 
L 272.949744 131.046971 
L 288.221538 137.716692 
L 303.493333 150.570198 
L 318.765128 144.129153 
L 334.036923 147.365556 
L 349.308718 159.094737 
L 364.580513 141.724877 
L 379.852308 118.981128 
L 395.124103 121.480685 
L 410.395897 156.779391 
L 425.667692 166.304388 
L 440.939487 178.506802 
L 456.211282 128.934893 
L 471.483077 125.917638 
L 486.754872 132.866852 
L 502.026667 123.834144 
L 517.298462 136.135016 
L 532.570256 113.111773 
L 547.842051 149.773007 
L 563.113846 122.182594 
L 578.385641 111.241075 
L 593.657436 139.079221 
L 608.929231 116.214782 
L 624.201026 118.803269 
L 639.472821 116.049627 
L 654.744615 109.815025 
L 670.01641 110.475645 
L 685.288205 124.564637 
L 700.56 111.241075 
" clip-path="url(#p83fc858e5b)" style="fill: none; stroke: #d62728; stroke-width: 1.5; stroke-linecap: square"/>
   </g>
   <g id="line2d_29">
    <path d="M 104.96 237.943545 
L 120.231795 292.778182 
L 135.50359 114.715682 
L 150.775385 53.941818 
L 166.047179 75.862968 
L 181.318974 93.559962 
L 196.590769 141.337398 
L 211.862564 162.185041 
L 227.134359 152.996706 
L 242.406154 151.500783 
L 257.677949 137.25934 
L 272.949744 131.656774 
L 288.221538 135.569677 
L 303.493333 118.260163 
L 318.765128 128.232984 
L 334.036923 139.787482 
L 349.308718 136.211241 
L 364.580513 124.453475 
L 379.852308 127.880442 
L 395.124103 124.650391 
L 410.395897 124.732968 
L 425.667692 124.596398 
L 440.939487 128.728449 
L 456.211282 127.718463 
L 471.483077 122.773341 
L 486.754872 120.388122 
L 502.026667 136.446269 
L 517.298462 132.444437 
L 532.570256 130.399055 
L 547.842051 147.746683 
L 563.113846 130.942161 
L 578.385641 146.844682 
L 593.657436 133.962592 
L 608.929231 130.345062 
L 624.201026 141.299285 
L 639.472821 129.913119 
L 654.744615 140.708539 
L 670.01641 119.146283 
L 685.288205 136.007973 
L 700.56 140.937215 
" clip-path="url(#p83fc858e5b)" style="fill: none; stroke: #9467bd; stroke-width: 1.5; stroke-linecap: square"/>
   </g>
   <g id="patch_3">
    <path d="M 104.96 304.72 
L 104.96 42 
" style="fill: none; stroke: #000000; stroke-width: 0.8; stroke-linejoin: miter; stroke-linecap: square"/>
   </g>
   <g id="patch_4">
    <path d="M 700.56 304.72 
L 700.56 42 
" style="fill: none; stroke: #000000; stroke-width: 0.8; stroke-linejoin: miter; stroke-linecap: square"/>
   </g>
   <g id="patch_5">
    <path d="M 104.96 304.72 
L 700.56 304.72 
" style="fill: none; stroke: #000000; stroke-width: 0.8; stroke-linejoin: miter; stroke-linecap: square"/>
   </g>
   <g id="patch_6">
    <path d="M 104.96 42 
L 700.56 42 
" style="fill: none; stroke: #000000; stroke-width: 0.8; stroke-linejoin: miter; stroke-linecap: square"/>
   </g>
   <g id="text_27">
    <!-- Total Trip Time Over Iterations (All Runs) -->
    <g transform="translate(185.654688 36) scale(0.216 -0.216)">
     <defs>
      <path id="DejaVuSans-54" d="M -19 4666 
L 3928 4666 
L 3928 4134 
L 2272 4134 
L 2272 0 
L 1638 0 
L 1638 4134 
L -19 4134 
L -19 4666 
z
" transform="scale(0.015625)"/>
      <path id="DejaVuSans-6c" d="M 603 4863 
L 1178 4863 
L 1178 0 
L 603 0 
L 603 4863 
z
" transform="scale(0.015625)"/>
      <path id="DejaVuSans-20" transform="scale(0.015625)"/>
      <path id="DejaVuSans-70" d="M 1159 525 
L 1159 -1331 
L 581 -1331 
L 581 3500 
L 1159 3500 
L 1159 2969 
Q 1341 3281 1617 3432 
Q 1894 3584 2278 3584 
Q 2916 3584 3314 3078 
Q 3713 2572 3713 1747 
Q 3713 922 3314 415 
Q 2916 -91 2278 -91 
Q 1894 -91 1617 61 
Q 1341 213 1159 525 
z
M 3116 1747 
Q 3116 2381 2855 2742 
Q 2594 3103 2138 3103 
Q 1681 3103 1420 2742 
Q 1159 2381 1159 1747 
Q 1159 1113 1420 752 
Q 1681 391 2138 391 
Q 2594 391 2855 752 
Q 3116 1113 3116 1747 
z
" transform="scale(0.015625)"/>
      <path id="DejaVuSans-6d" d="M 3328 2828 
Q 3544 3216 3844 3400 
Q 4144 3584 4550 3584 
Q 5097 3584 5394 3201 
Q 5691 2819 5691 2113 
L 5691 0 
L 5113 0 
L 5113 2094 
Q 5113 2597 4934 2840 
Q 4756 3084 4391 3084 
Q 3944 3084 3684 2787 
Q 3425 2491 3425 1978 
L 3425 0 
L 2847 0 
L 2847 2094 
Q 2847 2600 2669 2842 
Q 2491 3084 2119 3084 
Q 1678 3084 1418 2786 
Q 1159 2488 1159 1978 
L 1159 0 
L 581 0 
L 581 3500 
L 1159 3500 
L 1159 2956 
Q 1356 3278 1631 3431 
Q 1906 3584 2284 3584 
Q 2666 3584 2933 3390 
Q 3200 3197 3328 2828 
z
" transform="scale(0.015625)"/>
      <path id="DejaVuSans-4f" d="M 2522 4238 
Q 1834 4238 1429 3725 
Q 1025 3213 1025 2328 
Q 1025 1447 1429 934 
Q 1834 422 2522 422 
Q 3209 422 3611 934 
Q 4013 1447 4013 2328 
Q 4013 3213 3611 3725 
Q 3209 4238 2522 4238 
z
M 2522 4750 
Q 3503 4750 4090 4092 
Q 4678 3434 4678 2328 
Q 4678 1225 4090 567 
Q 3503 -91 2522 -91 
Q 1538 -91 948 565 
Q 359 1222 359 2328 
Q 359 3434 948 4092 
Q 1538 4750 2522 4750 
z
" transform="scale(0.015625)"/>
      <path id="DejaVuSans-76" d="M 191 3500 
L 800 3500 
L 1894 563 
L 2988 3500 
L 3597 3500 
L 2284 0 
L 1503 0 
L 191 3500 
z
" transform="scale(0.015625)"/>
      <path id="DejaVuSans-28" d="M 1984 4856 
Q 1566 4138 1362 3434 
Q 1159 2731 1159 2009 
Q 1159 1288 1364 580 
Q 1569 -128 1984 -844 
L 1484 -844 
Q 1016 -109 783 600 
Q 550 1309 550 2009 
Q 550 2706 781 3412 
Q 1013 4119 1484 4856 
L 1984 4856 
z
" transform="scale(0.015625)"/>
      <path id="DejaVuSans-41" d="M 2188 4044 
L 1331 1722 
L 3047 1722 
L 2188 4044 
z
M 1831 4666 
L 2547 4666 
L 4325 0 
L 3669 0 
L 3244 1197 
L 1141 1197 
L 716 0 
L 50 0 
L 1831 4666 
z
" transform="scale(0.015625)"/>
      <path id="DejaVuSans-52" d="M 2841 2188 
Q 3044 2119 3236 1894 
Q 3428 1669 3622 1275 
L 4263 0 
L 3584 0 
L 2988 1197 
Q 2756 1666 2539 1819 
Q 2322 1972 1947 1972 
L 1259 1972 
L 1259 0 
L 628 0 
L 628 4666 
L 2053 4666 
Q 2853 4666 3247 4331 
Q 3641 3997 3641 3322 
Q 3641 2881 3436 2590 
Q 3231 2300 2841 2188 
z
M 1259 4147 
L 1259 2491 
L 2053 2491 
Q 2509 2491 2742 2702 
Q 2975 2913 2975 3322 
Q 2975 3731 2742 3939 
Q 2509 4147 2053 4147 
L 1259 4147 
z
" transform="scale(0.015625)"/>
      <path id="DejaVuSans-75" d="M 544 1381 
L 544 3500 
L 1119 3500 
L 1119 1403 
Q 1119 906 1312 657 
Q 1506 409 1894 409 
Q 2359 409 2629 706 
Q 2900 1003 2900 1516 
L 2900 3500 
L 3475 3500 
L 3475 0 
L 2900 0 
L 2900 538 
Q 2691 219 2414 64 
Q 2138 -91 1772 -91 
Q 1169 -91 856 284 
Q 544 659 544 1381 
z
M 1991 3584 
L 1991 3584 
z
" transform="scale(0.015625)"/>
      <path id="DejaVuSans-29" d="M 513 4856 
L 1013 4856 
Q 1481 4119 1714 3412 
Q 1947 2706 1947 2009 
Q 1947 1309 1714 600 
Q 1481 -109 1013 -844 
L 513 -844 
Q 928 -128 1133 580 
Q 1338 1288 1338 2009 
Q 1338 2731 1133 3434 
Q 928 4138 513 4856 
z
" transform="scale(0.015625)"/>
     </defs>
     <use xlink:href="#DejaVuSans-54"/>
     <use xlink:href="#DejaVuSans-6f" transform="translate(44.083984 0)"/>
     <use xlink:href="#DejaVuSans-74" transform="translate(105.265625 0)"/>
     <use xlink:href="#DejaVuSans-61" transform="translate(144.474609 0)"/>
     <use xlink:href="#DejaVuSans-6c" transform="translate(205.753906 0)"/>
     <use xlink:href="#DejaVuSans-20" transform="translate(233.537109 0)"/>
     <use xlink:href="#DejaVuSans-54" transform="translate(265.324219 0)"/>
     <use xlink:href="#DejaVuSans-72" transform="translate(311.658203 0)"/>
     <use xlink:href="#DejaVuSans-69" transform="translate(352.771484 0)"/>
     <use xlink:href="#DejaVuSans-70" transform="translate(380.554688 0)"/>
     <use xlink:href="#DejaVuSans-20" transform="translate(444.03125 0)"/>
     <use xlink:href="#DejaVuSans-54" transform="translate(475.818359 0)"/>
     <use xlink:href="#DejaVuSans-69" transform="translate(533.777344 0)"/>
     <use xlink:href="#DejaVuSans-6d" transform="translate(561.560547 0)"/>
     <use xlink:href="#DejaVuSans-65" transform="translate(658.972656 0)"/>
     <use xlink:href="#DejaVuSans-20" transform="translate(720.496094 0)"/>
     <use xlink:href="#DejaVuSans-4f" transform="translate(752.283203 0)"/>
     <use xlink:href="#DejaVuSans-76" transform="translate(830.994141 0)"/>
     <use xlink:href="#DejaVuSans-65" transform="translate(890.173828 0)"/>
     <use xlink:href="#DejaVuSans-72" transform="translate(951.697266 0)"/>
     <use xlink:href="#DejaVuSans-20" transform="translate(992.810547 0)"/>
     <use xlink:href="#DejaVuSans-49" transform="translate(1024.597656 0)"/>
     <use xlink:href="#DejaVuSans-74" transform="translate(1054.089844 0)"/>
     <use xlink:href="#DejaVuSans-65" transform="translate(1093.298828 0)"/>
     <use xlink:href="#DejaVuSans-72" transform="translate(1154.822266 0)"/>
     <use xlink:href="#DejaVuSans-61" transform="translate(1195.935547 0)"/>
     <use xlink:href="#DejaVuSans-74" transform="translate(1257.214844 0)"/>
     <use xlink:href="#DejaVuSans-69" transform="translate(1296.423828 0)"/>
     <use xlink:href="#DejaVuSans-6f" transform="translate(1324.207031 0)"/>
     <use xlink:href="#DejaVuSans-6e" transform="translate(1385.388672 0)"/>
     <use xlink:href="#DejaVuSans-73" transform="translate(1448.767578 0)"/>
     <use xlink:href="#DejaVuSans-20" transform="translate(1500.867188 0)"/>
     <use xlink:href="#DejaVuSans-28" transform="translate(1532.654297 0)"/>
     <use xlink:href="#DejaVuSans-41" transform="translate(1571.667969 0)"/>
     <use xlink:href="#DejaVuSans-6c" transform="translate(1640.076172 0)"/>
     <use xlink:href="#DejaVuSans-6c" transform="translate(1667.859375 0)"/>
     <use xlink:href="#DejaVuSans-20" transform="translate(1695.642578 0)"/>
     <use xlink:href="#DejaVuSans-52" transform="translate(1727.429688 0)"/>
     <use xlink:href="#DejaVuSans-75" transform="translate(1792.412109 0)"/>
     <use xlink:href="#DejaVuSans-6e" transform="translate(1855.791016 0)"/>
     <use xlink:href="#DejaVuSans-73" transform="translate(1919.169922 0)"/>
     <use xlink:href="#DejaVuSans-29" transform="translate(1971.269531 0)"/>
    </g>
   </g>
   <g id="legend_1">
    <g id="patch_7">
     <path d="M 429.224063 295.72 
L 687.96 295.72 
Q 691.56 295.72 691.56 292.12 
L 691.56 161.816875 
Q 691.56 158.216875 687.96 158.216875 
L 429.224063 158.216875 
Q 425.624063 158.216875 425.624063 161.816875 
L 425.624063 292.12 
Q 425.624063 295.72 429.224063 295.72 
z
" style="fill: #ffffff; opacity: 0.8; stroke: #cccccc; stroke-linejoin: miter"/>
    </g>
    <g id="line2d_30">
     <path d="M 432.824063 172.794063 
L 450.824063 172.794063 
L 468.824063 172.794063 
" style="fill: none; stroke: #1f77b4; stroke-width: 1.5; stroke-linecap: square"/>
    </g>
    <g id="text_28">
     <!-- Total Trip Time (Run 1) -->
     <g transform="translate(483.224063 179.094063) scale(0.18 -0.18)">
      <use xlink:href="#DejaVuSans-54"/>
      <use xlink:href="#DejaVuSans-6f" transform="translate(44.083984 0)"/>
      <use xlink:href="#DejaVuSans-74" transform="translate(105.265625 0)"/>
      <use xlink:href="#DejaVuSans-61" transform="translate(144.474609 0)"/>
      <use xlink:href="#DejaVuSans-6c" transform="translate(205.753906 0)"/>
      <use xlink:href="#DejaVuSans-20" transform="translate(233.537109 0)"/>
      <use xlink:href="#DejaVuSans-54" transform="translate(265.324219 0)"/>
      <use xlink:href="#DejaVuSans-72" transform="translate(311.658203 0)"/>
      <use xlink:href="#DejaVuSans-69" transform="translate(352.771484 0)"/>
      <use xlink:href="#DejaVuSans-70" transform="translate(380.554688 0)"/>
      <use xlink:href="#DejaVuSans-20" transform="translate(444.03125 0)"/>
      <use xlink:href="#DejaVuSans-54" transform="translate(475.818359 0)"/>
      <use xlink:href="#DejaVuSans-69" transform="translate(533.777344 0)"/>
      <use xlink:href="#DejaVuSans-6d" transform="translate(561.560547 0)"/>
      <use xlink:href="#DejaVuSans-65" transform="translate(658.972656 0)"/>
      <use xlink:href="#DejaVuSans-20" transform="translate(720.496094 0)"/>
      <use xlink:href="#DejaVuSans-28" transform="translate(752.283203 0)"/>
      <use xlink:href="#DejaVuSans-52" transform="translate(791.296875 0)"/>
      <use xlink:href="#DejaVuSans-75" transform="translate(856.279297 0)"/>
      <use xlink:href="#DejaVuSans-6e" transform="translate(919.658203 0)"/>
      <use xlink:href="#DejaVuSans-20" transform="translate(983.037109 0)"/>
      <use xlink:href="#DejaVuSans-31" transform="translate(1014.824219 0)"/>
      <use xlink:href="#DejaVuSans-29" transform="translate(1078.447266 0)"/>
     </g>
    </g>
    <g id="line2d_31">
     <path d="M 432.824063 199.214688 
L 450.824063 199.214688 
L 468.824063 199.214688 
" style="fill: none; stroke: #ff7f0e; stroke-width: 1.5; stroke-linecap: square"/>
    </g>
    <g id="text_29">
     <!-- Total Trip Time (Run 2) -->
     <g transform="translate(483.224063 205.514688) scale(0.18 -0.18)">
      <use xlink:href="#DejaVuSans-54"/>
      <use xlink:href="#DejaVuSans-6f" transform="translate(44.083984 0)"/>
      <use xlink:href="#DejaVuSans-74" transform="translate(105.265625 0)"/>
      <use xlink:href="#DejaVuSans-61" transform="translate(144.474609 0)"/>
      <use xlink:href="#DejaVuSans-6c" transform="translate(205.753906 0)"/>
      <use xlink:href="#DejaVuSans-20" transform="translate(233.537109 0)"/>
      <use xlink:href="#DejaVuSans-54" transform="translate(265.324219 0)"/>
      <use xlink:href="#DejaVuSans-72" transform="translate(311.658203 0)"/>
      <use xlink:href="#DejaVuSans-69" transform="translate(352.771484 0)"/>
      <use xlink:href="#DejaVuSans-70" transform="translate(380.554688 0)"/>
      <use xlink:href="#DejaVuSans-20" transform="translate(444.03125 0)"/>
      <use xlink:href="#DejaVuSans-54" transform="translate(475.818359 0)"/>
      <use xlink:href="#DejaVuSans-69" transform="translate(533.777344 0)"/>
      <use xlink:href="#DejaVuSans-6d" transform="translate(561.560547 0)"/>
      <use xlink:href="#DejaVuSans-65" transform="translate(658.972656 0)"/>
      <use xlink:href="#DejaVuSans-20" transform="translate(720.496094 0)"/>
      <use xlink:href="#DejaVuSans-28" transform="translate(752.283203 0)"/>
      <use xlink:href="#DejaVuSans-52" transform="translate(791.296875 0)"/>
      <use xlink:href="#DejaVuSans-75" transform="translate(856.279297 0)"/>
      <use xlink:href="#DejaVuSans-6e" transform="translate(919.658203 0)"/>
      <use xlink:href="#DejaVuSans-20" transform="translate(983.037109 0)"/>
      <use xlink:href="#DejaVuSans-32" transform="translate(1014.824219 0)"/>
      <use xlink:href="#DejaVuSans-29" transform="translate(1078.447266 0)"/>
     </g>
    </g>
    <g id="line2d_32">
     <path d="M 432.824063 225.635313 
L 450.824063 225.635313 
L 468.824063 225.635313 
" style="fill: none; stroke: #2ca02c; stroke-width: 1.5; stroke-linecap: square"/>
    </g>
    <g id="text_30">
     <!-- Total Trip Time (Run 3) -->
     <g transform="translate(483.224063 231.935313) scale(0.18 -0.18)">
      <use xlink:href="#DejaVuSans-54"/>
      <use xlink:href="#DejaVuSans-6f" transform="translate(44.083984 0)"/>
      <use xlink:href="#DejaVuSans-74" transform="translate(105.265625 0)"/>
      <use xlink:href="#DejaVuSans-61" transform="translate(144.474609 0)"/>
      <use xlink:href="#DejaVuSans-6c" transform="translate(205.753906 0)"/>
      <use xlink:href="#DejaVuSans-20" transform="translate(233.537109 0)"/>
      <use xlink:href="#DejaVuSans-54" transform="translate(265.324219 0)"/>
      <use xlink:href="#DejaVuSans-72" transform="translate(311.658203 0)"/>
      <use xlink:href="#DejaVuSans-69" transform="translate(352.771484 0)"/>
      <use xlink:href="#DejaVuSans-70" transform="translate(380.554688 0)"/>
      <use xlink:href="#DejaVuSans-20" transform="translate(444.03125 0)"/>
      <use xlink:href="#DejaVuSans-54" transform="translate(475.818359 0)"/>
      <use xlink:href="#DejaVuSans-69" transform="translate(533.777344 0)"/>
      <use xlink:href="#DejaVuSans-6d" transform="translate(561.560547 0)"/>
      <use xlink:href="#DejaVuSans-65" transform="translate(658.972656 0)"/>
      <use xlink:href="#DejaVuSans-20" transform="translate(720.496094 0)"/>
      <use xlink:href="#DejaVuSans-28" transform="translate(752.283203 0)"/>
      <use xlink:href="#DejaVuSans-52" transform="translate(791.296875 0)"/>
      <use xlink:href="#DejaVuSans-75" transform="translate(856.279297 0)"/>
      <use xlink:href="#DejaVuSans-6e" transform="translate(919.658203 0)"/>
      <use xlink:href="#DejaVuSans-20" transform="translate(983.037109 0)"/>
      <use xlink:href="#DejaVuSans-33" transform="translate(1014.824219 0)"/>
      <use xlink:href="#DejaVuSans-29" transform="translate(1078.447266 0)"/>
     </g>
    </g>
    <g id="line2d_33">
     <path d="M 432.824063 252.055938 
L 450.824063 252.055938 
L 468.824063 252.055938 
" style="fill: none; stroke: #d62728; stroke-width: 1.5; stroke-linecap: square"/>
    </g>
    <g id="text_31">
     <!-- Total Trip Time (Run 4) -->
     <g transform="translate(483.224063 258.355938) scale(0.18 -0.18)">
      <use xlink:href="#DejaVuSans-54"/>
      <use xlink:href="#DejaVuSans-6f" transform="translate(44.083984 0)"/>
      <use xlink:href="#DejaVuSans-74" transform="translate(105.265625 0)"/>
      <use xlink:href="#DejaVuSans-61" transform="translate(144.474609 0)"/>
      <use xlink:href="#DejaVuSans-6c" transform="translate(205.753906 0)"/>
      <use xlink:href="#DejaVuSans-20" transform="translate(233.537109 0)"/>
      <use xlink:href="#DejaVuSans-54" transform="translate(265.324219 0)"/>
      <use xlink:href="#DejaVuSans-72" transform="translate(311.658203 0)"/>
      <use xlink:href="#DejaVuSans-69" transform="translate(352.771484 0)"/>
      <use xlink:href="#DejaVuSans-70" transform="translate(380.554688 0)"/>
      <use xlink:href="#DejaVuSans-20" transform="translate(444.03125 0)"/>
      <use xlink:href="#DejaVuSans-54" transform="translate(475.818359 0)"/>
      <use xlink:href="#DejaVuSans-69" transform="translate(533.777344 0)"/>
      <use xlink:href="#DejaVuSans-6d" transform="translate(561.560547 0)"/>
      <use xlink:href="#DejaVuSans-65" transform="translate(658.972656 0)"/>
      <use xlink:href="#DejaVuSans-20" transform="translate(720.496094 0)"/>
      <use xlink:href="#DejaVuSans-28" transform="translate(752.283203 0)"/>
      <use xlink:href="#DejaVuSans-52" transform="translate(791.296875 0)"/>
      <use xlink:href="#DejaVuSans-75" transform="translate(856.279297 0)"/>
      <use xlink:href="#DejaVuSans-6e" transform="translate(919.658203 0)"/>
      <use xlink:href="#DejaVuSans-20" transform="translate(983.037109 0)"/>
      <use xlink:href="#DejaVuSans-34" transform="translate(1014.824219 0)"/>
      <use xlink:href="#DejaVuSans-29" transform="translate(1078.447266 0)"/>
     </g>
    </g>
    <g id="line2d_34">
     <path d="M 432.824063 278.476563 
L 450.824063 278.476563 
L 468.824063 278.476563 
" style="fill: none; stroke: #9467bd; stroke-width: 1.5; stroke-linecap: square"/>
    </g>
    <g id="text_32">
     <!-- Total Trip Time (Run 5) -->
     <g transform="translate(483.224063 284.776563) scale(0.18 -0.18)">
      <defs>
       <path id="DejaVuSans-35" d="M 691 4666 
L 3169 4666 
L 3169 4134 
L 1269 4134 
L 1269 2991 
Q 1406 3038 1543 3061 
Q 1681 3084 1819 3084 
Q 2600 3084 3056 2656 
Q 3513 2228 3513 1497 
Q 3513 744 3044 326 
Q 2575 -91 1722 -91 
Q 1428 -91 1123 -41 
Q 819 9 494 109 
L 494 744 
Q 775 591 1075 516 
Q 1375 441 1709 441 
Q 2250 441 2565 725 
Q 2881 1009 2881 1497 
Q 2881 1984 2565 2268 
Q 2250 2553 1709 2553 
Q 1456 2553 1204 2497 
Q 953 2441 691 2322 
L 691 4666 
z
" transform="scale(0.015625)"/>
      </defs>
      <use xlink:href="#DejaVuSans-54"/>
      <use xlink:href="#DejaVuSans-6f" transform="translate(44.083984 0)"/>
      <use xlink:href="#DejaVuSans-74" transform="translate(105.265625 0)"/>
      <use xlink:href="#DejaVuSans-61" transform="translate(144.474609 0)"/>
      <use xlink:href="#DejaVuSans-6c" transform="translate(205.753906 0)"/>
      <use xlink:href="#DejaVuSans-20" transform="translate(233.537109 0)"/>
      <use xlink:href="#DejaVuSans-54" transform="translate(265.324219 0)"/>
      <use xlink:href="#DejaVuSans-72" transform="translate(311.658203 0)"/>
      <use xlink:href="#DejaVuSans-69" transform="translate(352.771484 0)"/>
      <use xlink:href="#DejaVuSans-70" transform="translate(380.554688 0)"/>
      <use xlink:href="#DejaVuSans-20" transform="translate(444.03125 0)"/>
      <use xlink:href="#DejaVuSans-54" transform="translate(475.818359 0)"/>
      <use xlink:href="#DejaVuSans-69" transform="translate(533.777344 0)"/>
      <use xlink:href="#DejaVuSans-6d" transform="translate(561.560547 0)"/>
      <use xlink:href="#DejaVuSans-65" transform="translate(658.972656 0)"/>
      <use xlink:href="#DejaVuSans-20" transform="translate(720.496094 0)"/>
      <use xlink:href="#DejaVuSans-28" transform="translate(752.283203 0)"/>
      <use xlink:href="#DejaVuSans-52" transform="translate(791.296875 0)"/>
      <use xlink:href="#DejaVuSans-75" transform="translate(856.279297 0)"/>
      <use xlink:href="#DejaVuSans-6e" transform="translate(919.658203 0)"/>
      <use xlink:href="#DejaVuSans-20" transform="translate(983.037109 0)"/>
      <use xlink:href="#DejaVuSans-35" transform="translate(1014.824219 0)"/>
      <use xlink:href="#DejaVuSans-29" transform="translate(1078.447266 0)"/>
     </g>
    </g>
   </g>
  </g>
  <g id="axes_2">
   <g id="patch_8">
    <path d="M 104.96 655 
L 700.56 655 
L 700.56 392.28 
L 104.96 392.28 
z
" style="fill: #ffffff"/>
   </g>
   <g id="matplotlib.axis_3">
    <g id="xtick_21">
     <g id="line2d_35">
      <g>
       <use xlink:href="#m2e62ae40c9" x="104.96" y="655" style="stroke: #000000; stroke-width: 0.8"/>
      </g>
     </g>
     <g id="text_33">
      <!-- 0 -->
      <g transform="translate(99.23375 675.677187) scale(0.18 -0.18)">
       <use xlink:href="#DejaVuSans-30"/>
      </g>
     </g>
    </g>
    <g id="xtick_22">
     <g id="line2d_36">
      <g>
       <use xlink:href="#m2e62ae40c9" x="135.50359" y="655" style="stroke: #000000; stroke-width: 0.8"/>
      </g>
     </g>
     <g id="text_34">
      <!-- 2 -->
      <g transform="translate(129.77734 675.677187) scale(0.18 -0.18)">
       <use xlink:href="#DejaVuSans-32"/>
      </g>
     </g>
    </g>
    <g id="xtick_23">
     <g id="line2d_37">
      <g>
       <use xlink:href="#m2e62ae40c9" x="166.047179" y="655" style="stroke: #000000; stroke-width: 0.8"/>
      </g>
     </g>
     <g id="text_35">
      <!-- 4 -->
      <g transform="translate(160.320929 675.677187) scale(0.18 -0.18)">
       <use xlink:href="#DejaVuSans-34"/>
      </g>
     </g>
    </g>
    <g id="xtick_24">
     <g id="line2d_38">
      <g>
       <use xlink:href="#m2e62ae40c9" x="196.590769" y="655" style="stroke: #000000; stroke-width: 0.8"/>
      </g>
     </g>
     <g id="text_36">
      <!-- 6 -->
      <g transform="translate(190.864519 675.677187) scale(0.18 -0.18)">
       <use xlink:href="#DejaVuSans-36"/>
      </g>
     </g>
    </g>
    <g id="xtick_25">
     <g id="line2d_39">
      <g>
       <use xlink:href="#m2e62ae40c9" x="227.134359" y="655" style="stroke: #000000; stroke-width: 0.8"/>
      </g>
     </g>
     <g id="text_37">
      <!-- 8 -->
      <g transform="translate(221.408109 675.677187) scale(0.18 -0.18)">
       <use xlink:href="#DejaVuSans-38"/>
      </g>
     </g>
    </g>
    <g id="xtick_26">
     <g id="line2d_40">
      <g>
       <use xlink:href="#m2e62ae40c9" x="257.677949" y="655" style="stroke: #000000; stroke-width: 0.8"/>
      </g>
     </g>
     <g id="text_38">
      <!-- 10 -->
      <g transform="translate(246.225449 675.677187) scale(0.18 -0.18)">
       <use xlink:href="#DejaVuSans-31"/>
       <use xlink:href="#DejaVuSans-30" transform="translate(63.623047 0)"/>
      </g>
     </g>
    </g>
    <g id="xtick_27">
     <g id="line2d_41">
      <g>
       <use xlink:href="#m2e62ae40c9" x="288.221538" y="655" style="stroke: #000000; stroke-width: 0.8"/>
      </g>
     </g>
     <g id="text_39">
      <!-- 12 -->
      <g transform="translate(276.769038 675.677187) scale(0.18 -0.18)">
       <use xlink:href="#DejaVuSans-31"/>
       <use xlink:href="#DejaVuSans-32" transform="translate(63.623047 0)"/>
      </g>
     </g>
    </g>
    <g id="xtick_28">
     <g id="line2d_42">
      <g>
       <use xlink:href="#m2e62ae40c9" x="318.765128" y="655" style="stroke: #000000; stroke-width: 0.8"/>
      </g>
     </g>
     <g id="text_40">
      <!-- 14 -->
      <g transform="translate(307.312628 675.677187) scale(0.18 -0.18)">
       <use xlink:href="#DejaVuSans-31"/>
       <use xlink:href="#DejaVuSans-34" transform="translate(63.623047 0)"/>
      </g>
     </g>
    </g>
    <g id="xtick_29">
     <g id="line2d_43">
      <g>
       <use xlink:href="#m2e62ae40c9" x="349.308718" y="655" style="stroke: #000000; stroke-width: 0.8"/>
      </g>
     </g>
     <g id="text_41">
      <!-- 16 -->
      <g transform="translate(337.856218 675.677187) scale(0.18 -0.18)">
       <use xlink:href="#DejaVuSans-31"/>
       <use xlink:href="#DejaVuSans-36" transform="translate(63.623047 0)"/>
      </g>
     </g>
    </g>
    <g id="xtick_30">
     <g id="line2d_44">
      <g>
       <use xlink:href="#m2e62ae40c9" x="379.852308" y="655" style="stroke: #000000; stroke-width: 0.8"/>
      </g>
     </g>
     <g id="text_42">
      <!-- 18 -->
      <g transform="translate(368.399808 675.677187) scale(0.18 -0.18)">
       <use xlink:href="#DejaVuSans-31"/>
       <use xlink:href="#DejaVuSans-38" transform="translate(63.623047 0)"/>
      </g>
     </g>
    </g>
    <g id="xtick_31">
     <g id="line2d_45">
      <g>
       <use xlink:href="#m2e62ae40c9" x="410.395897" y="655" style="stroke: #000000; stroke-width: 0.8"/>
      </g>
     </g>
     <g id="text_43">
      <!-- 20 -->
      <g transform="translate(398.943397 675.677187) scale(0.18 -0.18)">
       <use xlink:href="#DejaVuSans-32"/>
       <use xlink:href="#DejaVuSans-30" transform="translate(63.623047 0)"/>
      </g>
     </g>
    </g>
    <g id="xtick_32">
     <g id="line2d_46">
      <g>
       <use xlink:href="#m2e62ae40c9" x="440.939487" y="655" style="stroke: #000000; stroke-width: 0.8"/>
      </g>
     </g>
     <g id="text_44">
      <!-- 22 -->
      <g transform="translate(429.486987 675.677187) scale(0.18 -0.18)">
       <use xlink:href="#DejaVuSans-32"/>
       <use xlink:href="#DejaVuSans-32" transform="translate(63.623047 0)"/>
      </g>
     </g>
    </g>
    <g id="xtick_33">
     <g id="line2d_47">
      <g>
       <use xlink:href="#m2e62ae40c9" x="471.483077" y="655" style="stroke: #000000; stroke-width: 0.8"/>
      </g>
     </g>
     <g id="text_45">
      <!-- 24 -->
      <g transform="translate(460.030577 675.677187) scale(0.18 -0.18)">
       <use xlink:href="#DejaVuSans-32"/>
       <use xlink:href="#DejaVuSans-34" transform="translate(63.623047 0)"/>
      </g>
     </g>
    </g>
    <g id="xtick_34">
     <g id="line2d_48">
      <g>
       <use xlink:href="#m2e62ae40c9" x="502.026667" y="655" style="stroke: #000000; stroke-width: 0.8"/>
      </g>
     </g>
     <g id="text_46">
      <!-- 26 -->
      <g transform="translate(490.574167 675.677187) scale(0.18 -0.18)">
       <use xlink:href="#DejaVuSans-32"/>
       <use xlink:href="#DejaVuSans-36" transform="translate(63.623047 0)"/>
      </g>
     </g>
    </g>
    <g id="xtick_35">
     <g id="line2d_49">
      <g>
       <use xlink:href="#m2e62ae40c9" x="532.570256" y="655" style="stroke: #000000; stroke-width: 0.8"/>
      </g>
     </g>
     <g id="text_47">
      <!-- 28 -->
      <g transform="translate(521.117756 675.677187) scale(0.18 -0.18)">
       <use xlink:href="#DejaVuSans-32"/>
       <use xlink:href="#DejaVuSans-38" transform="translate(63.623047 0)"/>
      </g>
     </g>
    </g>
    <g id="xtick_36">
     <g id="line2d_50">
      <g>
       <use xlink:href="#m2e62ae40c9" x="563.113846" y="655" style="stroke: #000000; stroke-width: 0.8"/>
      </g>
     </g>
     <g id="text_48">
      <!-- 30 -->
      <g transform="translate(551.661346 675.677187) scale(0.18 -0.18)">
       <use xlink:href="#DejaVuSans-33"/>
       <use xlink:href="#DejaVuSans-30" transform="translate(63.623047 0)"/>
      </g>
     </g>
    </g>
    <g id="xtick_37">
     <g id="line2d_51">
      <g>
       <use xlink:href="#m2e62ae40c9" x="593.657436" y="655" style="stroke: #000000; stroke-width: 0.8"/>
      </g>
     </g>
     <g id="text_49">
      <!-- 32 -->
      <g transform="translate(582.204936 675.677187) scale(0.18 -0.18)">
       <use xlink:href="#DejaVuSans-33"/>
       <use xlink:href="#DejaVuSans-32" transform="translate(63.623047 0)"/>
      </g>
     </g>
    </g>
    <g id="xtick_38">
     <g id="line2d_52">
      <g>
       <use xlink:href="#m2e62ae40c9" x="624.201026" y="655" style="stroke: #000000; stroke-width: 0.8"/>
      </g>
     </g>
     <g id="text_50">
      <!-- 34 -->
      <g transform="translate(612.748526 675.677187) scale(0.18 -0.18)">
       <use xlink:href="#DejaVuSans-33"/>
       <use xlink:href="#DejaVuSans-34" transform="translate(63.623047 0)"/>
      </g>
     </g>
    </g>
    <g id="xtick_39">
     <g id="line2d_53">
      <g>
       <use xlink:href="#m2e62ae40c9" x="654.744615" y="655" style="stroke: #000000; stroke-width: 0.8"/>
      </g>
     </g>
     <g id="text_51">
      <!-- 36 -->
      <g transform="translate(643.292115 675.677187) scale(0.18 -0.18)">
       <use xlink:href="#DejaVuSans-33"/>
       <use xlink:href="#DejaVuSans-36" transform="translate(63.623047 0)"/>
      </g>
     </g>
    </g>
    <g id="xtick_40">
     <g id="line2d_54">
      <g>
       <use xlink:href="#m2e62ae40c9" x="685.288205" y="655" style="stroke: #000000; stroke-width: 0.8"/>
      </g>
     </g>
     <g id="text_52">
      <!-- 38 -->
      <g transform="translate(673.835705 675.677187) scale(0.18 -0.18)">
       <use xlink:href="#DejaVuSans-33"/>
       <use xlink:href="#DejaVuSans-38" transform="translate(63.623047 0)"/>
      </g>
     </g>
    </g>
    <g id="text_53">
     <!-- Iteration -->
     <g transform="translate(364.584531 697.097813) scale(0.18 -0.18)">
      <use xlink:href="#DejaVuSans-49"/>
      <use xlink:href="#DejaVuSans-74" transform="translate(29.492188 0)"/>
      <use xlink:href="#DejaVuSans-65" transform="translate(68.701172 0)"/>
      <use xlink:href="#DejaVuSans-72" transform="translate(130.224609 0)"/>
      <use xlink:href="#DejaVuSans-61" transform="translate(171.337891 0)"/>
      <use xlink:href="#DejaVuSans-74" transform="translate(232.617188 0)"/>
      <use xlink:href="#DejaVuSans-69" transform="translate(271.826172 0)"/>
      <use xlink:href="#DejaVuSans-6f" transform="translate(299.609375 0)"/>
      <use xlink:href="#DejaVuSans-6e" transform="translate(360.791016 0)"/>
     </g>
    </g>
   </g>
   <g id="matplotlib.axis_4">
    <g id="ytick_5">
     <g id="line2d_55">
      <g>
       <use xlink:href="#m62cd1ece90" x="104.96" y="641.947225" style="stroke: #000000; stroke-width: 0.8"/>
      </g>
     </g>
     <g id="text_54">
      <!-- 15000 -->
      <g transform="translate(40.6975 648.785819) scale(0.18 -0.18)">
       <use xlink:href="#DejaVuSans-31"/>
       <use xlink:href="#DejaVuSans-35" transform="translate(63.623047 0)"/>
       <use xlink:href="#DejaVuSans-30" transform="translate(127.246094 0)"/>
       <use xlink:href="#DejaVuSans-30" transform="translate(190.869141 0)"/>
       <use xlink:href="#DejaVuSans-30" transform="translate(254.492188 0)"/>
      </g>
     </g>
    </g>
    <g id="ytick_6">
     <g id="line2d_56">
      <g>
       <use xlink:href="#m62cd1ece90" x="104.96" y="577.730092" style="stroke: #000000; stroke-width: 0.8"/>
      </g>
     </g>
     <g id="text_55">
      <!-- 20000 -->
      <g transform="translate(40.6975 584.568685) scale(0.18 -0.18)">
       <use xlink:href="#DejaVuSans-32"/>
       <use xlink:href="#DejaVuSans-30" transform="translate(63.623047 0)"/>
       <use xlink:href="#DejaVuSans-30" transform="translate(127.246094 0)"/>
       <use xlink:href="#DejaVuSans-30" transform="translate(190.869141 0)"/>
       <use xlink:href="#DejaVuSans-30" transform="translate(254.492188 0)"/>
      </g>
     </g>
    </g>
    <g id="ytick_7">
     <g id="line2d_57">
      <g>
       <use xlink:href="#m62cd1ece90" x="104.96" y="513.512958" style="stroke: #000000; stroke-width: 0.8"/>
      </g>
     </g>
     <g id="text_56">
      <!-- 25000 -->
      <g transform="translate(40.6975 520.351552) scale(0.18 -0.18)">
       <use xlink:href="#DejaVuSans-32"/>
       <use xlink:href="#DejaVuSans-35" transform="translate(63.623047 0)"/>
       <use xlink:href="#DejaVuSans-30" transform="translate(127.246094 0)"/>
       <use xlink:href="#DejaVuSans-30" transform="translate(190.869141 0)"/>
       <use xlink:href="#DejaVuSans-30" transform="translate(254.492188 0)"/>
      </g>
     </g>
    </g>
    <g id="ytick_8">
     <g id="line2d_58">
      <g>
       <use xlink:href="#m62cd1ece90" x="104.96" y="449.295824" style="stroke: #000000; stroke-width: 0.8"/>
      </g>
     </g>
     <g id="text_57">
      <!-- 30000 -->
      <g transform="translate(40.6975 456.134418) scale(0.18 -0.18)">
       <use xlink:href="#DejaVuSans-33"/>
       <use xlink:href="#DejaVuSans-30" transform="translate(63.623047 0)"/>
       <use xlink:href="#DejaVuSans-30" transform="translate(127.246094 0)"/>
       <use xlink:href="#DejaVuSans-30" transform="translate(190.869141 0)"/>
       <use xlink:href="#DejaVuSans-30" transform="translate(254.492188 0)"/>
      </g>
     </g>
    </g>
    <g id="text_58">
     <!-- Seconds -->
     <g transform="translate(32.954063 561.452656) rotate(-90) scale(0.18 -0.18)">
      <use xlink:href="#DejaVuSans-53"/>
      <use xlink:href="#DejaVuSans-65" transform="translate(63.476562 0)"/>
      <use xlink:href="#DejaVuSans-63" transform="translate(125 0)"/>
      <use xlink:href="#DejaVuSans-6f" transform="translate(179.980469 0)"/>
      <use xlink:href="#DejaVuSans-6e" transform="translate(241.162109 0)"/>
      <use xlink:href="#DejaVuSans-64" transform="translate(304.541016 0)"/>
      <use xlink:href="#DejaVuSans-73" transform="translate(368.017578 0)"/>
     </g>
    </g>
   </g>
   <g id="line2d_59">
    <path d="M 104.96 470.030252 
L 120.231795 583.602106 
L 135.50359 583.745953 
L 150.775385 589.194134 
L 166.047179 608.949893 
L 181.318974 612.221114 
L 196.590769 610.981724 
L 211.862564 596.243891 
L 227.134359 619.95671 
L 242.406154 611.550687 
L 257.677949 620.988037 
L 272.949744 621.034274 
L 288.221538 610.786503 
L 303.493333 626.166507 
L 318.765128 622.92611 
L 334.036923 635.100395 
L 349.308718 628.952246 
L 364.580513 625.299576 
L 379.852308 630.443368 
L 395.124103 622.7219 
L 410.395897 620.859603 
L 425.667692 628.059628 
L 440.939487 626.278245 
L 456.211282 628.24072 
L 471.483077 625.108209 
L 486.754872 624.457047 
L 502.026667 625.440853 
L 517.298462 630.239158 
L 532.570256 626.65841 
L 547.842051 629.503229 
L 563.113846 629.275901 
L 578.385641 631.243514 
L 593.657436 629.600839 
L 608.929231 627.61653 
L 624.201026 630.318787 
L 639.472821 632.629319 
L 654.744615 633.550193 
L 670.01641 627.309572 
L 685.288205 630.32264 
L 700.56 619.72296 
" clip-path="url(#p6008b847fe)" style="fill: none; stroke: #1f77b4; stroke-width: 1.5; stroke-linecap: square"/>
   </g>
   <g id="line2d_60">
    <path d="M 104.96 460.940959 
L 120.231795 487.50245 
L 135.50359 508.362744 
L 150.775385 528.512796 
L 166.047179 555.778107 
L 181.318974 583.120478 
L 196.590769 597.57447 
L 211.862564 604.113059 
L 227.134359 600.292139 
L 242.406154 600.497634 
L 257.677949 596.835973 
L 272.949744 599.072014 
L 288.221538 604.149021 
L 303.493333 606.51478 
L 318.765128 609.635732 
L 334.036923 606.313138 
L 349.308718 614.558618 
L 364.580513 620.386965 
L 379.852308 603.365571 
L 395.124103 598.798449 
L 410.395897 619.716538 
L 425.667692 614.041028 
L 440.939487 620.389534 
L 456.211282 610.595136 
L 471.483077 619.92717 
L 486.754872 626.913994 
L 502.026667 618.591454 
L 517.298462 625.769645 
L 532.570256 630.623176 
L 547.842051 623.272883 
L 563.113846 622.030924 
L 578.385641 620.135234 
L 593.657436 621.196101 
L 608.929231 624.378702 
L 624.201026 626.612174 
L 639.472821 622.872168 
L 654.744615 623.157292 
L 670.01641 622.584475 
L 685.288205 624.672816 
L 700.56 621.379762 
" clip-path="url(#p6008b847fe)" style="fill: none; stroke: #ff7f0e; stroke-width: 1.5; stroke-linecap: square"/>
   </g>
   <g id="line2d_61">
    <path d="M 104.96 482.709283 
L 120.231795 520.372632 
L 135.50359 473.085704 
L 150.775385 500.352299 
L 166.047179 487.871057 
L 181.318974 470.674992 
L 196.590769 488.883119 
L 211.862564 521.90999 
L 227.134359 534.576178 
L 242.406154 511.118943 
L 257.677949 522.01916 
L 272.949744 536.083996 
L 288.221538 557.170334 
L 303.493333 563.093723 
L 318.765128 567.92542 
L 334.036923 573.720374 
L 349.308718 578.510972 
L 364.580513 586.17336 
L 379.852308 584.912136 
L 395.124103 608.061128 
L 410.395897 599.796383 
L 425.667692 604.165717 
L 440.939487 612.073415 
L 456.211282 610.356249 
L 471.483077 602.458826 
L 486.754872 609.932416 
L 502.026667 619.954141 
L 517.298462 628.448784 
L 532.570256 625.702859 
L 547.842051 610.367808 
L 563.113846 631.912656 
L 578.385641 635.325155 
L 593.657436 617.470223 
L 608.929231 612.617976 
L 624.201026 623.708275 
L 639.472821 608.089384 
L 654.744615 628.907294 
L 670.01641 643.058182 
L 685.288205 621.889646 
L 700.56 631.13306 
" clip-path="url(#p6008b847fe)" style="fill: none; stroke: #2ca02c; stroke-width: 1.5; stroke-linecap: square"/>
   </g>
   <g id="line2d_62">
    <path d="M 104.96 469.321295 
L 120.231795 474.80287 
L 135.50359 484.272328 
L 150.775385 508.615759 
L 166.047179 524.847282 
L 181.318974 525.197908 
L 196.590769 538.239123 
L 211.862564 526.516928 
L 227.134359 543.372641 
L 242.406154 529.577516 
L 257.677949 486.758816 
L 272.949744 527.653571 
L 288.221538 539.61337 
L 303.493333 564.821163 
L 318.765128 562.076523 
L 334.036923 550.802563 
L 349.308718 560.368347 
L 364.580513 558.950433 
L 379.852308 572.465571 
L 395.124103 566.736118 
L 410.395897 572.632536 
L 425.667692 591.657504 
L 440.939487 588.301516 
L 456.211282 588.278398 
L 471.483077 585.177995 
L 486.754872 588.342615 
L 502.026667 597.60401 
L 517.298462 598.243613 
L 532.570256 606.802472 
L 547.842051 601.076873 
L 563.113846 608.264054 
L 578.385641 609.571515 
L 593.657436 607.873614 
L 608.929231 615.857088 
L 624.201026 620.019643 
L 639.472821 612.422756 
L 654.744615 616.748422 
L 670.01641 607.867193 
L 685.288205 616.808786 
L 700.56 617.98396 
" clip-path="url(#p6008b847fe)" style="fill: none; stroke: #d62728; stroke-width: 1.5; stroke-linecap: square"/>
   </g>
   <g id="line2d_63">
    <path d="M 104.96 459.353512 
L 120.231795 404.221818 
L 135.50359 498.039197 
L 150.775385 503.744248 
L 166.047179 530.375093 
L 181.318974 537.87437 
L 196.590769 613.362895 
L 211.862564 626.707215 
L 227.134359 625.839 
L 242.406154 622.037345 
L 257.677949 616.155056 
L 272.949744 621.350222 
L 288.221538 625.018305 
L 303.493333 621.923039 
L 318.765128 626.558231 
L 334.036923 623.794326 
L 349.308718 621.623787 
L 364.580513 624.432644 
L 379.852308 626.698225 
L 395.124103 621.571129 
L 410.395897 623.677451 
L 425.667692 622.046336 
L 440.939487 626.91271 
L 456.211282 627.892664 
L 471.483077 625.092796 
L 486.754872 623.35765 
L 502.026667 625.038854 
L 517.298462 626.847209 
L 532.570256 620.722178 
L 547.842051 630.286678 
L 563.113846 629.965593 
L 578.385641 631.569737 
L 593.657436 627.454703 
L 608.929231 629.16031 
L 624.201026 627.905507 
L 639.472821 626.691803 
L 654.744615 630.487036 
L 670.01641 623.784051 
L 685.288205 630.949399 
L 700.56 627.179853 
" clip-path="url(#p6008b847fe)" style="fill: none; stroke: #9467bd; stroke-width: 1.5; stroke-linecap: square"/>
   </g>
   <g id="patch_9">
    <path d="M 104.96 655 
L 104.96 392.28 
" style="fill: none; stroke: #000000; stroke-width: 0.8; stroke-linejoin: miter; stroke-linecap: square"/>
   </g>
   <g id="patch_10">
    <path d="M 700.56 655 
L 700.56 392.28 
" style="fill: none; stroke: #000000; stroke-width: 0.8; stroke-linejoin: miter; stroke-linecap: square"/>
   </g>
   <g id="patch_11">
    <path d="M 104.96 655 
L 700.56 655 
" style="fill: none; stroke: #000000; stroke-width: 0.8; stroke-linejoin: miter; stroke-linecap: square"/>
   </g>
   <g id="patch_12">
    <path d="M 104.96 392.28 
L 700.56 392.28 
" style="fill: none; stroke: #000000; stroke-width: 0.8; stroke-linejoin: miter; stroke-linecap: square"/>
   </g>
   <g id="text_59">
    <!-- Total Wait Time Over Iterations (All Runs) -->
    <g transform="translate(181.111938 386.28) scale(0.216 -0.216)">
     <defs>
      <path id="DejaVuSans-57" d="M 213 4666 
L 850 4666 
L 1831 722 
L 2809 4666 
L 3519 4666 
L 4500 722 
L 5478 4666 
L 6119 4666 
L 4947 0 
L 4153 0 
L 3169 4050 
L 2175 0 
L 1381 0 
L 213 4666 
z
" transform="scale(0.015625)"/>
     </defs>
     <use xlink:href="#DejaVuSans-54"/>
     <use xlink:href="#DejaVuSans-6f" transform="translate(44.083984 0)"/>
     <use xlink:href="#DejaVuSans-74" transform="translate(105.265625 0)"/>
     <use xlink:href="#DejaVuSans-61" transform="translate(144.474609 0)"/>
     <use xlink:href="#DejaVuSans-6c" transform="translate(205.753906 0)"/>
     <use xlink:href="#DejaVuSans-20" transform="translate(233.537109 0)"/>
     <use xlink:href="#DejaVuSans-57" transform="translate(265.324219 0)"/>
     <use xlink:href="#DejaVuSans-61" transform="translate(357.826172 0)"/>
     <use xlink:href="#DejaVuSans-69" transform="translate(419.105469 0)"/>
     <use xlink:href="#DejaVuSans-74" transform="translate(446.888672 0)"/>
     <use xlink:href="#DejaVuSans-20" transform="translate(486.097656 0)"/>
     <use xlink:href="#DejaVuSans-54" transform="translate(517.884766 0)"/>
     <use xlink:href="#DejaVuSans-69" transform="translate(575.84375 0)"/>
     <use xlink:href="#DejaVuSans-6d" transform="translate(603.626953 0)"/>
     <use xlink:href="#DejaVuSans-65" transform="translate(701.039062 0)"/>
     <use xlink:href="#DejaVuSans-20" transform="translate(762.5625 0)"/>
     <use xlink:href="#DejaVuSans-4f" transform="translate(794.349609 0)"/>
     <use xlink:href="#DejaVuSans-76" transform="translate(873.060547 0)"/>
     <use xlink:href="#DejaVuSans-65" transform="translate(932.240234 0)"/>
     <use xlink:href="#DejaVuSans-72" transform="translate(993.763672 0)"/>
     <use xlink:href="#DejaVuSans-20" transform="translate(1034.876953 0)"/>
     <use xlink:href="#DejaVuSans-49" transform="translate(1066.664062 0)"/>
     <use xlink:href="#DejaVuSans-74" transform="translate(1096.15625 0)"/>
     <use xlink:href="#DejaVuSans-65" transform="translate(1135.365234 0)"/>
     <use xlink:href="#DejaVuSans-72" transform="translate(1196.888672 0)"/>
     <use xlink:href="#DejaVuSans-61" transform="translate(1238.001953 0)"/>
     <use xlink:href="#DejaVuSans-74" transform="translate(1299.28125 0)"/>
     <use xlink:href="#DejaVuSans-69" transform="translate(1338.490234 0)"/>
     <use xlink:href="#DejaVuSans-6f" transform="translate(1366.273438 0)"/>
     <use xlink:href="#DejaVuSans-6e" transform="translate(1427.455078 0)"/>
     <use xlink:href="#DejaVuSans-73" transform="translate(1490.833984 0)"/>
     <use xlink:href="#DejaVuSans-20" transform="translate(1542.933594 0)"/>
     <use xlink:href="#DejaVuSans-28" transform="translate(1574.720703 0)"/>
     <use xlink:href="#DejaVuSans-41" transform="translate(1613.734375 0)"/>
     <use xlink:href="#DejaVuSans-6c" transform="translate(1682.142578 0)"/>
     <use xlink:href="#DejaVuSans-6c" transform="translate(1709.925781 0)"/>
     <use xlink:href="#DejaVuSans-20" transform="translate(1737.708984 0)"/>
     <use xlink:href="#DejaVuSans-52" transform="translate(1769.496094 0)"/>
     <use xlink:href="#DejaVuSans-75" transform="translate(1834.478516 0)"/>
     <use xlink:href="#DejaVuSans-6e" transform="translate(1897.857422 0)"/>
     <use xlink:href="#DejaVuSans-73" transform="translate(1961.236328 0)"/>
     <use xlink:href="#DejaVuSans-29" transform="translate(2013.335938 0)"/>
    </g>
   </g>
   <g id="legend_2">
    <g id="patch_13">
     <path d="M 421.652812 538.783125 
L 687.96 538.783125 
Q 691.56 538.783125 691.56 535.183125 
L 691.56 404.88 
Q 691.56 401.28 687.96 401.28 
L 421.652812 401.28 
Q 418.052812 401.28 418.052812 404.88 
L 418.052812 535.183125 
Q 418.052812 538.783125 421.652812 538.783125 
z
" style="fill: #ffffff; opacity: 0.8; stroke: #cccccc; stroke-linejoin: miter"/>
    </g>
    <g id="line2d_64">
     <path d="M 425.252812 415.857188 
L 443.252812 415.857188 
L 461.252812 415.857188 
" style="fill: none; stroke: #1f77b4; stroke-width: 1.5; stroke-linecap: square"/>
    </g>
    <g id="text_60">
     <!-- Total Wait Time (Run 1) -->
     <g transform="translate(475.652812 422.157188) scale(0.18 -0.18)">
      <use xlink:href="#DejaVuSans-54"/>
      <use xlink:href="#DejaVuSans-6f" transform="translate(44.083984 0)"/>
      <use xlink:href="#DejaVuSans-74" transform="translate(105.265625 0)"/>
      <use xlink:href="#DejaVuSans-61" transform="translate(144.474609 0)"/>
      <use xlink:href="#DejaVuSans-6c" transform="translate(205.753906 0)"/>
      <use xlink:href="#DejaVuSans-20" transform="translate(233.537109 0)"/>
      <use xlink:href="#DejaVuSans-57" transform="translate(265.324219 0)"/>
      <use xlink:href="#DejaVuSans-61" transform="translate(357.826172 0)"/>
      <use xlink:href="#DejaVuSans-69" transform="translate(419.105469 0)"/>
      <use xlink:href="#DejaVuSans-74" transform="translate(446.888672 0)"/>
      <use xlink:href="#DejaVuSans-20" transform="translate(486.097656 0)"/>
      <use xlink:href="#DejaVuSans-54" transform="translate(517.884766 0)"/>
      <use xlink:href="#DejaVuSans-69" transform="translate(575.84375 0)"/>
      <use xlink:href="#DejaVuSans-6d" transform="translate(603.626953 0)"/>
      <use xlink:href="#DejaVuSans-65" transform="translate(701.039062 0)"/>
      <use xlink:href="#DejaVuSans-20" transform="translate(762.5625 0)"/>
      <use xlink:href="#DejaVuSans-28" transform="translate(794.349609 0)"/>
      <use xlink:href="#DejaVuSans-52" transform="translate(833.363281 0)"/>
      <use xlink:href="#DejaVuSans-75" transform="translate(898.345703 0)"/>
      <use xlink:href="#DejaVuSans-6e" transform="translate(961.724609 0)"/>
      <use xlink:href="#DejaVuSans-20" transform="translate(1025.103516 0)"/>
      <use xlink:href="#DejaVuSans-31" transform="translate(1056.890625 0)"/>
      <use xlink:href="#DejaVuSans-29" transform="translate(1120.513672 0)"/>
     </g>
    </g>
    <g id="line2d_65">
     <path d="M 425.252812 442.277813 
L 443.252812 442.277813 
L 461.252812 442.277813 
" style="fill: none; stroke: #ff7f0e; stroke-width: 1.5; stroke-linecap: square"/>
    </g>
    <g id="text_61">
     <!-- Total Wait Time (Run 2) -->
     <g transform="translate(475.652812 448.577813) scale(0.18 -0.18)">
      <use xlink:href="#DejaVuSans-54"/>
      <use xlink:href="#DejaVuSans-6f" transform="translate(44.083984 0)"/>
      <use xlink:href="#DejaVuSans-74" transform="translate(105.265625 0)"/>
      <use xlink:href="#DejaVuSans-61" transform="translate(144.474609 0)"/>
      <use xlink:href="#DejaVuSans-6c" transform="translate(205.753906 0)"/>
      <use xlink:href="#DejaVuSans-20" transform="translate(233.537109 0)"/>
      <use xlink:href="#DejaVuSans-57" transform="translate(265.324219 0)"/>
      <use xlink:href="#DejaVuSans-61" transform="translate(357.826172 0)"/>
      <use xlink:href="#DejaVuSans-69" transform="translate(419.105469 0)"/>
      <use xlink:href="#DejaVuSans-74" transform="translate(446.888672 0)"/>
      <use xlink:href="#DejaVuSans-20" transform="translate(486.097656 0)"/>
      <use xlink:href="#DejaVuSans-54" transform="translate(517.884766 0)"/>
      <use xlink:href="#DejaVuSans-69" transform="translate(575.84375 0)"/>
      <use xlink:href="#DejaVuSans-6d" transform="translate(603.626953 0)"/>
      <use xlink:href="#DejaVuSans-65" transform="translate(701.039062 0)"/>
      <use xlink:href="#DejaVuSans-20" transform="translate(762.5625 0)"/>
      <use xlink:href="#DejaVuSans-28" transform="translate(794.349609 0)"/>
      <use xlink:href="#DejaVuSans-52" transform="translate(833.363281 0)"/>
      <use xlink:href="#DejaVuSans-75" transform="translate(898.345703 0)"/>
      <use xlink:href="#DejaVuSans-6e" transform="translate(961.724609 0)"/>
      <use xlink:href="#DejaVuSans-20" transform="translate(1025.103516 0)"/>
      <use xlink:href="#DejaVuSans-32" transform="translate(1056.890625 0)"/>
      <use xlink:href="#DejaVuSans-29" transform="translate(1120.513672 0)"/>
     </g>
    </g>
    <g id="line2d_66">
     <path d="M 425.252812 468.698438 
L 443.252812 468.698438 
L 461.252812 468.698438 
" style="fill: none; stroke: #2ca02c; stroke-width: 1.5; stroke-linecap: square"/>
    </g>
    <g id="text_62">
     <!-- Total Wait Time (Run 3) -->
     <g transform="translate(475.652812 474.998438) scale(0.18 -0.18)">
      <use xlink:href="#DejaVuSans-54"/>
      <use xlink:href="#DejaVuSans-6f" transform="translate(44.083984 0)"/>
      <use xlink:href="#DejaVuSans-74" transform="translate(105.265625 0)"/>
      <use xlink:href="#DejaVuSans-61" transform="translate(144.474609 0)"/>
      <use xlink:href="#DejaVuSans-6c" transform="translate(205.753906 0)"/>
      <use xlink:href="#DejaVuSans-20" transform="translate(233.537109 0)"/>
      <use xlink:href="#DejaVuSans-57" transform="translate(265.324219 0)"/>
      <use xlink:href="#DejaVuSans-61" transform="translate(357.826172 0)"/>
      <use xlink:href="#DejaVuSans-69" transform="translate(419.105469 0)"/>
      <use xlink:href="#DejaVuSans-74" transform="translate(446.888672 0)"/>
      <use xlink:href="#DejaVuSans-20" transform="translate(486.097656 0)"/>
      <use xlink:href="#DejaVuSans-54" transform="translate(517.884766 0)"/>
      <use xlink:href="#DejaVuSans-69" transform="translate(575.84375 0)"/>
      <use xlink:href="#DejaVuSans-6d" transform="translate(603.626953 0)"/>
      <use xlink:href="#DejaVuSans-65" transform="translate(701.039062 0)"/>
      <use xlink:href="#DejaVuSans-20" transform="translate(762.5625 0)"/>
      <use xlink:href="#DejaVuSans-28" transform="translate(794.349609 0)"/>
      <use xlink:href="#DejaVuSans-52" transform="translate(833.363281 0)"/>
      <use xlink:href="#DejaVuSans-75" transform="translate(898.345703 0)"/>
      <use xlink:href="#DejaVuSans-6e" transform="translate(961.724609 0)"/>
      <use xlink:href="#DejaVuSans-20" transform="translate(1025.103516 0)"/>
      <use xlink:href="#DejaVuSans-33" transform="translate(1056.890625 0)"/>
      <use xlink:href="#DejaVuSans-29" transform="translate(1120.513672 0)"/>
     </g>
    </g>
    <g id="line2d_67">
     <path d="M 425.252812 495.119062 
L 443.252812 495.119062 
L 461.252812 495.119062 
" style="fill: none; stroke: #d62728; stroke-width: 1.5; stroke-linecap: square"/>
    </g>
    <g id="text_63">
     <!-- Total Wait Time (Run 4) -->
     <g transform="translate(475.652812 501.419062) scale(0.18 -0.18)">
      <use xlink:href="#DejaVuSans-54"/>
      <use xlink:href="#DejaVuSans-6f" transform="translate(44.083984 0)"/>
      <use xlink:href="#DejaVuSans-74" transform="translate(105.265625 0)"/>
      <use xlink:href="#DejaVuSans-61" transform="translate(144.474609 0)"/>
      <use xlink:href="#DejaVuSans-6c" transform="translate(205.753906 0)"/>
      <use xlink:href="#DejaVuSans-20" transform="translate(233.537109 0)"/>
      <use xlink:href="#DejaVuSans-57" transform="translate(265.324219 0)"/>
      <use xlink:href="#DejaVuSans-61" transform="translate(357.826172 0)"/>
      <use xlink:href="#DejaVuSans-69" transform="translate(419.105469 0)"/>
      <use xlink:href="#DejaVuSans-74" transform="translate(446.888672 0)"/>
      <use xlink:href="#DejaVuSans-20" transform="translate(486.097656 0)"/>
      <use xlink:href="#DejaVuSans-54" transform="translate(517.884766 0)"/>
      <use xlink:href="#DejaVuSans-69" transform="translate(575.84375 0)"/>
      <use xlink:href="#DejaVuSans-6d" transform="translate(603.626953 0)"/>
      <use xlink:href="#DejaVuSans-65" transform="translate(701.039062 0)"/>
      <use xlink:href="#DejaVuSans-20" transform="translate(762.5625 0)"/>
      <use xlink:href="#DejaVuSans-28" transform="translate(794.349609 0)"/>
      <use xlink:href="#DejaVuSans-52" transform="translate(833.363281 0)"/>
      <use xlink:href="#DejaVuSans-75" transform="translate(898.345703 0)"/>
      <use xlink:href="#DejaVuSans-6e" transform="translate(961.724609 0)"/>
      <use xlink:href="#DejaVuSans-20" transform="translate(1025.103516 0)"/>
      <use xlink:href="#DejaVuSans-34" transform="translate(1056.890625 0)"/>
      <use xlink:href="#DejaVuSans-29" transform="translate(1120.513672 0)"/>
     </g>
    </g>
    <g id="line2d_68">
     <path d="M 425.252812 521.539688 
L 443.252812 521.539688 
L 461.252812 521.539688 
" style="fill: none; stroke: #9467bd; stroke-width: 1.5; stroke-linecap: square"/>
    </g>
    <g id="text_64">
     <!-- Total Wait Time (Run 5) -->
     <g transform="translate(475.652812 527.839688) scale(0.18 -0.18)">
      <use xlink:href="#DejaVuSans-54"/>
      <use xlink:href="#DejaVuSans-6f" transform="translate(44.083984 0)"/>
      <use xlink:href="#DejaVuSans-74" transform="translate(105.265625 0)"/>
      <use xlink:href="#DejaVuSans-61" transform="translate(144.474609 0)"/>
      <use xlink:href="#DejaVuSans-6c" transform="translate(205.753906 0)"/>
      <use xlink:href="#DejaVuSans-20" transform="translate(233.537109 0)"/>
      <use xlink:href="#DejaVuSans-57" transform="translate(265.324219 0)"/>
      <use xlink:href="#DejaVuSans-61" transform="translate(357.826172 0)"/>
      <use xlink:href="#DejaVuSans-69" transform="translate(419.105469 0)"/>
      <use xlink:href="#DejaVuSans-74" transform="translate(446.888672 0)"/>
      <use xlink:href="#DejaVuSans-20" transform="translate(486.097656 0)"/>
      <use xlink:href="#DejaVuSans-54" transform="translate(517.884766 0)"/>
      <use xlink:href="#DejaVuSans-69" transform="translate(575.84375 0)"/>
      <use xlink:href="#DejaVuSans-6d" transform="translate(603.626953 0)"/>
      <use xlink:href="#DejaVuSans-65" transform="translate(701.039062 0)"/>
      <use xlink:href="#DejaVuSans-20" transform="translate(762.5625 0)"/>
      <use xlink:href="#DejaVuSans-28" transform="translate(794.349609 0)"/>
      <use xlink:href="#DejaVuSans-52" transform="translate(833.363281 0)"/>
      <use xlink:href="#DejaVuSans-75" transform="translate(898.345703 0)"/>
      <use xlink:href="#DejaVuSans-6e" transform="translate(961.724609 0)"/>
      <use xlink:href="#DejaVuSans-20" transform="translate(1025.103516 0)"/>
      <use xlink:href="#DejaVuSans-35" transform="translate(1056.890625 0)"/>
      <use xlink:href="#DejaVuSans-29" transform="translate(1120.513672 0)"/>
     </g>
    </g>
   </g>
  </g>
 </g>
 <defs>
  <clipPath id="p83fc858e5b">
   <rect x="104.96" y="42" width="595.6" height="262.72"/>
  </clipPath>
  <clipPath id="p6008b847fe">
   <rect x="104.96" y="392.28" width="595.6" height="262.72"/>
  </clipPath>
 </defs>
</svg>
