<?xml version="1.0" encoding="utf-8" standalone="no"?>
<!DOCTYPE svg PUBLIC "-//W3C//DTD SVG 1.1//EN"
  "http://www.w3.org/Graphics/SVG/1.1/DTD/svg11.dtd">
<svg xmlns:xlink="http://www.w3.org/1999/xlink" width="720pt" height="720pt" viewBox="0 0 720 720" xmlns="http://www.w3.org/2000/svg" version="1.1">
 <metadata>
  <rdf:RDF xmlns:dc="http://purl.org/dc/elements/1.1/" xmlns:cc="http://creativecommons.org/ns#" xmlns:rdf="http://www.w3.org/1999/02/22-rdf-syntax-ns#">
   <cc:Work>
    <dc:type rdf:resource="http://purl.org/dc/dcmitype/StillImage"/>
    <dc:date>2025-04-16T14:03:08.207173</dc:date>
    <dc:format>image/svg+xml</dc:format>
    <dc:creator>
     <cc:Agent>
      <dc:title>Matplotlib v3.10.1, https://matplotlib.org/</dc:title>
     </cc:Agent>
    </dc:creator>
   </cc:Work>
  </rdf:RDF>
 </metadata>
 <defs>
  <style type="text/css">*{stroke-linejoin: round; stroke-linecap: butt}</style>
 </defs>
 <g id="figure_1">
  <g id="patch_1">
   <path d="M 0 720 
L 720 720 
L 720 0 
L 0 0 
z
" style="fill: #ffffff"/>
  </g>
  <g id="axes_1">
   <g id="patch_2">
    <path d="M 82.1 304.72 
L 700.56 304.72 
L 700.56 42 
L 82.1 42 
z
" style="fill: #ffffff"/>
   </g>
   <g id="matplotlib.axis_1">
    <g id="xtick_1">
     <g id="line2d_1">
      <defs>
       <path id="m56764dad5d" d="M 0 0 
L 0 3.5 
" style="stroke: #000000; stroke-width: 0.8"/>
      </defs>
      <g>
       <use xlink:href="#m56764dad5d" x="82.1" y="304.72" style="stroke: #000000; stroke-width: 0.8"/>
      </g>
     </g>
     <g id="text_1">
      <!-- 0 -->
      <g transform="translate(76.37375 325.397188) scale(0.18 -0.18)">
       <defs>
        <path id="DejaVuSans-30" d="M 2034 4250 
Q 1547 4250 1301 3770 
Q 1056 3291 1056 2328 
Q 1056 1369 1301 889 
Q 1547 409 2034 409 
Q 2525 409 2770 889 
Q 3016 1369 3016 2328 
Q 3016 3291 2770 3770 
Q 2525 4250 2034 4250 
z
M 2034 4750 
Q 2819 4750 3233 4129 
Q 3647 3509 3647 2328 
Q 3647 1150 3233 529 
Q 2819 -91 2034 -91 
Q 1250 -91 836 529 
Q 422 1150 422 2328 
Q 422 3509 836 4129 
Q 1250 4750 2034 4750 
z
" transform="scale(0.015625)"/>
       </defs>
       <use xlink:href="#DejaVuSans-30"/>
      </g>
     </g>
    </g>
    <g id="xtick_2">
     <g id="line2d_2">
      <g>
       <use xlink:href="#m56764dad5d" x="147.201053" y="304.72" style="stroke: #000000; stroke-width: 0.8"/>
      </g>
     </g>
     <g id="text_2">
      <!-- 2 -->
      <g transform="translate(141.474803 325.397188) scale(0.18 -0.18)">
       <defs>
        <path id="DejaVuSans-32" d="M 1228 531 
L 3431 531 
L 3431 0 
L 469 0 
L 469 531 
Q 828 903 1448 1529 
Q 2069 2156 2228 2338 
Q 2531 2678 2651 2914 
Q 2772 3150 2772 3378 
Q 2772 3750 2511 3984 
Q 2250 4219 1831 4219 
Q 1534 4219 1204 4116 
Q 875 4013 500 3803 
L 500 4441 
Q 881 4594 1212 4672 
Q 1544 4750 1819 4750 
Q 2544 4750 2975 4387 
Q 3406 4025 3406 3419 
Q 3406 3131 3298 2873 
Q 3191 2616 2906 2266 
Q 2828 2175 2409 1742 
Q 1991 1309 1228 531 
z
" transform="scale(0.015625)"/>
       </defs>
       <use xlink:href="#DejaVuSans-32"/>
      </g>
     </g>
    </g>
    <g id="xtick_3">
     <g id="line2d_3">
      <g>
       <use xlink:href="#m56764dad5d" x="212.302105" y="304.72" style="stroke: #000000; stroke-width: 0.8"/>
      </g>
     </g>
     <g id="text_3">
      <!-- 4 -->
      <g transform="translate(206.575855 325.397188) scale(0.18 -0.18)">
       <defs>
        <path id="DejaVuSans-34" d="M 2419 4116 
L 825 1625 
L 2419 1625 
L 2419 4116 
z
M 2253 4666 
L 3047 4666 
L 3047 1625 
L 3713 1625 
L 3713 1100 
L 3047 1100 
L 3047 0 
L 2419 0 
L 2419 1100 
L 313 1100 
L 313 1709 
L 2253 4666 
z
" transform="scale(0.015625)"/>
       </defs>
       <use xlink:href="#DejaVuSans-34"/>
      </g>
     </g>
    </g>
    <g id="xtick_4">
     <g id="line2d_4">
      <g>
       <use xlink:href="#m56764dad5d" x="277.403158" y="304.72" style="stroke: #000000; stroke-width: 0.8"/>
      </g>
     </g>
     <g id="text_4">
      <!-- 6 -->
      <g transform="translate(271.676908 325.397188) scale(0.18 -0.18)">
       <defs>
        <path id="DejaVuSans-36" d="M 2113 2584 
Q 1688 2584 1439 2293 
Q 1191 2003 1191 1497 
Q 1191 994 1439 701 
Q 1688 409 2113 409 
Q 2538 409 2786 701 
Q 3034 994 3034 1497 
Q 3034 2003 2786 2293 
Q 2538 2584 2113 2584 
z
M 3366 4563 
L 3366 3988 
Q 3128 4100 2886 4159 
Q 2644 4219 2406 4219 
Q 1781 4219 1451 3797 
Q 1122 3375 1075 2522 
Q 1259 2794 1537 2939 
Q 1816 3084 2150 3084 
Q 2853 3084 3261 2657 
Q 3669 2231 3669 1497 
Q 3669 778 3244 343 
Q 2819 -91 2113 -91 
Q 1303 -91 875 529 
Q 447 1150 447 2328 
Q 447 3434 972 4092 
Q 1497 4750 2381 4750 
Q 2619 4750 2861 4703 
Q 3103 4656 3366 4563 
z
" transform="scale(0.015625)"/>
       </defs>
       <use xlink:href="#DejaVuSans-36"/>
      </g>
     </g>
    </g>
    <g id="xtick_5">
     <g id="line2d_5">
      <g>
       <use xlink:href="#m56764dad5d" x="342.504211" y="304.72" style="stroke: #000000; stroke-width: 0.8"/>
      </g>
     </g>
     <g id="text_5">
      <!-- 8 -->
      <g transform="translate(336.777961 325.397188) scale(0.18 -0.18)">
       <defs>
        <path id="DejaVuSans-38" d="M 2034 2216 
Q 1584 2216 1326 1975 
Q 1069 1734 1069 1313 
Q 1069 891 1326 650 
Q 1584 409 2034 409 
Q 2484 409 2743 651 
Q 3003 894 3003 1313 
Q 3003 1734 2745 1975 
Q 2488 2216 2034 2216 
z
M 1403 2484 
Q 997 2584 770 2862 
Q 544 3141 544 3541 
Q 544 4100 942 4425 
Q 1341 4750 2034 4750 
Q 2731 4750 3128 4425 
Q 3525 4100 3525 3541 
Q 3525 3141 3298 2862 
Q 3072 2584 2669 2484 
Q 3125 2378 3379 2068 
Q 3634 1759 3634 1313 
Q 3634 634 3220 271 
Q 2806 -91 2034 -91 
Q 1263 -91 848 271 
Q 434 634 434 1313 
Q 434 1759 690 2068 
Q 947 2378 1403 2484 
z
M 1172 3481 
Q 1172 3119 1398 2916 
Q 1625 2713 2034 2713 
Q 2441 2713 2670 2916 
Q 2900 3119 2900 3481 
Q 2900 3844 2670 4047 
Q 2441 4250 2034 4250 
Q 1625 4250 1398 4047 
Q 1172 3844 1172 3481 
z
" transform="scale(0.015625)"/>
       </defs>
       <use xlink:href="#DejaVuSans-38"/>
      </g>
     </g>
    </g>
    <g id="xtick_6">
     <g id="line2d_6">
      <g>
       <use xlink:href="#m56764dad5d" x="407.605263" y="304.72" style="stroke: #000000; stroke-width: 0.8"/>
      </g>
     </g>
     <g id="text_6">
      <!-- 10 -->
      <g transform="translate(396.152763 325.397188) scale(0.18 -0.18)">
       <defs>
        <path id="DejaVuSans-31" d="M 794 531 
L 1825 531 
L 1825 4091 
L 703 3866 
L 703 4441 
L 1819 4666 
L 2450 4666 
L 2450 531 
L 3481 531 
L 3481 0 
L 794 0 
L 794 531 
z
" transform="scale(0.015625)"/>
       </defs>
       <use xlink:href="#DejaVuSans-31"/>
       <use xlink:href="#DejaVuSans-30" transform="translate(63.623047 0)"/>
      </g>
     </g>
    </g>
    <g id="xtick_7">
     <g id="line2d_7">
      <g>
       <use xlink:href="#m56764dad5d" x="472.706316" y="304.72" style="stroke: #000000; stroke-width: 0.8"/>
      </g>
     </g>
     <g id="text_7">
      <!-- 12 -->
      <g transform="translate(461.253816 325.397188) scale(0.18 -0.18)">
       <use xlink:href="#DejaVuSans-31"/>
       <use xlink:href="#DejaVuSans-32" transform="translate(63.623047 0)"/>
      </g>
     </g>
    </g>
    <g id="xtick_8">
     <g id="line2d_8">
      <g>
       <use xlink:href="#m56764dad5d" x="537.807368" y="304.72" style="stroke: #000000; stroke-width: 0.8"/>
      </g>
     </g>
     <g id="text_8">
      <!-- 14 -->
      <g transform="translate(526.354868 325.397188) scale(0.18 -0.18)">
       <use xlink:href="#DejaVuSans-31"/>
       <use xlink:href="#DejaVuSans-34" transform="translate(63.623047 0)"/>
      </g>
     </g>
    </g>
    <g id="xtick_9">
     <g id="line2d_9">
      <g>
       <use xlink:href="#m56764dad5d" x="602.908421" y="304.72" style="stroke: #000000; stroke-width: 0.8"/>
      </g>
     </g>
     <g id="text_9">
      <!-- 16 -->
      <g transform="translate(591.455921 325.397188) scale(0.18 -0.18)">
       <use xlink:href="#DejaVuSans-31"/>
       <use xlink:href="#DejaVuSans-36" transform="translate(63.623047 0)"/>
      </g>
     </g>
    </g>
    <g id="xtick_10">
     <g id="line2d_10">
      <g>
       <use xlink:href="#m56764dad5d" x="668.009474" y="304.72" style="stroke: #000000; stroke-width: 0.8"/>
      </g>
     </g>
     <g id="text_10">
      <!-- 18 -->
      <g transform="translate(656.556974 325.397188) scale(0.18 -0.18)">
       <use xlink:href="#DejaVuSans-31"/>
       <use xlink:href="#DejaVuSans-38" transform="translate(63.623047 0)"/>
      </g>
     </g>
    </g>
    <g id="text_11">
     <!-- Iteration -->
     <g transform="translate(353.154531 346.817813) scale(0.18 -0.18)">
      <defs>
       <path id="DejaVuSans-49" d="M 628 4666 
L 1259 4666 
L 1259 0 
L 628 0 
L 628 4666 
z
" transform="scale(0.015625)"/>
       <path id="DejaVuSans-74" d="M 1172 4494 
L 1172 3500 
L 2356 3500 
L 2356 3053 
L 1172 3053 
L 1172 1153 
Q 1172 725 1289 603 
Q 1406 481 1766 481 
L 2356 481 
L 2356 0 
L 1766 0 
Q 1100 0 847 248 
Q 594 497 594 1153 
L 594 3053 
L 172 3053 
L 172 3500 
L 594 3500 
L 594 4494 
L 1172 4494 
z
" transform="scale(0.015625)"/>
       <path id="DejaVuSans-65" d="M 3597 1894 
L 3597 1613 
L 953 1613 
Q 991 1019 1311 708 
Q 1631 397 2203 397 
Q 2534 397 2845 478 
Q 3156 559 3463 722 
L 3463 178 
Q 3153 47 2828 -22 
Q 2503 -91 2169 -91 
Q 1331 -91 842 396 
Q 353 884 353 1716 
Q 353 2575 817 3079 
Q 1281 3584 2069 3584 
Q 2775 3584 3186 3129 
Q 3597 2675 3597 1894 
z
M 3022 2063 
Q 3016 2534 2758 2815 
Q 2500 3097 2075 3097 
Q 1594 3097 1305 2825 
Q 1016 2553 972 2059 
L 3022 2063 
z
" transform="scale(0.015625)"/>
       <path id="DejaVuSans-72" d="M 2631 2963 
Q 2534 3019 2420 3045 
Q 2306 3072 2169 3072 
Q 1681 3072 1420 2755 
Q 1159 2438 1159 1844 
L 1159 0 
L 581 0 
L 581 3500 
L 1159 3500 
L 1159 2956 
Q 1341 3275 1631 3429 
Q 1922 3584 2338 3584 
Q 2397 3584 2469 3576 
Q 2541 3569 2628 3553 
L 2631 2963 
z
" transform="scale(0.015625)"/>
       <path id="DejaVuSans-61" d="M 2194 1759 
Q 1497 1759 1228 1600 
Q 959 1441 959 1056 
Q 959 750 1161 570 
Q 1363 391 1709 391 
Q 2188 391 2477 730 
Q 2766 1069 2766 1631 
L 2766 1759 
L 2194 1759 
z
M 3341 1997 
L 3341 0 
L 2766 0 
L 2766 531 
Q 2569 213 2275 61 
Q 1981 -91 1556 -91 
Q 1019 -91 701 211 
Q 384 513 384 1019 
Q 384 1609 779 1909 
Q 1175 2209 1959 2209 
L 2766 2209 
L 2766 2266 
Q 2766 2663 2505 2880 
Q 2244 3097 1772 3097 
Q 1472 3097 1187 3025 
Q 903 2953 641 2809 
L 641 3341 
Q 956 3463 1253 3523 
Q 1550 3584 1831 3584 
Q 2591 3584 2966 3190 
Q 3341 2797 3341 1997 
z
" transform="scale(0.015625)"/>
       <path id="DejaVuSans-69" d="M 603 3500 
L 1178 3500 
L 1178 0 
L 603 0 
L 603 3500 
z
M 603 4863 
L 1178 4863 
L 1178 4134 
L 603 4134 
L 603 4863 
z
" transform="scale(0.015625)"/>
       <path id="DejaVuSans-6f" d="M 1959 3097 
Q 1497 3097 1228 2736 
Q 959 2375 959 1747 
Q 959 1119 1226 758 
Q 1494 397 1959 397 
Q 2419 397 2687 759 
Q 2956 1122 2956 1747 
Q 2956 2369 2687 2733 
Q 2419 3097 1959 3097 
z
M 1959 3584 
Q 2709 3584 3137 3096 
Q 3566 2609 3566 1747 
Q 3566 888 3137 398 
Q 2709 -91 1959 -91 
Q 1206 -91 779 398 
Q 353 888 353 1747 
Q 353 2609 779 3096 
Q 1206 3584 1959 3584 
z
" transform="scale(0.015625)"/>
       <path id="DejaVuSans-6e" d="M 3513 2113 
L 3513 0 
L 2938 0 
L 2938 2094 
Q 2938 2591 2744 2837 
Q 2550 3084 2163 3084 
Q 1697 3084 1428 2787 
Q 1159 2491 1159 1978 
L 1159 0 
L 581 0 
L 581 3500 
L 1159 3500 
L 1159 2956 
Q 1366 3272 1645 3428 
Q 1925 3584 2291 3584 
Q 2894 3584 3203 3211 
Q 3513 2838 3513 2113 
z
" transform="scale(0.015625)"/>
      </defs>
      <use xlink:href="#DejaVuSans-49"/>
      <use xlink:href="#DejaVuSans-74" transform="translate(29.492188 0)"/>
      <use xlink:href="#DejaVuSans-65" transform="translate(68.701172 0)"/>
      <use xlink:href="#DejaVuSans-72" transform="translate(130.224609 0)"/>
      <use xlink:href="#DejaVuSans-61" transform="translate(171.337891 0)"/>
      <use xlink:href="#DejaVuSans-74" transform="translate(232.617188 0)"/>
      <use xlink:href="#DejaVuSans-69" transform="translate(271.826172 0)"/>
      <use xlink:href="#DejaVuSans-6f" transform="translate(299.609375 0)"/>
      <use xlink:href="#DejaVuSans-6e" transform="translate(360.791016 0)"/>
     </g>
    </g>
   </g>
   <g id="matplotlib.axis_2">
    <g id="ytick_1">
     <g id="line2d_11">
      <defs>
       <path id="m32e4cb01d4" d="M 0 0 
L -3.5 0 
" style="stroke: #000000; stroke-width: 0.8"/>
      </defs>
      <g>
       <use xlink:href="#m32e4cb01d4" x="82.1" y="294.896464" style="stroke: #000000; stroke-width: 0.8"/>
      </g>
     </g>
     <g id="text_12">
      <!-- 60 -->
      <g transform="translate(52.195 301.735058) scale(0.18 -0.18)">
       <use xlink:href="#DejaVuSans-36"/>
       <use xlink:href="#DejaVuSans-30" transform="translate(63.623047 0)"/>
      </g>
     </g>
    </g>
    <g id="ytick_2">
     <g id="line2d_12">
      <g>
       <use xlink:href="#m32e4cb01d4" x="82.1" y="241.939399" style="stroke: #000000; stroke-width: 0.8"/>
      </g>
     </g>
     <g id="text_13">
      <!-- 80 -->
      <g transform="translate(52.195 248.777993) scale(0.18 -0.18)">
       <use xlink:href="#DejaVuSans-38"/>
       <use xlink:href="#DejaVuSans-30" transform="translate(63.623047 0)"/>
      </g>
     </g>
    </g>
    <g id="ytick_3">
     <g id="line2d_13">
      <g>
       <use xlink:href="#m32e4cb01d4" x="82.1" y="188.982334" style="stroke: #000000; stroke-width: 0.8"/>
      </g>
     </g>
     <g id="text_14">
      <!-- 100 -->
      <g transform="translate(40.7425 195.820928) scale(0.18 -0.18)">
       <use xlink:href="#DejaVuSans-31"/>
       <use xlink:href="#DejaVuSans-30" transform="translate(63.623047 0)"/>
       <use xlink:href="#DejaVuSans-30" transform="translate(127.246094 0)"/>
      </g>
     </g>
    </g>
    <g id="ytick_4">
     <g id="line2d_14">
      <g>
       <use xlink:href="#m32e4cb01d4" x="82.1" y="136.025269" style="stroke: #000000; stroke-width: 0.8"/>
      </g>
     </g>
     <g id="text_15">
      <!-- 120 -->
      <g transform="translate(40.7425 142.863863) scale(0.18 -0.18)">
       <use xlink:href="#DejaVuSans-31"/>
       <use xlink:href="#DejaVuSans-32" transform="translate(63.623047 0)"/>
       <use xlink:href="#DejaVuSans-30" transform="translate(127.246094 0)"/>
      </g>
     </g>
    </g>
    <g id="ytick_5">
     <g id="line2d_15">
      <g>
       <use xlink:href="#m32e4cb01d4" x="82.1" y="83.068204" style="stroke: #000000; stroke-width: 0.8"/>
      </g>
     </g>
     <g id="text_16">
      <!-- 140 -->
      <g transform="translate(40.7425 89.906798) scale(0.18 -0.18)">
       <use xlink:href="#DejaVuSans-31"/>
       <use xlink:href="#DejaVuSans-34" transform="translate(63.623047 0)"/>
       <use xlink:href="#DejaVuSans-30" transform="translate(127.246094 0)"/>
      </g>
     </g>
    </g>
    <g id="text_17">
     <!-- Number of Vehicles -->
     <g transform="translate(32.999063 260.786563) rotate(-90) scale(0.18 -0.18)">
      <defs>
       <path id="DejaVuSans-4e" d="M 628 4666 
L 1478 4666 
L 3547 763 
L 3547 4666 
L 4159 4666 
L 4159 0 
L 3309 0 
L 1241 3903 
L 1241 0 
L 628 0 
L 628 4666 
z
" transform="scale(0.015625)"/>
       <path id="DejaVuSans-75" d="M 544 1381 
L 544 3500 
L 1119 3500 
L 1119 1403 
Q 1119 906 1312 657 
Q 1506 409 1894 409 
Q 2359 409 2629 706 
Q 2900 1003 2900 1516 
L 2900 3500 
L 3475 3500 
L 3475 0 
L 2900 0 
L 2900 538 
Q 2691 219 2414 64 
Q 2138 -91 1772 -91 
Q 1169 -91 856 284 
Q 544 659 544 1381 
z
M 1991 3584 
L 1991 3584 
z
" transform="scale(0.015625)"/>
       <path id="DejaVuSans-6d" d="M 3328 2828 
Q 3544 3216 3844 3400 
Q 4144 3584 4550 3584 
Q 5097 3584 5394 3201 
Q 5691 2819 5691 2113 
L 5691 0 
L 5113 0 
L 5113 2094 
Q 5113 2597 4934 2840 
Q 4756 3084 4391 3084 
Q 3944 3084 3684 2787 
Q 3425 2491 3425 1978 
L 3425 0 
L 2847 0 
L 2847 2094 
Q 2847 2600 2669 2842 
Q 2491 3084 2119 3084 
Q 1678 3084 1418 2786 
Q 1159 2488 1159 1978 
L 1159 0 
L 581 0 
L 581 3500 
L 1159 3500 
L 1159 2956 
Q 1356 3278 1631 3431 
Q 1906 3584 2284 3584 
Q 2666 3584 2933 3390 
Q 3200 3197 3328 2828 
z
" transform="scale(0.015625)"/>
       <path id="DejaVuSans-62" d="M 3116 1747 
Q 3116 2381 2855 2742 
Q 2594 3103 2138 3103 
Q 1681 3103 1420 2742 
Q 1159 2381 1159 1747 
Q 1159 1113 1420 752 
Q 1681 391 2138 391 
Q 2594 391 2855 752 
Q 3116 1113 3116 1747 
z
M 1159 2969 
Q 1341 3281 1617 3432 
Q 1894 3584 2278 3584 
Q 2916 3584 3314 3078 
Q 3713 2572 3713 1747 
Q 3713 922 3314 415 
Q 2916 -91 2278 -91 
Q 1894 -91 1617 61 
Q 1341 213 1159 525 
L 1159 0 
L 581 0 
L 581 4863 
L 1159 4863 
L 1159 2969 
z
" transform="scale(0.015625)"/>
       <path id="DejaVuSans-20" transform="scale(0.015625)"/>
       <path id="DejaVuSans-66" d="M 2375 4863 
L 2375 4384 
L 1825 4384 
Q 1516 4384 1395 4259 
Q 1275 4134 1275 3809 
L 1275 3500 
L 2222 3500 
L 2222 3053 
L 1275 3053 
L 1275 0 
L 697 0 
L 697 3053 
L 147 3053 
L 147 3500 
L 697 3500 
L 697 3744 
Q 697 4328 969 4595 
Q 1241 4863 1831 4863 
L 2375 4863 
z
" transform="scale(0.015625)"/>
       <path id="DejaVuSans-56" d="M 1831 0 
L 50 4666 
L 709 4666 
L 2188 738 
L 3669 4666 
L 4325 4666 
L 2547 0 
L 1831 0 
z
" transform="scale(0.015625)"/>
       <path id="DejaVuSans-68" d="M 3513 2113 
L 3513 0 
L 2938 0 
L 2938 2094 
Q 2938 2591 2744 2837 
Q 2550 3084 2163 3084 
Q 1697 3084 1428 2787 
Q 1159 2491 1159 1978 
L 1159 0 
L 581 0 
L 581 4863 
L 1159 4863 
L 1159 2956 
Q 1366 3272 1645 3428 
Q 1925 3584 2291 3584 
Q 2894 3584 3203 3211 
Q 3513 2838 3513 2113 
z
" transform="scale(0.015625)"/>
       <path id="DejaVuSans-63" d="M 3122 3366 
L 3122 2828 
Q 2878 2963 2633 3030 
Q 2388 3097 2138 3097 
Q 1578 3097 1268 2742 
Q 959 2388 959 1747 
Q 959 1106 1268 751 
Q 1578 397 2138 397 
Q 2388 397 2633 464 
Q 2878 531 3122 666 
L 3122 134 
Q 2881 22 2623 -34 
Q 2366 -91 2075 -91 
Q 1284 -91 818 406 
Q 353 903 353 1747 
Q 353 2603 823 3093 
Q 1294 3584 2113 3584 
Q 2378 3584 2631 3529 
Q 2884 3475 3122 3366 
z
" transform="scale(0.015625)"/>
       <path id="DejaVuSans-6c" d="M 603 4863 
L 1178 4863 
L 1178 0 
L 603 0 
L 603 4863 
z
" transform="scale(0.015625)"/>
       <path id="DejaVuSans-73" d="M 2834 3397 
L 2834 2853 
Q 2591 2978 2328 3040 
Q 2066 3103 1784 3103 
Q 1356 3103 1142 2972 
Q 928 2841 928 2578 
Q 928 2378 1081 2264 
Q 1234 2150 1697 2047 
L 1894 2003 
Q 2506 1872 2764 1633 
Q 3022 1394 3022 966 
Q 3022 478 2636 193 
Q 2250 -91 1575 -91 
Q 1294 -91 989 -36 
Q 684 19 347 128 
L 347 722 
Q 666 556 975 473 
Q 1284 391 1588 391 
Q 1994 391 2212 530 
Q 2431 669 2431 922 
Q 2431 1156 2273 1281 
Q 2116 1406 1581 1522 
L 1381 1569 
Q 847 1681 609 1914 
Q 372 2147 372 2553 
Q 372 3047 722 3315 
Q 1072 3584 1716 3584 
Q 2034 3584 2315 3537 
Q 2597 3491 2834 3397 
z
" transform="scale(0.015625)"/>
      </defs>
      <use xlink:href="#DejaVuSans-4e"/>
      <use xlink:href="#DejaVuSans-75" transform="translate(74.804688 0)"/>
      <use xlink:href="#DejaVuSans-6d" transform="translate(138.183594 0)"/>
      <use xlink:href="#DejaVuSans-62" transform="translate(235.595703 0)"/>
      <use xlink:href="#DejaVuSans-65" transform="translate(299.072266 0)"/>
      <use xlink:href="#DejaVuSans-72" transform="translate(360.595703 0)"/>
      <use xlink:href="#DejaVuSans-20" transform="translate(401.708984 0)"/>
      <use xlink:href="#DejaVuSans-6f" transform="translate(433.496094 0)"/>
      <use xlink:href="#DejaVuSans-66" transform="translate(494.677734 0)"/>
      <use xlink:href="#DejaVuSans-20" transform="translate(529.882812 0)"/>
      <use xlink:href="#DejaVuSans-56" transform="translate(561.669922 0)"/>
      <use xlink:href="#DejaVuSans-65" transform="translate(622.328125 0)"/>
      <use xlink:href="#DejaVuSans-68" transform="translate(683.851562 0)"/>
      <use xlink:href="#DejaVuSans-69" transform="translate(747.230469 0)"/>
      <use xlink:href="#DejaVuSans-63" transform="translate(775.013672 0)"/>
      <use xlink:href="#DejaVuSans-6c" transform="translate(829.994141 0)"/>
      <use xlink:href="#DejaVuSans-65" transform="translate(857.777344 0)"/>
      <use xlink:href="#DejaVuSans-73" transform="translate(919.300781 0)"/>
     </g>
    </g>
   </g>
   <g id="line2d_16">
    <path d="M 82.1 132.318275 
L 114.650526 292.778182 
L 147.201053 175.478283 
L 179.751579 70.358508 
L 212.302105 76.978142 
L 244.852632 78.302068 
L 277.403158 75.654215 
L 309.953684 71.682435 
L 342.504211 69.564152 
L 375.054737 65.857158 
L 407.605263 55.265745 
L 440.155789 63.209305 
L 472.706316 61.620593 
L 505.256842 58.178383 
L 537.807368 66.916299 
L 570.357895 61.620593 
L 602.908421 64.268446 
L 635.458947 57.384027 
L 668.009474 53.941818 
L 700.56 59.237525 
" clip-path="url(#p1e4d940e30)" style="fill: none; stroke: #1f77b4; stroke-width: 1.5; stroke-linecap: square"/>
   </g>
   <g id="line2d_17">
    <path d="M 82.1 156.413739 
L 114.650526 224.728353 
L 147.201053 230.55363 
L 179.751579 101.867962 
L 212.302105 78.037283 
L 244.852632 77.242927 
L 277.403158 77.242927 
L 309.953684 68.505011 
L 342.504211 80.155565 
L 375.054737 75.654215 
L 407.605263 71.94722 
L 440.155789 74.859859 
L 472.706316 65.592373 
L 505.256842 72.741576 
L 537.807368 67.97544 
L 570.357895 57.913598 
L 602.908421 61.620593 
L 635.458947 60.561451 
L 668.009474 59.767095 
L 700.56 60.561451 
" clip-path="url(#p1e4d940e30)" style="fill: none; stroke: #ff7f0e; stroke-width: 1.5; stroke-linecap: square"/>
   </g>
   <g id="line2d_18">
    <path d="M 82.1 152.177174 
L 114.650526 198.514606 
L 147.201053 147.675823 
L 179.751579 94.983544 
L 212.302105 79.89078 
L 244.852632 61.091022 
L 277.403158 65.062802 
L 309.953684 62.414949 
L 342.504211 73.271147 
L 375.054737 71.682435 
L 407.605263 73.800718 
L 440.155789 64.533231 
L 472.706316 62.150163 
L 505.256842 59.767095 
L 537.807368 60.826237 
L 570.357895 58.443169 
L 602.908421 60.296666 
L 635.458947 60.031881 
L 668.009474 57.913598 
L 700.56 53.941818 
" clip-path="url(#p1e4d940e30)" style="fill: none; stroke: #2ca02c; stroke-width: 1.5; stroke-linecap: square"/>
   </g>
   <g id="line2d_19">
    <path d="M 82.1 180.509204 
L 114.650526 161.44466 
L 147.201053 148.734965 
L 179.751579 125.169071 
L 212.302105 96.837041 
L 244.852632 69.299367 
L 277.403158 68.240226 
L 309.953684 77.507712 
L 342.504211 80.155565 
L 375.054737 73.006362 
L 407.605263 102.927103 
L 440.155789 87.569555 
L 472.706316 68.240226 
L 505.256842 67.710655 
L 537.807368 79.625995 
L 570.357895 65.592373 
L 602.908421 66.386728 
L 635.458947 63.47409 
L 668.009474 68.769796 
L 700.56 60.031881 
" clip-path="url(#p1e4d940e30)" style="fill: none; stroke: #d62728; stroke-width: 1.5; stroke-linecap: square"/>
   </g>
   <g id="line2d_20">
    <path d="M 82.1 134.966128 
L 114.650526 85.451272 
L 147.201053 88.628696 
L 179.751579 79.89078 
L 212.302105 75.124644 
L 244.852632 71.682435 
L 277.403158 67.97544 
L 309.953684 65.062802 
L 342.504211 64.268446 
L 375.054737 57.913598 
L 407.605263 55.000959 
L 440.155789 57.384027 
L 472.706316 57.913598 
L 505.256842 59.767095 
L 537.807368 56.324886 
L 570.357895 57.384027 
L 602.908421 59.767095 
L 635.458947 53.941818 
L 668.009474 53.941818 
L 700.56 56.060101 
" clip-path="url(#p1e4d940e30)" style="fill: none; stroke: #9467bd; stroke-width: 1.5; stroke-linecap: square"/>
   </g>
   <g id="patch_3">
    <path d="M 82.1 304.72 
L 82.1 42 
" style="fill: none; stroke: #000000; stroke-width: 0.8; stroke-linejoin: miter; stroke-linecap: square"/>
   </g>
   <g id="patch_4">
    <path d="M 700.56 304.72 
L 700.56 42 
" style="fill: none; stroke: #000000; stroke-width: 0.8; stroke-linejoin: miter; stroke-linecap: square"/>
   </g>
   <g id="patch_5">
    <path d="M 82.1 304.72 
L 700.56 304.72 
" style="fill: none; stroke: #000000; stroke-width: 0.8; stroke-linejoin: miter; stroke-linecap: square"/>
   </g>
   <g id="patch_6">
    <path d="M 82.1 42 
L 700.56 42 
" style="fill: none; stroke: #000000; stroke-width: 0.8; stroke-linejoin: miter; stroke-linecap: square"/>
   </g>
   <g id="text_18">
    <!-- Arrived Vehicles Over Iterations (All Runs) -->
    <g transform="translate(165.378813 36) scale(0.216 -0.216)">
     <defs>
      <path id="DejaVuSans-41" d="M 2188 4044 
L 1331 1722 
L 3047 1722 
L 2188 4044 
z
M 1831 4666 
L 2547 4666 
L 4325 0 
L 3669 0 
L 3244 1197 
L 1141 1197 
L 716 0 
L 50 0 
L 1831 4666 
z
" transform="scale(0.015625)"/>
      <path id="DejaVuSans-76" d="M 191 3500 
L 800 3500 
L 1894 563 
L 2988 3500 
L 3597 3500 
L 2284 0 
L 1503 0 
L 191 3500 
z
" transform="scale(0.015625)"/>
      <path id="DejaVuSans-64" d="M 2906 2969 
L 2906 4863 
L 3481 4863 
L 3481 0 
L 2906 0 
L 2906 525 
Q 2725 213 2448 61 
Q 2172 -91 1784 -91 
Q 1150 -91 751 415 
Q 353 922 353 1747 
Q 353 2572 751 3078 
Q 1150 3584 1784 3584 
Q 2172 3584 2448 3432 
Q 2725 3281 2906 2969 
z
M 947 1747 
Q 947 1113 1208 752 
Q 1469 391 1925 391 
Q 2381 391 2643 752 
Q 2906 1113 2906 1747 
Q 2906 2381 2643 2742 
Q 2381 3103 1925 3103 
Q 1469 3103 1208 2742 
Q 947 2381 947 1747 
z
" transform="scale(0.015625)"/>
      <path id="DejaVuSans-4f" d="M 2522 4238 
Q 1834 4238 1429 3725 
Q 1025 3213 1025 2328 
Q 1025 1447 1429 934 
Q 1834 422 2522 422 
Q 3209 422 3611 934 
Q 4013 1447 4013 2328 
Q 4013 3213 3611 3725 
Q 3209 4238 2522 4238 
z
M 2522 4750 
Q 3503 4750 4090 4092 
Q 4678 3434 4678 2328 
Q 4678 1225 4090 567 
Q 3503 -91 2522 -91 
Q 1538 -91 948 565 
Q 359 1222 359 2328 
Q 359 3434 948 4092 
Q 1538 4750 2522 4750 
z
" transform="scale(0.015625)"/>
      <path id="DejaVuSans-28" d="M 1984 4856 
Q 1566 4138 1362 3434 
Q 1159 2731 1159 2009 
Q 1159 1288 1364 580 
Q 1569 -128 1984 -844 
L 1484 -844 
Q 1016 -109 783 600 
Q 550 1309 550 2009 
Q 550 2706 781 3412 
Q 1013 4119 1484 4856 
L 1984 4856 
z
" transform="scale(0.015625)"/>
      <path id="DejaVuSans-52" d="M 2841 2188 
Q 3044 2119 3236 1894 
Q 3428 1669 3622 1275 
L 4263 0 
L 3584 0 
L 2988 1197 
Q 2756 1666 2539 1819 
Q 2322 1972 1947 1972 
L 1259 1972 
L 1259 0 
L 628 0 
L 628 4666 
L 2053 4666 
Q 2853 4666 3247 4331 
Q 3641 3997 3641 3322 
Q 3641 2881 3436 2590 
Q 3231 2300 2841 2188 
z
M 1259 4147 
L 1259 2491 
L 2053 2491 
Q 2509 2491 2742 2702 
Q 2975 2913 2975 3322 
Q 2975 3731 2742 3939 
Q 2509 4147 2053 4147 
L 1259 4147 
z
" transform="scale(0.015625)"/>
      <path id="DejaVuSans-29" d="M 513 4856 
L 1013 4856 
Q 1481 4119 1714 3412 
Q 1947 2706 1947 2009 
Q 1947 1309 1714 600 
Q 1481 -109 1013 -844 
L 513 -844 
Q 928 -128 1133 580 
Q 1338 1288 1338 2009 
Q 1338 2731 1133 3434 
Q 928 4138 513 4856 
z
" transform="scale(0.015625)"/>
     </defs>
     <use xlink:href="#DejaVuSans-41"/>
     <use xlink:href="#DejaVuSans-72" transform="translate(68.408203 0)"/>
     <use xlink:href="#DejaVuSans-72" transform="translate(107.771484 0)"/>
     <use xlink:href="#DejaVuSans-69" transform="translate(148.884766 0)"/>
     <use xlink:href="#DejaVuSans-76" transform="translate(176.667969 0)"/>
     <use xlink:href="#DejaVuSans-65" transform="translate(235.847656 0)"/>
     <use xlink:href="#DejaVuSans-64" transform="translate(297.371094 0)"/>
     <use xlink:href="#DejaVuSans-20" transform="translate(360.847656 0)"/>
     <use xlink:href="#DejaVuSans-56" transform="translate(392.634766 0)"/>
     <use xlink:href="#DejaVuSans-65" transform="translate(453.292969 0)"/>
     <use xlink:href="#DejaVuSans-68" transform="translate(514.816406 0)"/>
     <use xlink:href="#DejaVuSans-69" transform="translate(578.195312 0)"/>
     <use xlink:href="#DejaVuSans-63" transform="translate(605.978516 0)"/>
     <use xlink:href="#DejaVuSans-6c" transform="translate(660.958984 0)"/>
     <use xlink:href="#DejaVuSans-65" transform="translate(688.742188 0)"/>
     <use xlink:href="#DejaVuSans-73" transform="translate(750.265625 0)"/>
     <use xlink:href="#DejaVuSans-20" transform="translate(802.365234 0)"/>
     <use xlink:href="#DejaVuSans-4f" transform="translate(834.152344 0)"/>
     <use xlink:href="#DejaVuSans-76" transform="translate(912.863281 0)"/>
     <use xlink:href="#DejaVuSans-65" transform="translate(972.042969 0)"/>
     <use xlink:href="#DejaVuSans-72" transform="translate(1033.566406 0)"/>
     <use xlink:href="#DejaVuSans-20" transform="translate(1074.679688 0)"/>
     <use xlink:href="#DejaVuSans-49" transform="translate(1106.466797 0)"/>
     <use xlink:href="#DejaVuSans-74" transform="translate(1135.958984 0)"/>
     <use xlink:href="#DejaVuSans-65" transform="translate(1175.167969 0)"/>
     <use xlink:href="#DejaVuSans-72" transform="translate(1236.691406 0)"/>
     <use xlink:href="#DejaVuSans-61" transform="translate(1277.804688 0)"/>
     <use xlink:href="#DejaVuSans-74" transform="translate(1339.083984 0)"/>
     <use xlink:href="#DejaVuSans-69" transform="translate(1378.292969 0)"/>
     <use xlink:href="#DejaVuSans-6f" transform="translate(1406.076172 0)"/>
     <use xlink:href="#DejaVuSans-6e" transform="translate(1467.257812 0)"/>
     <use xlink:href="#DejaVuSans-73" transform="translate(1530.636719 0)"/>
     <use xlink:href="#DejaVuSans-20" transform="translate(1582.736328 0)"/>
     <use xlink:href="#DejaVuSans-28" transform="translate(1614.523438 0)"/>
     <use xlink:href="#DejaVuSans-41" transform="translate(1653.537109 0)"/>
     <use xlink:href="#DejaVuSans-6c" transform="translate(1721.945312 0)"/>
     <use xlink:href="#DejaVuSans-6c" transform="translate(1749.728516 0)"/>
     <use xlink:href="#DejaVuSans-20" transform="translate(1777.511719 0)"/>
     <use xlink:href="#DejaVuSans-52" transform="translate(1809.298828 0)"/>
     <use xlink:href="#DejaVuSans-75" transform="translate(1874.28125 0)"/>
     <use xlink:href="#DejaVuSans-6e" transform="translate(1937.660156 0)"/>
     <use xlink:href="#DejaVuSans-73" transform="translate(2001.039062 0)"/>
     <use xlink:href="#DejaVuSans-29" transform="translate(2053.138672 0)"/>
    </g>
   </g>
   <g id="legend_1">
    <g id="patch_7">
     <path d="M 414.480938 295.72 
L 687.96 295.72 
Q 691.56 295.72 691.56 292.12 
L 691.56 161.816875 
Q 691.56 158.216875 687.96 158.216875 
L 414.480938 158.216875 
Q 410.880938 158.216875 410.880938 161.816875 
L 410.880938 292.12 
Q 410.880938 295.72 414.480938 295.72 
z
" style="fill: #ffffff; opacity: 0.8; stroke: #cccccc; stroke-linejoin: miter"/>
    </g>
    <g id="line2d_21">
     <path d="M 418.080938 172.794063 
L 436.080938 172.794063 
L 454.080938 172.794063 
" style="fill: none; stroke: #1f77b4; stroke-width: 1.5; stroke-linecap: square"/>
    </g>
    <g id="text_19">
     <!-- Arrived Vehicles (Run 1) -->
     <g transform="translate(468.480938 179.094063) scale(0.18 -0.18)">
      <use xlink:href="#DejaVuSans-41"/>
      <use xlink:href="#DejaVuSans-72" transform="translate(68.408203 0)"/>
      <use xlink:href="#DejaVuSans-72" transform="translate(107.771484 0)"/>
      <use xlink:href="#DejaVuSans-69" transform="translate(148.884766 0)"/>
      <use xlink:href="#DejaVuSans-76" transform="translate(176.667969 0)"/>
      <use xlink:href="#DejaVuSans-65" transform="translate(235.847656 0)"/>
      <use xlink:href="#DejaVuSans-64" transform="translate(297.371094 0)"/>
      <use xlink:href="#DejaVuSans-20" transform="translate(360.847656 0)"/>
      <use xlink:href="#DejaVuSans-56" transform="translate(392.634766 0)"/>
      <use xlink:href="#DejaVuSans-65" transform="translate(453.292969 0)"/>
      <use xlink:href="#DejaVuSans-68" transform="translate(514.816406 0)"/>
      <use xlink:href="#DejaVuSans-69" transform="translate(578.195312 0)"/>
      <use xlink:href="#DejaVuSans-63" transform="translate(605.978516 0)"/>
      <use xlink:href="#DejaVuSans-6c" transform="translate(660.958984 0)"/>
      <use xlink:href="#DejaVuSans-65" transform="translate(688.742188 0)"/>
      <use xlink:href="#DejaVuSans-73" transform="translate(750.265625 0)"/>
      <use xlink:href="#DejaVuSans-20" transform="translate(802.365234 0)"/>
      <use xlink:href="#DejaVuSans-28" transform="translate(834.152344 0)"/>
      <use xlink:href="#DejaVuSans-52" transform="translate(873.166016 0)"/>
      <use xlink:href="#DejaVuSans-75" transform="translate(938.148438 0)"/>
      <use xlink:href="#DejaVuSans-6e" transform="translate(1001.527344 0)"/>
      <use xlink:href="#DejaVuSans-20" transform="translate(1064.90625 0)"/>
      <use xlink:href="#DejaVuSans-31" transform="translate(1096.693359 0)"/>
      <use xlink:href="#DejaVuSans-29" transform="translate(1160.316406 0)"/>
     </g>
    </g>
    <g id="line2d_22">
     <path d="M 418.080938 199.214688 
L 436.080938 199.214688 
L 454.080938 199.214688 
" style="fill: none; stroke: #ff7f0e; stroke-width: 1.5; stroke-linecap: square"/>
    </g>
    <g id="text_20">
     <!-- Arrived Vehicles (Run 2) -->
     <g transform="translate(468.480938 205.514688) scale(0.18 -0.18)">
      <use xlink:href="#DejaVuSans-41"/>
      <use xlink:href="#DejaVuSans-72" transform="translate(68.408203 0)"/>
      <use xlink:href="#DejaVuSans-72" transform="translate(107.771484 0)"/>
      <use xlink:href="#DejaVuSans-69" transform="translate(148.884766 0)"/>
      <use xlink:href="#DejaVuSans-76" transform="translate(176.667969 0)"/>
      <use xlink:href="#DejaVuSans-65" transform="translate(235.847656 0)"/>
      <use xlink:href="#DejaVuSans-64" transform="translate(297.371094 0)"/>
      <use xlink:href="#DejaVuSans-20" transform="translate(360.847656 0)"/>
      <use xlink:href="#DejaVuSans-56" transform="translate(392.634766 0)"/>
      <use xlink:href="#DejaVuSans-65" transform="translate(453.292969 0)"/>
      <use xlink:href="#DejaVuSans-68" transform="translate(514.816406 0)"/>
      <use xlink:href="#DejaVuSans-69" transform="translate(578.195312 0)"/>
      <use xlink:href="#DejaVuSans-63" transform="translate(605.978516 0)"/>
      <use xlink:href="#DejaVuSans-6c" transform="translate(660.958984 0)"/>
      <use xlink:href="#DejaVuSans-65" transform="translate(688.742188 0)"/>
      <use xlink:href="#DejaVuSans-73" transform="translate(750.265625 0)"/>
      <use xlink:href="#DejaVuSans-20" transform="translate(802.365234 0)"/>
      <use xlink:href="#DejaVuSans-28" transform="translate(834.152344 0)"/>
      <use xlink:href="#DejaVuSans-52" transform="translate(873.166016 0)"/>
      <use xlink:href="#DejaVuSans-75" transform="translate(938.148438 0)"/>
      <use xlink:href="#DejaVuSans-6e" transform="translate(1001.527344 0)"/>
      <use xlink:href="#DejaVuSans-20" transform="translate(1064.90625 0)"/>
      <use xlink:href="#DejaVuSans-32" transform="translate(1096.693359 0)"/>
      <use xlink:href="#DejaVuSans-29" transform="translate(1160.316406 0)"/>
     </g>
    </g>
    <g id="line2d_23">
     <path d="M 418.080938 225.635313 
L 436.080938 225.635313 
L 454.080938 225.635313 
" style="fill: none; stroke: #2ca02c; stroke-width: 1.5; stroke-linecap: square"/>
    </g>
    <g id="text_21">
     <!-- Arrived Vehicles (Run 3) -->
     <g transform="translate(468.480938 231.935313) scale(0.18 -0.18)">
      <defs>
       <path id="DejaVuSans-33" d="M 2597 2516 
Q 3050 2419 3304 2112 
Q 3559 1806 3559 1356 
Q 3559 666 3084 287 
Q 2609 -91 1734 -91 
Q 1441 -91 1130 -33 
Q 819 25 488 141 
L 488 750 
Q 750 597 1062 519 
Q 1375 441 1716 441 
Q 2309 441 2620 675 
Q 2931 909 2931 1356 
Q 2931 1769 2642 2001 
Q 2353 2234 1838 2234 
L 1294 2234 
L 1294 2753 
L 1863 2753 
Q 2328 2753 2575 2939 
Q 2822 3125 2822 3475 
Q 2822 3834 2567 4026 
Q 2313 4219 1838 4219 
Q 1578 4219 1281 4162 
Q 984 4106 628 3988 
L 628 4550 
Q 988 4650 1302 4700 
Q 1616 4750 1894 4750 
Q 2613 4750 3031 4423 
Q 3450 4097 3450 3541 
Q 3450 3153 3228 2886 
Q 3006 2619 2597 2516 
z
" transform="scale(0.015625)"/>
      </defs>
      <use xlink:href="#DejaVuSans-41"/>
      <use xlink:href="#DejaVuSans-72" transform="translate(68.408203 0)"/>
      <use xlink:href="#DejaVuSans-72" transform="translate(107.771484 0)"/>
      <use xlink:href="#DejaVuSans-69" transform="translate(148.884766 0)"/>
      <use xlink:href="#DejaVuSans-76" transform="translate(176.667969 0)"/>
      <use xlink:href="#DejaVuSans-65" transform="translate(235.847656 0)"/>
      <use xlink:href="#DejaVuSans-64" transform="translate(297.371094 0)"/>
      <use xlink:href="#DejaVuSans-20" transform="translate(360.847656 0)"/>
      <use xlink:href="#DejaVuSans-56" transform="translate(392.634766 0)"/>
      <use xlink:href="#DejaVuSans-65" transform="translate(453.292969 0)"/>
      <use xlink:href="#DejaVuSans-68" transform="translate(514.816406 0)"/>
      <use xlink:href="#DejaVuSans-69" transform="translate(578.195312 0)"/>
      <use xlink:href="#DejaVuSans-63" transform="translate(605.978516 0)"/>
      <use xlink:href="#DejaVuSans-6c" transform="translate(660.958984 0)"/>
      <use xlink:href="#DejaVuSans-65" transform="translate(688.742188 0)"/>
      <use xlink:href="#DejaVuSans-73" transform="translate(750.265625 0)"/>
      <use xlink:href="#DejaVuSans-20" transform="translate(802.365234 0)"/>
      <use xlink:href="#DejaVuSans-28" transform="translate(834.152344 0)"/>
      <use xlink:href="#DejaVuSans-52" transform="translate(873.166016 0)"/>
      <use xlink:href="#DejaVuSans-75" transform="translate(938.148438 0)"/>
      <use xlink:href="#DejaVuSans-6e" transform="translate(1001.527344 0)"/>
      <use xlink:href="#DejaVuSans-20" transform="translate(1064.90625 0)"/>
      <use xlink:href="#DejaVuSans-33" transform="translate(1096.693359 0)"/>
      <use xlink:href="#DejaVuSans-29" transform="translate(1160.316406 0)"/>
     </g>
    </g>
    <g id="line2d_24">
     <path d="M 418.080938 252.055938 
L 436.080938 252.055938 
L 454.080938 252.055938 
" style="fill: none; stroke: #d62728; stroke-width: 1.5; stroke-linecap: square"/>
    </g>
    <g id="text_22">
     <!-- Arrived Vehicles (Run 4) -->
     <g transform="translate(468.480938 258.355938) scale(0.18 -0.18)">
      <use xlink:href="#DejaVuSans-41"/>
      <use xlink:href="#DejaVuSans-72" transform="translate(68.408203 0)"/>
      <use xlink:href="#DejaVuSans-72" transform="translate(107.771484 0)"/>
      <use xlink:href="#DejaVuSans-69" transform="translate(148.884766 0)"/>
      <use xlink:href="#DejaVuSans-76" transform="translate(176.667969 0)"/>
      <use xlink:href="#DejaVuSans-65" transform="translate(235.847656 0)"/>
      <use xlink:href="#DejaVuSans-64" transform="translate(297.371094 0)"/>
      <use xlink:href="#DejaVuSans-20" transform="translate(360.847656 0)"/>
      <use xlink:href="#DejaVuSans-56" transform="translate(392.634766 0)"/>
      <use xlink:href="#DejaVuSans-65" transform="translate(453.292969 0)"/>
      <use xlink:href="#DejaVuSans-68" transform="translate(514.816406 0)"/>
      <use xlink:href="#DejaVuSans-69" transform="translate(578.195312 0)"/>
      <use xlink:href="#DejaVuSans-63" transform="translate(605.978516 0)"/>
      <use xlink:href="#DejaVuSans-6c" transform="translate(660.958984 0)"/>
      <use xlink:href="#DejaVuSans-65" transform="translate(688.742188 0)"/>
      <use xlink:href="#DejaVuSans-73" transform="translate(750.265625 0)"/>
      <use xlink:href="#DejaVuSans-20" transform="translate(802.365234 0)"/>
      <use xlink:href="#DejaVuSans-28" transform="translate(834.152344 0)"/>
      <use xlink:href="#DejaVuSans-52" transform="translate(873.166016 0)"/>
      <use xlink:href="#DejaVuSans-75" transform="translate(938.148438 0)"/>
      <use xlink:href="#DejaVuSans-6e" transform="translate(1001.527344 0)"/>
      <use xlink:href="#DejaVuSans-20" transform="translate(1064.90625 0)"/>
      <use xlink:href="#DejaVuSans-34" transform="translate(1096.693359 0)"/>
      <use xlink:href="#DejaVuSans-29" transform="translate(1160.316406 0)"/>
     </g>
    </g>
    <g id="line2d_25">
     <path d="M 418.080938 278.476563 
L 436.080938 278.476563 
L 454.080938 278.476563 
" style="fill: none; stroke: #9467bd; stroke-width: 1.5; stroke-linecap: square"/>
    </g>
    <g id="text_23">
     <!-- Arrived Vehicles (Run 5) -->
     <g transform="translate(468.480938 284.776563) scale(0.18 -0.18)">
      <defs>
       <path id="DejaVuSans-35" d="M 691 4666 
L 3169 4666 
L 3169 4134 
L 1269 4134 
L 1269 2991 
Q 1406 3038 1543 3061 
Q 1681 3084 1819 3084 
Q 2600 3084 3056 2656 
Q 3513 2228 3513 1497 
Q 3513 744 3044 326 
Q 2575 -91 1722 -91 
Q 1428 -91 1123 -41 
Q 819 9 494 109 
L 494 744 
Q 775 591 1075 516 
Q 1375 441 1709 441 
Q 2250 441 2565 725 
Q 2881 1009 2881 1497 
Q 2881 1984 2565 2268 
Q 2250 2553 1709 2553 
Q 1456 2553 1204 2497 
Q 953 2441 691 2322 
L 691 4666 
z
" transform="scale(0.015625)"/>
      </defs>
      <use xlink:href="#DejaVuSans-41"/>
      <use xlink:href="#DejaVuSans-72" transform="translate(68.408203 0)"/>
      <use xlink:href="#DejaVuSans-72" transform="translate(107.771484 0)"/>
      <use xlink:href="#DejaVuSans-69" transform="translate(148.884766 0)"/>
      <use xlink:href="#DejaVuSans-76" transform="translate(176.667969 0)"/>
      <use xlink:href="#DejaVuSans-65" transform="translate(235.847656 0)"/>
      <use xlink:href="#DejaVuSans-64" transform="translate(297.371094 0)"/>
      <use xlink:href="#DejaVuSans-20" transform="translate(360.847656 0)"/>
      <use xlink:href="#DejaVuSans-56" transform="translate(392.634766 0)"/>
      <use xlink:href="#DejaVuSans-65" transform="translate(453.292969 0)"/>
      <use xlink:href="#DejaVuSans-68" transform="translate(514.816406 0)"/>
      <use xlink:href="#DejaVuSans-69" transform="translate(578.195312 0)"/>
      <use xlink:href="#DejaVuSans-63" transform="translate(605.978516 0)"/>
      <use xlink:href="#DejaVuSans-6c" transform="translate(660.958984 0)"/>
      <use xlink:href="#DejaVuSans-65" transform="translate(688.742188 0)"/>
      <use xlink:href="#DejaVuSans-73" transform="translate(750.265625 0)"/>
      <use xlink:href="#DejaVuSans-20" transform="translate(802.365234 0)"/>
      <use xlink:href="#DejaVuSans-28" transform="translate(834.152344 0)"/>
      <use xlink:href="#DejaVuSans-52" transform="translate(873.166016 0)"/>
      <use xlink:href="#DejaVuSans-75" transform="translate(938.148438 0)"/>
      <use xlink:href="#DejaVuSans-6e" transform="translate(1001.527344 0)"/>
      <use xlink:href="#DejaVuSans-20" transform="translate(1064.90625 0)"/>
      <use xlink:href="#DejaVuSans-35" transform="translate(1096.693359 0)"/>
      <use xlink:href="#DejaVuSans-29" transform="translate(1160.316406 0)"/>
     </g>
    </g>
   </g>
  </g>
  <g id="axes_2">
   <g id="patch_8">
    <path d="M 82.1 655 
L 700.56 655 
L 700.56 392.28 
L 82.1 392.28 
z
" style="fill: #ffffff"/>
   </g>
   <g id="matplotlib.axis_3">
    <g id="xtick_11">
     <g id="line2d_26">
      <g>
       <use xlink:href="#m56764dad5d" x="82.1" y="655" style="stroke: #000000; stroke-width: 0.8"/>
      </g>
     </g>
     <g id="text_24">
      <!-- 0 -->
      <g transform="translate(76.37375 675.677187) scale(0.18 -0.18)">
       <use xlink:href="#DejaVuSans-30"/>
      </g>
     </g>
    </g>
    <g id="xtick_12">
     <g id="line2d_27">
      <g>
       <use xlink:href="#m56764dad5d" x="147.201053" y="655" style="stroke: #000000; stroke-width: 0.8"/>
      </g>
     </g>
     <g id="text_25">
      <!-- 2 -->
      <g transform="translate(141.474803 675.677187) scale(0.18 -0.18)">
       <use xlink:href="#DejaVuSans-32"/>
      </g>
     </g>
    </g>
    <g id="xtick_13">
     <g id="line2d_28">
      <g>
       <use xlink:href="#m56764dad5d" x="212.302105" y="655" style="stroke: #000000; stroke-width: 0.8"/>
      </g>
     </g>
     <g id="text_26">
      <!-- 4 -->
      <g transform="translate(206.575855 675.677187) scale(0.18 -0.18)">
       <use xlink:href="#DejaVuSans-34"/>
      </g>
     </g>
    </g>
    <g id="xtick_14">
     <g id="line2d_29">
      <g>
       <use xlink:href="#m56764dad5d" x="277.403158" y="655" style="stroke: #000000; stroke-width: 0.8"/>
      </g>
     </g>
     <g id="text_27">
      <!-- 6 -->
      <g transform="translate(271.676908 675.677187) scale(0.18 -0.18)">
       <use xlink:href="#DejaVuSans-36"/>
      </g>
     </g>
    </g>
    <g id="xtick_15">
     <g id="line2d_30">
      <g>
       <use xlink:href="#m56764dad5d" x="342.504211" y="655" style="stroke: #000000; stroke-width: 0.8"/>
      </g>
     </g>
     <g id="text_28">
      <!-- 8 -->
      <g transform="translate(336.777961 675.677187) scale(0.18 -0.18)">
       <use xlink:href="#DejaVuSans-38"/>
      </g>
     </g>
    </g>
    <g id="xtick_16">
     <g id="line2d_31">
      <g>
       <use xlink:href="#m56764dad5d" x="407.605263" y="655" style="stroke: #000000; stroke-width: 0.8"/>
      </g>
     </g>
     <g id="text_29">
      <!-- 10 -->
      <g transform="translate(396.152763 675.677187) scale(0.18 -0.18)">
       <use xlink:href="#DejaVuSans-31"/>
       <use xlink:href="#DejaVuSans-30" transform="translate(63.623047 0)"/>
      </g>
     </g>
    </g>
    <g id="xtick_17">
     <g id="line2d_32">
      <g>
       <use xlink:href="#m56764dad5d" x="472.706316" y="655" style="stroke: #000000; stroke-width: 0.8"/>
      </g>
     </g>
     <g id="text_30">
      <!-- 12 -->
      <g transform="translate(461.253816 675.677187) scale(0.18 -0.18)">
       <use xlink:href="#DejaVuSans-31"/>
       <use xlink:href="#DejaVuSans-32" transform="translate(63.623047 0)"/>
      </g>
     </g>
    </g>
    <g id="xtick_18">
     <g id="line2d_33">
      <g>
       <use xlink:href="#m56764dad5d" x="537.807368" y="655" style="stroke: #000000; stroke-width: 0.8"/>
      </g>
     </g>
     <g id="text_31">
      <!-- 14 -->
      <g transform="translate(526.354868 675.677187) scale(0.18 -0.18)">
       <use xlink:href="#DejaVuSans-31"/>
       <use xlink:href="#DejaVuSans-34" transform="translate(63.623047 0)"/>
      </g>
     </g>
    </g>
    <g id="xtick_19">
     <g id="line2d_34">
      <g>
       <use xlink:href="#m56764dad5d" x="602.908421" y="655" style="stroke: #000000; stroke-width: 0.8"/>
      </g>
     </g>
     <g id="text_32">
      <!-- 16 -->
      <g transform="translate(591.455921 675.677187) scale(0.18 -0.18)">
       <use xlink:href="#DejaVuSans-31"/>
       <use xlink:href="#DejaVuSans-36" transform="translate(63.623047 0)"/>
      </g>
     </g>
    </g>
    <g id="xtick_20">
     <g id="line2d_35">
      <g>
       <use xlink:href="#m56764dad5d" x="668.009474" y="655" style="stroke: #000000; stroke-width: 0.8"/>
      </g>
     </g>
     <g id="text_33">
      <!-- 18 -->
      <g transform="translate(656.556974 675.677187) scale(0.18 -0.18)">
       <use xlink:href="#DejaVuSans-31"/>
       <use xlink:href="#DejaVuSans-38" transform="translate(63.623047 0)"/>
      </g>
     </g>
    </g>
    <g id="text_34">
     <!-- Iteration -->
     <g transform="translate(353.154531 697.097813) scale(0.18 -0.18)">
      <use xlink:href="#DejaVuSans-49"/>
      <use xlink:href="#DejaVuSans-74" transform="translate(29.492188 0)"/>
      <use xlink:href="#DejaVuSans-65" transform="translate(68.701172 0)"/>
      <use xlink:href="#DejaVuSans-72" transform="translate(130.224609 0)"/>
      <use xlink:href="#DejaVuSans-61" transform="translate(171.337891 0)"/>
      <use xlink:href="#DejaVuSans-74" transform="translate(232.617188 0)"/>
      <use xlink:href="#DejaVuSans-69" transform="translate(271.826172 0)"/>
      <use xlink:href="#DejaVuSans-6f" transform="translate(299.609375 0)"/>
      <use xlink:href="#DejaVuSans-6e" transform="translate(360.791016 0)"/>
     </g>
    </g>
   </g>
   <g id="matplotlib.axis_4">
    <g id="ytick_6">
     <g id="line2d_36">
      <g>
       <use xlink:href="#m32e4cb01d4" x="82.1" y="634.113" style="stroke: #000000; stroke-width: 0.8"/>
      </g>
     </g>
     <g id="text_35">
      <!-- 10 -->
      <g transform="translate(52.195 640.951593) scale(0.18 -0.18)">
       <use xlink:href="#DejaVuSans-31"/>
       <use xlink:href="#DejaVuSans-30" transform="translate(63.623047 0)"/>
      </g>
     </g>
    </g>
    <g id="ytick_7">
     <g id="line2d_37">
      <g>
       <use xlink:href="#m32e4cb01d4" x="82.1" y="589.387089" style="stroke: #000000; stroke-width: 0.8"/>
      </g>
     </g>
     <g id="text_36">
      <!-- 15 -->
      <g transform="translate(52.195 596.225683) scale(0.18 -0.18)">
       <use xlink:href="#DejaVuSans-31"/>
       <use xlink:href="#DejaVuSans-35" transform="translate(63.623047 0)"/>
      </g>
     </g>
    </g>
    <g id="ytick_8">
     <g id="line2d_38">
      <g>
       <use xlink:href="#m32e4cb01d4" x="82.1" y="544.661178" style="stroke: #000000; stroke-width: 0.8"/>
      </g>
     </g>
     <g id="text_37">
      <!-- 20 -->
      <g transform="translate(52.195 551.499772) scale(0.18 -0.18)">
       <use xlink:href="#DejaVuSans-32"/>
       <use xlink:href="#DejaVuSans-30" transform="translate(63.623047 0)"/>
      </g>
     </g>
    </g>
    <g id="ytick_9">
     <g id="line2d_39">
      <g>
       <use xlink:href="#m32e4cb01d4" x="82.1" y="499.935267" style="stroke: #000000; stroke-width: 0.8"/>
      </g>
     </g>
     <g id="text_38">
      <!-- 25 -->
      <g transform="translate(52.195 506.773861) scale(0.18 -0.18)">
       <use xlink:href="#DejaVuSans-32"/>
       <use xlink:href="#DejaVuSans-35" transform="translate(63.623047 0)"/>
      </g>
     </g>
    </g>
    <g id="ytick_10">
     <g id="line2d_40">
      <g>
       <use xlink:href="#m32e4cb01d4" x="82.1" y="455.209356" style="stroke: #000000; stroke-width: 0.8"/>
      </g>
     </g>
     <g id="text_39">
      <!-- 30 -->
      <g transform="translate(52.195 462.04795) scale(0.18 -0.18)">
       <use xlink:href="#DejaVuSans-33"/>
       <use xlink:href="#DejaVuSans-30" transform="translate(63.623047 0)"/>
      </g>
     </g>
    </g>
    <g id="ytick_11">
     <g id="line2d_41">
      <g>
       <use xlink:href="#m32e4cb01d4" x="82.1" y="410.483446" style="stroke: #000000; stroke-width: 0.8"/>
      </g>
     </g>
     <g id="text_40">
      <!-- 35 -->
      <g transform="translate(52.195 417.322039) scale(0.18 -0.18)">
       <use xlink:href="#DejaVuSans-33"/>
       <use xlink:href="#DejaVuSans-35" transform="translate(63.623047 0)"/>
      </g>
     </g>
    </g>
    <g id="text_41">
     <!-- Number of Vehicles -->
     <g transform="translate(44.451563 611.066563) rotate(-90) scale(0.18 -0.18)">
      <use xlink:href="#DejaVuSans-4e"/>
      <use xlink:href="#DejaVuSans-75" transform="translate(74.804688 0)"/>
      <use xlink:href="#DejaVuSans-6d" transform="translate(138.183594 0)"/>
      <use xlink:href="#DejaVuSans-62" transform="translate(235.595703 0)"/>
      <use xlink:href="#DejaVuSans-65" transform="translate(299.072266 0)"/>
      <use xlink:href="#DejaVuSans-72" transform="translate(360.595703 0)"/>
      <use xlink:href="#DejaVuSans-20" transform="translate(401.708984 0)"/>
      <use xlink:href="#DejaVuSans-6f" transform="translate(433.496094 0)"/>
      <use xlink:href="#DejaVuSans-66" transform="translate(494.677734 0)"/>
      <use xlink:href="#DejaVuSans-20" transform="translate(529.882812 0)"/>
      <use xlink:href="#DejaVuSans-56" transform="translate(561.669922 0)"/>
      <use xlink:href="#DejaVuSans-65" transform="translate(622.328125 0)"/>
      <use xlink:href="#DejaVuSans-68" transform="translate(683.851562 0)"/>
      <use xlink:href="#DejaVuSans-69" transform="translate(747.230469 0)"/>
      <use xlink:href="#DejaVuSans-63" transform="translate(775.013672 0)"/>
      <use xlink:href="#DejaVuSans-6c" transform="translate(829.994141 0)"/>
      <use xlink:href="#DejaVuSans-65" transform="translate(857.777344 0)"/>
      <use xlink:href="#DejaVuSans-73" transform="translate(919.300781 0)"/>
     </g>
    </g>
   </g>
   <g id="line2d_42">
    <path d="M 82.1 525.876296 
L 114.650526 404.221818 
L 147.201053 486.517494 
L 179.751579 586.703534 
L 212.302105 565.235097 
L 244.852632 560.762506 
L 277.403158 569.707688 
L 309.953684 583.125461 
L 342.504211 590.281607 
L 375.054737 602.804862 
L 407.605263 638.585591 
L 440.155789 611.750044 
L 472.706316 617.117154 
L 505.256842 628.74589 
L 537.807368 599.226789 
L 570.357895 617.117154 
L 602.908421 608.171971 
L 635.458947 631.429445 
L 668.009474 643.058182 
L 700.56 625.167818 
" clip-path="url(#p45832f89f9)" style="fill: none; stroke: #1f77b4; stroke-width: 1.5; stroke-linecap: square"/>
   </g>
   <g id="line2d_43">
    <path d="M 82.1 499.040749 
L 114.650526 456.998393 
L 147.201053 459.681948 
L 179.751579 565.235097 
L 212.302105 561.657024 
L 244.852632 564.340579 
L 277.403158 564.340579 
L 309.953684 593.85968 
L 342.504211 559.867988 
L 375.054737 586.703534 
L 407.605263 587.598052 
L 440.155789 572.391243 
L 472.706316 603.69938 
L 505.256842 579.547388 
L 537.807368 595.648716 
L 570.357895 629.640409 
L 602.908421 617.117154 
L 635.458947 620.695226 
L 668.009474 623.378781 
L 700.56 620.695226 
" clip-path="url(#p45832f89f9)" style="fill: none; stroke: #ff7f0e; stroke-width: 1.5; stroke-linecap: square"/>
   </g>
   <g id="line2d_44">
    <path d="M 82.1 494.568158 
L 114.650526 445.369656 
L 147.201053 493.67364 
L 179.751579 540.188587 
L 212.302105 572.391243 
L 244.852632 618.90619 
L 277.403158 605.488417 
L 309.953684 614.433599 
L 342.504211 577.758352 
L 375.054737 583.125461 
L 407.605263 575.969316 
L 440.155789 607.277453 
L 472.706316 615.328117 
L 505.256842 623.378781 
L 537.807368 619.800708 
L 570.357895 627.851372 
L 602.908421 621.589745 
L 635.458947 622.484263 
L 668.009474 629.640409 
L 700.56 643.058182 
" clip-path="url(#p45832f89f9)" style="fill: none; stroke: #2ca02c; stroke-width: 1.5; stroke-linecap: square"/>
   </g>
   <g id="line2d_45">
    <path d="M 82.1 473.099721 
L 114.650526 469.521648 
L 147.201053 473.099721 
L 179.751579 481.150385 
L 212.302105 530.348887 
L 244.852632 592.070644 
L 277.403158 600.121307 
L 309.953684 568.81317 
L 342.504211 556.289915 
L 375.054737 583.125461 
L 407.605263 526.770814 
L 440.155789 533.032441 
L 472.706316 595.648716 
L 505.256842 597.437753 
L 537.807368 559.867988 
L 570.357895 604.593899 
L 602.908421 601.015826 
L 635.458947 610.855526 
L 668.009474 592.070644 
L 700.56 622.484263 
" clip-path="url(#p45832f89f9)" style="fill: none; stroke: #d62728; stroke-width: 1.5; stroke-linecap: square"/>
   </g>
   <g id="line2d_46">
    <path d="M 82.1 501.724304 
L 114.650526 558.078951 
L 147.201053 546.450215 
L 179.751579 558.97347 
L 212.302105 571.496725 
L 244.852632 583.125461 
L 277.403158 595.648716 
L 309.953684 605.488417 
L 342.504211 608.171971 
L 375.054737 629.640409 
L 407.605263 639.480109 
L 440.155789 631.429445 
L 472.706316 629.640409 
L 505.256842 623.378781 
L 537.807368 635.007518 
L 570.357895 631.429445 
L 602.908421 623.378781 
L 635.458947 643.058182 
L 668.009474 643.058182 
L 700.56 635.902036 
" clip-path="url(#p45832f89f9)" style="fill: none; stroke: #9467bd; stroke-width: 1.5; stroke-linecap: square"/>
   </g>
   <g id="patch_9">
    <path d="M 82.1 655 
L 82.1 392.28 
" style="fill: none; stroke: #000000; stroke-width: 0.8; stroke-linejoin: miter; stroke-linecap: square"/>
   </g>
   <g id="patch_10">
    <path d="M 700.56 655 
L 700.56 392.28 
" style="fill: none; stroke: #000000; stroke-width: 0.8; stroke-linejoin: miter; stroke-linecap: square"/>
   </g>
   <g id="patch_11">
    <path d="M 82.1 655 
L 700.56 655 
" style="fill: none; stroke: #000000; stroke-width: 0.8; stroke-linejoin: miter; stroke-linecap: square"/>
   </g>
   <g id="patch_12">
    <path d="M 82.1 392.28 
L 700.56 392.28 
" style="fill: none; stroke: #000000; stroke-width: 0.8; stroke-linejoin: miter; stroke-linecap: square"/>
   </g>
   <g id="text_42">
    <!-- Non-Arrived Vehicles over Iterations (All Runs) -->
    <g transform="translate(142.08625 386.28) scale(0.216 -0.216)">
     <defs>
      <path id="DejaVuSans-2d" d="M 313 2009 
L 1997 2009 
L 1997 1497 
L 313 1497 
L 313 2009 
z
" transform="scale(0.015625)"/>
     </defs>
     <use xlink:href="#DejaVuSans-4e"/>
     <use xlink:href="#DejaVuSans-6f" transform="translate(74.804688 0)"/>
     <use xlink:href="#DejaVuSans-6e" transform="translate(135.986328 0)"/>
     <use xlink:href="#DejaVuSans-2d" transform="translate(199.365234 0)"/>
     <use xlink:href="#DejaVuSans-41" transform="translate(233.199219 0)"/>
     <use xlink:href="#DejaVuSans-72" transform="translate(301.607422 0)"/>
     <use xlink:href="#DejaVuSans-72" transform="translate(340.970703 0)"/>
     <use xlink:href="#DejaVuSans-69" transform="translate(382.083984 0)"/>
     <use xlink:href="#DejaVuSans-76" transform="translate(409.867188 0)"/>
     <use xlink:href="#DejaVuSans-65" transform="translate(469.046875 0)"/>
     <use xlink:href="#DejaVuSans-64" transform="translate(530.570312 0)"/>
     <use xlink:href="#DejaVuSans-20" transform="translate(594.046875 0)"/>
     <use xlink:href="#DejaVuSans-56" transform="translate(625.833984 0)"/>
     <use xlink:href="#DejaVuSans-65" transform="translate(686.492188 0)"/>
     <use xlink:href="#DejaVuSans-68" transform="translate(748.015625 0)"/>
     <use xlink:href="#DejaVuSans-69" transform="translate(811.394531 0)"/>
     <use xlink:href="#DejaVuSans-63" transform="translate(839.177734 0)"/>
     <use xlink:href="#DejaVuSans-6c" transform="translate(894.158203 0)"/>
     <use xlink:href="#DejaVuSans-65" transform="translate(921.941406 0)"/>
     <use xlink:href="#DejaVuSans-73" transform="translate(983.464844 0)"/>
     <use xlink:href="#DejaVuSans-20" transform="translate(1035.564453 0)"/>
     <use xlink:href="#DejaVuSans-6f" transform="translate(1067.351562 0)"/>
     <use xlink:href="#DejaVuSans-76" transform="translate(1128.533203 0)"/>
     <use xlink:href="#DejaVuSans-65" transform="translate(1187.712891 0)"/>
     <use xlink:href="#DejaVuSans-72" transform="translate(1249.236328 0)"/>
     <use xlink:href="#DejaVuSans-20" transform="translate(1290.349609 0)"/>
     <use xlink:href="#DejaVuSans-49" transform="translate(1322.136719 0)"/>
     <use xlink:href="#DejaVuSans-74" transform="translate(1351.628906 0)"/>
     <use xlink:href="#DejaVuSans-65" transform="translate(1390.837891 0)"/>
     <use xlink:href="#DejaVuSans-72" transform="translate(1452.361328 0)"/>
     <use xlink:href="#DejaVuSans-61" transform="translate(1493.474609 0)"/>
     <use xlink:href="#DejaVuSans-74" transform="translate(1554.753906 0)"/>
     <use xlink:href="#DejaVuSans-69" transform="translate(1593.962891 0)"/>
     <use xlink:href="#DejaVuSans-6f" transform="translate(1621.746094 0)"/>
     <use xlink:href="#DejaVuSans-6e" transform="translate(1682.927734 0)"/>
     <use xlink:href="#DejaVuSans-73" transform="translate(1746.306641 0)"/>
     <use xlink:href="#DejaVuSans-20" transform="translate(1798.40625 0)"/>
     <use xlink:href="#DejaVuSans-28" transform="translate(1830.193359 0)"/>
     <use xlink:href="#DejaVuSans-41" transform="translate(1869.207031 0)"/>
     <use xlink:href="#DejaVuSans-6c" transform="translate(1937.615234 0)"/>
     <use xlink:href="#DejaVuSans-6c" transform="translate(1965.398438 0)"/>
     <use xlink:href="#DejaVuSans-20" transform="translate(1993.181641 0)"/>
     <use xlink:href="#DejaVuSans-52" transform="translate(2024.96875 0)"/>
     <use xlink:href="#DejaVuSans-75" transform="translate(2089.951172 0)"/>
     <use xlink:href="#DejaVuSans-6e" transform="translate(2153.330078 0)"/>
     <use xlink:href="#DejaVuSans-73" transform="translate(2216.708984 0)"/>
     <use xlink:href="#DejaVuSans-29" transform="translate(2268.808594 0)"/>
    </g>
   </g>
   <g id="legend_2">
    <g id="patch_13">
     <path d="M 372.504375 538.783125 
L 687.96 538.783125 
Q 691.56 538.783125 691.56 535.183125 
L 691.56 404.88 
Q 691.56 401.28 687.96 401.28 
L 372.504375 401.28 
Q 368.904375 401.28 368.904375 404.88 
L 368.904375 535.183125 
Q 368.904375 538.783125 372.504375 538.783125 
z
" style="fill: #ffffff; opacity: 0.8; stroke: #cccccc; stroke-linejoin: miter"/>
    </g>
    <g id="line2d_47">
     <path d="M 376.104375 415.857188 
L 394.104375 415.857188 
L 412.104375 415.857188 
" style="fill: none; stroke: #1f77b4; stroke-width: 1.5; stroke-linecap: square"/>
    </g>
    <g id="text_43">
     <!-- Non-Arrived Vehicles (Run 1) -->
     <g transform="translate(426.504375 422.157188) scale(0.18 -0.18)">
      <use xlink:href="#DejaVuSans-4e"/>
      <use xlink:href="#DejaVuSans-6f" transform="translate(74.804688 0)"/>
      <use xlink:href="#DejaVuSans-6e" transform="translate(135.986328 0)"/>
      <use xlink:href="#DejaVuSans-2d" transform="translate(199.365234 0)"/>
      <use xlink:href="#DejaVuSans-41" transform="translate(233.199219 0)"/>
      <use xlink:href="#DejaVuSans-72" transform="translate(301.607422 0)"/>
      <use xlink:href="#DejaVuSans-72" transform="translate(340.970703 0)"/>
      <use xlink:href="#DejaVuSans-69" transform="translate(382.083984 0)"/>
      <use xlink:href="#DejaVuSans-76" transform="translate(409.867188 0)"/>
      <use xlink:href="#DejaVuSans-65" transform="translate(469.046875 0)"/>
      <use xlink:href="#DejaVuSans-64" transform="translate(530.570312 0)"/>
      <use xlink:href="#DejaVuSans-20" transform="translate(594.046875 0)"/>
      <use xlink:href="#DejaVuSans-56" transform="translate(625.833984 0)"/>
      <use xlink:href="#DejaVuSans-65" transform="translate(686.492188 0)"/>
      <use xlink:href="#DejaVuSans-68" transform="translate(748.015625 0)"/>
      <use xlink:href="#DejaVuSans-69" transform="translate(811.394531 0)"/>
      <use xlink:href="#DejaVuSans-63" transform="translate(839.177734 0)"/>
      <use xlink:href="#DejaVuSans-6c" transform="translate(894.158203 0)"/>
      <use xlink:href="#DejaVuSans-65" transform="translate(921.941406 0)"/>
      <use xlink:href="#DejaVuSans-73" transform="translate(983.464844 0)"/>
      <use xlink:href="#DejaVuSans-20" transform="translate(1035.564453 0)"/>
      <use xlink:href="#DejaVuSans-28" transform="translate(1067.351562 0)"/>
      <use xlink:href="#DejaVuSans-52" transform="translate(1106.365234 0)"/>
      <use xlink:href="#DejaVuSans-75" transform="translate(1171.347656 0)"/>
      <use xlink:href="#DejaVuSans-6e" transform="translate(1234.726562 0)"/>
      <use xlink:href="#DejaVuSans-20" transform="translate(1298.105469 0)"/>
      <use xlink:href="#DejaVuSans-31" transform="translate(1329.892578 0)"/>
      <use xlink:href="#DejaVuSans-29" transform="translate(1393.515625 0)"/>
     </g>
    </g>
    <g id="line2d_48">
     <path d="M 376.104375 442.277813 
L 394.104375 442.277813 
L 412.104375 442.277813 
" style="fill: none; stroke: #ff7f0e; stroke-width: 1.5; stroke-linecap: square"/>
    </g>
    <g id="text_44">
     <!-- Non-Arrived Vehicles (Run 2) -->
     <g transform="translate(426.504375 448.577813) scale(0.18 -0.18)">
      <use xlink:href="#DejaVuSans-4e"/>
      <use xlink:href="#DejaVuSans-6f" transform="translate(74.804688 0)"/>
      <use xlink:href="#DejaVuSans-6e" transform="translate(135.986328 0)"/>
      <use xlink:href="#DejaVuSans-2d" transform="translate(199.365234 0)"/>
      <use xlink:href="#DejaVuSans-41" transform="translate(233.199219 0)"/>
      <use xlink:href="#DejaVuSans-72" transform="translate(301.607422 0)"/>
      <use xlink:href="#DejaVuSans-72" transform="translate(340.970703 0)"/>
      <use xlink:href="#DejaVuSans-69" transform="translate(382.083984 0)"/>
      <use xlink:href="#DejaVuSans-76" transform="translate(409.867188 0)"/>
      <use xlink:href="#DejaVuSans-65" transform="translate(469.046875 0)"/>
      <use xlink:href="#DejaVuSans-64" transform="translate(530.570312 0)"/>
      <use xlink:href="#DejaVuSans-20" transform="translate(594.046875 0)"/>
      <use xlink:href="#DejaVuSans-56" transform="translate(625.833984 0)"/>
      <use xlink:href="#DejaVuSans-65" transform="translate(686.492188 0)"/>
      <use xlink:href="#DejaVuSans-68" transform="translate(748.015625 0)"/>
      <use xlink:href="#DejaVuSans-69" transform="translate(811.394531 0)"/>
      <use xlink:href="#DejaVuSans-63" transform="translate(839.177734 0)"/>
      <use xlink:href="#DejaVuSans-6c" transform="translate(894.158203 0)"/>
      <use xlink:href="#DejaVuSans-65" transform="translate(921.941406 0)"/>
      <use xlink:href="#DejaVuSans-73" transform="translate(983.464844 0)"/>
      <use xlink:href="#DejaVuSans-20" transform="translate(1035.564453 0)"/>
      <use xlink:href="#DejaVuSans-28" transform="translate(1067.351562 0)"/>
      <use xlink:href="#DejaVuSans-52" transform="translate(1106.365234 0)"/>
      <use xlink:href="#DejaVuSans-75" transform="translate(1171.347656 0)"/>
      <use xlink:href="#DejaVuSans-6e" transform="translate(1234.726562 0)"/>
      <use xlink:href="#DejaVuSans-20" transform="translate(1298.105469 0)"/>
      <use xlink:href="#DejaVuSans-32" transform="translate(1329.892578 0)"/>
      <use xlink:href="#DejaVuSans-29" transform="translate(1393.515625 0)"/>
     </g>
    </g>
    <g id="line2d_49">
     <path d="M 376.104375 468.698438 
L 394.104375 468.698438 
L 412.104375 468.698438 
" style="fill: none; stroke: #2ca02c; stroke-width: 1.5; stroke-linecap: square"/>
    </g>
    <g id="text_45">
     <!-- Non-Arrived Vehicles (Run 3) -->
     <g transform="translate(426.504375 474.998438) scale(0.18 -0.18)">
      <use xlink:href="#DejaVuSans-4e"/>
      <use xlink:href="#DejaVuSans-6f" transform="translate(74.804688 0)"/>
      <use xlink:href="#DejaVuSans-6e" transform="translate(135.986328 0)"/>
      <use xlink:href="#DejaVuSans-2d" transform="translate(199.365234 0)"/>
      <use xlink:href="#DejaVuSans-41" transform="translate(233.199219 0)"/>
      <use xlink:href="#DejaVuSans-72" transform="translate(301.607422 0)"/>
      <use xlink:href="#DejaVuSans-72" transform="translate(340.970703 0)"/>
      <use xlink:href="#DejaVuSans-69" transform="translate(382.083984 0)"/>
      <use xlink:href="#DejaVuSans-76" transform="translate(409.867188 0)"/>
      <use xlink:href="#DejaVuSans-65" transform="translate(469.046875 0)"/>
      <use xlink:href="#DejaVuSans-64" transform="translate(530.570312 0)"/>
      <use xlink:href="#DejaVuSans-20" transform="translate(594.046875 0)"/>
      <use xlink:href="#DejaVuSans-56" transform="translate(625.833984 0)"/>
      <use xlink:href="#DejaVuSans-65" transform="translate(686.492188 0)"/>
      <use xlink:href="#DejaVuSans-68" transform="translate(748.015625 0)"/>
      <use xlink:href="#DejaVuSans-69" transform="translate(811.394531 0)"/>
      <use xlink:href="#DejaVuSans-63" transform="translate(839.177734 0)"/>
      <use xlink:href="#DejaVuSans-6c" transform="translate(894.158203 0)"/>
      <use xlink:href="#DejaVuSans-65" transform="translate(921.941406 0)"/>
      <use xlink:href="#DejaVuSans-73" transform="translate(983.464844 0)"/>
      <use xlink:href="#DejaVuSans-20" transform="translate(1035.564453 0)"/>
      <use xlink:href="#DejaVuSans-28" transform="translate(1067.351562 0)"/>
      <use xlink:href="#DejaVuSans-52" transform="translate(1106.365234 0)"/>
      <use xlink:href="#DejaVuSans-75" transform="translate(1171.347656 0)"/>
      <use xlink:href="#DejaVuSans-6e" transform="translate(1234.726562 0)"/>
      <use xlink:href="#DejaVuSans-20" transform="translate(1298.105469 0)"/>
      <use xlink:href="#DejaVuSans-33" transform="translate(1329.892578 0)"/>
      <use xlink:href="#DejaVuSans-29" transform="translate(1393.515625 0)"/>
     </g>
    </g>
    <g id="line2d_50">
     <path d="M 376.104375 495.119062 
L 394.104375 495.119062 
L 412.104375 495.119062 
" style="fill: none; stroke: #d62728; stroke-width: 1.5; stroke-linecap: square"/>
    </g>
    <g id="text_46">
     <!-- Non-Arrived Vehicles (Run 4) -->
     <g transform="translate(426.504375 501.419062) scale(0.18 -0.18)">
      <use xlink:href="#DejaVuSans-4e"/>
      <use xlink:href="#DejaVuSans-6f" transform="translate(74.804688 0)"/>
      <use xlink:href="#DejaVuSans-6e" transform="translate(135.986328 0)"/>
      <use xlink:href="#DejaVuSans-2d" transform="translate(199.365234 0)"/>
      <use xlink:href="#DejaVuSans-41" transform="translate(233.199219 0)"/>
      <use xlink:href="#DejaVuSans-72" transform="translate(301.607422 0)"/>
      <use xlink:href="#DejaVuSans-72" transform="translate(340.970703 0)"/>
      <use xlink:href="#DejaVuSans-69" transform="translate(382.083984 0)"/>
      <use xlink:href="#DejaVuSans-76" transform="translate(409.867188 0)"/>
      <use xlink:href="#DejaVuSans-65" transform="translate(469.046875 0)"/>
      <use xlink:href="#DejaVuSans-64" transform="translate(530.570312 0)"/>
      <use xlink:href="#DejaVuSans-20" transform="translate(594.046875 0)"/>
      <use xlink:href="#DejaVuSans-56" transform="translate(625.833984 0)"/>
      <use xlink:href="#DejaVuSans-65" transform="translate(686.492188 0)"/>
      <use xlink:href="#DejaVuSans-68" transform="translate(748.015625 0)"/>
      <use xlink:href="#DejaVuSans-69" transform="translate(811.394531 0)"/>
      <use xlink:href="#DejaVuSans-63" transform="translate(839.177734 0)"/>
      <use xlink:href="#DejaVuSans-6c" transform="translate(894.158203 0)"/>
      <use xlink:href="#DejaVuSans-65" transform="translate(921.941406 0)"/>
      <use xlink:href="#DejaVuSans-73" transform="translate(983.464844 0)"/>
      <use xlink:href="#DejaVuSans-20" transform="translate(1035.564453 0)"/>
      <use xlink:href="#DejaVuSans-28" transform="translate(1067.351562 0)"/>
      <use xlink:href="#DejaVuSans-52" transform="translate(1106.365234 0)"/>
      <use xlink:href="#DejaVuSans-75" transform="translate(1171.347656 0)"/>
      <use xlink:href="#DejaVuSans-6e" transform="translate(1234.726562 0)"/>
      <use xlink:href="#DejaVuSans-20" transform="translate(1298.105469 0)"/>
      <use xlink:href="#DejaVuSans-34" transform="translate(1329.892578 0)"/>
      <use xlink:href="#DejaVuSans-29" transform="translate(1393.515625 0)"/>
     </g>
    </g>
    <g id="line2d_51">
     <path d="M 376.104375 521.539688 
L 394.104375 521.539688 
L 412.104375 521.539688 
" style="fill: none; stroke: #9467bd; stroke-width: 1.5; stroke-linecap: square"/>
    </g>
    <g id="text_47">
     <!-- Non-Arrived Vehicles (Run 5) -->
     <g transform="translate(426.504375 527.839688) scale(0.18 -0.18)">
      <use xlink:href="#DejaVuSans-4e"/>
      <use xlink:href="#DejaVuSans-6f" transform="translate(74.804688 0)"/>
      <use xlink:href="#DejaVuSans-6e" transform="translate(135.986328 0)"/>
      <use xlink:href="#DejaVuSans-2d" transform="translate(199.365234 0)"/>
      <use xlink:href="#DejaVuSans-41" transform="translate(233.199219 0)"/>
      <use xlink:href="#DejaVuSans-72" transform="translate(301.607422 0)"/>
      <use xlink:href="#DejaVuSans-72" transform="translate(340.970703 0)"/>
      <use xlink:href="#DejaVuSans-69" transform="translate(382.083984 0)"/>
      <use xlink:href="#DejaVuSans-76" transform="translate(409.867188 0)"/>
      <use xlink:href="#DejaVuSans-65" transform="translate(469.046875 0)"/>
      <use xlink:href="#DejaVuSans-64" transform="translate(530.570312 0)"/>
      <use xlink:href="#DejaVuSans-20" transform="translate(594.046875 0)"/>
      <use xlink:href="#DejaVuSans-56" transform="translate(625.833984 0)"/>
      <use xlink:href="#DejaVuSans-65" transform="translate(686.492188 0)"/>
      <use xlink:href="#DejaVuSans-68" transform="translate(748.015625 0)"/>
      <use xlink:href="#DejaVuSans-69" transform="translate(811.394531 0)"/>
      <use xlink:href="#DejaVuSans-63" transform="translate(839.177734 0)"/>
      <use xlink:href="#DejaVuSans-6c" transform="translate(894.158203 0)"/>
      <use xlink:href="#DejaVuSans-65" transform="translate(921.941406 0)"/>
      <use xlink:href="#DejaVuSans-73" transform="translate(983.464844 0)"/>
      <use xlink:href="#DejaVuSans-20" transform="translate(1035.564453 0)"/>
      <use xlink:href="#DejaVuSans-28" transform="translate(1067.351562 0)"/>
      <use xlink:href="#DejaVuSans-52" transform="translate(1106.365234 0)"/>
      <use xlink:href="#DejaVuSans-75" transform="translate(1171.347656 0)"/>
      <use xlink:href="#DejaVuSans-6e" transform="translate(1234.726562 0)"/>
      <use xlink:href="#DejaVuSans-20" transform="translate(1298.105469 0)"/>
      <use xlink:href="#DejaVuSans-35" transform="translate(1329.892578 0)"/>
      <use xlink:href="#DejaVuSans-29" transform="translate(1393.515625 0)"/>
     </g>
    </g>
   </g>
  </g>
 </g>
 <defs>
  <clipPath id="p1e4d940e30">
   <rect x="82.1" y="42" width="618.46" height="262.72"/>
  </clipPath>
  <clipPath id="p45832f89f9">
   <rect x="82.1" y="392.28" width="618.46" height="262.72"/>
  </clipPath>
 </defs>
</svg>
