<?xml version="1.0" encoding="utf-8" standalone="no"?>
<!DOCTYPE svg PUBLIC "-//W3C//DTD SVG 1.1//EN"
  "http://www.w3.org/Graphics/SVG/1.1/DTD/svg11.dtd">
<svg xmlns:xlink="http://www.w3.org/1999/xlink" width="720pt" height="720pt" viewBox="0 0 720 720" xmlns="http://www.w3.org/2000/svg" version="1.1">
 <metadata>
  <rdf:RDF xmlns:dc="http://purl.org/dc/elements/1.1/" xmlns:cc="http://creativecommons.org/ns#" xmlns:rdf="http://www.w3.org/1999/02/22-rdf-syntax-ns#">
   <cc:Work>
    <dc:type rdf:resource="http://purl.org/dc/dcmitype/StillImage"/>
    <dc:date>2025-04-17T11:25:33.696794</dc:date>
    <dc:format>image/svg+xml</dc:format>
    <dc:creator>
     <cc:Agent>
      <dc:title>Matplotlib v3.10.1, https://matplotlib.org/</dc:title>
     </cc:Agent>
    </dc:creator>
   </cc:Work>
  </rdf:RDF>
 </metadata>
 <defs>
  <style type="text/css">*{stroke-linejoin: round; stroke-linecap: butt}</style>
 </defs>
 <g id="figure_1">
  <g id="patch_1">
   <path d="M 0 720 
L 720 720 
L 720 0 
L 0 0 
z
" style="fill: #ffffff"/>
  </g>
  <g id="axes_1">
   <g id="patch_2">
    <path d="M 82.19 304.72 
L 700.56 304.72 
L 700.56 42 
L 82.19 42 
z
" style="fill: #ffffff"/>
   </g>
   <g id="matplotlib.axis_1">
    <g id="xtick_1">
     <g id="line2d_1">
      <defs>
       <path id="m9ddd083b1b" d="M 0 0 
L 0 3.5 
" style="stroke: #000000; stroke-width: 0.8"/>
      </defs>
      <g>
       <use xlink:href="#m9ddd083b1b" x="82.19" y="304.72" style="stroke: #000000; stroke-width: 0.8"/>
      </g>
     </g>
     <g id="text_1">
      <!-- 0 -->
      <g transform="translate(76.46375 325.397188) scale(0.18 -0.18)">
       <defs>
        <path id="DejaVuSans-30" d="M 2034 4250 
Q 1547 4250 1301 3770 
Q 1056 3291 1056 2328 
Q 1056 1369 1301 889 
Q 1547 409 2034 409 
Q 2525 409 2770 889 
Q 3016 1369 3016 2328 
Q 3016 3291 2770 3770 
Q 2525 4250 2034 4250 
z
M 2034 4750 
Q 2819 4750 3233 4129 
Q 3647 3509 3647 2328 
Q 3647 1150 3233 529 
Q 2819 -91 2034 -91 
Q 1250 -91 836 529 
Q 422 1150 422 2328 
Q 422 3509 836 4129 
Q 1250 4750 2034 4750 
z
" transform="scale(0.015625)"/>
       </defs>
       <use xlink:href="#DejaVuSans-30"/>
      </g>
     </g>
    </g>
    <g id="xtick_2">
     <g id="line2d_2">
      <g>
       <use xlink:href="#m9ddd083b1b" x="147.281579" y="304.72" style="stroke: #000000; stroke-width: 0.8"/>
      </g>
     </g>
     <g id="text_2">
      <!-- 2 -->
      <g transform="translate(141.555329 325.397188) scale(0.18 -0.18)">
       <defs>
        <path id="DejaVuSans-32" d="M 1228 531 
L 3431 531 
L 3431 0 
L 469 0 
L 469 531 
Q 828 903 1448 1529 
Q 2069 2156 2228 2338 
Q 2531 2678 2651 2914 
Q 2772 3150 2772 3378 
Q 2772 3750 2511 3984 
Q 2250 4219 1831 4219 
Q 1534 4219 1204 4116 
Q 875 4013 500 3803 
L 500 4441 
Q 881 4594 1212 4672 
Q 1544 4750 1819 4750 
Q 2544 4750 2975 4387 
Q 3406 4025 3406 3419 
Q 3406 3131 3298 2873 
Q 3191 2616 2906 2266 
Q 2828 2175 2409 1742 
Q 1991 1309 1228 531 
z
" transform="scale(0.015625)"/>
       </defs>
       <use xlink:href="#DejaVuSans-32"/>
      </g>
     </g>
    </g>
    <g id="xtick_3">
     <g id="line2d_3">
      <g>
       <use xlink:href="#m9ddd083b1b" x="212.373158" y="304.72" style="stroke: #000000; stroke-width: 0.8"/>
      </g>
     </g>
     <g id="text_3">
      <!-- 4 -->
      <g transform="translate(206.646908 325.397188) scale(0.18 -0.18)">
       <defs>
        <path id="DejaVuSans-34" d="M 2419 4116 
L 825 1625 
L 2419 1625 
L 2419 4116 
z
M 2253 4666 
L 3047 4666 
L 3047 1625 
L 3713 1625 
L 3713 1100 
L 3047 1100 
L 3047 0 
L 2419 0 
L 2419 1100 
L 313 1100 
L 313 1709 
L 2253 4666 
z
" transform="scale(0.015625)"/>
       </defs>
       <use xlink:href="#DejaVuSans-34"/>
      </g>
     </g>
    </g>
    <g id="xtick_4">
     <g id="line2d_4">
      <g>
       <use xlink:href="#m9ddd083b1b" x="277.464737" y="304.72" style="stroke: #000000; stroke-width: 0.8"/>
      </g>
     </g>
     <g id="text_4">
      <!-- 6 -->
      <g transform="translate(271.738487 325.397188) scale(0.18 -0.18)">
       <defs>
        <path id="DejaVuSans-36" d="M 2113 2584 
Q 1688 2584 1439 2293 
Q 1191 2003 1191 1497 
Q 1191 994 1439 701 
Q 1688 409 2113 409 
Q 2538 409 2786 701 
Q 3034 994 3034 1497 
Q 3034 2003 2786 2293 
Q 2538 2584 2113 2584 
z
M 3366 4563 
L 3366 3988 
Q 3128 4100 2886 4159 
Q 2644 4219 2406 4219 
Q 1781 4219 1451 3797 
Q 1122 3375 1075 2522 
Q 1259 2794 1537 2939 
Q 1816 3084 2150 3084 
Q 2853 3084 3261 2657 
Q 3669 2231 3669 1497 
Q 3669 778 3244 343 
Q 2819 -91 2113 -91 
Q 1303 -91 875 529 
Q 447 1150 447 2328 
Q 447 3434 972 4092 
Q 1497 4750 2381 4750 
Q 2619 4750 2861 4703 
Q 3103 4656 3366 4563 
z
" transform="scale(0.015625)"/>
       </defs>
       <use xlink:href="#DejaVuSans-36"/>
      </g>
     </g>
    </g>
    <g id="xtick_5">
     <g id="line2d_5">
      <g>
       <use xlink:href="#m9ddd083b1b" x="342.556316" y="304.72" style="stroke: #000000; stroke-width: 0.8"/>
      </g>
     </g>
     <g id="text_5">
      <!-- 8 -->
      <g transform="translate(336.830066 325.397188) scale(0.18 -0.18)">
       <defs>
        <path id="DejaVuSans-38" d="M 2034 2216 
Q 1584 2216 1326 1975 
Q 1069 1734 1069 1313 
Q 1069 891 1326 650 
Q 1584 409 2034 409 
Q 2484 409 2743 651 
Q 3003 894 3003 1313 
Q 3003 1734 2745 1975 
Q 2488 2216 2034 2216 
z
M 1403 2484 
Q 997 2584 770 2862 
Q 544 3141 544 3541 
Q 544 4100 942 4425 
Q 1341 4750 2034 4750 
Q 2731 4750 3128 4425 
Q 3525 4100 3525 3541 
Q 3525 3141 3298 2862 
Q 3072 2584 2669 2484 
Q 3125 2378 3379 2068 
Q 3634 1759 3634 1313 
Q 3634 634 3220 271 
Q 2806 -91 2034 -91 
Q 1263 -91 848 271 
Q 434 634 434 1313 
Q 434 1759 690 2068 
Q 947 2378 1403 2484 
z
M 1172 3481 
Q 1172 3119 1398 2916 
Q 1625 2713 2034 2713 
Q 2441 2713 2670 2916 
Q 2900 3119 2900 3481 
Q 2900 3844 2670 4047 
Q 2441 4250 2034 4250 
Q 1625 4250 1398 4047 
Q 1172 3844 1172 3481 
z
" transform="scale(0.015625)"/>
       </defs>
       <use xlink:href="#DejaVuSans-38"/>
      </g>
     </g>
    </g>
    <g id="xtick_6">
     <g id="line2d_6">
      <g>
       <use xlink:href="#m9ddd083b1b" x="407.647895" y="304.72" style="stroke: #000000; stroke-width: 0.8"/>
      </g>
     </g>
     <g id="text_6">
      <!-- 10 -->
      <g transform="translate(396.195395 325.397188) scale(0.18 -0.18)">
       <defs>
        <path id="DejaVuSans-31" d="M 794 531 
L 1825 531 
L 1825 4091 
L 703 3866 
L 703 4441 
L 1819 4666 
L 2450 4666 
L 2450 531 
L 3481 531 
L 3481 0 
L 794 0 
L 794 531 
z
" transform="scale(0.015625)"/>
       </defs>
       <use xlink:href="#DejaVuSans-31"/>
       <use xlink:href="#DejaVuSans-30" transform="translate(63.623047 0)"/>
      </g>
     </g>
    </g>
    <g id="xtick_7">
     <g id="line2d_7">
      <g>
       <use xlink:href="#m9ddd083b1b" x="472.739474" y="304.72" style="stroke: #000000; stroke-width: 0.8"/>
      </g>
     </g>
     <g id="text_7">
      <!-- 12 -->
      <g transform="translate(461.286974 325.397188) scale(0.18 -0.18)">
       <use xlink:href="#DejaVuSans-31"/>
       <use xlink:href="#DejaVuSans-32" transform="translate(63.623047 0)"/>
      </g>
     </g>
    </g>
    <g id="xtick_8">
     <g id="line2d_8">
      <g>
       <use xlink:href="#m9ddd083b1b" x="537.831053" y="304.72" style="stroke: #000000; stroke-width: 0.8"/>
      </g>
     </g>
     <g id="text_8">
      <!-- 14 -->
      <g transform="translate(526.378553 325.397188) scale(0.18 -0.18)">
       <use xlink:href="#DejaVuSans-31"/>
       <use xlink:href="#DejaVuSans-34" transform="translate(63.623047 0)"/>
      </g>
     </g>
    </g>
    <g id="xtick_9">
     <g id="line2d_9">
      <g>
       <use xlink:href="#m9ddd083b1b" x="602.922632" y="304.72" style="stroke: #000000; stroke-width: 0.8"/>
      </g>
     </g>
     <g id="text_9">
      <!-- 16 -->
      <g transform="translate(591.470132 325.397188) scale(0.18 -0.18)">
       <use xlink:href="#DejaVuSans-31"/>
       <use xlink:href="#DejaVuSans-36" transform="translate(63.623047 0)"/>
      </g>
     </g>
    </g>
    <g id="xtick_10">
     <g id="line2d_10">
      <g>
       <use xlink:href="#m9ddd083b1b" x="668.014211" y="304.72" style="stroke: #000000; stroke-width: 0.8"/>
      </g>
     </g>
     <g id="text_10">
      <!-- 18 -->
      <g transform="translate(656.561711 325.397188) scale(0.18 -0.18)">
       <use xlink:href="#DejaVuSans-31"/>
       <use xlink:href="#DejaVuSans-38" transform="translate(63.623047 0)"/>
      </g>
     </g>
    </g>
    <g id="text_11">
     <!-- Iteration -->
     <g transform="translate(353.199531 346.817813) scale(0.18 -0.18)">
      <defs>
       <path id="DejaVuSans-49" d="M 628 4666 
L 1259 4666 
L 1259 0 
L 628 0 
L 628 4666 
z
" transform="scale(0.015625)"/>
       <path id="DejaVuSans-74" d="M 1172 4494 
L 1172 3500 
L 2356 3500 
L 2356 3053 
L 1172 3053 
L 1172 1153 
Q 1172 725 1289 603 
Q 1406 481 1766 481 
L 2356 481 
L 2356 0 
L 1766 0 
Q 1100 0 847 248 
Q 594 497 594 1153 
L 594 3053 
L 172 3053 
L 172 3500 
L 594 3500 
L 594 4494 
L 1172 4494 
z
" transform="scale(0.015625)"/>
       <path id="DejaVuSans-65" d="M 3597 1894 
L 3597 1613 
L 953 1613 
Q 991 1019 1311 708 
Q 1631 397 2203 397 
Q 2534 397 2845 478 
Q 3156 559 3463 722 
L 3463 178 
Q 3153 47 2828 -22 
Q 2503 -91 2169 -91 
Q 1331 -91 842 396 
Q 353 884 353 1716 
Q 353 2575 817 3079 
Q 1281 3584 2069 3584 
Q 2775 3584 3186 3129 
Q 3597 2675 3597 1894 
z
M 3022 2063 
Q 3016 2534 2758 2815 
Q 2500 3097 2075 3097 
Q 1594 3097 1305 2825 
Q 1016 2553 972 2059 
L 3022 2063 
z
" transform="scale(0.015625)"/>
       <path id="DejaVuSans-72" d="M 2631 2963 
Q 2534 3019 2420 3045 
Q 2306 3072 2169 3072 
Q 1681 3072 1420 2755 
Q 1159 2438 1159 1844 
L 1159 0 
L 581 0 
L 581 3500 
L 1159 3500 
L 1159 2956 
Q 1341 3275 1631 3429 
Q 1922 3584 2338 3584 
Q 2397 3584 2469 3576 
Q 2541 3569 2628 3553 
L 2631 2963 
z
" transform="scale(0.015625)"/>
       <path id="DejaVuSans-61" d="M 2194 1759 
Q 1497 1759 1228 1600 
Q 959 1441 959 1056 
Q 959 750 1161 570 
Q 1363 391 1709 391 
Q 2188 391 2477 730 
Q 2766 1069 2766 1631 
L 2766 1759 
L 2194 1759 
z
M 3341 1997 
L 3341 0 
L 2766 0 
L 2766 531 
Q 2569 213 2275 61 
Q 1981 -91 1556 -91 
Q 1019 -91 701 211 
Q 384 513 384 1019 
Q 384 1609 779 1909 
Q 1175 2209 1959 2209 
L 2766 2209 
L 2766 2266 
Q 2766 2663 2505 2880 
Q 2244 3097 1772 3097 
Q 1472 3097 1187 3025 
Q 903 2953 641 2809 
L 641 3341 
Q 956 3463 1253 3523 
Q 1550 3584 1831 3584 
Q 2591 3584 2966 3190 
Q 3341 2797 3341 1997 
z
" transform="scale(0.015625)"/>
       <path id="DejaVuSans-69" d="M 603 3500 
L 1178 3500 
L 1178 0 
L 603 0 
L 603 3500 
z
M 603 4863 
L 1178 4863 
L 1178 4134 
L 603 4134 
L 603 4863 
z
" transform="scale(0.015625)"/>
       <path id="DejaVuSans-6f" d="M 1959 3097 
Q 1497 3097 1228 2736 
Q 959 2375 959 1747 
Q 959 1119 1226 758 
Q 1494 397 1959 397 
Q 2419 397 2687 759 
Q 2956 1122 2956 1747 
Q 2956 2369 2687 2733 
Q 2419 3097 1959 3097 
z
M 1959 3584 
Q 2709 3584 3137 3096 
Q 3566 2609 3566 1747 
Q 3566 888 3137 398 
Q 2709 -91 1959 -91 
Q 1206 -91 779 398 
Q 353 888 353 1747 
Q 353 2609 779 3096 
Q 1206 3584 1959 3584 
z
" transform="scale(0.015625)"/>
       <path id="DejaVuSans-6e" d="M 3513 2113 
L 3513 0 
L 2938 0 
L 2938 2094 
Q 2938 2591 2744 2837 
Q 2550 3084 2163 3084 
Q 1697 3084 1428 2787 
Q 1159 2491 1159 1978 
L 1159 0 
L 581 0 
L 581 3500 
L 1159 3500 
L 1159 2956 
Q 1366 3272 1645 3428 
Q 1925 3584 2291 3584 
Q 2894 3584 3203 3211 
Q 3513 2838 3513 2113 
z
" transform="scale(0.015625)"/>
      </defs>
      <use xlink:href="#DejaVuSans-49"/>
      <use xlink:href="#DejaVuSans-74" transform="translate(29.492188 0)"/>
      <use xlink:href="#DejaVuSans-65" transform="translate(68.701172 0)"/>
      <use xlink:href="#DejaVuSans-72" transform="translate(130.224609 0)"/>
      <use xlink:href="#DejaVuSans-61" transform="translate(171.337891 0)"/>
      <use xlink:href="#DejaVuSans-74" transform="translate(232.617188 0)"/>
      <use xlink:href="#DejaVuSans-69" transform="translate(271.826172 0)"/>
      <use xlink:href="#DejaVuSans-6f" transform="translate(299.609375 0)"/>
      <use xlink:href="#DejaVuSans-6e" transform="translate(360.791016 0)"/>
     </g>
    </g>
   </g>
   <g id="matplotlib.axis_2">
    <g id="ytick_1">
     <g id="line2d_11">
      <defs>
       <path id="mdd89a7ac53" d="M 0 0 
L -3.5 0 
" style="stroke: #000000; stroke-width: 0.8"/>
      </defs>
      <g>
       <use xlink:href="#mdd89a7ac53" x="82.19" y="270.156592" style="stroke: #000000; stroke-width: 0.8"/>
      </g>
     </g>
     <g id="text_12">
      <!-- 280 -->
      <g transform="translate(40.8325 276.995186) scale(0.18 -0.18)">
       <use xlink:href="#DejaVuSans-32"/>
       <use xlink:href="#DejaVuSans-38" transform="translate(63.623047 0)"/>
       <use xlink:href="#DejaVuSans-30" transform="translate(127.246094 0)"/>
      </g>
     </g>
    </g>
    <g id="ytick_2">
     <g id="line2d_12">
      <g>
       <use xlink:href="#mdd89a7ac53" x="82.19" y="222.532193" style="stroke: #000000; stroke-width: 0.8"/>
      </g>
     </g>
     <g id="text_13">
      <!-- 300 -->
      <g transform="translate(40.8325 229.370786) scale(0.18 -0.18)">
       <defs>
        <path id="DejaVuSans-33" d="M 2597 2516 
Q 3050 2419 3304 2112 
Q 3559 1806 3559 1356 
Q 3559 666 3084 287 
Q 2609 -91 1734 -91 
Q 1441 -91 1130 -33 
Q 819 25 488 141 
L 488 750 
Q 750 597 1062 519 
Q 1375 441 1716 441 
Q 2309 441 2620 675 
Q 2931 909 2931 1356 
Q 2931 1769 2642 2001 
Q 2353 2234 1838 2234 
L 1294 2234 
L 1294 2753 
L 1863 2753 
Q 2328 2753 2575 2939 
Q 2822 3125 2822 3475 
Q 2822 3834 2567 4026 
Q 2313 4219 1838 4219 
Q 1578 4219 1281 4162 
Q 984 4106 628 3988 
L 628 4550 
Q 988 4650 1302 4700 
Q 1616 4750 1894 4750 
Q 2613 4750 3031 4423 
Q 3450 4097 3450 3541 
Q 3450 3153 3228 2886 
Q 3006 2619 2597 2516 
z
" transform="scale(0.015625)"/>
       </defs>
       <use xlink:href="#DejaVuSans-33"/>
       <use xlink:href="#DejaVuSans-30" transform="translate(63.623047 0)"/>
       <use xlink:href="#DejaVuSans-30" transform="translate(127.246094 0)"/>
      </g>
     </g>
    </g>
    <g id="ytick_3">
     <g id="line2d_13">
      <g>
       <use xlink:href="#mdd89a7ac53" x="82.19" y="174.907793" style="stroke: #000000; stroke-width: 0.8"/>
      </g>
     </g>
     <g id="text_14">
      <!-- 320 -->
      <g transform="translate(40.8325 181.746387) scale(0.18 -0.18)">
       <use xlink:href="#DejaVuSans-33"/>
       <use xlink:href="#DejaVuSans-32" transform="translate(63.623047 0)"/>
       <use xlink:href="#DejaVuSans-30" transform="translate(127.246094 0)"/>
      </g>
     </g>
    </g>
    <g id="ytick_4">
     <g id="line2d_14">
      <g>
       <use xlink:href="#mdd89a7ac53" x="82.19" y="127.283393" style="stroke: #000000; stroke-width: 0.8"/>
      </g>
     </g>
     <g id="text_15">
      <!-- 340 -->
      <g transform="translate(40.8325 134.121987) scale(0.18 -0.18)">
       <use xlink:href="#DejaVuSans-33"/>
       <use xlink:href="#DejaVuSans-34" transform="translate(63.623047 0)"/>
       <use xlink:href="#DejaVuSans-30" transform="translate(127.246094 0)"/>
      </g>
     </g>
    </g>
    <g id="ytick_5">
     <g id="line2d_15">
      <g>
       <use xlink:href="#mdd89a7ac53" x="82.19" y="79.658994" style="stroke: #000000; stroke-width: 0.8"/>
      </g>
     </g>
     <g id="text_16">
      <!-- 360 -->
      <g transform="translate(40.8325 86.497588) scale(0.18 -0.18)">
       <use xlink:href="#DejaVuSans-33"/>
       <use xlink:href="#DejaVuSans-36" transform="translate(63.623047 0)"/>
       <use xlink:href="#DejaVuSans-30" transform="translate(127.246094 0)"/>
      </g>
     </g>
    </g>
    <g id="text_17">
     <!-- Number of Vehicles -->
     <g transform="translate(33.089063 260.786563) rotate(-90) scale(0.18 -0.18)">
      <defs>
       <path id="DejaVuSans-4e" d="M 628 4666 
L 1478 4666 
L 3547 763 
L 3547 4666 
L 4159 4666 
L 4159 0 
L 3309 0 
L 1241 3903 
L 1241 0 
L 628 0 
L 628 4666 
z
" transform="scale(0.015625)"/>
       <path id="DejaVuSans-75" d="M 544 1381 
L 544 3500 
L 1119 3500 
L 1119 1403 
Q 1119 906 1312 657 
Q 1506 409 1894 409 
Q 2359 409 2629 706 
Q 2900 1003 2900 1516 
L 2900 3500 
L 3475 3500 
L 3475 0 
L 2900 0 
L 2900 538 
Q 2691 219 2414 64 
Q 2138 -91 1772 -91 
Q 1169 -91 856 284 
Q 544 659 544 1381 
z
M 1991 3584 
L 1991 3584 
z
" transform="scale(0.015625)"/>
       <path id="DejaVuSans-6d" d="M 3328 2828 
Q 3544 3216 3844 3400 
Q 4144 3584 4550 3584 
Q 5097 3584 5394 3201 
Q 5691 2819 5691 2113 
L 5691 0 
L 5113 0 
L 5113 2094 
Q 5113 2597 4934 2840 
Q 4756 3084 4391 3084 
Q 3944 3084 3684 2787 
Q 3425 2491 3425 1978 
L 3425 0 
L 2847 0 
L 2847 2094 
Q 2847 2600 2669 2842 
Q 2491 3084 2119 3084 
Q 1678 3084 1418 2786 
Q 1159 2488 1159 1978 
L 1159 0 
L 581 0 
L 581 3500 
L 1159 3500 
L 1159 2956 
Q 1356 3278 1631 3431 
Q 1906 3584 2284 3584 
Q 2666 3584 2933 3390 
Q 3200 3197 3328 2828 
z
" transform="scale(0.015625)"/>
       <path id="DejaVuSans-62" d="M 3116 1747 
Q 3116 2381 2855 2742 
Q 2594 3103 2138 3103 
Q 1681 3103 1420 2742 
Q 1159 2381 1159 1747 
Q 1159 1113 1420 752 
Q 1681 391 2138 391 
Q 2594 391 2855 752 
Q 3116 1113 3116 1747 
z
M 1159 2969 
Q 1341 3281 1617 3432 
Q 1894 3584 2278 3584 
Q 2916 3584 3314 3078 
Q 3713 2572 3713 1747 
Q 3713 922 3314 415 
Q 2916 -91 2278 -91 
Q 1894 -91 1617 61 
Q 1341 213 1159 525 
L 1159 0 
L 581 0 
L 581 4863 
L 1159 4863 
L 1159 2969 
z
" transform="scale(0.015625)"/>
       <path id="DejaVuSans-20" transform="scale(0.015625)"/>
       <path id="DejaVuSans-66" d="M 2375 4863 
L 2375 4384 
L 1825 4384 
Q 1516 4384 1395 4259 
Q 1275 4134 1275 3809 
L 1275 3500 
L 2222 3500 
L 2222 3053 
L 1275 3053 
L 1275 0 
L 697 0 
L 697 3053 
L 147 3053 
L 147 3500 
L 697 3500 
L 697 3744 
Q 697 4328 969 4595 
Q 1241 4863 1831 4863 
L 2375 4863 
z
" transform="scale(0.015625)"/>
       <path id="DejaVuSans-56" d="M 1831 0 
L 50 4666 
L 709 4666 
L 2188 738 
L 3669 4666 
L 4325 4666 
L 2547 0 
L 1831 0 
z
" transform="scale(0.015625)"/>
       <path id="DejaVuSans-68" d="M 3513 2113 
L 3513 0 
L 2938 0 
L 2938 2094 
Q 2938 2591 2744 2837 
Q 2550 3084 2163 3084 
Q 1697 3084 1428 2787 
Q 1159 2491 1159 1978 
L 1159 0 
L 581 0 
L 581 4863 
L 1159 4863 
L 1159 2956 
Q 1366 3272 1645 3428 
Q 1925 3584 2291 3584 
Q 2894 3584 3203 3211 
Q 3513 2838 3513 2113 
z
" transform="scale(0.015625)"/>
       <path id="DejaVuSans-63" d="M 3122 3366 
L 3122 2828 
Q 2878 2963 2633 3030 
Q 2388 3097 2138 3097 
Q 1578 3097 1268 2742 
Q 959 2388 959 1747 
Q 959 1106 1268 751 
Q 1578 397 2138 397 
Q 2388 397 2633 464 
Q 2878 531 3122 666 
L 3122 134 
Q 2881 22 2623 -34 
Q 2366 -91 2075 -91 
Q 1284 -91 818 406 
Q 353 903 353 1747 
Q 353 2603 823 3093 
Q 1294 3584 2113 3584 
Q 2378 3584 2631 3529 
Q 2884 3475 3122 3366 
z
" transform="scale(0.015625)"/>
       <path id="DejaVuSans-6c" d="M 603 4863 
L 1178 4863 
L 1178 0 
L 603 0 
L 603 4863 
z
" transform="scale(0.015625)"/>
       <path id="DejaVuSans-73" d="M 2834 3397 
L 2834 2853 
Q 2591 2978 2328 3040 
Q 2066 3103 1784 3103 
Q 1356 3103 1142 2972 
Q 928 2841 928 2578 
Q 928 2378 1081 2264 
Q 1234 2150 1697 2047 
L 1894 2003 
Q 2506 1872 2764 1633 
Q 3022 1394 3022 966 
Q 3022 478 2636 193 
Q 2250 -91 1575 -91 
Q 1294 -91 989 -36 
Q 684 19 347 128 
L 347 722 
Q 666 556 975 473 
Q 1284 391 1588 391 
Q 1994 391 2212 530 
Q 2431 669 2431 922 
Q 2431 1156 2273 1281 
Q 2116 1406 1581 1522 
L 1381 1569 
Q 847 1681 609 1914 
Q 372 2147 372 2553 
Q 372 3047 722 3315 
Q 1072 3584 1716 3584 
Q 2034 3584 2315 3537 
Q 2597 3491 2834 3397 
z
" transform="scale(0.015625)"/>
      </defs>
      <use xlink:href="#DejaVuSans-4e"/>
      <use xlink:href="#DejaVuSans-75" transform="translate(74.804688 0)"/>
      <use xlink:href="#DejaVuSans-6d" transform="translate(138.183594 0)"/>
      <use xlink:href="#DejaVuSans-62" transform="translate(235.595703 0)"/>
      <use xlink:href="#DejaVuSans-65" transform="translate(299.072266 0)"/>
      <use xlink:href="#DejaVuSans-72" transform="translate(360.595703 0)"/>
      <use xlink:href="#DejaVuSans-20" transform="translate(401.708984 0)"/>
      <use xlink:href="#DejaVuSans-6f" transform="translate(433.496094 0)"/>
      <use xlink:href="#DejaVuSans-66" transform="translate(494.677734 0)"/>
      <use xlink:href="#DejaVuSans-20" transform="translate(529.882812 0)"/>
      <use xlink:href="#DejaVuSans-56" transform="translate(561.669922 0)"/>
      <use xlink:href="#DejaVuSans-65" transform="translate(622.328125 0)"/>
      <use xlink:href="#DejaVuSans-68" transform="translate(683.851562 0)"/>
      <use xlink:href="#DejaVuSans-69" transform="translate(747.230469 0)"/>
      <use xlink:href="#DejaVuSans-63" transform="translate(775.013672 0)"/>
      <use xlink:href="#DejaVuSans-6c" transform="translate(829.994141 0)"/>
      <use xlink:href="#DejaVuSans-65" transform="translate(857.777344 0)"/>
      <use xlink:href="#DejaVuSans-73" transform="translate(919.300781 0)"/>
     </g>
    </g>
   </g>
   <g id="line2d_16">
    <path d="M 82.19 275.87152 
L 114.735789 171.335963 
L 147.281579 108.948 
L 179.827368 72.753456 
L 212.373158 63.466698 
L 244.918947 62.276088 
L 277.464737 57.989892 
L 310.010526 60.847356 
L 342.556316 61.799844 
L 375.102105 60.847356 
L 407.647895 63.70482 
L 440.193684 56.56116 
L 472.739474 63.228576 
L 505.285263 62.752332 
L 537.831053 56.56116 
L 570.376842 54.894306 
L 602.922632 55.846794 
L 635.468421 59.656746 
L 668.014211 62.037966 
L 700.56 59.894868 
" clip-path="url(#p2e6df4f2b9)" style="fill: none; stroke: #1f77b4; stroke-width: 1.5; stroke-linecap: square"/>
   </g>
   <g id="line2d_17">
    <path d="M 82.19 288.015742 
L 114.735789 292.778182 
L 147.281579 233.485804 
L 179.827368 157.048643 
L 212.373158 123.711563 
L 244.918947 119.425368 
L 277.464737 101.566218 
L 310.010526 101.089974 
L 342.556316 89.660118 
L 375.102105 69.419748 
L 407.647895 66.562284 
L 440.193684 67.038528 
L 472.739474 65.609796 
L 505.285263 57.513648 
L 537.831053 61.799844 
L 570.376842 56.56116 
L 602.922632 58.466136 
L 635.468421 63.228576 
L 668.014211 59.180502 
L 700.56 58.704258 
" clip-path="url(#p2e6df4f2b9)" style="fill: none; stroke: #ff7f0e; stroke-width: 1.5; stroke-linecap: square"/>
   </g>
   <g id="line2d_18">
    <path d="M 82.19 245.391904 
L 114.735789 207.292385 
L 147.281579 167.764133 
L 179.827368 147.761885 
L 212.373158 156.334277 
L 244.918947 142.523201 
L 277.464737 135.617663 
L 310.010526 140.856347 
L 342.556316 120.139734 
L 375.102105 92.27946 
L 407.647895 108.948 
L 440.193684 73.467822 
L 472.739474 62.51421 
L 505.285263 61.561722 
L 537.831053 69.895992 
L 570.376842 68.705382 
L 602.922632 60.13299 
L 635.468421 60.847356 
L 668.014211 58.466136 
L 700.56 54.17994 
" clip-path="url(#p2e6df4f2b9)" style="fill: none; stroke: #2ca02c; stroke-width: 1.5; stroke-linecap: square"/>
   </g>
   <g id="line2d_19">
    <path d="M 82.19 255.154906 
L 114.735789 238.96261 
L 147.281579 266.584762 
L 179.827368 166.097279 
L 212.373158 142.285079 
L 244.918947 139.189493 
L 277.464737 145.856909 
L 310.010526 136.808273 
L 342.556316 133.950809 
L 375.102105 118.234758 
L 407.647895 86.802654 
L 440.193684 71.086602 
L 472.739474 69.419748 
L 505.285263 91.565094 
L 537.831053 78.230262 
L 570.376842 62.037966 
L 602.922632 74.896554 
L 635.468421 73.2297 
L 668.014211 63.70482 
L 700.56 64.419186 
" clip-path="url(#p2e6df4f2b9)" style="fill: none; stroke: #d62728; stroke-width: 1.5; stroke-linecap: square"/>
   </g>
   <g id="line2d_20">
    <path d="M 82.19 241.105708 
L 114.735789 259.917346 
L 147.281579 210.626093 
L 179.827368 101.089974 
L 212.373158 76.325286 
L 244.918947 71.086602 
L 277.464737 80.135238 
L 310.010526 77.99214 
L 342.556316 68.943504 
L 375.102105 61.799844 
L 407.647895 62.037966 
L 440.193684 56.084916 
L 472.739474 55.846794 
L 505.285263 58.228014 
L 537.831053 66.08604 
L 570.376842 58.94238 
L 602.922632 57.75177 
L 635.468421 53.941818 
L 668.014211 57.275526 
L 700.56 57.037404 
" clip-path="url(#p2e6df4f2b9)" style="fill: none; stroke: #9467bd; stroke-width: 1.5; stroke-linecap: square"/>
   </g>
   <g id="patch_3">
    <path d="M 82.19 304.72 
L 82.19 42 
" style="fill: none; stroke: #000000; stroke-width: 0.8; stroke-linejoin: miter; stroke-linecap: square"/>
   </g>
   <g id="patch_4">
    <path d="M 700.56 304.72 
L 700.56 42 
" style="fill: none; stroke: #000000; stroke-width: 0.8; stroke-linejoin: miter; stroke-linecap: square"/>
   </g>
   <g id="patch_5">
    <path d="M 82.19 304.72 
L 700.56 304.72 
" style="fill: none; stroke: #000000; stroke-width: 0.8; stroke-linejoin: miter; stroke-linecap: square"/>
   </g>
   <g id="patch_6">
    <path d="M 82.19 42 
L 700.56 42 
" style="fill: none; stroke: #000000; stroke-width: 0.8; stroke-linejoin: miter; stroke-linecap: square"/>
   </g>
   <g id="text_18">
    <!-- Arrived Vehicles Over Iterations (All Runs) -->
    <g transform="translate(165.423812 36) scale(0.216 -0.216)">
     <defs>
      <path id="DejaVuSans-41" d="M 2188 4044 
L 1331 1722 
L 3047 1722 
L 2188 4044 
z
M 1831 4666 
L 2547 4666 
L 4325 0 
L 3669 0 
L 3244 1197 
L 1141 1197 
L 716 0 
L 50 0 
L 1831 4666 
z
" transform="scale(0.015625)"/>
      <path id="DejaVuSans-76" d="M 191 3500 
L 800 3500 
L 1894 563 
L 2988 3500 
L 3597 3500 
L 2284 0 
L 1503 0 
L 191 3500 
z
" transform="scale(0.015625)"/>
      <path id="DejaVuSans-64" d="M 2906 2969 
L 2906 4863 
L 3481 4863 
L 3481 0 
L 2906 0 
L 2906 525 
Q 2725 213 2448 61 
Q 2172 -91 1784 -91 
Q 1150 -91 751 415 
Q 353 922 353 1747 
Q 353 2572 751 3078 
Q 1150 3584 1784 3584 
Q 2172 3584 2448 3432 
Q 2725 3281 2906 2969 
z
M 947 1747 
Q 947 1113 1208 752 
Q 1469 391 1925 391 
Q 2381 391 2643 752 
Q 2906 1113 2906 1747 
Q 2906 2381 2643 2742 
Q 2381 3103 1925 3103 
Q 1469 3103 1208 2742 
Q 947 2381 947 1747 
z
" transform="scale(0.015625)"/>
      <path id="DejaVuSans-4f" d="M 2522 4238 
Q 1834 4238 1429 3725 
Q 1025 3213 1025 2328 
Q 1025 1447 1429 934 
Q 1834 422 2522 422 
Q 3209 422 3611 934 
Q 4013 1447 4013 2328 
Q 4013 3213 3611 3725 
Q 3209 4238 2522 4238 
z
M 2522 4750 
Q 3503 4750 4090 4092 
Q 4678 3434 4678 2328 
Q 4678 1225 4090 567 
Q 3503 -91 2522 -91 
Q 1538 -91 948 565 
Q 359 1222 359 2328 
Q 359 3434 948 4092 
Q 1538 4750 2522 4750 
z
" transform="scale(0.015625)"/>
      <path id="DejaVuSans-28" d="M 1984 4856 
Q 1566 4138 1362 3434 
Q 1159 2731 1159 2009 
Q 1159 1288 1364 580 
Q 1569 -128 1984 -844 
L 1484 -844 
Q 1016 -109 783 600 
Q 550 1309 550 2009 
Q 550 2706 781 3412 
Q 1013 4119 1484 4856 
L 1984 4856 
z
" transform="scale(0.015625)"/>
      <path id="DejaVuSans-52" d="M 2841 2188 
Q 3044 2119 3236 1894 
Q 3428 1669 3622 1275 
L 4263 0 
L 3584 0 
L 2988 1197 
Q 2756 1666 2539 1819 
Q 2322 1972 1947 1972 
L 1259 1972 
L 1259 0 
L 628 0 
L 628 4666 
L 2053 4666 
Q 2853 4666 3247 4331 
Q 3641 3997 3641 3322 
Q 3641 2881 3436 2590 
Q 3231 2300 2841 2188 
z
M 1259 4147 
L 1259 2491 
L 2053 2491 
Q 2509 2491 2742 2702 
Q 2975 2913 2975 3322 
Q 2975 3731 2742 3939 
Q 2509 4147 2053 4147 
L 1259 4147 
z
" transform="scale(0.015625)"/>
      <path id="DejaVuSans-29" d="M 513 4856 
L 1013 4856 
Q 1481 4119 1714 3412 
Q 1947 2706 1947 2009 
Q 1947 1309 1714 600 
Q 1481 -109 1013 -844 
L 513 -844 
Q 928 -128 1133 580 
Q 1338 1288 1338 2009 
Q 1338 2731 1133 3434 
Q 928 4138 513 4856 
z
" transform="scale(0.015625)"/>
     </defs>
     <use xlink:href="#DejaVuSans-41"/>
     <use xlink:href="#DejaVuSans-72" transform="translate(68.408203 0)"/>
     <use xlink:href="#DejaVuSans-72" transform="translate(107.771484 0)"/>
     <use xlink:href="#DejaVuSans-69" transform="translate(148.884766 0)"/>
     <use xlink:href="#DejaVuSans-76" transform="translate(176.667969 0)"/>
     <use xlink:href="#DejaVuSans-65" transform="translate(235.847656 0)"/>
     <use xlink:href="#DejaVuSans-64" transform="translate(297.371094 0)"/>
     <use xlink:href="#DejaVuSans-20" transform="translate(360.847656 0)"/>
     <use xlink:href="#DejaVuSans-56" transform="translate(392.634766 0)"/>
     <use xlink:href="#DejaVuSans-65" transform="translate(453.292969 0)"/>
     <use xlink:href="#DejaVuSans-68" transform="translate(514.816406 0)"/>
     <use xlink:href="#DejaVuSans-69" transform="translate(578.195312 0)"/>
     <use xlink:href="#DejaVuSans-63" transform="translate(605.978516 0)"/>
     <use xlink:href="#DejaVuSans-6c" transform="translate(660.958984 0)"/>
     <use xlink:href="#DejaVuSans-65" transform="translate(688.742188 0)"/>
     <use xlink:href="#DejaVuSans-73" transform="translate(750.265625 0)"/>
     <use xlink:href="#DejaVuSans-20" transform="translate(802.365234 0)"/>
     <use xlink:href="#DejaVuSans-4f" transform="translate(834.152344 0)"/>
     <use xlink:href="#DejaVuSans-76" transform="translate(912.863281 0)"/>
     <use xlink:href="#DejaVuSans-65" transform="translate(972.042969 0)"/>
     <use xlink:href="#DejaVuSans-72" transform="translate(1033.566406 0)"/>
     <use xlink:href="#DejaVuSans-20" transform="translate(1074.679688 0)"/>
     <use xlink:href="#DejaVuSans-49" transform="translate(1106.466797 0)"/>
     <use xlink:href="#DejaVuSans-74" transform="translate(1135.958984 0)"/>
     <use xlink:href="#DejaVuSans-65" transform="translate(1175.167969 0)"/>
     <use xlink:href="#DejaVuSans-72" transform="translate(1236.691406 0)"/>
     <use xlink:href="#DejaVuSans-61" transform="translate(1277.804688 0)"/>
     <use xlink:href="#DejaVuSans-74" transform="translate(1339.083984 0)"/>
     <use xlink:href="#DejaVuSans-69" transform="translate(1378.292969 0)"/>
     <use xlink:href="#DejaVuSans-6f" transform="translate(1406.076172 0)"/>
     <use xlink:href="#DejaVuSans-6e" transform="translate(1467.257812 0)"/>
     <use xlink:href="#DejaVuSans-73" transform="translate(1530.636719 0)"/>
     <use xlink:href="#DejaVuSans-20" transform="translate(1582.736328 0)"/>
     <use xlink:href="#DejaVuSans-28" transform="translate(1614.523438 0)"/>
     <use xlink:href="#DejaVuSans-41" transform="translate(1653.537109 0)"/>
     <use xlink:href="#DejaVuSans-6c" transform="translate(1721.945312 0)"/>
     <use xlink:href="#DejaVuSans-6c" transform="translate(1749.728516 0)"/>
     <use xlink:href="#DejaVuSans-20" transform="translate(1777.511719 0)"/>
     <use xlink:href="#DejaVuSans-52" transform="translate(1809.298828 0)"/>
     <use xlink:href="#DejaVuSans-75" transform="translate(1874.28125 0)"/>
     <use xlink:href="#DejaVuSans-6e" transform="translate(1937.660156 0)"/>
     <use xlink:href="#DejaVuSans-73" transform="translate(2001.039062 0)"/>
     <use xlink:href="#DejaVuSans-29" transform="translate(2053.138672 0)"/>
    </g>
   </g>
   <g id="legend_1">
    <g id="patch_7">
     <path d="M 414.480937 295.72 
L 687.96 295.72 
Q 691.56 295.72 691.56 292.12 
L 691.56 161.816875 
Q 691.56 158.216875 687.96 158.216875 
L 414.480937 158.216875 
Q 410.880937 158.216875 410.880937 161.816875 
L 410.880937 292.12 
Q 410.880937 295.72 414.480937 295.72 
z
" style="fill: #ffffff; opacity: 0.8; stroke: #cccccc; stroke-linejoin: miter"/>
    </g>
    <g id="line2d_21">
     <path d="M 418.080937 172.794063 
L 436.080937 172.794063 
L 454.080937 172.794063 
" style="fill: none; stroke: #1f77b4; stroke-width: 1.5; stroke-linecap: square"/>
    </g>
    <g id="text_19">
     <!-- Arrived Vehicles (Run 1) -->
     <g transform="translate(468.480937 179.094063) scale(0.18 -0.18)">
      <use xlink:href="#DejaVuSans-41"/>
      <use xlink:href="#DejaVuSans-72" transform="translate(68.408203 0)"/>
      <use xlink:href="#DejaVuSans-72" transform="translate(107.771484 0)"/>
      <use xlink:href="#DejaVuSans-69" transform="translate(148.884766 0)"/>
      <use xlink:href="#DejaVuSans-76" transform="translate(176.667969 0)"/>
      <use xlink:href="#DejaVuSans-65" transform="translate(235.847656 0)"/>
      <use xlink:href="#DejaVuSans-64" transform="translate(297.371094 0)"/>
      <use xlink:href="#DejaVuSans-20" transform="translate(360.847656 0)"/>
      <use xlink:href="#DejaVuSans-56" transform="translate(392.634766 0)"/>
      <use xlink:href="#DejaVuSans-65" transform="translate(453.292969 0)"/>
      <use xlink:href="#DejaVuSans-68" transform="translate(514.816406 0)"/>
      <use xlink:href="#DejaVuSans-69" transform="translate(578.195312 0)"/>
      <use xlink:href="#DejaVuSans-63" transform="translate(605.978516 0)"/>
      <use xlink:href="#DejaVuSans-6c" transform="translate(660.958984 0)"/>
      <use xlink:href="#DejaVuSans-65" transform="translate(688.742188 0)"/>
      <use xlink:href="#DejaVuSans-73" transform="translate(750.265625 0)"/>
      <use xlink:href="#DejaVuSans-20" transform="translate(802.365234 0)"/>
      <use xlink:href="#DejaVuSans-28" transform="translate(834.152344 0)"/>
      <use xlink:href="#DejaVuSans-52" transform="translate(873.166016 0)"/>
      <use xlink:href="#DejaVuSans-75" transform="translate(938.148438 0)"/>
      <use xlink:href="#DejaVuSans-6e" transform="translate(1001.527344 0)"/>
      <use xlink:href="#DejaVuSans-20" transform="translate(1064.90625 0)"/>
      <use xlink:href="#DejaVuSans-31" transform="translate(1096.693359 0)"/>
      <use xlink:href="#DejaVuSans-29" transform="translate(1160.316406 0)"/>
     </g>
    </g>
    <g id="line2d_22">
     <path d="M 418.080937 199.214688 
L 436.080937 199.214688 
L 454.080937 199.214688 
" style="fill: none; stroke: #ff7f0e; stroke-width: 1.5; stroke-linecap: square"/>
    </g>
    <g id="text_20">
     <!-- Arrived Vehicles (Run 2) -->
     <g transform="translate(468.480937 205.514688) scale(0.18 -0.18)">
      <use xlink:href="#DejaVuSans-41"/>
      <use xlink:href="#DejaVuSans-72" transform="translate(68.408203 0)"/>
      <use xlink:href="#DejaVuSans-72" transform="translate(107.771484 0)"/>
      <use xlink:href="#DejaVuSans-69" transform="translate(148.884766 0)"/>
      <use xlink:href="#DejaVuSans-76" transform="translate(176.667969 0)"/>
      <use xlink:href="#DejaVuSans-65" transform="translate(235.847656 0)"/>
      <use xlink:href="#DejaVuSans-64" transform="translate(297.371094 0)"/>
      <use xlink:href="#DejaVuSans-20" transform="translate(360.847656 0)"/>
      <use xlink:href="#DejaVuSans-56" transform="translate(392.634766 0)"/>
      <use xlink:href="#DejaVuSans-65" transform="translate(453.292969 0)"/>
      <use xlink:href="#DejaVuSans-68" transform="translate(514.816406 0)"/>
      <use xlink:href="#DejaVuSans-69" transform="translate(578.195312 0)"/>
      <use xlink:href="#DejaVuSans-63" transform="translate(605.978516 0)"/>
      <use xlink:href="#DejaVuSans-6c" transform="translate(660.958984 0)"/>
      <use xlink:href="#DejaVuSans-65" transform="translate(688.742188 0)"/>
      <use xlink:href="#DejaVuSans-73" transform="translate(750.265625 0)"/>
      <use xlink:href="#DejaVuSans-20" transform="translate(802.365234 0)"/>
      <use xlink:href="#DejaVuSans-28" transform="translate(834.152344 0)"/>
      <use xlink:href="#DejaVuSans-52" transform="translate(873.166016 0)"/>
      <use xlink:href="#DejaVuSans-75" transform="translate(938.148438 0)"/>
      <use xlink:href="#DejaVuSans-6e" transform="translate(1001.527344 0)"/>
      <use xlink:href="#DejaVuSans-20" transform="translate(1064.90625 0)"/>
      <use xlink:href="#DejaVuSans-32" transform="translate(1096.693359 0)"/>
      <use xlink:href="#DejaVuSans-29" transform="translate(1160.316406 0)"/>
     </g>
    </g>
    <g id="line2d_23">
     <path d="M 418.080937 225.635313 
L 436.080937 225.635313 
L 454.080937 225.635313 
" style="fill: none; stroke: #2ca02c; stroke-width: 1.5; stroke-linecap: square"/>
    </g>
    <g id="text_21">
     <!-- Arrived Vehicles (Run 3) -->
     <g transform="translate(468.480937 231.935313) scale(0.18 -0.18)">
      <use xlink:href="#DejaVuSans-41"/>
      <use xlink:href="#DejaVuSans-72" transform="translate(68.408203 0)"/>
      <use xlink:href="#DejaVuSans-72" transform="translate(107.771484 0)"/>
      <use xlink:href="#DejaVuSans-69" transform="translate(148.884766 0)"/>
      <use xlink:href="#DejaVuSans-76" transform="translate(176.667969 0)"/>
      <use xlink:href="#DejaVuSans-65" transform="translate(235.847656 0)"/>
      <use xlink:href="#DejaVuSans-64" transform="translate(297.371094 0)"/>
      <use xlink:href="#DejaVuSans-20" transform="translate(360.847656 0)"/>
      <use xlink:href="#DejaVuSans-56" transform="translate(392.634766 0)"/>
      <use xlink:href="#DejaVuSans-65" transform="translate(453.292969 0)"/>
      <use xlink:href="#DejaVuSans-68" transform="translate(514.816406 0)"/>
      <use xlink:href="#DejaVuSans-69" transform="translate(578.195312 0)"/>
      <use xlink:href="#DejaVuSans-63" transform="translate(605.978516 0)"/>
      <use xlink:href="#DejaVuSans-6c" transform="translate(660.958984 0)"/>
      <use xlink:href="#DejaVuSans-65" transform="translate(688.742188 0)"/>
      <use xlink:href="#DejaVuSans-73" transform="translate(750.265625 0)"/>
      <use xlink:href="#DejaVuSans-20" transform="translate(802.365234 0)"/>
      <use xlink:href="#DejaVuSans-28" transform="translate(834.152344 0)"/>
      <use xlink:href="#DejaVuSans-52" transform="translate(873.166016 0)"/>
      <use xlink:href="#DejaVuSans-75" transform="translate(938.148438 0)"/>
      <use xlink:href="#DejaVuSans-6e" transform="translate(1001.527344 0)"/>
      <use xlink:href="#DejaVuSans-20" transform="translate(1064.90625 0)"/>
      <use xlink:href="#DejaVuSans-33" transform="translate(1096.693359 0)"/>
      <use xlink:href="#DejaVuSans-29" transform="translate(1160.316406 0)"/>
     </g>
    </g>
    <g id="line2d_24">
     <path d="M 418.080937 252.055938 
L 436.080937 252.055938 
L 454.080937 252.055938 
" style="fill: none; stroke: #d62728; stroke-width: 1.5; stroke-linecap: square"/>
    </g>
    <g id="text_22">
     <!-- Arrived Vehicles (Run 4) -->
     <g transform="translate(468.480937 258.355938) scale(0.18 -0.18)">
      <use xlink:href="#DejaVuSans-41"/>
      <use xlink:href="#DejaVuSans-72" transform="translate(68.408203 0)"/>
      <use xlink:href="#DejaVuSans-72" transform="translate(107.771484 0)"/>
      <use xlink:href="#DejaVuSans-69" transform="translate(148.884766 0)"/>
      <use xlink:href="#DejaVuSans-76" transform="translate(176.667969 0)"/>
      <use xlink:href="#DejaVuSans-65" transform="translate(235.847656 0)"/>
      <use xlink:href="#DejaVuSans-64" transform="translate(297.371094 0)"/>
      <use xlink:href="#DejaVuSans-20" transform="translate(360.847656 0)"/>
      <use xlink:href="#DejaVuSans-56" transform="translate(392.634766 0)"/>
      <use xlink:href="#DejaVuSans-65" transform="translate(453.292969 0)"/>
      <use xlink:href="#DejaVuSans-68" transform="translate(514.816406 0)"/>
      <use xlink:href="#DejaVuSans-69" transform="translate(578.195312 0)"/>
      <use xlink:href="#DejaVuSans-63" transform="translate(605.978516 0)"/>
      <use xlink:href="#DejaVuSans-6c" transform="translate(660.958984 0)"/>
      <use xlink:href="#DejaVuSans-65" transform="translate(688.742188 0)"/>
      <use xlink:href="#DejaVuSans-73" transform="translate(750.265625 0)"/>
      <use xlink:href="#DejaVuSans-20" transform="translate(802.365234 0)"/>
      <use xlink:href="#DejaVuSans-28" transform="translate(834.152344 0)"/>
      <use xlink:href="#DejaVuSans-52" transform="translate(873.166016 0)"/>
      <use xlink:href="#DejaVuSans-75" transform="translate(938.148438 0)"/>
      <use xlink:href="#DejaVuSans-6e" transform="translate(1001.527344 0)"/>
      <use xlink:href="#DejaVuSans-20" transform="translate(1064.90625 0)"/>
      <use xlink:href="#DejaVuSans-34" transform="translate(1096.693359 0)"/>
      <use xlink:href="#DejaVuSans-29" transform="translate(1160.316406 0)"/>
     </g>
    </g>
    <g id="line2d_25">
     <path d="M 418.080937 278.476563 
L 436.080937 278.476563 
L 454.080937 278.476563 
" style="fill: none; stroke: #9467bd; stroke-width: 1.5; stroke-linecap: square"/>
    </g>
    <g id="text_23">
     <!-- Arrived Vehicles (Run 5) -->
     <g transform="translate(468.480937 284.776563) scale(0.18 -0.18)">
      <defs>
       <path id="DejaVuSans-35" d="M 691 4666 
L 3169 4666 
L 3169 4134 
L 1269 4134 
L 1269 2991 
Q 1406 3038 1543 3061 
Q 1681 3084 1819 3084 
Q 2600 3084 3056 2656 
Q 3513 2228 3513 1497 
Q 3513 744 3044 326 
Q 2575 -91 1722 -91 
Q 1428 -91 1123 -41 
Q 819 9 494 109 
L 494 744 
Q 775 591 1075 516 
Q 1375 441 1709 441 
Q 2250 441 2565 725 
Q 2881 1009 2881 1497 
Q 2881 1984 2565 2268 
Q 2250 2553 1709 2553 
Q 1456 2553 1204 2497 
Q 953 2441 691 2322 
L 691 4666 
z
" transform="scale(0.015625)"/>
      </defs>
      <use xlink:href="#DejaVuSans-41"/>
      <use xlink:href="#DejaVuSans-72" transform="translate(68.408203 0)"/>
      <use xlink:href="#DejaVuSans-72" transform="translate(107.771484 0)"/>
      <use xlink:href="#DejaVuSans-69" transform="translate(148.884766 0)"/>
      <use xlink:href="#DejaVuSans-76" transform="translate(176.667969 0)"/>
      <use xlink:href="#DejaVuSans-65" transform="translate(235.847656 0)"/>
      <use xlink:href="#DejaVuSans-64" transform="translate(297.371094 0)"/>
      <use xlink:href="#DejaVuSans-20" transform="translate(360.847656 0)"/>
      <use xlink:href="#DejaVuSans-56" transform="translate(392.634766 0)"/>
      <use xlink:href="#DejaVuSans-65" transform="translate(453.292969 0)"/>
      <use xlink:href="#DejaVuSans-68" transform="translate(514.816406 0)"/>
      <use xlink:href="#DejaVuSans-69" transform="translate(578.195312 0)"/>
      <use xlink:href="#DejaVuSans-63" transform="translate(605.978516 0)"/>
      <use xlink:href="#DejaVuSans-6c" transform="translate(660.958984 0)"/>
      <use xlink:href="#DejaVuSans-65" transform="translate(688.742188 0)"/>
      <use xlink:href="#DejaVuSans-73" transform="translate(750.265625 0)"/>
      <use xlink:href="#DejaVuSans-20" transform="translate(802.365234 0)"/>
      <use xlink:href="#DejaVuSans-28" transform="translate(834.152344 0)"/>
      <use xlink:href="#DejaVuSans-52" transform="translate(873.166016 0)"/>
      <use xlink:href="#DejaVuSans-75" transform="translate(938.148438 0)"/>
      <use xlink:href="#DejaVuSans-6e" transform="translate(1001.527344 0)"/>
      <use xlink:href="#DejaVuSans-20" transform="translate(1064.90625 0)"/>
      <use xlink:href="#DejaVuSans-35" transform="translate(1096.693359 0)"/>
      <use xlink:href="#DejaVuSans-29" transform="translate(1160.316406 0)"/>
     </g>
    </g>
   </g>
  </g>
  <g id="axes_2">
   <g id="patch_8">
    <path d="M 82.19 655 
L 700.56 655 
L 700.56 392.28 
L 82.19 392.28 
z
" style="fill: #ffffff"/>
   </g>
   <g id="matplotlib.axis_3">
    <g id="xtick_11">
     <g id="line2d_26">
      <g>
       <use xlink:href="#m9ddd083b1b" x="82.19" y="655" style="stroke: #000000; stroke-width: 0.8"/>
      </g>
     </g>
     <g id="text_24">
      <!-- 0 -->
      <g transform="translate(76.46375 675.677187) scale(0.18 -0.18)">
       <use xlink:href="#DejaVuSans-30"/>
      </g>
     </g>
    </g>
    <g id="xtick_12">
     <g id="line2d_27">
      <g>
       <use xlink:href="#m9ddd083b1b" x="147.281579" y="655" style="stroke: #000000; stroke-width: 0.8"/>
      </g>
     </g>
     <g id="text_25">
      <!-- 2 -->
      <g transform="translate(141.555329 675.677187) scale(0.18 -0.18)">
       <use xlink:href="#DejaVuSans-32"/>
      </g>
     </g>
    </g>
    <g id="xtick_13">
     <g id="line2d_28">
      <g>
       <use xlink:href="#m9ddd083b1b" x="212.373158" y="655" style="stroke: #000000; stroke-width: 0.8"/>
      </g>
     </g>
     <g id="text_26">
      <!-- 4 -->
      <g transform="translate(206.646908 675.677187) scale(0.18 -0.18)">
       <use xlink:href="#DejaVuSans-34"/>
      </g>
     </g>
    </g>
    <g id="xtick_14">
     <g id="line2d_29">
      <g>
       <use xlink:href="#m9ddd083b1b" x="277.464737" y="655" style="stroke: #000000; stroke-width: 0.8"/>
      </g>
     </g>
     <g id="text_27">
      <!-- 6 -->
      <g transform="translate(271.738487 675.677187) scale(0.18 -0.18)">
       <use xlink:href="#DejaVuSans-36"/>
      </g>
     </g>
    </g>
    <g id="xtick_15">
     <g id="line2d_30">
      <g>
       <use xlink:href="#m9ddd083b1b" x="342.556316" y="655" style="stroke: #000000; stroke-width: 0.8"/>
      </g>
     </g>
     <g id="text_28">
      <!-- 8 -->
      <g transform="translate(336.830066 675.677187) scale(0.18 -0.18)">
       <use xlink:href="#DejaVuSans-38"/>
      </g>
     </g>
    </g>
    <g id="xtick_16">
     <g id="line2d_31">
      <g>
       <use xlink:href="#m9ddd083b1b" x="407.647895" y="655" style="stroke: #000000; stroke-width: 0.8"/>
      </g>
     </g>
     <g id="text_29">
      <!-- 10 -->
      <g transform="translate(396.195395 675.677187) scale(0.18 -0.18)">
       <use xlink:href="#DejaVuSans-31"/>
       <use xlink:href="#DejaVuSans-30" transform="translate(63.623047 0)"/>
      </g>
     </g>
    </g>
    <g id="xtick_17">
     <g id="line2d_32">
      <g>
       <use xlink:href="#m9ddd083b1b" x="472.739474" y="655" style="stroke: #000000; stroke-width: 0.8"/>
      </g>
     </g>
     <g id="text_30">
      <!-- 12 -->
      <g transform="translate(461.286974 675.677187) scale(0.18 -0.18)">
       <use xlink:href="#DejaVuSans-31"/>
       <use xlink:href="#DejaVuSans-32" transform="translate(63.623047 0)"/>
      </g>
     </g>
    </g>
    <g id="xtick_18">
     <g id="line2d_33">
      <g>
       <use xlink:href="#m9ddd083b1b" x="537.831053" y="655" style="stroke: #000000; stroke-width: 0.8"/>
      </g>
     </g>
     <g id="text_31">
      <!-- 14 -->
      <g transform="translate(526.378553 675.677187) scale(0.18 -0.18)">
       <use xlink:href="#DejaVuSans-31"/>
       <use xlink:href="#DejaVuSans-34" transform="translate(63.623047 0)"/>
      </g>
     </g>
    </g>
    <g id="xtick_19">
     <g id="line2d_34">
      <g>
       <use xlink:href="#m9ddd083b1b" x="602.922632" y="655" style="stroke: #000000; stroke-width: 0.8"/>
      </g>
     </g>
     <g id="text_32">
      <!-- 16 -->
      <g transform="translate(591.470132 675.677187) scale(0.18 -0.18)">
       <use xlink:href="#DejaVuSans-31"/>
       <use xlink:href="#DejaVuSans-36" transform="translate(63.623047 0)"/>
      </g>
     </g>
    </g>
    <g id="xtick_20">
     <g id="line2d_35">
      <g>
       <use xlink:href="#m9ddd083b1b" x="668.014211" y="655" style="stroke: #000000; stroke-width: 0.8"/>
      </g>
     </g>
     <g id="text_33">
      <!-- 18 -->
      <g transform="translate(656.561711 675.677187) scale(0.18 -0.18)">
       <use xlink:href="#DejaVuSans-31"/>
       <use xlink:href="#DejaVuSans-38" transform="translate(63.623047 0)"/>
      </g>
     </g>
    </g>
    <g id="text_34">
     <!-- Iteration -->
     <g transform="translate(353.199531 697.097813) scale(0.18 -0.18)">
      <use xlink:href="#DejaVuSans-49"/>
      <use xlink:href="#DejaVuSans-74" transform="translate(29.492188 0)"/>
      <use xlink:href="#DejaVuSans-65" transform="translate(68.701172 0)"/>
      <use xlink:href="#DejaVuSans-72" transform="translate(130.224609 0)"/>
      <use xlink:href="#DejaVuSans-61" transform="translate(171.337891 0)"/>
      <use xlink:href="#DejaVuSans-74" transform="translate(232.617188 0)"/>
      <use xlink:href="#DejaVuSans-69" transform="translate(271.826172 0)"/>
      <use xlink:href="#DejaVuSans-6f" transform="translate(299.609375 0)"/>
      <use xlink:href="#DejaVuSans-6e" transform="translate(360.791016 0)"/>
     </g>
    </g>
   </g>
   <g id="matplotlib.axis_4">
    <g id="ytick_6">
     <g id="line2d_36">
      <g>
       <use xlink:href="#mdd89a7ac53" x="82.19" y="651.607134" style="stroke: #000000; stroke-width: 0.8"/>
      </g>
     </g>
     <g id="text_35">
      <!-- 60 -->
      <g transform="translate(52.285 658.445728) scale(0.18 -0.18)">
       <use xlink:href="#DejaVuSans-36"/>
       <use xlink:href="#DejaVuSans-30" transform="translate(63.623047 0)"/>
      </g>
     </g>
    </g>
    <g id="ytick_7">
     <g id="line2d_37">
      <g>
       <use xlink:href="#mdd89a7ac53" x="82.19" y="598.176181" style="stroke: #000000; stroke-width: 0.8"/>
      </g>
     </g>
     <g id="text_36">
      <!-- 80 -->
      <g transform="translate(52.285 605.014774) scale(0.18 -0.18)">
       <use xlink:href="#DejaVuSans-38"/>
       <use xlink:href="#DejaVuSans-30" transform="translate(63.623047 0)"/>
      </g>
     </g>
    </g>
    <g id="ytick_8">
     <g id="line2d_38">
      <g>
       <use xlink:href="#mdd89a7ac53" x="82.19" y="544.745227" style="stroke: #000000; stroke-width: 0.8"/>
      </g>
     </g>
     <g id="text_37">
      <!-- 100 -->
      <g transform="translate(40.8325 551.583821) scale(0.18 -0.18)">
       <use xlink:href="#DejaVuSans-31"/>
       <use xlink:href="#DejaVuSans-30" transform="translate(63.623047 0)"/>
       <use xlink:href="#DejaVuSans-30" transform="translate(127.246094 0)"/>
      </g>
     </g>
    </g>
    <g id="ytick_9">
     <g id="line2d_39">
      <g>
       <use xlink:href="#mdd89a7ac53" x="82.19" y="491.314273" style="stroke: #000000; stroke-width: 0.8"/>
      </g>
     </g>
     <g id="text_38">
      <!-- 120 -->
      <g transform="translate(40.8325 498.152867) scale(0.18 -0.18)">
       <use xlink:href="#DejaVuSans-31"/>
       <use xlink:href="#DejaVuSans-32" transform="translate(63.623047 0)"/>
       <use xlink:href="#DejaVuSans-30" transform="translate(127.246094 0)"/>
      </g>
     </g>
    </g>
    <g id="ytick_10">
     <g id="line2d_40">
      <g>
       <use xlink:href="#mdd89a7ac53" x="82.19" y="437.883319" style="stroke: #000000; stroke-width: 0.8"/>
      </g>
     </g>
     <g id="text_39">
      <!-- 140 -->
      <g transform="translate(40.8325 444.721913) scale(0.18 -0.18)">
       <use xlink:href="#DejaVuSans-31"/>
       <use xlink:href="#DejaVuSans-34" transform="translate(63.623047 0)"/>
       <use xlink:href="#DejaVuSans-30" transform="translate(127.246094 0)"/>
      </g>
     </g>
    </g>
    <g id="text_40">
     <!-- Number of Vehicles -->
     <g transform="translate(33.089063 611.066563) rotate(-90) scale(0.18 -0.18)">
      <use xlink:href="#DejaVuSans-4e"/>
      <use xlink:href="#DejaVuSans-75" transform="translate(74.804688 0)"/>
      <use xlink:href="#DejaVuSans-6d" transform="translate(138.183594 0)"/>
      <use xlink:href="#DejaVuSans-62" transform="translate(235.595703 0)"/>
      <use xlink:href="#DejaVuSans-65" transform="translate(299.072266 0)"/>
      <use xlink:href="#DejaVuSans-72" transform="translate(360.595703 0)"/>
      <use xlink:href="#DejaVuSans-20" transform="translate(401.708984 0)"/>
      <use xlink:href="#DejaVuSans-6f" transform="translate(433.496094 0)"/>
      <use xlink:href="#DejaVuSans-66" transform="translate(494.677734 0)"/>
      <use xlink:href="#DejaVuSans-20" transform="translate(529.882812 0)"/>
      <use xlink:href="#DejaVuSans-56" transform="translate(561.669922 0)"/>
      <use xlink:href="#DejaVuSans-65" transform="translate(622.328125 0)"/>
      <use xlink:href="#DejaVuSans-68" transform="translate(683.851562 0)"/>
      <use xlink:href="#DejaVuSans-69" transform="translate(747.230469 0)"/>
      <use xlink:href="#DejaVuSans-63" transform="translate(775.013672 0)"/>
      <use xlink:href="#DejaVuSans-6c" transform="translate(829.994141 0)"/>
      <use xlink:href="#DejaVuSans-65" transform="translate(857.777344 0)"/>
      <use xlink:href="#DejaVuSans-73" transform="translate(919.300781 0)"/>
     </g>
    </g>
   </g>
   <g id="line2d_41">
    <path d="M 82.19 486.238332 
L 114.735789 545.012382 
L 147.281579 584.818442 
L 179.827368 621.952955 
L 212.373158 632.371991 
L 244.918947 633.707765 
L 277.464737 638.516551 
L 310.010526 635.310694 
L 342.556316 634.242074 
L 375.102105 635.310694 
L 407.647895 632.104836 
L 440.193684 640.119479 
L 472.739474 632.639146 
L 505.285263 633.173455 
L 537.831053 640.119479 
L 570.376842 641.989563 
L 602.922632 640.920944 
L 635.468421 636.646467 
L 668.014211 633.97492 
L 700.56 636.379313 
" clip-path="url(#p3b24386165)" style="fill: none; stroke: #1f77b4; stroke-width: 1.5; stroke-linecap: square"/>
   </g>
   <g id="line2d_42">
    <path d="M 82.19 404.488973 
L 114.735789 404.221818 
L 147.281579 453.378296 
L 179.827368 539.134977 
L 212.373158 569.323466 
L 244.918947 573.330787 
L 277.464737 596.038942 
L 310.010526 596.573252 
L 342.556316 612.068229 
L 375.102105 625.693122 
L 407.647895 628.898979 
L 440.193684 628.36467 
L 472.739474 629.967598 
L 505.285263 639.05086 
L 537.831053 634.242074 
L 570.376842 640.119479 
L 602.922632 637.982241 
L 635.468421 632.639146 
L 668.014211 637.180777 
L 700.56 637.715086 
" clip-path="url(#p3b24386165)" style="fill: none; stroke: #ff7f0e; stroke-width: 1.5; stroke-linecap: square"/>
   </g>
   <g id="line2d_43">
    <path d="M 82.19 460.057165 
L 114.735789 521.769917 
L 147.281579 546.882465 
L 179.827368 556.232882 
L 212.373158 551.691251 
L 244.918947 560.774513 
L 277.464737 563.446061 
L 310.010526 557.301501 
L 342.556316 575.20087 
L 375.102105 600.313419 
L 407.647895 583.749823 
L 440.193684 621.151491 
L 472.739474 633.44061 
L 505.285263 634.509229 
L 537.831053 625.693122 
L 570.376842 626.494586 
L 602.922632 636.112158 
L 635.468421 635.310694 
L 668.014211 637.982241 
L 700.56 642.791027 
" clip-path="url(#p3b24386165)" style="fill: none; stroke: #2ca02c; stroke-width: 1.5; stroke-linecap: square"/>
   </g>
   <g id="line2d_44">
    <path d="M 82.19 461.660094 
L 114.735789 497.458833 
L 147.281579 499.596071 
L 179.827368 542.340834 
L 212.373158 553.561334 
L 244.918947 547.416774 
L 277.464737 539.936441 
L 310.010526 551.691251 
L 342.556316 560.774513 
L 375.102105 570.926394 
L 407.647895 606.190824 
L 440.193684 623.823038 
L 472.739474 625.693122 
L 505.285263 600.847728 
L 537.831053 615.808395 
L 570.376842 633.97492 
L 602.922632 619.548562 
L 635.468421 621.418646 
L 668.014211 632.104836 
L 700.56 631.303372 
" clip-path="url(#p3b24386165)" style="fill: none; stroke: #d62728; stroke-width: 1.5; stroke-linecap: square"/>
   </g>
   <g id="line2d_45">
    <path d="M 82.19 495.321594 
L 114.735789 492.382892 
L 147.281579 516.961131 
L 179.827368 598.443335 
L 212.373158 617.945634 
L 244.918947 623.823038 
L 277.464737 613.671157 
L 310.010526 616.07555 
L 342.556316 626.227431 
L 375.102105 634.242074 
L 407.647895 633.97492 
L 440.193684 640.653789 
L 472.739474 640.920944 
L 505.285263 638.249396 
L 537.831053 629.433289 
L 570.376842 637.447932 
L 602.922632 638.783706 
L 635.468421 643.058182 
L 668.014211 639.318015 
L 700.56 639.58517 
" clip-path="url(#p3b24386165)" style="fill: none; stroke: #9467bd; stroke-width: 1.5; stroke-linecap: square"/>
   </g>
   <g id="patch_9">
    <path d="M 82.19 655 
L 82.19 392.28 
" style="fill: none; stroke: #000000; stroke-width: 0.8; stroke-linejoin: miter; stroke-linecap: square"/>
   </g>
   <g id="patch_10">
    <path d="M 700.56 655 
L 700.56 392.28 
" style="fill: none; stroke: #000000; stroke-width: 0.8; stroke-linejoin: miter; stroke-linecap: square"/>
   </g>
   <g id="patch_11">
    <path d="M 82.19 655 
L 700.56 655 
" style="fill: none; stroke: #000000; stroke-width: 0.8; stroke-linejoin: miter; stroke-linecap: square"/>
   </g>
   <g id="patch_12">
    <path d="M 82.19 392.28 
L 700.56 392.28 
" style="fill: none; stroke: #000000; stroke-width: 0.8; stroke-linejoin: miter; stroke-linecap: square"/>
   </g>
   <g id="text_41">
    <!-- Non-Arrived Vehicles over Iterations (All Runs) -->
    <g transform="translate(142.13125 386.28) scale(0.216 -0.216)">
     <defs>
      <path id="DejaVuSans-2d" d="M 313 2009 
L 1997 2009 
L 1997 1497 
L 313 1497 
L 313 2009 
z
" transform="scale(0.015625)"/>
     </defs>
     <use xlink:href="#DejaVuSans-4e"/>
     <use xlink:href="#DejaVuSans-6f" transform="translate(74.804688 0)"/>
     <use xlink:href="#DejaVuSans-6e" transform="translate(135.986328 0)"/>
     <use xlink:href="#DejaVuSans-2d" transform="translate(199.365234 0)"/>
     <use xlink:href="#DejaVuSans-41" transform="translate(233.199219 0)"/>
     <use xlink:href="#DejaVuSans-72" transform="translate(301.607422 0)"/>
     <use xlink:href="#DejaVuSans-72" transform="translate(340.970703 0)"/>
     <use xlink:href="#DejaVuSans-69" transform="translate(382.083984 0)"/>
     <use xlink:href="#DejaVuSans-76" transform="translate(409.867188 0)"/>
     <use xlink:href="#DejaVuSans-65" transform="translate(469.046875 0)"/>
     <use xlink:href="#DejaVuSans-64" transform="translate(530.570312 0)"/>
     <use xlink:href="#DejaVuSans-20" transform="translate(594.046875 0)"/>
     <use xlink:href="#DejaVuSans-56" transform="translate(625.833984 0)"/>
     <use xlink:href="#DejaVuSans-65" transform="translate(686.492188 0)"/>
     <use xlink:href="#DejaVuSans-68" transform="translate(748.015625 0)"/>
     <use xlink:href="#DejaVuSans-69" transform="translate(811.394531 0)"/>
     <use xlink:href="#DejaVuSans-63" transform="translate(839.177734 0)"/>
     <use xlink:href="#DejaVuSans-6c" transform="translate(894.158203 0)"/>
     <use xlink:href="#DejaVuSans-65" transform="translate(921.941406 0)"/>
     <use xlink:href="#DejaVuSans-73" transform="translate(983.464844 0)"/>
     <use xlink:href="#DejaVuSans-20" transform="translate(1035.564453 0)"/>
     <use xlink:href="#DejaVuSans-6f" transform="translate(1067.351562 0)"/>
     <use xlink:href="#DejaVuSans-76" transform="translate(1128.533203 0)"/>
     <use xlink:href="#DejaVuSans-65" transform="translate(1187.712891 0)"/>
     <use xlink:href="#DejaVuSans-72" transform="translate(1249.236328 0)"/>
     <use xlink:href="#DejaVuSans-20" transform="translate(1290.349609 0)"/>
     <use xlink:href="#DejaVuSans-49" transform="translate(1322.136719 0)"/>
     <use xlink:href="#DejaVuSans-74" transform="translate(1351.628906 0)"/>
     <use xlink:href="#DejaVuSans-65" transform="translate(1390.837891 0)"/>
     <use xlink:href="#DejaVuSans-72" transform="translate(1452.361328 0)"/>
     <use xlink:href="#DejaVuSans-61" transform="translate(1493.474609 0)"/>
     <use xlink:href="#DejaVuSans-74" transform="translate(1554.753906 0)"/>
     <use xlink:href="#DejaVuSans-69" transform="translate(1593.962891 0)"/>
     <use xlink:href="#DejaVuSans-6f" transform="translate(1621.746094 0)"/>
     <use xlink:href="#DejaVuSans-6e" transform="translate(1682.927734 0)"/>
     <use xlink:href="#DejaVuSans-73" transform="translate(1746.306641 0)"/>
     <use xlink:href="#DejaVuSans-20" transform="translate(1798.40625 0)"/>
     <use xlink:href="#DejaVuSans-28" transform="translate(1830.193359 0)"/>
     <use xlink:href="#DejaVuSans-41" transform="translate(1869.207031 0)"/>
     <use xlink:href="#DejaVuSans-6c" transform="translate(1937.615234 0)"/>
     <use xlink:href="#DejaVuSans-6c" transform="translate(1965.398438 0)"/>
     <use xlink:href="#DejaVuSans-20" transform="translate(1993.181641 0)"/>
     <use xlink:href="#DejaVuSans-52" transform="translate(2024.96875 0)"/>
     <use xlink:href="#DejaVuSans-75" transform="translate(2089.951172 0)"/>
     <use xlink:href="#DejaVuSans-6e" transform="translate(2153.330078 0)"/>
     <use xlink:href="#DejaVuSans-73" transform="translate(2216.708984 0)"/>
     <use xlink:href="#DejaVuSans-29" transform="translate(2268.808594 0)"/>
    </g>
   </g>
   <g id="legend_2">
    <g id="patch_13">
     <path d="M 372.504375 538.783125 
L 687.96 538.783125 
Q 691.56 538.783125 691.56 535.183125 
L 691.56 404.88 
Q 691.56 401.28 687.96 401.28 
L 372.504375 401.28 
Q 368.904375 401.28 368.904375 404.88 
L 368.904375 535.183125 
Q 368.904375 538.783125 372.504375 538.783125 
z
" style="fill: #ffffff; opacity: 0.8; stroke: #cccccc; stroke-linejoin: miter"/>
    </g>
    <g id="line2d_46">
     <path d="M 376.104375 415.857188 
L 394.104375 415.857188 
L 412.104375 415.857188 
" style="fill: none; stroke: #1f77b4; stroke-width: 1.5; stroke-linecap: square"/>
    </g>
    <g id="text_42">
     <!-- Non-Arrived Vehicles (Run 1) -->
     <g transform="translate(426.504375 422.157188) scale(0.18 -0.18)">
      <use xlink:href="#DejaVuSans-4e"/>
      <use xlink:href="#DejaVuSans-6f" transform="translate(74.804688 0)"/>
      <use xlink:href="#DejaVuSans-6e" transform="translate(135.986328 0)"/>
      <use xlink:href="#DejaVuSans-2d" transform="translate(199.365234 0)"/>
      <use xlink:href="#DejaVuSans-41" transform="translate(233.199219 0)"/>
      <use xlink:href="#DejaVuSans-72" transform="translate(301.607422 0)"/>
      <use xlink:href="#DejaVuSans-72" transform="translate(340.970703 0)"/>
      <use xlink:href="#DejaVuSans-69" transform="translate(382.083984 0)"/>
      <use xlink:href="#DejaVuSans-76" transform="translate(409.867188 0)"/>
      <use xlink:href="#DejaVuSans-65" transform="translate(469.046875 0)"/>
      <use xlink:href="#DejaVuSans-64" transform="translate(530.570312 0)"/>
      <use xlink:href="#DejaVuSans-20" transform="translate(594.046875 0)"/>
      <use xlink:href="#DejaVuSans-56" transform="translate(625.833984 0)"/>
      <use xlink:href="#DejaVuSans-65" transform="translate(686.492188 0)"/>
      <use xlink:href="#DejaVuSans-68" transform="translate(748.015625 0)"/>
      <use xlink:href="#DejaVuSans-69" transform="translate(811.394531 0)"/>
      <use xlink:href="#DejaVuSans-63" transform="translate(839.177734 0)"/>
      <use xlink:href="#DejaVuSans-6c" transform="translate(894.158203 0)"/>
      <use xlink:href="#DejaVuSans-65" transform="translate(921.941406 0)"/>
      <use xlink:href="#DejaVuSans-73" transform="translate(983.464844 0)"/>
      <use xlink:href="#DejaVuSans-20" transform="translate(1035.564453 0)"/>
      <use xlink:href="#DejaVuSans-28" transform="translate(1067.351562 0)"/>
      <use xlink:href="#DejaVuSans-52" transform="translate(1106.365234 0)"/>
      <use xlink:href="#DejaVuSans-75" transform="translate(1171.347656 0)"/>
      <use xlink:href="#DejaVuSans-6e" transform="translate(1234.726562 0)"/>
      <use xlink:href="#DejaVuSans-20" transform="translate(1298.105469 0)"/>
      <use xlink:href="#DejaVuSans-31" transform="translate(1329.892578 0)"/>
      <use xlink:href="#DejaVuSans-29" transform="translate(1393.515625 0)"/>
     </g>
    </g>
    <g id="line2d_47">
     <path d="M 376.104375 442.277813 
L 394.104375 442.277813 
L 412.104375 442.277813 
" style="fill: none; stroke: #ff7f0e; stroke-width: 1.5; stroke-linecap: square"/>
    </g>
    <g id="text_43">
     <!-- Non-Arrived Vehicles (Run 2) -->
     <g transform="translate(426.504375 448.577813) scale(0.18 -0.18)">
      <use xlink:href="#DejaVuSans-4e"/>
      <use xlink:href="#DejaVuSans-6f" transform="translate(74.804688 0)"/>
      <use xlink:href="#DejaVuSans-6e" transform="translate(135.986328 0)"/>
      <use xlink:href="#DejaVuSans-2d" transform="translate(199.365234 0)"/>
      <use xlink:href="#DejaVuSans-41" transform="translate(233.199219 0)"/>
      <use xlink:href="#DejaVuSans-72" transform="translate(301.607422 0)"/>
      <use xlink:href="#DejaVuSans-72" transform="translate(340.970703 0)"/>
      <use xlink:href="#DejaVuSans-69" transform="translate(382.083984 0)"/>
      <use xlink:href="#DejaVuSans-76" transform="translate(409.867188 0)"/>
      <use xlink:href="#DejaVuSans-65" transform="translate(469.046875 0)"/>
      <use xlink:href="#DejaVuSans-64" transform="translate(530.570312 0)"/>
      <use xlink:href="#DejaVuSans-20" transform="translate(594.046875 0)"/>
      <use xlink:href="#DejaVuSans-56" transform="translate(625.833984 0)"/>
      <use xlink:href="#DejaVuSans-65" transform="translate(686.492188 0)"/>
      <use xlink:href="#DejaVuSans-68" transform="translate(748.015625 0)"/>
      <use xlink:href="#DejaVuSans-69" transform="translate(811.394531 0)"/>
      <use xlink:href="#DejaVuSans-63" transform="translate(839.177734 0)"/>
      <use xlink:href="#DejaVuSans-6c" transform="translate(894.158203 0)"/>
      <use xlink:href="#DejaVuSans-65" transform="translate(921.941406 0)"/>
      <use xlink:href="#DejaVuSans-73" transform="translate(983.464844 0)"/>
      <use xlink:href="#DejaVuSans-20" transform="translate(1035.564453 0)"/>
      <use xlink:href="#DejaVuSans-28" transform="translate(1067.351562 0)"/>
      <use xlink:href="#DejaVuSans-52" transform="translate(1106.365234 0)"/>
      <use xlink:href="#DejaVuSans-75" transform="translate(1171.347656 0)"/>
      <use xlink:href="#DejaVuSans-6e" transform="translate(1234.726562 0)"/>
      <use xlink:href="#DejaVuSans-20" transform="translate(1298.105469 0)"/>
      <use xlink:href="#DejaVuSans-32" transform="translate(1329.892578 0)"/>
      <use xlink:href="#DejaVuSans-29" transform="translate(1393.515625 0)"/>
     </g>
    </g>
    <g id="line2d_48">
     <path d="M 376.104375 468.698438 
L 394.104375 468.698438 
L 412.104375 468.698438 
" style="fill: none; stroke: #2ca02c; stroke-width: 1.5; stroke-linecap: square"/>
    </g>
    <g id="text_44">
     <!-- Non-Arrived Vehicles (Run 3) -->
     <g transform="translate(426.504375 474.998438) scale(0.18 -0.18)">
      <use xlink:href="#DejaVuSans-4e"/>
      <use xlink:href="#DejaVuSans-6f" transform="translate(74.804688 0)"/>
      <use xlink:href="#DejaVuSans-6e" transform="translate(135.986328 0)"/>
      <use xlink:href="#DejaVuSans-2d" transform="translate(199.365234 0)"/>
      <use xlink:href="#DejaVuSans-41" transform="translate(233.199219 0)"/>
      <use xlink:href="#DejaVuSans-72" transform="translate(301.607422 0)"/>
      <use xlink:href="#DejaVuSans-72" transform="translate(340.970703 0)"/>
      <use xlink:href="#DejaVuSans-69" transform="translate(382.083984 0)"/>
      <use xlink:href="#DejaVuSans-76" transform="translate(409.867188 0)"/>
      <use xlink:href="#DejaVuSans-65" transform="translate(469.046875 0)"/>
      <use xlink:href="#DejaVuSans-64" transform="translate(530.570312 0)"/>
      <use xlink:href="#DejaVuSans-20" transform="translate(594.046875 0)"/>
      <use xlink:href="#DejaVuSans-56" transform="translate(625.833984 0)"/>
      <use xlink:href="#DejaVuSans-65" transform="translate(686.492188 0)"/>
      <use xlink:href="#DejaVuSans-68" transform="translate(748.015625 0)"/>
      <use xlink:href="#DejaVuSans-69" transform="translate(811.394531 0)"/>
      <use xlink:href="#DejaVuSans-63" transform="translate(839.177734 0)"/>
      <use xlink:href="#DejaVuSans-6c" transform="translate(894.158203 0)"/>
      <use xlink:href="#DejaVuSans-65" transform="translate(921.941406 0)"/>
      <use xlink:href="#DejaVuSans-73" transform="translate(983.464844 0)"/>
      <use xlink:href="#DejaVuSans-20" transform="translate(1035.564453 0)"/>
      <use xlink:href="#DejaVuSans-28" transform="translate(1067.351562 0)"/>
      <use xlink:href="#DejaVuSans-52" transform="translate(1106.365234 0)"/>
      <use xlink:href="#DejaVuSans-75" transform="translate(1171.347656 0)"/>
      <use xlink:href="#DejaVuSans-6e" transform="translate(1234.726562 0)"/>
      <use xlink:href="#DejaVuSans-20" transform="translate(1298.105469 0)"/>
      <use xlink:href="#DejaVuSans-33" transform="translate(1329.892578 0)"/>
      <use xlink:href="#DejaVuSans-29" transform="translate(1393.515625 0)"/>
     </g>
    </g>
    <g id="line2d_49">
     <path d="M 376.104375 495.119062 
L 394.104375 495.119062 
L 412.104375 495.119062 
" style="fill: none; stroke: #d62728; stroke-width: 1.5; stroke-linecap: square"/>
    </g>
    <g id="text_45">
     <!-- Non-Arrived Vehicles (Run 4) -->
     <g transform="translate(426.504375 501.419062) scale(0.18 -0.18)">
      <use xlink:href="#DejaVuSans-4e"/>
      <use xlink:href="#DejaVuSans-6f" transform="translate(74.804688 0)"/>
      <use xlink:href="#DejaVuSans-6e" transform="translate(135.986328 0)"/>
      <use xlink:href="#DejaVuSans-2d" transform="translate(199.365234 0)"/>
      <use xlink:href="#DejaVuSans-41" transform="translate(233.199219 0)"/>
      <use xlink:href="#DejaVuSans-72" transform="translate(301.607422 0)"/>
      <use xlink:href="#DejaVuSans-72" transform="translate(340.970703 0)"/>
      <use xlink:href="#DejaVuSans-69" transform="translate(382.083984 0)"/>
      <use xlink:href="#DejaVuSans-76" transform="translate(409.867188 0)"/>
      <use xlink:href="#DejaVuSans-65" transform="translate(469.046875 0)"/>
      <use xlink:href="#DejaVuSans-64" transform="translate(530.570312 0)"/>
      <use xlink:href="#DejaVuSans-20" transform="translate(594.046875 0)"/>
      <use xlink:href="#DejaVuSans-56" transform="translate(625.833984 0)"/>
      <use xlink:href="#DejaVuSans-65" transform="translate(686.492188 0)"/>
      <use xlink:href="#DejaVuSans-68" transform="translate(748.015625 0)"/>
      <use xlink:href="#DejaVuSans-69" transform="translate(811.394531 0)"/>
      <use xlink:href="#DejaVuSans-63" transform="translate(839.177734 0)"/>
      <use xlink:href="#DejaVuSans-6c" transform="translate(894.158203 0)"/>
      <use xlink:href="#DejaVuSans-65" transform="translate(921.941406 0)"/>
      <use xlink:href="#DejaVuSans-73" transform="translate(983.464844 0)"/>
      <use xlink:href="#DejaVuSans-20" transform="translate(1035.564453 0)"/>
      <use xlink:href="#DejaVuSans-28" transform="translate(1067.351562 0)"/>
      <use xlink:href="#DejaVuSans-52" transform="translate(1106.365234 0)"/>
      <use xlink:href="#DejaVuSans-75" transform="translate(1171.347656 0)"/>
      <use xlink:href="#DejaVuSans-6e" transform="translate(1234.726562 0)"/>
      <use xlink:href="#DejaVuSans-20" transform="translate(1298.105469 0)"/>
      <use xlink:href="#DejaVuSans-34" transform="translate(1329.892578 0)"/>
      <use xlink:href="#DejaVuSans-29" transform="translate(1393.515625 0)"/>
     </g>
    </g>
    <g id="line2d_50">
     <path d="M 376.104375 521.539688 
L 394.104375 521.539688 
L 412.104375 521.539688 
" style="fill: none; stroke: #9467bd; stroke-width: 1.5; stroke-linecap: square"/>
    </g>
    <g id="text_46">
     <!-- Non-Arrived Vehicles (Run 5) -->
     <g transform="translate(426.504375 527.839688) scale(0.18 -0.18)">
      <use xlink:href="#DejaVuSans-4e"/>
      <use xlink:href="#DejaVuSans-6f" transform="translate(74.804688 0)"/>
      <use xlink:href="#DejaVuSans-6e" transform="translate(135.986328 0)"/>
      <use xlink:href="#DejaVuSans-2d" transform="translate(199.365234 0)"/>
      <use xlink:href="#DejaVuSans-41" transform="translate(233.199219 0)"/>
      <use xlink:href="#DejaVuSans-72" transform="translate(301.607422 0)"/>
      <use xlink:href="#DejaVuSans-72" transform="translate(340.970703 0)"/>
      <use xlink:href="#DejaVuSans-69" transform="translate(382.083984 0)"/>
      <use xlink:href="#DejaVuSans-76" transform="translate(409.867188 0)"/>
      <use xlink:href="#DejaVuSans-65" transform="translate(469.046875 0)"/>
      <use xlink:href="#DejaVuSans-64" transform="translate(530.570312 0)"/>
      <use xlink:href="#DejaVuSans-20" transform="translate(594.046875 0)"/>
      <use xlink:href="#DejaVuSans-56" transform="translate(625.833984 0)"/>
      <use xlink:href="#DejaVuSans-65" transform="translate(686.492188 0)"/>
      <use xlink:href="#DejaVuSans-68" transform="translate(748.015625 0)"/>
      <use xlink:href="#DejaVuSans-69" transform="translate(811.394531 0)"/>
      <use xlink:href="#DejaVuSans-63" transform="translate(839.177734 0)"/>
      <use xlink:href="#DejaVuSans-6c" transform="translate(894.158203 0)"/>
      <use xlink:href="#DejaVuSans-65" transform="translate(921.941406 0)"/>
      <use xlink:href="#DejaVuSans-73" transform="translate(983.464844 0)"/>
      <use xlink:href="#DejaVuSans-20" transform="translate(1035.564453 0)"/>
      <use xlink:href="#DejaVuSans-28" transform="translate(1067.351562 0)"/>
      <use xlink:href="#DejaVuSans-52" transform="translate(1106.365234 0)"/>
      <use xlink:href="#DejaVuSans-75" transform="translate(1171.347656 0)"/>
      <use xlink:href="#DejaVuSans-6e" transform="translate(1234.726562 0)"/>
      <use xlink:href="#DejaVuSans-20" transform="translate(1298.105469 0)"/>
      <use xlink:href="#DejaVuSans-35" transform="translate(1329.892578 0)"/>
      <use xlink:href="#DejaVuSans-29" transform="translate(1393.515625 0)"/>
     </g>
    </g>
   </g>
  </g>
 </g>
 <defs>
  <clipPath id="p2e6df4f2b9">
   <rect x="82.19" y="42" width="618.37" height="262.72"/>
  </clipPath>
  <clipPath id="p3b24386165">
   <rect x="82.19" y="392.28" width="618.37" height="262.72"/>
  </clipPath>
 </defs>
</svg>
